<svg width="3401" height="126" viewBox="0 0 3401 126" fill="none" xmlns="http://www.w3.org/2000/svg">
<mask id="path-1-inside-1_1398_1985" fill="white">
<path fill-rule="evenodd" clip-rule="evenodd" d="M0.941406 0.885742L1388.94 0.885742L2012.94 0.885742L3400.94 0.885742L3379.44 32.1357L3400.94 63.3857L3379.44 94.6357L3400.94 125.886L2012.94 125.886H1388.94L0.941406 125.886L22.4414 94.6357L0.941406 63.3857L22.4414 32.1357L0.941406 0.885742Z"/>
</mask>
<path fill-rule="evenodd" clip-rule="evenodd" d="M0.941406 0.885742L1388.94 0.885742L2012.94 0.885742L3400.94 0.885742L3379.44 32.1357L3400.94 63.3857L3379.44 94.6357L3400.94 125.886L2012.94 125.886H1388.94L0.941406 125.886L22.4414 94.6357L0.941406 63.3857L22.4414 32.1357L0.941406 0.885742Z" fill="#FFD600"/>
<path d="M0.941406 0.885742V-4.11426H-8.56766L-3.17784 3.71978L0.941406 0.885742ZM3400.94 0.885742L3405.06 3.71978L3410.45 -4.11426H3400.94V0.885742ZM3379.44 32.1357L3375.32 29.3017L3373.37 32.1357L3375.32 34.9698L3379.44 32.1357ZM3400.94 63.3857L3405.06 66.2198L3407.01 63.3857L3405.06 60.5517L3400.94 63.3857ZM3379.44 94.6357L3375.32 91.8017L3373.37 94.6357L3375.32 97.4698L3379.44 94.6357ZM3400.94 125.886V130.886H3410.45L3405.06 123.052L3400.94 125.886ZM0.941406 125.886L-3.17784 123.052L-8.56766 130.886H0.941406V125.886ZM22.4414 94.6357L26.5607 97.4698L28.5105 94.6357L26.5607 91.8017L22.4414 94.6357ZM0.941406 63.3857L-3.17784 60.5517L-5.12766 63.3857L-3.17784 66.2198L0.941406 63.3857ZM22.4414 32.1357L26.5607 34.9698L28.5105 32.1357L26.5607 29.3017L22.4414 32.1357ZM1388.94 -4.11426L0.941406 -4.11426V5.88574L1388.94 5.88574V-4.11426ZM1388.94 5.88574L2012.94 5.88574V-4.11426L1388.94 -4.11426V5.88574ZM2012.94 5.88574L3400.94 5.88574V-4.11426L2012.94 -4.11426V5.88574ZM3396.82 -1.9483L3375.32 29.3017L3383.56 34.9698L3405.06 3.71978L3396.82 -1.9483ZM3375.32 34.9698L3396.82 66.2198L3405.06 60.5517L3383.56 29.3017L3375.32 34.9698ZM3396.82 60.5517L3375.32 91.8017L3383.56 97.4698L3405.06 66.2198L3396.82 60.5517ZM3375.32 97.4698L3396.82 128.72L3405.06 123.052L3383.56 91.8017L3375.32 97.4698ZM3400.94 120.886L2012.94 120.886V130.886L3400.94 130.886V120.886ZM2012.94 120.886H1388.94V130.886H2012.94V120.886ZM0.941406 130.886H1388.94V120.886L0.941406 120.886V130.886ZM18.3222 91.8017L-3.17784 123.052L5.06065 128.72L26.5607 97.4698L18.3222 91.8017ZM-3.17784 66.2198L18.3222 97.4698L26.5607 91.8017L5.06065 60.5517L-3.17784 66.2198ZM18.3222 29.3017L-3.17784 60.5517L5.06065 66.2198L26.5607 34.9698L18.3222 29.3017ZM-3.17784 3.71978L18.3222 34.9698L26.5607 29.3017L5.06065 -1.9483L-3.17784 3.71978Z" fill="#474747" mask="url(#path-1-inside-1_1398_1985)"/>
<mask id="path-3-inside-2_1398_1985" fill="white">
<path fill-rule="evenodd" clip-rule="evenodd" d="M21.9414 13.8857L1392.39 13.8857L2008.5 13.8857L3378.94 13.8857L3357.71 38.6358L3378.94 63.3858L3357.71 88.1359L3378.94 112.886L2008.5 112.886H1392.39L21.9414 112.886L43.1695 88.1359L21.9414 63.3858L43.1695 38.6358L21.9414 13.8857Z"/>
</mask>
<path fill-rule="evenodd" clip-rule="evenodd" d="M21.9414 13.8857L1392.39 13.8857L2008.5 13.8857L3378.94 13.8857L3357.71 38.6358L3378.94 63.3858L3357.71 88.1359L3378.94 112.886L2008.5 112.886H1392.39L21.9414 112.886L43.1695 88.1359L21.9414 63.3858L43.1695 38.6358L21.9414 13.8857Z" fill="#FFD600"/>
<path d="M21.9414 13.8857V8.88574H11.0657L18.1462 17.1409L21.9414 13.8857ZM3378.94 13.8857L3382.74 17.1409L3389.82 8.88574L3378.94 8.88574V13.8857ZM3357.71 38.6358L3353.92 35.3806L3351.13 38.6358L3353.92 41.891L3357.71 38.6358ZM3378.94 63.3858L3382.74 66.641L3385.53 63.3858L3382.74 60.1307L3378.94 63.3858ZM3357.71 88.1359L3353.92 84.8807L3351.13 88.1359L3353.92 91.391L3357.71 88.1359ZM3378.94 112.886V117.886H3389.82L3382.74 109.631L3378.94 112.886ZM21.9414 112.886L18.1462 109.631L11.0657 117.886H21.9414V112.886ZM43.1695 88.1359L46.9648 91.3911L49.7567 88.1359L46.9648 84.8807L43.1695 88.1359ZM21.9414 63.3858L18.1462 60.1307L15.3542 63.3858L18.1462 66.641L21.9414 63.3858ZM43.1695 38.6358L46.9648 41.891L49.7567 38.6358L46.9648 35.3806L43.1695 38.6358ZM1392.39 8.88574L21.9414 8.88574V18.8857L1392.39 18.8857V8.88574ZM1392.39 18.8857L2008.5 18.8857V8.88574L1392.39 8.88574V18.8857ZM2008.5 18.8857L3378.94 18.8857V8.88574L2008.5 8.88574V18.8857ZM3375.15 10.6306L3353.92 35.3806L3361.51 41.891L3382.74 17.1409L3375.15 10.6306ZM3353.92 41.891L3375.15 66.641L3382.74 60.1307L3361.51 35.3806L3353.92 41.891ZM3375.15 60.1307L3353.92 84.8807L3361.51 91.391L3382.74 66.641L3375.15 60.1307ZM3353.92 91.391L3375.15 116.141L3382.74 109.631L3361.51 84.8807L3353.92 91.391ZM3378.94 107.886L2008.5 107.886V117.886L3378.94 117.886V107.886ZM2008.5 107.886H1392.39V117.886H2008.5V107.886ZM21.9414 117.886L1392.39 117.886V107.886L21.9414 107.886V117.886ZM39.3743 84.8807L18.1462 109.631L25.7367 116.141L46.9648 91.3911L39.3743 84.8807ZM18.1462 66.641L39.3743 91.3911L46.9648 84.8807L25.7367 60.1307L18.1462 66.641ZM39.3743 35.3806L18.1462 60.1307L25.7367 66.641L46.9648 41.891L39.3743 35.3806ZM18.1462 17.1409L39.3743 41.891L46.9648 35.3806L25.7367 10.6306L18.1462 17.1409Z" fill="#474747" mask="url(#path-3-inside-2_1398_1985)"/>
<path d="M1362.07 87.0615C1361.42 87.0615 1360.08 87.0029 1358.03 86.8857C1357.58 86.8467 1357.21 86.6709 1356.91 86.3584C1356.64 86.0459 1356.51 85.665 1356.53 85.2158C1356.9 78.2432 1357.62 71.1826 1358.7 64.0342C1359.79 56.8662 1360.96 50.8799 1362.19 46.0752C1362.3 45.4111 1362.76 45.0107 1363.56 44.874C1364.6 44.7568 1366.7 44.6982 1369.86 44.6982C1373.03 44.6982 1375.14 44.7568 1376.22 44.874C1377 44.9912 1377.48 45.3916 1377.65 46.0752C1378.85 50.7041 1379.97 56.6221 1381.02 63.8291C1382.1 71.0166 1382.84 78.1455 1383.25 85.2158C1383.27 85.665 1383.14 86.0459 1382.87 86.3584C1382.6 86.6514 1382.23 86.8271 1381.79 86.8857C1380.57 87.0029 1379.12 87.0615 1377.42 87.0615C1375.72 87.0615 1374.29 87.0029 1373.14 86.8857C1372.69 86.8271 1372.31 86.6123 1372 86.2412C1371.71 85.8701 1371.59 85.4404 1371.65 84.9521C1371.94 82.7256 1372.09 80.2939 1372.09 77.6572C1372.09 76.8174 1371.87 76.1533 1371.44 75.665C1371.03 75.1768 1370.54 74.9326 1369.98 74.9326H1369.8C1369.26 74.9326 1368.76 75.1865 1368.31 75.6943C1367.88 76.2021 1367.65 76.8564 1367.63 77.6572C1367.63 80.4502 1367.77 82.9111 1368.04 85.04C1368.1 85.5283 1367.99 85.9482 1367.69 86.2998C1367.4 86.6318 1367.02 86.8271 1366.55 86.8857C1365.42 87.0029 1363.92 87.0615 1362.07 87.0615ZM1369.8 69.1904H1370.04C1370.41 69.1904 1370.69 69.0732 1370.89 68.8389C1371.1 68.6045 1371.2 68.2822 1371.18 67.8721C1371.04 64.2393 1370.8 60.8018 1370.45 57.5596C1370.37 56.9736 1370.24 56.5635 1370.07 56.3291C1369.91 56.0947 1369.75 56.0947 1369.6 56.3291C1369.44 56.5635 1369.32 56.9736 1369.25 57.5596C1368.91 61.1533 1368.72 64.5908 1368.66 67.8721C1368.6 68.2822 1368.68 68.6045 1368.89 68.8389C1369.11 69.0732 1369.41 69.1904 1369.8 69.1904ZM1391.07 87.0615C1389 87.0615 1387.57 87.0029 1386.77 86.8857C1385.73 86.6709 1385.18 86.1924 1385.12 85.4502C1383.66 72.7354 1382.82 59.7568 1382.61 46.5146C1382.61 46.0654 1382.76 45.6943 1383.07 45.4014C1383.39 45.1084 1383.78 44.9326 1384.25 44.874C1384.93 44.7568 1386.33 44.6982 1388.44 44.6982C1390.43 44.6982 1391.84 44.7568 1392.68 44.874C1393.09 44.9131 1393.43 45.0791 1393.68 45.3721C1393.93 45.665 1394.05 46.1045 1394.03 46.6904C1394.01 47.1396 1393.93 48.3311 1393.8 50.2646C1393.68 52.1982 1393.58 53.8877 1393.5 55.333C1393.45 56.7588 1393.42 57.96 1393.42 58.9365C1393.47 63.0967 1393.88 65.1768 1394.62 65.1768C1394.99 65.1768 1395.26 64.8252 1395.44 64.1221C1395.61 63.4189 1395.81 62.1982 1396.02 60.46C1396.06 60.1279 1396.09 59.874 1396.11 59.6982C1396.17 59.1123 1396.28 57.8037 1396.43 55.7725C1396.61 53.7412 1396.75 52.3545 1396.84 51.6123C1397.04 49.7178 1397.37 48.3799 1397.84 47.5986C1398.33 46.7979 1398.97 46.3975 1399.77 46.3975C1400.61 46.3975 1401.29 46.7979 1401.79 47.5986C1402.3 48.3799 1402.67 49.7178 1402.91 51.6123C1402.93 51.8467 1403.02 53.0283 1403.17 55.1572C1403.33 57.2666 1403.46 58.7217 1403.55 59.5225C1403.81 61.6123 1404.03 63.0967 1404.23 63.9756C1404.44 64.8545 1404.75 65.2939 1405.16 65.2939C1405.93 65.2939 1406.31 63.2139 1406.31 59.0537C1406.31 56.5928 1406.15 52.4717 1405.84 46.6904C1405.78 46.1045 1405.88 45.665 1406.13 45.3721C1406.38 45.0791 1406.71 44.9131 1407.1 44.874C1407.9 44.7568 1409.28 44.6982 1411.23 44.6982C1413.32 44.6982 1414.78 44.7568 1415.62 44.874C1416.09 44.9326 1416.46 45.1084 1416.74 45.4014C1417.03 45.6943 1417.18 46.0654 1417.18 46.5146C1416.98 58.8389 1416.14 71.8174 1414.66 85.4502C1414.54 86.2705 1414 86.749 1413.04 86.8857C1411.78 87.0029 1410.37 87.0615 1408.83 87.0615C1406.83 87.0615 1405.52 87.0029 1404.87 86.8857C1403.82 86.7686 1403.2 86.0654 1403.03 84.7764C1402.83 82.8037 1402.43 80.167 1401.82 76.8662C1401.26 73.2725 1400.61 71.4756 1399.89 71.4756C1399.5 71.4756 1399.15 71.9541 1398.84 72.9111C1398.52 73.8486 1398.2 75.2256 1397.87 77.042C1397.62 78.7998 1397.25 81.3779 1396.79 84.7764C1396.63 85.9873 1395.98 86.6904 1394.85 86.8857C1394.25 87.0029 1392.99 87.0615 1391.07 87.0615ZM1422.01 87.0615C1421.37 87.0615 1420.02 87.0029 1417.97 86.8857C1417.52 86.8467 1417.15 86.6709 1416.85 86.3584C1416.58 86.0459 1416.45 85.665 1416.47 85.2158C1416.84 78.2432 1417.57 71.1826 1418.64 64.0342C1419.73 56.8662 1420.9 50.8799 1422.13 46.0752C1422.24 45.4111 1422.7 45.0107 1423.5 44.874C1424.54 44.7568 1426.64 44.6982 1429.8 44.6982C1432.97 44.6982 1435.09 44.7568 1436.16 44.874C1436.94 44.9912 1437.42 45.3916 1437.6 46.0752C1438.79 50.7041 1439.91 56.6221 1440.96 63.8291C1442.04 71.0166 1442.78 78.1455 1443.19 85.2158C1443.21 85.665 1443.08 86.0459 1442.81 86.3584C1442.54 86.6514 1442.18 86.8271 1441.73 86.8857C1440.52 87.0029 1439.06 87.0615 1437.36 87.0615C1435.66 87.0615 1434.24 87.0029 1433.08 86.8857C1432.63 86.8271 1432.25 86.6123 1431.94 86.2412C1431.65 85.8701 1431.53 85.4404 1431.59 84.9521C1431.88 82.7256 1432.03 80.2939 1432.03 77.6572C1432.03 76.8174 1431.81 76.1533 1431.38 75.665C1430.97 75.1768 1430.49 74.9326 1429.92 74.9326H1429.74C1429.2 74.9326 1428.7 75.1865 1428.25 75.6943C1427.82 76.2021 1427.6 76.8564 1427.58 77.6572C1427.58 80.4502 1427.71 82.9111 1427.99 85.04C1428.04 85.5283 1427.93 85.9482 1427.63 86.2998C1427.34 86.6318 1426.96 86.8271 1426.49 86.8857C1425.36 87.0029 1423.87 87.0615 1422.01 87.0615ZM1429.74 69.1904H1429.98C1430.35 69.1904 1430.63 69.0732 1430.83 68.8389C1431.04 68.6045 1431.14 68.2822 1431.12 67.8721C1430.98 64.2393 1430.74 60.8018 1430.39 57.5596C1430.31 56.9736 1430.18 56.5635 1430.01 56.3291C1429.85 56.0947 1429.7 56.0947 1429.54 56.3291C1429.38 56.5635 1429.27 56.9736 1429.19 57.5596C1428.86 61.1533 1428.66 64.5908 1428.6 67.8721C1428.54 68.2822 1428.62 68.6045 1428.84 68.8389C1429.05 69.0732 1429.35 69.1904 1429.74 69.1904ZM1449.72 87.0615C1447.93 87.0615 1446.61 87.0029 1445.77 86.8857C1445.36 86.8271 1445 86.6514 1444.69 86.3584C1444.37 86.0654 1444.22 85.7236 1444.22 85.333C1444.22 68.7314 1444.64 55.7529 1445.48 46.3975C1445.5 46.0068 1445.65 45.665 1445.95 45.3721C1446.26 45.0791 1446.6 44.9131 1446.97 44.874C1448.51 44.7568 1451.93 44.6982 1457.22 44.6982C1460.72 44.6982 1463.49 45.4697 1465.54 47.0127C1467.6 48.5557 1468.62 50.7627 1468.62 53.6338C1468.62 56.4072 1467.89 58.8291 1466.42 60.8994C1464.96 62.9502 1463.02 64.5127 1460.59 65.5869C1460.24 65.7236 1460.08 65.9287 1460.1 66.2021C1460.13 66.4756 1460.36 66.6514 1460.77 66.7295C1462.02 67.0225 1463.16 67.5791 1464.2 68.3994C1465.25 69.2197 1466.21 70.3428 1467.07 71.7686C1467.95 73.1943 1468.65 75.0498 1469.18 77.335C1469.71 79.6006 1470.02 82.208 1470.12 85.1572C1470.13 85.5869 1469.98 85.958 1469.65 86.2705C1469.33 86.583 1468.93 86.7881 1468.45 86.8857C1467.31 87.0029 1465.83 87.0615 1463.99 87.0615C1461.98 87.0615 1460.47 87.0029 1459.45 86.8857C1458.42 86.6904 1457.9 86.1729 1457.9 85.333C1457.9 81.4463 1457.77 78.1455 1457.52 75.4307C1457.26 72.6963 1456.75 70.6553 1455.96 69.3076C1455.63 68.8389 1455.36 68.8193 1455.14 69.249C1455.03 69.4639 1454.96 69.7666 1454.94 70.1572C1454.72 73.5947 1455.07 78.5947 1455.96 85.1572C1456.04 85.5869 1455.94 85.9678 1455.64 86.2998C1455.35 86.6318 1454.98 86.8271 1454.53 86.8857C1453.53 87.0029 1451.93 87.0615 1449.72 87.0615ZM1456.2 64.1514C1457.61 63.0576 1458.31 61.5732 1458.31 59.6982C1458.31 58.7412 1458.11 58.0186 1457.72 57.5303C1457.33 57.0225 1456.82 56.7686 1456.2 56.7686H1456.08C1455.52 56.7686 1455.23 57.1885 1455.23 58.0283C1455.23 58.751 1455.22 59.7178 1455.2 60.9287C1455.18 62.1201 1455.17 63.0771 1455.17 63.7998C1455.17 64.542 1455.52 64.6592 1456.2 64.1514ZM1482.74 87.2373C1478.46 87.2373 1475.18 87.1201 1472.9 86.8857C1472.47 86.8271 1472.1 86.6514 1471.79 86.3584C1471.49 86.0459 1471.35 85.665 1471.35 85.2158C1471.35 69.0635 1471.75 56.1045 1472.55 46.3389C1472.57 45.9092 1472.72 45.5674 1473.02 45.3135C1473.33 45.0596 1473.71 44.9131 1474.16 44.874C1475.8 44.7568 1478.32 44.6982 1481.72 44.6982C1486.58 44.6982 1490.42 46.7197 1493.23 50.7627C1496.04 54.7861 1497.45 60.5479 1497.45 68.0479C1497.45 71.6416 1497.14 74.6885 1496.51 77.1885C1495.89 79.6689 1494.93 81.6416 1493.64 83.1064C1492.37 84.5713 1490.85 85.626 1489.07 86.2705C1487.31 86.915 1485.2 87.2373 1482.74 87.2373ZM1483.09 73.6729H1483.27C1484.25 73.6729 1485.08 73.2041 1485.76 72.2666C1486.46 71.3096 1486.81 69.9033 1486.81 68.0479C1486.81 64.415 1486.49 61.6514 1485.85 59.7568C1485.2 57.8428 1484.32 56.8857 1483.21 56.8857H1483.09C1482.82 56.8857 1482.6 56.9736 1482.42 57.1494C1482.26 57.3252 1482.19 57.54 1482.19 57.7939C1482.11 62.7549 1482.11 67.7158 1482.19 72.6768C1482.19 72.9893 1482.27 73.2334 1482.45 73.4092C1482.62 73.585 1482.84 73.6729 1483.09 73.6729ZM1509.37 87.2373C1507.85 87.2373 1506.16 87.0811 1504.3 86.7686C1502.45 86.4365 1500.87 85.9775 1499.56 85.3916C1499.32 85.2744 1499.11 85.0498 1498.91 84.7178C1498.74 84.3857 1498.65 84.0439 1498.65 83.6924L1498.47 72.1201C1498.47 71.2217 1498.79 70.7139 1499.41 70.5967C1500.06 70.46 1500.6 70.7334 1501.05 71.417C1502.75 73.4873 1504.91 74.5225 1507.53 74.5225C1508.52 74.5225 1509.29 74.21 1509.81 73.585C1510.36 72.96 1510.65 72.1982 1510.69 71.2998C1510.71 70.6553 1510.52 70.04 1510.11 69.4541C1509.7 68.8486 1509.15 68.292 1508.46 67.7842C1507.78 67.2764 1507.03 66.7588 1506.21 66.2314C1505.39 65.6846 1504.56 65.0791 1503.72 64.415C1502.9 63.7314 1502.14 62.999 1501.43 62.2178C1500.75 61.417 1500.19 60.4502 1499.76 59.3174C1499.33 58.165 1499.12 56.915 1499.12 55.5674C1499.12 51.9346 1500.16 49.1904 1502.25 47.335C1504.36 45.46 1507.32 44.5225 1511.13 44.5225C1514.12 44.5225 1516.83 44.9229 1519.28 45.7236C1519.94 46.0166 1520.3 46.4951 1520.36 47.1592C1520.5 51.417 1520.59 55.001 1520.65 57.9111C1520.67 58.79 1520.41 59.3076 1519.86 59.4639C1519.31 59.6201 1518.83 59.376 1518.4 58.7314C1517.13 57.4619 1515.47 56.7881 1513.42 56.71C1512.22 56.71 1511.3 56.9639 1510.63 57.4717C1509.97 57.96 1509.64 58.624 1509.64 59.4639C1509.64 60.1084 1509.86 60.7139 1510.31 61.2803C1510.78 61.8467 1511.38 62.3643 1512.13 62.833C1512.87 63.3018 1513.68 63.79 1514.56 64.2979C1515.46 64.8057 1516.35 65.3916 1517.22 66.0557C1518.12 66.7197 1518.93 67.4521 1519.66 68.2529C1520.4 69.0537 1520.98 70.0596 1521.41 71.2705C1521.86 72.4619 1522.08 73.79 1522.06 75.2549C1522.04 79.083 1520.9 82.042 1518.63 84.1318C1516.37 86.2021 1513.28 87.2373 1509.37 87.2373Z" fill="#474747"/>
<path d="M2338.07 87.0615C2337.42 87.0615 2336.08 87.0029 2334.03 86.8857C2333.58 86.8467 2333.21 86.6709 2332.91 86.3584C2332.64 86.0459 2332.51 85.665 2332.53 85.2158C2332.9 78.2432 2333.62 71.1826 2334.7 64.0342C2335.79 56.8662 2336.96 50.8799 2338.19 46.0752C2338.3 45.4111 2338.76 45.0107 2339.56 44.874C2340.6 44.7568 2342.7 44.6982 2345.86 44.6982C2349.03 44.6982 2351.14 44.7568 2352.22 44.874C2353 44.9912 2353.48 45.3916 2353.65 46.0752C2354.85 50.7041 2355.97 56.6221 2357.02 63.8291C2358.1 71.0166 2358.84 78.1455 2359.25 85.2158C2359.27 85.665 2359.14 86.0459 2358.87 86.3584C2358.6 86.6514 2358.23 86.8271 2357.79 86.8857C2356.57 87.0029 2355.12 87.0615 2353.42 87.0615C2351.72 87.0615 2350.29 87.0029 2349.14 86.8857C2348.69 86.8271 2348.31 86.6123 2348 86.2412C2347.71 85.8701 2347.59 85.4404 2347.65 84.9521C2347.94 82.7256 2348.09 80.2939 2348.09 77.6572C2348.09 76.8174 2347.87 76.1533 2347.44 75.665C2347.03 75.1768 2346.54 74.9326 2345.98 74.9326H2345.8C2345.26 74.9326 2344.76 75.1865 2344.31 75.6943C2343.88 76.2021 2343.65 76.8564 2343.63 77.6572C2343.63 80.4502 2343.77 82.9111 2344.04 85.04C2344.1 85.5283 2343.99 85.9482 2343.69 86.2998C2343.4 86.6318 2343.02 86.8271 2342.55 86.8857C2341.42 87.0029 2339.92 87.0615 2338.07 87.0615ZM2345.8 69.1904H2346.04C2346.41 69.1904 2346.69 69.0732 2346.89 68.8389C2347.1 68.6045 2347.2 68.2822 2347.18 67.8721C2347.04 64.2393 2346.8 60.8018 2346.45 57.5596C2346.37 56.9736 2346.24 56.5635 2346.07 56.3291C2345.91 56.0947 2345.75 56.0947 2345.6 56.3291C2345.44 56.5635 2345.32 56.9736 2345.25 57.5596C2344.91 61.1533 2344.72 64.5908 2344.66 67.8721C2344.6 68.2822 2344.68 68.6045 2344.89 68.8389C2345.11 69.0732 2345.41 69.1904 2345.8 69.1904ZM2367.07 87.0615C2365 87.0615 2363.57 87.0029 2362.77 86.8857C2361.73 86.6709 2361.18 86.1924 2361.12 85.4502C2359.66 72.7354 2358.82 59.7568 2358.61 46.5146C2358.61 46.0654 2358.76 45.6943 2359.07 45.4014C2359.39 45.1084 2359.78 44.9326 2360.25 44.874C2360.93 44.7568 2362.33 44.6982 2364.44 44.6982C2366.43 44.6982 2367.84 44.7568 2368.68 44.874C2369.09 44.9131 2369.43 45.0791 2369.68 45.3721C2369.93 45.665 2370.05 46.1045 2370.03 46.6904C2370.01 47.1396 2369.93 48.3311 2369.8 50.2646C2369.68 52.1982 2369.58 53.8877 2369.5 55.333C2369.45 56.7588 2369.42 57.96 2369.42 58.9365C2369.47 63.0967 2369.88 65.1768 2370.62 65.1768C2370.99 65.1768 2371.26 64.8252 2371.44 64.1221C2371.61 63.4189 2371.81 62.1982 2372.02 60.46C2372.06 60.1279 2372.09 59.874 2372.11 59.6982C2372.17 59.1123 2372.28 57.8037 2372.43 55.7725C2372.61 53.7412 2372.75 52.3545 2372.84 51.6123C2373.04 49.7178 2373.37 48.3799 2373.84 47.5986C2374.33 46.7979 2374.97 46.3975 2375.77 46.3975C2376.61 46.3975 2377.29 46.7979 2377.79 47.5986C2378.3 48.3799 2378.67 49.7178 2378.91 51.6123C2378.93 51.8467 2379.02 53.0283 2379.17 55.1572C2379.33 57.2666 2379.46 58.7217 2379.55 59.5225C2379.81 61.6123 2380.03 63.0967 2380.23 63.9756C2380.44 64.8545 2380.75 65.2939 2381.16 65.2939C2381.93 65.2939 2382.31 63.2139 2382.31 59.0537C2382.31 56.5928 2382.15 52.4717 2381.84 46.6904C2381.78 46.1045 2381.88 45.665 2382.13 45.3721C2382.38 45.0791 2382.71 44.9131 2383.1 44.874C2383.9 44.7568 2385.28 44.6982 2387.23 44.6982C2389.32 44.6982 2390.78 44.7568 2391.62 44.874C2392.09 44.9326 2392.46 45.1084 2392.74 45.4014C2393.03 45.6943 2393.18 46.0654 2393.18 46.5146C2392.98 58.8389 2392.14 71.8174 2390.66 85.4502C2390.54 86.2705 2390 86.749 2389.04 86.8857C2387.78 87.0029 2386.37 87.0615 2384.83 87.0615C2382.83 87.0615 2381.52 87.0029 2380.87 86.8857C2379.82 86.7686 2379.2 86.0654 2379.03 84.7764C2378.83 82.8037 2378.43 80.167 2377.82 76.8662C2377.26 73.2725 2376.61 71.4756 2375.89 71.4756C2375.5 71.4756 2375.15 71.9541 2374.84 72.9111C2374.52 73.8486 2374.2 75.2256 2373.87 77.042C2373.62 78.7998 2373.25 81.3779 2372.79 84.7764C2372.63 85.9873 2371.98 86.6904 2370.85 86.8857C2370.25 87.0029 2368.99 87.0615 2367.07 87.0615ZM2398.01 87.0615C2397.37 87.0615 2396.02 87.0029 2393.97 86.8857C2393.52 86.8467 2393.15 86.6709 2392.85 86.3584C2392.58 86.0459 2392.45 85.665 2392.47 85.2158C2392.84 78.2432 2393.57 71.1826 2394.64 64.0342C2395.73 56.8662 2396.9 50.8799 2398.13 46.0752C2398.24 45.4111 2398.7 45.0107 2399.5 44.874C2400.54 44.7568 2402.64 44.6982 2405.8 44.6982C2408.97 44.6982 2411.09 44.7568 2412.16 44.874C2412.94 44.9912 2413.42 45.3916 2413.6 46.0752C2414.79 50.7041 2415.91 56.6221 2416.96 63.8291C2418.04 71.0166 2418.78 78.1455 2419.19 85.2158C2419.21 85.665 2419.08 86.0459 2418.81 86.3584C2418.54 86.6514 2418.18 86.8271 2417.73 86.8857C2416.52 87.0029 2415.06 87.0615 2413.36 87.0615C2411.66 87.0615 2410.24 87.0029 2409.08 86.8857C2408.63 86.8271 2408.25 86.6123 2407.94 86.2412C2407.65 85.8701 2407.53 85.4404 2407.59 84.9521C2407.88 82.7256 2408.03 80.2939 2408.03 77.6572C2408.03 76.8174 2407.81 76.1533 2407.38 75.665C2406.97 75.1768 2406.49 74.9326 2405.92 74.9326H2405.74C2405.2 74.9326 2404.7 75.1865 2404.25 75.6943C2403.82 76.2021 2403.6 76.8564 2403.58 77.6572C2403.58 80.4502 2403.71 82.9111 2403.99 85.04C2404.04 85.5283 2403.93 85.9482 2403.63 86.2998C2403.34 86.6318 2402.96 86.8271 2402.49 86.8857C2401.36 87.0029 2399.87 87.0615 2398.01 87.0615ZM2405.74 69.1904H2405.98C2406.35 69.1904 2406.63 69.0732 2406.83 68.8389C2407.04 68.6045 2407.14 68.2822 2407.12 67.8721C2406.98 64.2393 2406.74 60.8018 2406.39 57.5596C2406.31 56.9736 2406.18 56.5635 2406.01 56.3291C2405.85 56.0947 2405.7 56.0947 2405.54 56.3291C2405.38 56.5635 2405.27 56.9736 2405.19 57.5596C2404.86 61.1533 2404.66 64.5908 2404.6 67.8721C2404.54 68.2822 2404.62 68.6045 2404.84 68.8389C2405.05 69.0732 2405.35 69.1904 2405.74 69.1904ZM2425.72 87.0615C2423.93 87.0615 2422.61 87.0029 2421.77 86.8857C2421.36 86.8271 2421 86.6514 2420.69 86.3584C2420.37 86.0654 2420.22 85.7236 2420.22 85.333C2420.22 68.7314 2420.64 55.7529 2421.48 46.3975C2421.5 46.0068 2421.65 45.665 2421.95 45.3721C2422.26 45.0791 2422.6 44.9131 2422.97 44.874C2424.51 44.7568 2427.93 44.6982 2433.22 44.6982C2436.72 44.6982 2439.49 45.4697 2441.54 47.0127C2443.6 48.5557 2444.62 50.7627 2444.62 53.6338C2444.62 56.4072 2443.89 58.8291 2442.42 60.8994C2440.96 62.9502 2439.02 64.5127 2436.59 65.5869C2436.24 65.7236 2436.08 65.9287 2436.1 66.2021C2436.13 66.4756 2436.36 66.6514 2436.77 66.7295C2438.02 67.0225 2439.16 67.5791 2440.2 68.3994C2441.25 69.2197 2442.21 70.3428 2443.07 71.7686C2443.95 73.1943 2444.65 75.0498 2445.18 77.335C2445.71 79.6006 2446.02 82.208 2446.12 85.1572C2446.13 85.5869 2445.98 85.958 2445.65 86.2705C2445.33 86.583 2444.93 86.7881 2444.45 86.8857C2443.31 87.0029 2441.83 87.0615 2439.99 87.0615C2437.98 87.0615 2436.47 87.0029 2435.45 86.8857C2434.42 86.6904 2433.9 86.1729 2433.9 85.333C2433.9 81.4463 2433.77 78.1455 2433.52 75.4307C2433.26 72.6963 2432.75 70.6553 2431.96 69.3076C2431.63 68.8389 2431.36 68.8193 2431.14 69.249C2431.03 69.4639 2430.96 69.7666 2430.94 70.1572C2430.72 73.5947 2431.07 78.5947 2431.96 85.1572C2432.04 85.5869 2431.94 85.9678 2431.64 86.2998C2431.35 86.6318 2430.98 86.8271 2430.53 86.8857C2429.53 87.0029 2427.93 87.0615 2425.72 87.0615ZM2432.2 64.1514C2433.61 63.0576 2434.31 61.5732 2434.31 59.6982C2434.31 58.7412 2434.11 58.0186 2433.72 57.5303C2433.33 57.0225 2432.82 56.7686 2432.2 56.7686H2432.08C2431.52 56.7686 2431.23 57.1885 2431.23 58.0283C2431.23 58.751 2431.22 59.7178 2431.2 60.9287C2431.18 62.1201 2431.17 63.0771 2431.17 63.7998C2431.17 64.542 2431.52 64.6592 2432.2 64.1514ZM2458.74 87.2373C2454.46 87.2373 2451.18 87.1201 2448.9 86.8857C2448.47 86.8271 2448.1 86.6514 2447.79 86.3584C2447.49 86.0459 2447.35 85.665 2447.35 85.2158C2447.35 69.0635 2447.75 56.1045 2448.55 46.3389C2448.57 45.9092 2448.72 45.5674 2449.02 45.3135C2449.33 45.0596 2449.71 44.9131 2450.16 44.874C2451.8 44.7568 2454.32 44.6982 2457.72 44.6982C2462.58 44.6982 2466.42 46.7197 2469.23 50.7627C2472.04 54.7861 2473.45 60.5479 2473.45 68.0479C2473.45 71.6416 2473.14 74.6885 2472.51 77.1885C2471.89 79.6689 2470.93 81.6416 2469.64 83.1064C2468.37 84.5713 2466.85 85.626 2465.07 86.2705C2463.31 86.915 2461.2 87.2373 2458.74 87.2373ZM2459.09 73.6729H2459.27C2460.25 73.6729 2461.08 73.2041 2461.76 72.2666C2462.46 71.3096 2462.81 69.9033 2462.81 68.0479C2462.81 64.415 2462.49 61.6514 2461.85 59.7568C2461.2 57.8428 2460.32 56.8857 2459.21 56.8857H2459.09C2458.82 56.8857 2458.6 56.9736 2458.42 57.1494C2458.26 57.3252 2458.19 57.54 2458.19 57.7939C2458.11 62.7549 2458.11 67.7158 2458.19 72.6768C2458.19 72.9893 2458.27 73.2334 2458.45 73.4092C2458.62 73.585 2458.84 73.6729 2459.09 73.6729ZM2485.37 87.2373C2483.85 87.2373 2482.16 87.0811 2480.3 86.7686C2478.45 86.4365 2476.87 85.9775 2475.56 85.3916C2475.32 85.2744 2475.11 85.0498 2474.91 84.7178C2474.74 84.3857 2474.65 84.0439 2474.65 83.6924L2474.47 72.1201C2474.47 71.2217 2474.79 70.7139 2475.41 70.5967C2476.06 70.46 2476.6 70.7334 2477.05 71.417C2478.75 73.4873 2480.91 74.5225 2483.53 74.5225C2484.52 74.5225 2485.29 74.21 2485.81 73.585C2486.36 72.96 2486.65 72.1982 2486.69 71.2998C2486.71 70.6553 2486.52 70.04 2486.11 69.4541C2485.7 68.8486 2485.15 68.292 2484.46 67.7842C2483.78 67.2764 2483.03 66.7588 2482.21 66.2314C2481.39 65.6846 2480.56 65.0791 2479.72 64.415C2478.9 63.7314 2478.14 62.999 2477.43 62.2178C2476.75 61.417 2476.19 60.4502 2475.76 59.3174C2475.33 58.165 2475.12 56.915 2475.12 55.5674C2475.12 51.9346 2476.16 49.1904 2478.25 47.335C2480.36 45.46 2483.32 44.5225 2487.13 44.5225C2490.12 44.5225 2492.83 44.9229 2495.28 45.7236C2495.94 46.0166 2496.3 46.4951 2496.36 47.1592C2496.5 51.417 2496.59 55.001 2496.65 57.9111C2496.67 58.79 2496.41 59.3076 2495.86 59.4639C2495.31 59.6201 2494.83 59.376 2494.4 58.7314C2493.13 57.4619 2491.47 56.7881 2489.42 56.71C2488.22 56.71 2487.3 56.9639 2486.63 57.4717C2485.97 57.96 2485.64 58.624 2485.64 59.4639C2485.64 60.1084 2485.86 60.7139 2486.31 61.2803C2486.78 61.8467 2487.38 62.3643 2488.13 62.833C2488.87 63.3018 2489.68 63.79 2490.56 64.2979C2491.46 64.8057 2492.35 65.3916 2493.22 66.0557C2494.12 66.7197 2494.93 67.4521 2495.66 68.2529C2496.4 69.0537 2496.98 70.0596 2497.41 71.2705C2497.86 72.4619 2498.08 73.79 2498.06 75.2549C2498.04 79.083 2496.9 82.042 2494.63 84.1318C2492.37 86.2021 2489.28 87.2373 2485.37 87.2373Z" fill="#474747"/>
<path d="M1837.07 87.0615C1836.42 87.0615 1835.08 87.0029 1833.03 86.8857C1832.58 86.8467 1832.21 86.6709 1831.91 86.3584C1831.64 86.0459 1831.51 85.665 1831.53 85.2158C1831.9 78.2432 1832.62 71.1826 1833.7 64.0342C1834.79 56.8662 1835.96 50.8799 1837.19 46.0752C1837.3 45.4111 1837.76 45.0107 1838.56 44.874C1839.6 44.7568 1841.7 44.6982 1844.86 44.6982C1848.03 44.6982 1850.14 44.7568 1851.22 44.874C1852 44.9912 1852.48 45.3916 1852.65 46.0752C1853.85 50.7041 1854.97 56.6221 1856.02 63.8291C1857.1 71.0166 1857.84 78.1455 1858.25 85.2158C1858.27 85.665 1858.14 86.0459 1857.87 86.3584C1857.6 86.6514 1857.23 86.8271 1856.79 86.8857C1855.57 87.0029 1854.12 87.0615 1852.42 87.0615C1850.72 87.0615 1849.29 87.0029 1848.14 86.8857C1847.69 86.8271 1847.31 86.6123 1847 86.2412C1846.71 85.8701 1846.59 85.4404 1846.65 84.9521C1846.94 82.7256 1847.09 80.2939 1847.09 77.6572C1847.09 76.8174 1846.87 76.1533 1846.44 75.665C1846.03 75.1768 1845.54 74.9326 1844.98 74.9326H1844.8C1844.26 74.9326 1843.76 75.1865 1843.31 75.6943C1842.88 76.2021 1842.65 76.8564 1842.63 77.6572C1842.63 80.4502 1842.77 82.9111 1843.04 85.04C1843.1 85.5283 1842.99 85.9482 1842.69 86.2998C1842.4 86.6318 1842.02 86.8271 1841.55 86.8857C1840.42 87.0029 1838.92 87.0615 1837.07 87.0615ZM1844.8 69.1904H1845.04C1845.41 69.1904 1845.69 69.0732 1845.89 68.8389C1846.1 68.6045 1846.2 68.2822 1846.18 67.8721C1846.04 64.2393 1845.8 60.8018 1845.45 57.5596C1845.37 56.9736 1845.24 56.5635 1845.07 56.3291C1844.91 56.0947 1844.75 56.0947 1844.6 56.3291C1844.44 56.5635 1844.32 56.9736 1844.25 57.5596C1843.91 61.1533 1843.72 64.5908 1843.66 67.8721C1843.6 68.2822 1843.68 68.6045 1843.89 68.8389C1844.11 69.0732 1844.41 69.1904 1844.8 69.1904ZM1866.07 87.0615C1864 87.0615 1862.57 87.0029 1861.77 86.8857C1860.73 86.6709 1860.18 86.1924 1860.12 85.4502C1858.66 72.7354 1857.82 59.7568 1857.61 46.5146C1857.61 46.0654 1857.76 45.6943 1858.07 45.4014C1858.39 45.1084 1858.78 44.9326 1859.25 44.874C1859.93 44.7568 1861.33 44.6982 1863.44 44.6982C1865.43 44.6982 1866.84 44.7568 1867.68 44.874C1868.09 44.9131 1868.43 45.0791 1868.68 45.3721C1868.93 45.665 1869.05 46.1045 1869.03 46.6904C1869.01 47.1396 1868.93 48.3311 1868.8 50.2646C1868.68 52.1982 1868.58 53.8877 1868.5 55.333C1868.45 56.7588 1868.42 57.96 1868.42 58.9365C1868.47 63.0967 1868.88 65.1768 1869.62 65.1768C1869.99 65.1768 1870.26 64.8252 1870.44 64.1221C1870.61 63.4189 1870.81 62.1982 1871.02 60.46C1871.06 60.1279 1871.09 59.874 1871.11 59.6982C1871.17 59.1123 1871.28 57.8037 1871.43 55.7725C1871.61 53.7412 1871.75 52.3545 1871.84 51.6123C1872.04 49.7178 1872.37 48.3799 1872.84 47.5986C1873.33 46.7979 1873.97 46.3975 1874.77 46.3975C1875.61 46.3975 1876.29 46.7979 1876.79 47.5986C1877.3 48.3799 1877.67 49.7178 1877.91 51.6123C1877.93 51.8467 1878.02 53.0283 1878.17 55.1572C1878.33 57.2666 1878.46 58.7217 1878.55 59.5225C1878.81 61.6123 1879.03 63.0967 1879.23 63.9756C1879.44 64.8545 1879.75 65.2939 1880.16 65.2939C1880.93 65.2939 1881.31 63.2139 1881.31 59.0537C1881.31 56.5928 1881.15 52.4717 1880.84 46.6904C1880.78 46.1045 1880.88 45.665 1881.13 45.3721C1881.38 45.0791 1881.71 44.9131 1882.1 44.874C1882.9 44.7568 1884.28 44.6982 1886.23 44.6982C1888.32 44.6982 1889.78 44.7568 1890.62 44.874C1891.09 44.9326 1891.46 45.1084 1891.74 45.4014C1892.03 45.6943 1892.18 46.0654 1892.18 46.5146C1891.98 58.8389 1891.14 71.8174 1889.66 85.4502C1889.54 86.2705 1889 86.749 1888.04 86.8857C1886.78 87.0029 1885.37 87.0615 1883.83 87.0615C1881.83 87.0615 1880.52 87.0029 1879.87 86.8857C1878.82 86.7686 1878.2 86.0654 1878.03 84.7764C1877.83 82.8037 1877.43 80.167 1876.82 76.8662C1876.26 73.2725 1875.61 71.4756 1874.89 71.4756C1874.5 71.4756 1874.15 71.9541 1873.84 72.9111C1873.52 73.8486 1873.2 75.2256 1872.87 77.042C1872.62 78.7998 1872.25 81.3779 1871.79 84.7764C1871.63 85.9873 1870.98 86.6904 1869.85 86.8857C1869.25 87.0029 1867.99 87.0615 1866.07 87.0615ZM1897.01 87.0615C1896.37 87.0615 1895.02 87.0029 1892.97 86.8857C1892.52 86.8467 1892.15 86.6709 1891.85 86.3584C1891.58 86.0459 1891.45 85.665 1891.47 85.2158C1891.84 78.2432 1892.57 71.1826 1893.64 64.0342C1894.73 56.8662 1895.9 50.8799 1897.13 46.0752C1897.24 45.4111 1897.7 45.0107 1898.5 44.874C1899.54 44.7568 1901.64 44.6982 1904.8 44.6982C1907.97 44.6982 1910.09 44.7568 1911.16 44.874C1911.94 44.9912 1912.42 45.3916 1912.6 46.0752C1913.79 50.7041 1914.91 56.6221 1915.96 63.8291C1917.04 71.0166 1917.78 78.1455 1918.19 85.2158C1918.21 85.665 1918.08 86.0459 1917.81 86.3584C1917.54 86.6514 1917.18 86.8271 1916.73 86.8857C1915.52 87.0029 1914.06 87.0615 1912.36 87.0615C1910.66 87.0615 1909.24 87.0029 1908.08 86.8857C1907.63 86.8271 1907.25 86.6123 1906.94 86.2412C1906.65 85.8701 1906.53 85.4404 1906.59 84.9521C1906.88 82.7256 1907.03 80.2939 1907.03 77.6572C1907.03 76.8174 1906.81 76.1533 1906.38 75.665C1905.97 75.1768 1905.49 74.9326 1904.92 74.9326H1904.74C1904.2 74.9326 1903.7 75.1865 1903.25 75.6943C1902.82 76.2021 1902.6 76.8564 1902.58 77.6572C1902.58 80.4502 1902.71 82.9111 1902.99 85.04C1903.04 85.5283 1902.93 85.9482 1902.63 86.2998C1902.34 86.6318 1901.96 86.8271 1901.49 86.8857C1900.36 87.0029 1898.87 87.0615 1897.01 87.0615ZM1904.74 69.1904H1904.98C1905.35 69.1904 1905.63 69.0732 1905.83 68.8389C1906.04 68.6045 1906.14 68.2822 1906.12 67.8721C1905.98 64.2393 1905.74 60.8018 1905.39 57.5596C1905.31 56.9736 1905.18 56.5635 1905.01 56.3291C1904.85 56.0947 1904.7 56.0947 1904.54 56.3291C1904.38 56.5635 1904.27 56.9736 1904.19 57.5596C1903.86 61.1533 1903.66 64.5908 1903.6 67.8721C1903.54 68.2822 1903.62 68.6045 1903.84 68.8389C1904.05 69.0732 1904.35 69.1904 1904.74 69.1904ZM1924.72 87.0615C1922.93 87.0615 1921.61 87.0029 1920.77 86.8857C1920.36 86.8271 1920 86.6514 1919.69 86.3584C1919.37 86.0654 1919.22 85.7236 1919.22 85.333C1919.22 68.7314 1919.64 55.7529 1920.48 46.3975C1920.5 46.0068 1920.65 45.665 1920.95 45.3721C1921.26 45.0791 1921.6 44.9131 1921.97 44.874C1923.51 44.7568 1926.93 44.6982 1932.22 44.6982C1935.72 44.6982 1938.49 45.4697 1940.54 47.0127C1942.6 48.5557 1943.62 50.7627 1943.62 53.6338C1943.62 56.4072 1942.89 58.8291 1941.42 60.8994C1939.96 62.9502 1938.02 64.5127 1935.59 65.5869C1935.24 65.7236 1935.08 65.9287 1935.1 66.2021C1935.13 66.4756 1935.36 66.6514 1935.77 66.7295C1937.02 67.0225 1938.16 67.5791 1939.2 68.3994C1940.25 69.2197 1941.21 70.3428 1942.07 71.7686C1942.95 73.1943 1943.65 75.0498 1944.18 77.335C1944.71 79.6006 1945.02 82.208 1945.12 85.1572C1945.13 85.5869 1944.98 85.958 1944.65 86.2705C1944.33 86.583 1943.93 86.7881 1943.45 86.8857C1942.31 87.0029 1940.83 87.0615 1938.99 87.0615C1936.98 87.0615 1935.47 87.0029 1934.45 86.8857C1933.42 86.6904 1932.9 86.1729 1932.9 85.333C1932.9 81.4463 1932.77 78.1455 1932.52 75.4307C1932.26 72.6963 1931.75 70.6553 1930.96 69.3076C1930.63 68.8389 1930.36 68.8193 1930.14 69.249C1930.03 69.4639 1929.96 69.7666 1929.94 70.1572C1929.72 73.5947 1930.07 78.5947 1930.96 85.1572C1931.04 85.5869 1930.94 85.9678 1930.64 86.2998C1930.35 86.6318 1929.98 86.8271 1929.53 86.8857C1928.53 87.0029 1926.93 87.0615 1924.72 87.0615ZM1931.2 64.1514C1932.61 63.0576 1933.31 61.5732 1933.31 59.6982C1933.31 58.7412 1933.11 58.0186 1932.72 57.5303C1932.33 57.0225 1931.82 56.7686 1931.2 56.7686H1931.08C1930.52 56.7686 1930.23 57.1885 1930.23 58.0283C1930.23 58.751 1930.22 59.7178 1930.2 60.9287C1930.18 62.1201 1930.17 63.0771 1930.17 63.7998C1930.17 64.542 1930.52 64.6592 1931.2 64.1514ZM1957.74 87.2373C1953.46 87.2373 1950.18 87.1201 1947.9 86.8857C1947.47 86.8271 1947.1 86.6514 1946.79 86.3584C1946.49 86.0459 1946.35 85.665 1946.35 85.2158C1946.35 69.0635 1946.75 56.1045 1947.55 46.3389C1947.57 45.9092 1947.72 45.5674 1948.02 45.3135C1948.33 45.0596 1948.71 44.9131 1949.16 44.874C1950.8 44.7568 1953.32 44.6982 1956.72 44.6982C1961.58 44.6982 1965.42 46.7197 1968.23 50.7627C1971.04 54.7861 1972.45 60.5479 1972.45 68.0479C1972.45 71.6416 1972.14 74.6885 1971.51 77.1885C1970.89 79.6689 1969.93 81.6416 1968.64 83.1064C1967.37 84.5713 1965.85 85.626 1964.07 86.2705C1962.31 86.915 1960.2 87.2373 1957.74 87.2373ZM1958.09 73.6729H1958.27C1959.25 73.6729 1960.08 73.2041 1960.76 72.2666C1961.46 71.3096 1961.81 69.9033 1961.81 68.0479C1961.81 64.415 1961.49 61.6514 1960.85 59.7568C1960.2 57.8428 1959.32 56.8857 1958.21 56.8857H1958.09C1957.82 56.8857 1957.6 56.9736 1957.42 57.1494C1957.26 57.3252 1957.19 57.54 1957.19 57.7939C1957.11 62.7549 1957.11 67.7158 1957.19 72.6768C1957.19 72.9893 1957.27 73.2334 1957.45 73.4092C1957.62 73.585 1957.84 73.6729 1958.09 73.6729ZM1984.37 87.2373C1982.85 87.2373 1981.16 87.0811 1979.3 86.7686C1977.45 86.4365 1975.87 85.9775 1974.56 85.3916C1974.32 85.2744 1974.11 85.0498 1973.91 84.7178C1973.74 84.3857 1973.65 84.0439 1973.65 83.6924L1973.47 72.1201C1973.47 71.2217 1973.79 70.7139 1974.41 70.5967C1975.06 70.46 1975.6 70.7334 1976.05 71.417C1977.75 73.4873 1979.91 74.5225 1982.53 74.5225C1983.52 74.5225 1984.29 74.21 1984.81 73.585C1985.36 72.96 1985.65 72.1982 1985.69 71.2998C1985.71 70.6553 1985.52 70.04 1985.11 69.4541C1984.7 68.8486 1984.15 68.292 1983.46 67.7842C1982.78 67.2764 1982.03 66.7588 1981.21 66.2314C1980.39 65.6846 1979.56 65.0791 1978.72 64.415C1977.9 63.7314 1977.14 62.999 1976.43 62.2178C1975.75 61.417 1975.19 60.4502 1974.76 59.3174C1974.33 58.165 1974.12 56.915 1974.12 55.5674C1974.12 51.9346 1975.16 49.1904 1977.25 47.335C1979.36 45.46 1982.32 44.5225 1986.13 44.5225C1989.12 44.5225 1991.83 44.9229 1994.28 45.7236C1994.94 46.0166 1995.3 46.4951 1995.36 47.1592C1995.5 51.417 1995.59 55.001 1995.65 57.9111C1995.67 58.79 1995.41 59.3076 1994.86 59.4639C1994.31 59.6201 1993.83 59.376 1993.4 58.7314C1992.13 57.4619 1990.47 56.7881 1988.42 56.71C1987.22 56.71 1986.3 56.9639 1985.63 57.4717C1984.97 57.96 1984.64 58.624 1984.64 59.4639C1984.64 60.1084 1984.86 60.7139 1985.31 61.2803C1985.78 61.8467 1986.38 62.3643 1987.13 62.833C1987.87 63.3018 1988.68 63.79 1989.56 64.2979C1990.46 64.8057 1991.35 65.3916 1992.22 66.0557C1993.12 66.7197 1993.93 67.4521 1994.66 68.2529C1995.4 69.0537 1995.98 70.0596 1996.41 71.2705C1996.86 72.4619 1997.08 73.79 1997.06 75.2549C1997.04 79.083 1995.9 82.042 1993.63 84.1318C1991.37 86.2021 1988.28 87.2373 1984.37 87.2373Z" fill="#474747"/>
<path d="M2813.07 87.0615C2812.42 87.0615 2811.08 87.0029 2809.03 86.8857C2808.58 86.8467 2808.21 86.6709 2807.91 86.3584C2807.64 86.0459 2807.51 85.665 2807.53 85.2158C2807.9 78.2432 2808.62 71.1826 2809.7 64.0342C2810.79 56.8662 2811.96 50.8799 2813.19 46.0752C2813.3 45.4111 2813.76 45.0107 2814.56 44.874C2815.6 44.7568 2817.7 44.6982 2820.86 44.6982C2824.03 44.6982 2826.14 44.7568 2827.22 44.874C2828 44.9912 2828.48 45.3916 2828.65 46.0752C2829.85 50.7041 2830.97 56.6221 2832.02 63.8291C2833.1 71.0166 2833.84 78.1455 2834.25 85.2158C2834.27 85.665 2834.14 86.0459 2833.87 86.3584C2833.6 86.6514 2833.23 86.8271 2832.79 86.8857C2831.57 87.0029 2830.12 87.0615 2828.42 87.0615C2826.72 87.0615 2825.29 87.0029 2824.14 86.8857C2823.69 86.8271 2823.31 86.6123 2823 86.2412C2822.71 85.8701 2822.59 85.4404 2822.65 84.9521C2822.94 82.7256 2823.09 80.2939 2823.09 77.6572C2823.09 76.8174 2822.87 76.1533 2822.44 75.665C2822.03 75.1768 2821.54 74.9326 2820.98 74.9326H2820.8C2820.26 74.9326 2819.76 75.1865 2819.31 75.6943C2818.88 76.2021 2818.65 76.8564 2818.63 77.6572C2818.63 80.4502 2818.77 82.9111 2819.04 85.04C2819.1 85.5283 2818.99 85.9482 2818.69 86.2998C2818.4 86.6318 2818.02 86.8271 2817.55 86.8857C2816.42 87.0029 2814.92 87.0615 2813.07 87.0615ZM2820.8 69.1904H2821.04C2821.41 69.1904 2821.69 69.0732 2821.89 68.8389C2822.1 68.6045 2822.2 68.2822 2822.18 67.8721C2822.04 64.2393 2821.8 60.8018 2821.45 57.5596C2821.37 56.9736 2821.24 56.5635 2821.07 56.3291C2820.91 56.0947 2820.75 56.0947 2820.6 56.3291C2820.44 56.5635 2820.32 56.9736 2820.25 57.5596C2819.91 61.1533 2819.72 64.5908 2819.66 67.8721C2819.6 68.2822 2819.68 68.6045 2819.89 68.8389C2820.11 69.0732 2820.41 69.1904 2820.8 69.1904ZM2842.07 87.0615C2840 87.0615 2838.57 87.0029 2837.77 86.8857C2836.73 86.6709 2836.18 86.1924 2836.12 85.4502C2834.66 72.7354 2833.82 59.7568 2833.61 46.5146C2833.61 46.0654 2833.76 45.6943 2834.07 45.4014C2834.39 45.1084 2834.78 44.9326 2835.25 44.874C2835.93 44.7568 2837.33 44.6982 2839.44 44.6982C2841.43 44.6982 2842.84 44.7568 2843.68 44.874C2844.09 44.9131 2844.43 45.0791 2844.68 45.3721C2844.93 45.665 2845.05 46.1045 2845.03 46.6904C2845.01 47.1396 2844.93 48.3311 2844.8 50.2646C2844.68 52.1982 2844.58 53.8877 2844.5 55.333C2844.45 56.7588 2844.42 57.96 2844.42 58.9365C2844.47 63.0967 2844.88 65.1768 2845.62 65.1768C2845.99 65.1768 2846.26 64.8252 2846.44 64.1221C2846.61 63.4189 2846.81 62.1982 2847.02 60.46C2847.06 60.1279 2847.09 59.874 2847.11 59.6982C2847.17 59.1123 2847.28 57.8037 2847.43 55.7725C2847.61 53.7412 2847.75 52.3545 2847.84 51.6123C2848.04 49.7178 2848.37 48.3799 2848.84 47.5986C2849.33 46.7979 2849.97 46.3975 2850.77 46.3975C2851.61 46.3975 2852.29 46.7979 2852.79 47.5986C2853.3 48.3799 2853.67 49.7178 2853.91 51.6123C2853.93 51.8467 2854.02 53.0283 2854.17 55.1572C2854.33 57.2666 2854.46 58.7217 2854.55 59.5225C2854.81 61.6123 2855.03 63.0967 2855.23 63.9756C2855.44 64.8545 2855.75 65.2939 2856.16 65.2939C2856.93 65.2939 2857.31 63.2139 2857.31 59.0537C2857.31 56.5928 2857.15 52.4717 2856.84 46.6904C2856.78 46.1045 2856.88 45.665 2857.13 45.3721C2857.38 45.0791 2857.71 44.9131 2858.1 44.874C2858.9 44.7568 2860.28 44.6982 2862.23 44.6982C2864.32 44.6982 2865.78 44.7568 2866.62 44.874C2867.09 44.9326 2867.46 45.1084 2867.74 45.4014C2868.03 45.6943 2868.18 46.0654 2868.18 46.5146C2867.98 58.8389 2867.14 71.8174 2865.66 85.4502C2865.54 86.2705 2865 86.749 2864.04 86.8857C2862.78 87.0029 2861.37 87.0615 2859.83 87.0615C2857.83 87.0615 2856.52 87.0029 2855.87 86.8857C2854.82 86.7686 2854.2 86.0654 2854.03 84.7764C2853.83 82.8037 2853.43 80.167 2852.82 76.8662C2852.26 73.2725 2851.61 71.4756 2850.89 71.4756C2850.5 71.4756 2850.15 71.9541 2849.84 72.9111C2849.52 73.8486 2849.2 75.2256 2848.87 77.042C2848.62 78.7998 2848.25 81.3779 2847.79 84.7764C2847.63 85.9873 2846.98 86.6904 2845.85 86.8857C2845.25 87.0029 2843.99 87.0615 2842.07 87.0615ZM2873.01 87.0615C2872.37 87.0615 2871.02 87.0029 2868.97 86.8857C2868.52 86.8467 2868.15 86.6709 2867.85 86.3584C2867.58 86.0459 2867.45 85.665 2867.47 85.2158C2867.84 78.2432 2868.57 71.1826 2869.64 64.0342C2870.73 56.8662 2871.9 50.8799 2873.13 46.0752C2873.24 45.4111 2873.7 45.0107 2874.5 44.874C2875.54 44.7568 2877.64 44.6982 2880.8 44.6982C2883.97 44.6982 2886.09 44.7568 2887.16 44.874C2887.94 44.9912 2888.42 45.3916 2888.6 46.0752C2889.79 50.7041 2890.91 56.6221 2891.96 63.8291C2893.04 71.0166 2893.78 78.1455 2894.19 85.2158C2894.21 85.665 2894.08 86.0459 2893.81 86.3584C2893.54 86.6514 2893.18 86.8271 2892.73 86.8857C2891.52 87.0029 2890.06 87.0615 2888.36 87.0615C2886.66 87.0615 2885.24 87.0029 2884.08 86.8857C2883.63 86.8271 2883.25 86.6123 2882.94 86.2412C2882.65 85.8701 2882.53 85.4404 2882.59 84.9521C2882.88 82.7256 2883.03 80.2939 2883.03 77.6572C2883.03 76.8174 2882.81 76.1533 2882.38 75.665C2881.97 75.1768 2881.49 74.9326 2880.92 74.9326H2880.74C2880.2 74.9326 2879.7 75.1865 2879.25 75.6943C2878.82 76.2021 2878.6 76.8564 2878.58 77.6572C2878.58 80.4502 2878.71 82.9111 2878.99 85.04C2879.04 85.5283 2878.93 85.9482 2878.63 86.2998C2878.34 86.6318 2877.96 86.8271 2877.49 86.8857C2876.36 87.0029 2874.87 87.0615 2873.01 87.0615ZM2880.74 69.1904H2880.98C2881.35 69.1904 2881.63 69.0732 2881.83 68.8389C2882.04 68.6045 2882.14 68.2822 2882.12 67.8721C2881.98 64.2393 2881.74 60.8018 2881.39 57.5596C2881.31 56.9736 2881.18 56.5635 2881.01 56.3291C2880.85 56.0947 2880.7 56.0947 2880.54 56.3291C2880.38 56.5635 2880.27 56.9736 2880.19 57.5596C2879.86 61.1533 2879.66 64.5908 2879.6 67.8721C2879.54 68.2822 2879.62 68.6045 2879.84 68.8389C2880.05 69.0732 2880.35 69.1904 2880.74 69.1904ZM2900.72 87.0615C2898.93 87.0615 2897.61 87.0029 2896.77 86.8857C2896.36 86.8271 2896 86.6514 2895.69 86.3584C2895.37 86.0654 2895.22 85.7236 2895.22 85.333C2895.22 68.7314 2895.64 55.7529 2896.48 46.3975C2896.5 46.0068 2896.65 45.665 2896.95 45.3721C2897.26 45.0791 2897.6 44.9131 2897.97 44.874C2899.51 44.7568 2902.93 44.6982 2908.22 44.6982C2911.72 44.6982 2914.49 45.4697 2916.54 47.0127C2918.6 48.5557 2919.62 50.7627 2919.62 53.6338C2919.62 56.4072 2918.89 58.8291 2917.42 60.8994C2915.96 62.9502 2914.02 64.5127 2911.59 65.5869C2911.24 65.7236 2911.08 65.9287 2911.1 66.2021C2911.13 66.4756 2911.36 66.6514 2911.77 66.7295C2913.02 67.0225 2914.16 67.5791 2915.2 68.3994C2916.25 69.2197 2917.21 70.3428 2918.07 71.7686C2918.95 73.1943 2919.65 75.0498 2920.18 77.335C2920.71 79.6006 2921.02 82.208 2921.12 85.1572C2921.13 85.5869 2920.98 85.958 2920.65 86.2705C2920.33 86.583 2919.93 86.7881 2919.45 86.8857C2918.31 87.0029 2916.83 87.0615 2914.99 87.0615C2912.98 87.0615 2911.47 87.0029 2910.45 86.8857C2909.42 86.6904 2908.9 86.1729 2908.9 85.333C2908.9 81.4463 2908.77 78.1455 2908.52 75.4307C2908.26 72.6963 2907.75 70.6553 2906.96 69.3076C2906.63 68.8389 2906.36 68.8193 2906.14 69.249C2906.03 69.4639 2905.96 69.7666 2905.94 70.1572C2905.72 73.5947 2906.07 78.5947 2906.96 85.1572C2907.04 85.5869 2906.94 85.9678 2906.64 86.2998C2906.35 86.6318 2905.98 86.8271 2905.53 86.8857C2904.53 87.0029 2902.93 87.0615 2900.72 87.0615ZM2907.2 64.1514C2908.61 63.0576 2909.31 61.5732 2909.31 59.6982C2909.31 58.7412 2909.11 58.0186 2908.72 57.5303C2908.33 57.0225 2907.82 56.7686 2907.2 56.7686H2907.08C2906.52 56.7686 2906.23 57.1885 2906.23 58.0283C2906.23 58.751 2906.22 59.7178 2906.2 60.9287C2906.18 62.1201 2906.17 63.0771 2906.17 63.7998C2906.17 64.542 2906.52 64.6592 2907.2 64.1514ZM2933.74 87.2373C2929.46 87.2373 2926.18 87.1201 2923.9 86.8857C2923.47 86.8271 2923.1 86.6514 2922.79 86.3584C2922.49 86.0459 2922.35 85.665 2922.35 85.2158C2922.35 69.0635 2922.75 56.1045 2923.55 46.3389C2923.57 45.9092 2923.72 45.5674 2924.02 45.3135C2924.33 45.0596 2924.71 44.9131 2925.16 44.874C2926.8 44.7568 2929.32 44.6982 2932.72 44.6982C2937.58 44.6982 2941.42 46.7197 2944.23 50.7627C2947.04 54.7861 2948.45 60.5479 2948.45 68.0479C2948.45 71.6416 2948.14 74.6885 2947.51 77.1885C2946.89 79.6689 2945.93 81.6416 2944.64 83.1064C2943.37 84.5713 2941.85 85.626 2940.07 86.2705C2938.31 86.915 2936.2 87.2373 2933.74 87.2373ZM2934.09 73.6729H2934.27C2935.25 73.6729 2936.08 73.2041 2936.76 72.2666C2937.46 71.3096 2937.81 69.9033 2937.81 68.0479C2937.81 64.415 2937.49 61.6514 2936.85 59.7568C2936.2 57.8428 2935.32 56.8857 2934.21 56.8857H2934.09C2933.82 56.8857 2933.6 56.9736 2933.42 57.1494C2933.26 57.3252 2933.19 57.54 2933.19 57.7939C2933.11 62.7549 2933.11 67.7158 2933.19 72.6768C2933.19 72.9893 2933.27 73.2334 2933.45 73.4092C2933.62 73.585 2933.84 73.6729 2934.09 73.6729ZM2960.37 87.2373C2958.85 87.2373 2957.16 87.0811 2955.3 86.7686C2953.45 86.4365 2951.87 85.9775 2950.56 85.3916C2950.32 85.2744 2950.11 85.0498 2949.91 84.7178C2949.74 84.3857 2949.65 84.0439 2949.65 83.6924L2949.47 72.1201C2949.47 71.2217 2949.79 70.7139 2950.41 70.5967C2951.06 70.46 2951.6 70.7334 2952.05 71.417C2953.75 73.4873 2955.91 74.5225 2958.53 74.5225C2959.52 74.5225 2960.29 74.21 2960.81 73.585C2961.36 72.96 2961.65 72.1982 2961.69 71.2998C2961.71 70.6553 2961.52 70.04 2961.11 69.4541C2960.7 68.8486 2960.15 68.292 2959.46 67.7842C2958.78 67.2764 2958.03 66.7588 2957.21 66.2314C2956.39 65.6846 2955.56 65.0791 2954.72 64.415C2953.9 63.7314 2953.14 62.999 2952.43 62.2178C2951.75 61.417 2951.19 60.4502 2950.76 59.3174C2950.33 58.165 2950.12 56.915 2950.12 55.5674C2950.12 51.9346 2951.16 49.1904 2953.25 47.335C2955.36 45.46 2958.32 44.5225 2962.13 44.5225C2965.12 44.5225 2967.83 44.9229 2970.28 45.7236C2970.94 46.0166 2971.3 46.4951 2971.36 47.1592C2971.5 51.417 2971.59 55.001 2971.65 57.9111C2971.67 58.79 2971.41 59.3076 2970.86 59.4639C2970.31 59.6201 2969.83 59.376 2969.4 58.7314C2968.13 57.4619 2966.47 56.7881 2964.42 56.71C2963.22 56.71 2962.3 56.9639 2961.63 57.4717C2960.97 57.96 2960.64 58.624 2960.64 59.4639C2960.64 60.1084 2960.86 60.7139 2961.31 61.2803C2961.78 61.8467 2962.38 62.3643 2963.13 62.833C2963.87 63.3018 2964.68 63.79 2965.56 64.2979C2966.46 64.8057 2967.35 65.3916 2968.22 66.0557C2969.12 66.7197 2969.93 67.4521 2970.66 68.2529C2971.4 69.0537 2971.98 70.0596 2972.41 71.2705C2972.86 72.4619 2973.08 73.79 2973.06 75.2549C2973.04 79.083 2971.9 82.042 2969.63 84.1318C2967.37 86.2021 2964.28 87.2373 2960.37 87.2373Z" fill="#474747"/>
<path d="M1634.94 64.9727C1634.94 78.7634 1643.6 89.0597 1653.32 89.0597C1663.04 89.0597 1671.7 78.7634 1671.7 64.9727C1671.7 51.182 1663.04 40.8857 1653.32 40.8857C1643.6 40.8857 1634.94 51.182 1634.94 64.9727Z" stroke="#474747" stroke-width="4"/>
<path d="M1669.18 64.9727C1669.18 78.7634 1677.84 89.0597 1687.56 89.0597C1697.28 89.0597 1705.94 78.7634 1705.94 64.9727C1705.94 51.182 1697.28 40.8857 1687.56 40.8857C1677.84 40.8857 1669.18 51.182 1669.18 64.9727Z" fill="#FFD600" stroke="#474747" stroke-width="4"/>
<path d="M1672.57 76.3857C1672.57 82.5319 1676.47 87.2987 1681.04 87.2987C1685.61 87.2987 1689.51 82.5319 1689.51 76.3857C1689.51 70.2395 1685.61 65.4727 1681.04 65.4727C1676.47 65.4727 1672.57 70.2395 1672.57 76.3857Z" fill="#474747" stroke="#474747"/>
<path d="M1638.33 76.3857C1638.33 82.5319 1642.23 87.2987 1646.8 87.2987C1651.37 87.2987 1655.27 82.5319 1655.27 76.3857C1655.27 70.2395 1651.37 65.4727 1646.8 65.4727C1642.23 65.4727 1638.33 70.2395 1638.33 76.3857Z" fill="#474747" stroke="#474747"/>
<path d="M2610.94 64.9727C2610.94 78.7634 2619.6 89.0597 2629.32 89.0597C2639.04 89.0597 2647.7 78.7634 2647.7 64.9727C2647.7 51.182 2639.04 40.8857 2629.32 40.8857C2619.6 40.8857 2610.94 51.182 2610.94 64.9727Z" stroke="#474747" stroke-width="4"/>
<path d="M2645.18 64.9727C2645.18 78.7634 2653.84 89.0597 2663.56 89.0597C2673.28 89.0597 2681.94 78.7634 2681.94 64.9727C2681.94 51.182 2673.28 40.8857 2663.56 40.8857C2653.84 40.8857 2645.18 51.182 2645.18 64.9727Z" fill="#FFD600" stroke="#474747" stroke-width="4"/>
<path d="M2648.57 76.3857C2648.57 82.5319 2652.47 87.2987 2657.04 87.2987C2661.61 87.2987 2665.51 82.5319 2665.51 76.3857C2665.51 70.2395 2661.61 65.4727 2657.04 65.4727C2652.47 65.4727 2648.57 70.2395 2648.57 76.3857Z" fill="#474747" stroke="#474747"/>
<path d="M2614.33 76.3857C2614.33 82.5319 2618.23 87.2987 2622.8 87.2987C2627.37 87.2987 2631.27 82.5319 2631.27 76.3857C2631.27 70.2395 2627.37 65.4727 2622.8 65.4727C2618.23 65.4727 2614.33 70.2395 2614.33 76.3857Z" fill="#474747" stroke="#474747"/>
<path d="M2117.94 64.9727C2117.94 78.7634 2126.6 89.0597 2136.32 89.0597C2146.04 89.0597 2154.7 78.7634 2154.7 64.9727C2154.7 51.182 2146.04 40.8857 2136.32 40.8857C2126.6 40.8857 2117.94 51.182 2117.94 64.9727Z" stroke="#474747" stroke-width="4"/>
<path d="M2152.18 64.9727C2152.18 78.7634 2160.84 89.0597 2170.56 89.0597C2180.28 89.0597 2188.94 78.7634 2188.94 64.9727C2188.94 51.182 2180.28 40.8857 2170.56 40.8857C2160.84 40.8857 2152.18 51.182 2152.18 64.9727Z" fill="#FFD600" stroke="#474747" stroke-width="4"/>
<path d="M2155.57 76.3857C2155.57 82.5319 2159.47 87.2987 2164.04 87.2987C2168.61 87.2987 2172.51 82.5319 2172.51 76.3857C2172.51 70.2395 2168.61 65.4727 2164.04 65.4727C2159.47 65.4727 2155.57 70.2395 2155.57 76.3857Z" fill="#474747" stroke="#474747"/>
<path d="M2121.33 76.3857C2121.33 82.5319 2125.23 87.2987 2129.8 87.2987C2134.37 87.2987 2138.27 82.5319 2138.27 76.3857C2138.27 70.2395 2134.37 65.4727 2129.8 65.4727C2125.23 65.4727 2121.33 70.2395 2121.33 76.3857Z" fill="#474747" stroke="#474747"/>
<path d="M3093.94 64.9727C3093.94 78.7634 3102.6 89.0597 3112.32 89.0597C3122.04 89.0597 3130.7 78.7634 3130.7 64.9727C3130.7 51.182 3122.04 40.8857 3112.32 40.8857C3102.6 40.8857 3093.94 51.182 3093.94 64.9727Z" stroke="#474747" stroke-width="4"/>
<path d="M3128.18 64.9727C3128.18 78.7634 3136.84 89.0597 3146.56 89.0597C3156.28 89.0597 3164.94 78.7634 3164.94 64.9727C3164.94 51.182 3156.28 40.8857 3146.56 40.8857C3136.84 40.8857 3128.18 51.182 3128.18 64.9727Z" fill="#FFD600" stroke="#474747" stroke-width="4"/>
<path d="M3131.57 76.3857C3131.57 82.5319 3135.47 87.2987 3140.04 87.2987C3144.61 87.2987 3148.51 82.5319 3148.51 76.3857C3148.51 70.2395 3144.61 65.4727 3140.04 65.4727C3135.47 65.4727 3131.57 70.2395 3131.57 76.3857Z" fill="#474747" stroke="#474747"/>
<path d="M3097.33 76.3857C3097.33 82.5319 3101.23 87.2987 3105.8 87.2987C3110.37 87.2987 3114.27 82.5319 3114.27 76.3857C3114.27 70.2395 3110.37 65.4727 3105.8 65.4727C3101.23 65.4727 3097.33 70.2395 3097.33 76.3857Z" fill="#474747" stroke="#474747"/>
<line x1="1532.94" y1="67.3857" x2="1614.94" y2="67.3857" stroke="#474747" stroke-width="5"/>
<line x1="2508.94" y1="67.3857" x2="2590.94" y2="67.3857" stroke="#474747" stroke-width="5"/>
<line x1="2012.94" y1="67.3857" x2="2094.94" y2="67.3857" stroke="#474747" stroke-width="5"/>
<line x1="2988.94" y1="67.3857" x2="3070.94" y2="67.3857" stroke="#474747" stroke-width="5"/>
<line x1="1722.94" y1="67.3857" x2="1804.94" y2="67.3857" stroke="#474747" stroke-width="5"/>
<line x1="2698.94" y1="67.3857" x2="2780.94" y2="67.3857" stroke="#474747" stroke-width="5"/>
<line x1="2213.94" y1="67.3857" x2="2295.94" y2="67.3857" stroke="#474747" stroke-width="5"/>
<line x1="3189.94" y1="67.3857" x2="3271.94" y2="67.3857" stroke="#474747" stroke-width="5"/>
<path d="M378.068 87.0615C377.424 87.0615 376.076 87.0029 374.025 86.8857C373.576 86.8467 373.205 86.6709 372.912 86.3584C372.639 86.0459 372.512 85.665 372.531 85.2158C372.902 78.2432 373.625 71.1826 374.699 64.0342C375.793 56.8662 376.955 50.8799 378.186 46.0752C378.303 45.4111 378.762 45.0107 379.562 44.874C380.598 44.7568 382.697 44.6982 385.861 44.6982C389.025 44.6982 391.145 44.7568 392.219 44.874C393 44.9912 393.479 45.3916 393.654 46.0752C394.846 50.7041 395.969 56.6221 397.023 63.8291C398.098 71.0166 398.84 78.1455 399.25 85.2158C399.27 85.665 399.143 86.0459 398.869 86.3584C398.596 86.6514 398.234 86.8271 397.785 86.8857C396.574 87.0029 395.119 87.0615 393.42 87.0615C391.721 87.0615 390.295 87.0029 389.143 86.8857C388.693 86.8271 388.312 86.6123 388 86.2412C387.707 85.8701 387.59 85.4404 387.648 84.9521C387.941 82.7256 388.088 80.2939 388.088 77.6572C388.088 76.8174 387.873 76.1533 387.443 75.665C387.033 75.1768 386.545 74.9326 385.979 74.9326H385.803C385.256 74.9326 384.758 75.1865 384.309 75.6943C383.879 76.2021 383.654 76.8564 383.635 77.6572C383.635 80.4502 383.771 82.9111 384.045 85.04C384.104 85.5283 383.986 85.9482 383.693 86.2998C383.4 86.6318 383.02 86.8271 382.551 86.8857C381.418 87.0029 379.924 87.0615 378.068 87.0615ZM385.803 69.1904H386.037C386.408 69.1904 386.691 69.0732 386.887 68.8389C387.102 68.6045 387.199 68.2822 387.18 67.8721C387.043 64.2393 386.799 60.8018 386.447 57.5596C386.369 56.9736 386.242 56.5635 386.066 56.3291C385.91 56.0947 385.754 56.0947 385.598 56.3291C385.441 56.5635 385.324 56.9736 385.246 57.5596C384.914 61.1533 384.719 64.5908 384.66 67.8721C384.602 68.2822 384.68 68.6045 384.895 68.8389C385.109 69.0732 385.412 69.1904 385.803 69.1904ZM407.072 87.0615C405.002 87.0615 403.566 87.0029 402.766 86.8857C401.73 86.6709 401.184 86.1924 401.125 85.4502C399.66 72.7354 398.82 59.7568 398.605 46.5146C398.605 46.0654 398.762 45.6943 399.074 45.4014C399.387 45.1084 399.777 44.9326 400.246 44.874C400.93 44.7568 402.326 44.6982 404.436 44.6982C406.428 44.6982 407.844 44.7568 408.684 44.874C409.094 44.9131 409.426 45.0791 409.68 45.3721C409.934 45.665 410.051 46.1045 410.031 46.6904C410.012 47.1396 409.934 48.3311 409.797 50.2646C409.68 52.1982 409.582 53.8877 409.504 55.333C409.445 56.7588 409.416 57.96 409.416 58.9365C409.475 63.0967 409.875 65.1768 410.617 65.1768C410.988 65.1768 411.262 64.8252 411.438 64.1221C411.613 63.4189 411.809 62.1982 412.023 60.46C412.062 60.1279 412.092 59.874 412.111 59.6982C412.17 59.1123 412.277 57.8037 412.434 55.7725C412.609 53.7412 412.746 52.3545 412.844 51.6123C413.039 49.7178 413.371 48.3799 413.84 47.5986C414.328 46.7979 414.973 46.3975 415.773 46.3975C416.613 46.3975 417.287 46.7979 417.795 47.5986C418.303 48.3799 418.674 49.7178 418.908 51.6123C418.928 51.8467 419.016 53.0283 419.172 55.1572C419.328 57.2666 419.455 58.7217 419.553 59.5225C419.807 61.6123 420.031 63.0967 420.227 63.9756C420.441 64.8545 420.754 65.2939 421.164 65.2939C421.926 65.2939 422.307 63.2139 422.307 59.0537C422.307 56.5928 422.15 52.4717 421.838 46.6904C421.779 46.1045 421.877 45.665 422.131 45.3721C422.385 45.0791 422.707 44.9131 423.098 44.874C423.898 44.7568 425.275 44.6982 427.229 44.6982C429.318 44.6982 430.783 44.7568 431.623 44.874C432.092 44.9326 432.463 45.1084 432.736 45.4014C433.029 45.6943 433.176 46.0654 433.176 46.5146C432.98 58.8389 432.141 71.8174 430.656 85.4502C430.539 86.2705 430.002 86.749 429.045 86.8857C427.775 87.0029 426.369 87.0615 424.826 87.0615C422.834 87.0615 421.516 87.0029 420.871 86.8857C419.816 86.7686 419.201 86.0654 419.025 84.7764C418.83 82.8037 418.43 80.167 417.824 76.8662C417.258 73.2725 416.613 71.4756 415.891 71.4756C415.5 71.4756 415.148 71.9541 414.836 72.9111C414.523 73.8486 414.201 75.2256 413.869 77.042C413.615 78.7998 413.254 81.3779 412.785 84.7764C412.629 85.9873 411.984 86.6904 410.852 86.8857C410.246 87.0029 408.986 87.0615 407.072 87.0615ZM438.01 87.0615C437.365 87.0615 436.018 87.0029 433.967 86.8857C433.518 86.8467 433.146 86.6709 432.854 86.3584C432.58 86.0459 432.453 85.665 432.473 85.2158C432.844 78.2432 433.566 71.1826 434.641 64.0342C435.734 56.8662 436.896 50.8799 438.127 46.0752C438.244 45.4111 438.703 45.0107 439.504 44.874C440.539 44.7568 442.639 44.6982 445.803 44.6982C448.967 44.6982 451.086 44.7568 452.16 44.874C452.941 44.9912 453.42 45.3916 453.596 46.0752C454.787 50.7041 455.91 56.6221 456.965 63.8291C458.039 71.0166 458.781 78.1455 459.191 85.2158C459.211 85.665 459.084 86.0459 458.811 86.3584C458.537 86.6514 458.176 86.8271 457.727 86.8857C456.516 87.0029 455.061 87.0615 453.361 87.0615C451.662 87.0615 450.236 87.0029 449.084 86.8857C448.635 86.8271 448.254 86.6123 447.941 86.2412C447.648 85.8701 447.531 85.4404 447.59 84.9521C447.883 82.7256 448.029 80.2939 448.029 77.6572C448.029 76.8174 447.814 76.1533 447.385 75.665C446.975 75.1768 446.486 74.9326 445.92 74.9326H445.744C445.197 74.9326 444.699 75.1865 444.25 75.6943C443.82 76.2021 443.596 76.8564 443.576 77.6572C443.576 80.4502 443.713 82.9111 443.986 85.04C444.045 85.5283 443.928 85.9482 443.635 86.2998C443.342 86.6318 442.961 86.8271 442.492 86.8857C441.359 87.0029 439.865 87.0615 438.01 87.0615ZM445.744 69.1904H445.979C446.35 69.1904 446.633 69.0732 446.828 68.8389C447.043 68.6045 447.141 68.2822 447.121 67.8721C446.984 64.2393 446.74 60.8018 446.389 57.5596C446.311 56.9736 446.184 56.5635 446.008 56.3291C445.852 56.0947 445.695 56.0947 445.539 56.3291C445.383 56.5635 445.266 56.9736 445.188 57.5596C444.855 61.1533 444.66 64.5908 444.602 67.8721C444.543 68.2822 444.621 68.6045 444.836 68.8389C445.051 69.0732 445.354 69.1904 445.744 69.1904ZM465.725 87.0615C463.928 87.0615 462.609 87.0029 461.77 86.8857C461.359 86.8271 460.998 86.6514 460.686 86.3584C460.373 86.0654 460.217 85.7236 460.217 85.333C460.217 68.7314 460.637 55.7529 461.477 46.3975C461.496 46.0068 461.652 45.665 461.945 45.3721C462.258 45.0791 462.6 44.9131 462.971 44.874C464.514 44.7568 467.932 44.6982 473.225 44.6982C476.721 44.6982 479.494 45.4697 481.545 47.0127C483.596 48.5557 484.621 50.7627 484.621 53.6338C484.621 56.4072 483.889 58.8291 482.424 60.8994C480.959 62.9502 479.016 64.5127 476.594 65.5869C476.242 65.7236 476.076 65.9287 476.096 66.2021C476.135 66.4756 476.359 66.6514 476.77 66.7295C478.02 67.0225 479.162 67.5791 480.197 68.3994C481.252 69.2197 482.209 70.3428 483.068 71.7686C483.947 73.1943 484.65 75.0498 485.178 77.335C485.705 79.6006 486.018 82.208 486.115 85.1572C486.135 85.5869 485.979 85.958 485.646 86.2705C485.334 86.583 484.934 86.7881 484.445 86.8857C483.312 87.0029 481.828 87.0615 479.992 87.0615C477.98 87.0615 476.467 87.0029 475.451 86.8857C474.416 86.6904 473.898 86.1729 473.898 85.333C473.898 81.4463 473.771 78.1455 473.518 75.4307C473.264 72.6963 472.746 70.6553 471.965 69.3076C471.633 68.8389 471.359 68.8193 471.145 69.249C471.027 69.4639 470.959 69.7666 470.939 70.1572C470.725 73.5947 471.066 78.5947 471.965 85.1572C472.043 85.5869 471.936 85.9678 471.643 86.2998C471.35 86.6318 470.979 86.8271 470.529 86.8857C469.533 87.0029 467.932 87.0615 465.725 87.0615ZM472.199 64.1514C473.605 63.0576 474.309 61.5732 474.309 59.6982C474.309 58.7412 474.113 58.0186 473.723 57.5303C473.332 57.0225 472.824 56.7686 472.199 56.7686H472.082C471.516 56.7686 471.232 57.1885 471.232 58.0283C471.232 58.751 471.223 59.7178 471.203 60.9287C471.184 62.1201 471.174 63.0771 471.174 63.7998C471.174 64.542 471.516 64.6592 472.199 64.1514ZM498.742 87.2373C494.465 87.2373 491.184 87.1201 488.898 86.8857C488.469 86.8271 488.098 86.6514 487.785 86.3584C487.492 86.0459 487.346 85.665 487.346 85.2158C487.346 69.0635 487.746 56.1045 488.547 46.3389C488.566 45.9092 488.723 45.5674 489.016 45.3135C489.328 45.0596 489.709 44.9131 490.158 44.874C491.799 44.7568 494.318 44.6982 497.717 44.6982C502.58 44.6982 506.418 46.7197 509.23 50.7627C512.043 54.7861 513.449 60.5479 513.449 68.0479C513.449 71.6416 513.137 74.6885 512.512 77.1885C511.887 79.6689 510.93 81.6416 509.641 83.1064C508.371 84.5713 506.848 85.626 505.07 86.2705C503.312 86.915 501.203 87.2373 498.742 87.2373ZM499.094 73.6729H499.27C500.246 73.6729 501.076 73.2041 501.76 72.2666C502.463 71.3096 502.814 69.9033 502.814 68.0479C502.814 64.415 502.492 61.6514 501.848 59.7568C501.203 57.8428 500.324 56.8857 499.211 56.8857H499.094C498.82 56.8857 498.596 56.9736 498.42 57.1494C498.264 57.3252 498.186 57.54 498.186 57.7939C498.107 62.7549 498.107 67.7158 498.186 72.6768C498.186 72.9893 498.273 73.2334 498.449 73.4092C498.625 73.585 498.84 73.6729 499.094 73.6729ZM525.373 87.2373C523.85 87.2373 522.16 87.0811 520.305 86.7686C518.449 86.4365 516.867 85.9775 515.559 85.3916C515.324 85.2744 515.109 85.0498 514.914 84.7178C514.738 84.3857 514.65 84.0439 514.65 83.6924L514.475 72.1201C514.475 71.2217 514.787 70.7139 515.412 70.5967C516.057 70.46 516.604 70.7334 517.053 71.417C518.752 73.4873 520.91 74.5225 523.527 74.5225C524.523 74.5225 525.285 74.21 525.812 73.585C526.359 72.96 526.652 72.1982 526.691 71.2998C526.711 70.6553 526.516 70.04 526.105 69.4541C525.695 68.8486 525.148 68.292 524.465 67.7842C523.781 67.2764 523.029 66.7588 522.209 66.2314C521.389 65.6846 520.559 65.0791 519.719 64.415C518.898 63.7314 518.137 62.999 517.434 62.2178C516.75 61.417 516.193 60.4502 515.764 59.3174C515.334 58.165 515.119 56.915 515.119 55.5674C515.119 51.9346 516.164 49.1904 518.254 47.335C520.363 45.46 523.322 44.5225 527.131 44.5225C530.119 44.5225 532.834 44.9229 535.275 45.7236C535.939 46.0166 536.301 46.4951 536.359 47.1592C536.496 51.417 536.594 55.001 536.652 57.9111C536.672 58.79 536.408 59.3076 535.861 59.4639C535.314 59.6201 534.826 59.376 534.396 58.7314C533.127 57.4619 531.467 56.7881 529.416 56.71C528.225 56.71 527.297 56.9639 526.633 57.4717C525.969 57.96 525.637 58.624 525.637 59.4639C525.637 60.1084 525.861 60.7139 526.311 61.2803C526.779 61.8467 527.385 62.3643 528.127 62.833C528.869 63.3018 529.68 63.79 530.559 64.2979C531.457 64.8057 532.346 65.3916 533.225 66.0557C534.123 66.7197 534.934 67.4521 535.656 68.2529C536.398 69.0537 536.984 70.0596 537.414 71.2705C537.863 72.4619 538.078 73.79 538.059 75.2549C538.039 79.083 536.896 82.042 534.631 84.1318C532.365 86.2021 529.279 87.2373 525.373 87.2373Z" fill="#474747"/>
<path d="M853.068 87.0615C852.424 87.0615 851.076 87.0029 849.025 86.8857C848.576 86.8467 848.205 86.6709 847.912 86.3584C847.639 86.0459 847.512 85.665 847.531 85.2158C847.902 78.2432 848.625 71.1826 849.699 64.0342C850.793 56.8662 851.955 50.8799 853.186 46.0752C853.303 45.4111 853.762 45.0107 854.562 44.874C855.598 44.7568 857.697 44.6982 860.861 44.6982C864.025 44.6982 866.145 44.7568 867.219 44.874C868 44.9912 868.479 45.3916 868.654 46.0752C869.846 50.7041 870.969 56.6221 872.023 63.8291C873.098 71.0166 873.84 78.1455 874.25 85.2158C874.27 85.665 874.143 86.0459 873.869 86.3584C873.596 86.6514 873.234 86.8271 872.785 86.8857C871.574 87.0029 870.119 87.0615 868.42 87.0615C866.721 87.0615 865.295 87.0029 864.143 86.8857C863.693 86.8271 863.312 86.6123 863 86.2412C862.707 85.8701 862.59 85.4404 862.648 84.9521C862.941 82.7256 863.088 80.2939 863.088 77.6572C863.088 76.8174 862.873 76.1533 862.443 75.665C862.033 75.1768 861.545 74.9326 860.979 74.9326H860.803C860.256 74.9326 859.758 75.1865 859.309 75.6943C858.879 76.2021 858.654 76.8564 858.635 77.6572C858.635 80.4502 858.771 82.9111 859.045 85.04C859.104 85.5283 858.986 85.9482 858.693 86.2998C858.4 86.6318 858.02 86.8271 857.551 86.8857C856.418 87.0029 854.924 87.0615 853.068 87.0615ZM860.803 69.1904H861.037C861.408 69.1904 861.691 69.0732 861.887 68.8389C862.102 68.6045 862.199 68.2822 862.18 67.8721C862.043 64.2393 861.799 60.8018 861.447 57.5596C861.369 56.9736 861.242 56.5635 861.066 56.3291C860.91 56.0947 860.754 56.0947 860.598 56.3291C860.441 56.5635 860.324 56.9736 860.246 57.5596C859.914 61.1533 859.719 64.5908 859.66 67.8721C859.602 68.2822 859.68 68.6045 859.895 68.8389C860.109 69.0732 860.412 69.1904 860.803 69.1904ZM882.072 87.0615C880.002 87.0615 878.566 87.0029 877.766 86.8857C876.73 86.6709 876.184 86.1924 876.125 85.4502C874.66 72.7354 873.82 59.7568 873.605 46.5146C873.605 46.0654 873.762 45.6943 874.074 45.4014C874.387 45.1084 874.777 44.9326 875.246 44.874C875.93 44.7568 877.326 44.6982 879.436 44.6982C881.428 44.6982 882.844 44.7568 883.684 44.874C884.094 44.9131 884.426 45.0791 884.68 45.3721C884.934 45.665 885.051 46.1045 885.031 46.6904C885.012 47.1396 884.934 48.3311 884.797 50.2646C884.68 52.1982 884.582 53.8877 884.504 55.333C884.445 56.7588 884.416 57.96 884.416 58.9365C884.475 63.0967 884.875 65.1768 885.617 65.1768C885.988 65.1768 886.262 64.8252 886.438 64.1221C886.613 63.4189 886.809 62.1982 887.023 60.46C887.062 60.1279 887.092 59.874 887.111 59.6982C887.17 59.1123 887.277 57.8037 887.434 55.7725C887.609 53.7412 887.746 52.3545 887.844 51.6123C888.039 49.7178 888.371 48.3799 888.84 47.5986C889.328 46.7979 889.973 46.3975 890.773 46.3975C891.613 46.3975 892.287 46.7979 892.795 47.5986C893.303 48.3799 893.674 49.7178 893.908 51.6123C893.928 51.8467 894.016 53.0283 894.172 55.1572C894.328 57.2666 894.455 58.7217 894.553 59.5225C894.807 61.6123 895.031 63.0967 895.227 63.9756C895.441 64.8545 895.754 65.2939 896.164 65.2939C896.926 65.2939 897.307 63.2139 897.307 59.0537C897.307 56.5928 897.15 52.4717 896.838 46.6904C896.779 46.1045 896.877 45.665 897.131 45.3721C897.385 45.0791 897.707 44.9131 898.098 44.874C898.898 44.7568 900.275 44.6982 902.229 44.6982C904.318 44.6982 905.783 44.7568 906.623 44.874C907.092 44.9326 907.463 45.1084 907.736 45.4014C908.029 45.6943 908.176 46.0654 908.176 46.5146C907.98 58.8389 907.141 71.8174 905.656 85.4502C905.539 86.2705 905.002 86.749 904.045 86.8857C902.775 87.0029 901.369 87.0615 899.826 87.0615C897.834 87.0615 896.516 87.0029 895.871 86.8857C894.816 86.7686 894.201 86.0654 894.025 84.7764C893.83 82.8037 893.43 80.167 892.824 76.8662C892.258 73.2725 891.613 71.4756 890.891 71.4756C890.5 71.4756 890.148 71.9541 889.836 72.9111C889.523 73.8486 889.201 75.2256 888.869 77.042C888.615 78.7998 888.254 81.3779 887.785 84.7764C887.629 85.9873 886.984 86.6904 885.852 86.8857C885.246 87.0029 883.986 87.0615 882.072 87.0615ZM913.01 87.0615C912.365 87.0615 911.018 87.0029 908.967 86.8857C908.518 86.8467 908.146 86.6709 907.854 86.3584C907.58 86.0459 907.453 85.665 907.473 85.2158C907.844 78.2432 908.566 71.1826 909.641 64.0342C910.734 56.8662 911.896 50.8799 913.127 46.0752C913.244 45.4111 913.703 45.0107 914.504 44.874C915.539 44.7568 917.639 44.6982 920.803 44.6982C923.967 44.6982 926.086 44.7568 927.16 44.874C927.941 44.9912 928.42 45.3916 928.596 46.0752C929.787 50.7041 930.91 56.6221 931.965 63.8291C933.039 71.0166 933.781 78.1455 934.191 85.2158C934.211 85.665 934.084 86.0459 933.811 86.3584C933.537 86.6514 933.176 86.8271 932.727 86.8857C931.516 87.0029 930.061 87.0615 928.361 87.0615C926.662 87.0615 925.236 87.0029 924.084 86.8857C923.635 86.8271 923.254 86.6123 922.941 86.2412C922.648 85.8701 922.531 85.4404 922.59 84.9521C922.883 82.7256 923.029 80.2939 923.029 77.6572C923.029 76.8174 922.814 76.1533 922.385 75.665C921.975 75.1768 921.486 74.9326 920.92 74.9326H920.744C920.197 74.9326 919.699 75.1865 919.25 75.6943C918.82 76.2021 918.596 76.8564 918.576 77.6572C918.576 80.4502 918.713 82.9111 918.986 85.04C919.045 85.5283 918.928 85.9482 918.635 86.2998C918.342 86.6318 917.961 86.8271 917.492 86.8857C916.359 87.0029 914.865 87.0615 913.01 87.0615ZM920.744 69.1904H920.979C921.35 69.1904 921.633 69.0732 921.828 68.8389C922.043 68.6045 922.141 68.2822 922.121 67.8721C921.984 64.2393 921.74 60.8018 921.389 57.5596C921.311 56.9736 921.184 56.5635 921.008 56.3291C920.852 56.0947 920.695 56.0947 920.539 56.3291C920.383 56.5635 920.266 56.9736 920.188 57.5596C919.855 61.1533 919.66 64.5908 919.602 67.8721C919.543 68.2822 919.621 68.6045 919.836 68.8389C920.051 69.0732 920.354 69.1904 920.744 69.1904ZM940.725 87.0615C938.928 87.0615 937.609 87.0029 936.77 86.8857C936.359 86.8271 935.998 86.6514 935.686 86.3584C935.373 86.0654 935.217 85.7236 935.217 85.333C935.217 68.7314 935.637 55.7529 936.477 46.3975C936.496 46.0068 936.652 45.665 936.945 45.3721C937.258 45.0791 937.6 44.9131 937.971 44.874C939.514 44.7568 942.932 44.6982 948.225 44.6982C951.721 44.6982 954.494 45.4697 956.545 47.0127C958.596 48.5557 959.621 50.7627 959.621 53.6338C959.621 56.4072 958.889 58.8291 957.424 60.8994C955.959 62.9502 954.016 64.5127 951.594 65.5869C951.242 65.7236 951.076 65.9287 951.096 66.2021C951.135 66.4756 951.359 66.6514 951.77 66.7295C953.02 67.0225 954.162 67.5791 955.197 68.3994C956.252 69.2197 957.209 70.3428 958.068 71.7686C958.947 73.1943 959.65 75.0498 960.178 77.335C960.705 79.6006 961.018 82.208 961.115 85.1572C961.135 85.5869 960.979 85.958 960.646 86.2705C960.334 86.583 959.934 86.7881 959.445 86.8857C958.312 87.0029 956.828 87.0615 954.992 87.0615C952.98 87.0615 951.467 87.0029 950.451 86.8857C949.416 86.6904 948.898 86.1729 948.898 85.333C948.898 81.4463 948.771 78.1455 948.518 75.4307C948.264 72.6963 947.746 70.6553 946.965 69.3076C946.633 68.8389 946.359 68.8193 946.145 69.249C946.027 69.4639 945.959 69.7666 945.939 70.1572C945.725 73.5947 946.066 78.5947 946.965 85.1572C947.043 85.5869 946.936 85.9678 946.643 86.2998C946.35 86.6318 945.979 86.8271 945.529 86.8857C944.533 87.0029 942.932 87.0615 940.725 87.0615ZM947.199 64.1514C948.605 63.0576 949.309 61.5732 949.309 59.6982C949.309 58.7412 949.113 58.0186 948.723 57.5303C948.332 57.0225 947.824 56.7686 947.199 56.7686H947.082C946.516 56.7686 946.232 57.1885 946.232 58.0283C946.232 58.751 946.223 59.7178 946.203 60.9287C946.184 62.1201 946.174 63.0771 946.174 63.7998C946.174 64.542 946.516 64.6592 947.199 64.1514ZM973.742 87.2373C969.465 87.2373 966.184 87.1201 963.898 86.8857C963.469 86.8271 963.098 86.6514 962.785 86.3584C962.492 86.0459 962.346 85.665 962.346 85.2158C962.346 69.0635 962.746 56.1045 963.547 46.3389C963.566 45.9092 963.723 45.5674 964.016 45.3135C964.328 45.0596 964.709 44.9131 965.158 44.874C966.799 44.7568 969.318 44.6982 972.717 44.6982C977.58 44.6982 981.418 46.7197 984.23 50.7627C987.043 54.7861 988.449 60.5479 988.449 68.0479C988.449 71.6416 988.137 74.6885 987.512 77.1885C986.887 79.6689 985.93 81.6416 984.641 83.1064C983.371 84.5713 981.848 85.626 980.07 86.2705C978.312 86.915 976.203 87.2373 973.742 87.2373ZM974.094 73.6729H974.27C975.246 73.6729 976.076 73.2041 976.76 72.2666C977.463 71.3096 977.814 69.9033 977.814 68.0479C977.814 64.415 977.492 61.6514 976.848 59.7568C976.203 57.8428 975.324 56.8857 974.211 56.8857H974.094C973.82 56.8857 973.596 56.9736 973.42 57.1494C973.264 57.3252 973.186 57.54 973.186 57.7939C973.107 62.7549 973.107 67.7158 973.186 72.6768C973.186 72.9893 973.273 73.2334 973.449 73.4092C973.625 73.585 973.84 73.6729 974.094 73.6729ZM1000.37 87.2373C998.85 87.2373 997.16 87.0811 995.305 86.7686C993.449 86.4365 991.867 85.9775 990.559 85.3916C990.324 85.2744 990.109 85.0498 989.914 84.7178C989.738 84.3857 989.65 84.0439 989.65 83.6924L989.475 72.1201C989.475 71.2217 989.787 70.7139 990.412 70.5967C991.057 70.46 991.604 70.7334 992.053 71.417C993.752 73.4873 995.91 74.5225 998.527 74.5225C999.523 74.5225 1000.29 74.21 1000.81 73.585C1001.36 72.96 1001.65 72.1982 1001.69 71.2998C1001.71 70.6553 1001.52 70.04 1001.11 69.4541C1000.7 68.8486 1000.15 68.292 999.465 67.7842C998.781 67.2764 998.029 66.7588 997.209 66.2314C996.389 65.6846 995.559 65.0791 994.719 64.415C993.898 63.7314 993.137 62.999 992.434 62.2178C991.75 61.417 991.193 60.4502 990.764 59.3174C990.334 58.165 990.119 56.915 990.119 55.5674C990.119 51.9346 991.164 49.1904 993.254 47.335C995.363 45.46 998.322 44.5225 1002.13 44.5225C1005.12 44.5225 1007.83 44.9229 1010.28 45.7236C1010.94 46.0166 1011.3 46.4951 1011.36 47.1592C1011.5 51.417 1011.59 55.001 1011.65 57.9111C1011.67 58.79 1011.41 59.3076 1010.86 59.4639C1010.31 59.6201 1009.83 59.376 1009.4 58.7314C1008.13 57.4619 1006.47 56.7881 1004.42 56.71C1003.22 56.71 1002.3 56.9639 1001.63 57.4717C1000.97 57.96 1000.64 58.624 1000.64 59.4639C1000.64 60.1084 1000.86 60.7139 1001.31 61.2803C1001.78 61.8467 1002.38 62.3643 1003.13 62.833C1003.87 63.3018 1004.68 63.79 1005.56 64.2979C1006.46 64.8057 1007.35 65.3916 1008.22 66.0557C1009.12 66.7197 1009.93 67.4521 1010.66 68.2529C1011.4 69.0537 1011.98 70.0596 1012.41 71.2705C1012.86 72.4619 1013.08 73.79 1013.06 75.2549C1013.04 79.083 1011.9 82.042 1009.63 84.1318C1007.37 86.2021 1004.28 87.2373 1000.37 87.2373Z" fill="#474747"/>
<path d="M650.941 64.9727C650.941 78.7634 659.602 89.0597 669.322 89.0597C679.041 89.0597 687.702 78.7634 687.702 64.9727C687.702 51.182 679.041 40.8857 669.322 40.8857C659.602 40.8857 650.941 51.182 650.941 64.9727Z" stroke="#474747" stroke-width="4"/>
<path d="M685.181 64.9727C685.181 78.7634 693.841 89.0597 703.561 89.0597C713.281 89.0597 721.941 78.7634 721.941 64.9727C721.941 51.182 713.281 40.8857 703.561 40.8857C693.841 40.8857 685.181 51.182 685.181 64.9727Z" fill="#FFD600" stroke="#474747" stroke-width="4"/>
<path d="M688.572 76.3857C688.572 82.5319 692.469 87.2987 697.039 87.2987C701.61 87.2987 705.507 82.5319 705.507 76.3857C705.507 70.2395 701.61 65.4727 697.039 65.4727C692.469 65.4727 688.572 70.2395 688.572 76.3857Z" fill="#474747" stroke="#474747"/>
<path d="M654.333 76.3857C654.333 82.5319 658.229 87.2987 662.8 87.2987C667.371 87.2987 671.268 82.5319 671.268 76.3857C671.268 70.2395 667.371 65.4727 662.8 65.4727C658.229 65.4727 654.333 70.2395 654.333 76.3857Z" fill="#474747" stroke="#474747"/>
<path d="M157.941 64.9727C157.941 78.7634 166.602 89.0597 176.322 89.0597C186.041 89.0597 194.702 78.7634 194.702 64.9727C194.702 51.182 186.041 40.8857 176.322 40.8857C166.602 40.8857 157.941 51.182 157.941 64.9727Z" stroke="#474747" stroke-width="4"/>
<path d="M192.181 64.9727C192.181 78.7634 200.841 89.0597 210.561 89.0597C220.281 89.0597 228.941 78.7634 228.941 64.9727C228.941 51.182 220.281 40.8857 210.561 40.8857C200.841 40.8857 192.181 51.182 192.181 64.9727Z" fill="#FFD600" stroke="#474747" stroke-width="4"/>
<path d="M195.572 76.3857C195.572 82.5319 199.469 87.2987 204.039 87.2987C208.61 87.2987 212.507 82.5319 212.507 76.3857C212.507 70.2395 208.61 65.4727 204.039 65.4727C199.469 65.4727 195.572 70.2395 195.572 76.3857Z" fill="#474747" stroke="#474747"/>
<path d="M161.333 76.3857C161.333 82.5319 165.229 87.2987 169.8 87.2987C174.371 87.2987 178.268 82.5319 178.268 76.3857C178.268 70.2395 174.371 65.4727 169.8 65.4727C165.229 65.4727 161.333 70.2395 161.333 76.3857Z" fill="#474747" stroke="#474747"/>
<path d="M1133.94 64.9727C1133.94 78.7634 1142.6 89.0597 1152.32 89.0597C1162.04 89.0597 1170.7 78.7634 1170.7 64.9727C1170.7 51.182 1162.04 40.8857 1152.32 40.8857C1142.6 40.8857 1133.94 51.182 1133.94 64.9727Z" stroke="#474747" stroke-width="4"/>
<path d="M1168.18 64.9727C1168.18 78.7634 1176.84 89.0597 1186.56 89.0597C1196.28 89.0597 1204.94 78.7634 1204.94 64.9727C1204.94 51.182 1196.28 40.8857 1186.56 40.8857C1176.84 40.8857 1168.18 51.182 1168.18 64.9727Z" fill="#FFD600" stroke="#474747" stroke-width="4"/>
<path d="M1171.57 76.3857C1171.57 82.5319 1175.47 87.2987 1180.04 87.2987C1184.61 87.2987 1188.51 82.5319 1188.51 76.3857C1188.51 70.2395 1184.61 65.4727 1180.04 65.4727C1175.47 65.4727 1171.57 70.2395 1171.57 76.3857Z" fill="#474747" stroke="#474747"/>
<path d="M1137.33 76.3857C1137.33 82.5319 1141.23 87.2987 1145.8 87.2987C1150.37 87.2987 1154.27 82.5319 1154.27 76.3857C1154.27 70.2395 1150.37 65.4727 1145.8 65.4727C1141.23 65.4727 1137.33 70.2395 1137.33 76.3857Z" fill="#474747" stroke="#474747"/>
<line x1="548.941" y1="67.3857" x2="630.941" y2="67.3857" stroke="#474747" stroke-width="5"/>
<line x1="52.9414" y1="67.3857" x2="134.941" y2="67.3857" stroke="#474747" stroke-width="5"/>
<line x1="1028.94" y1="67.3857" x2="1110.94" y2="67.3857" stroke="#474747" stroke-width="5"/>
<line x1="738.941" y1="67.3857" x2="820.941" y2="67.3857" stroke="#474747" stroke-width="5"/>
<line x1="253.941" y1="67.3857" x2="335.941" y2="67.3857" stroke="#474747" stroke-width="5"/>
<line x1="1229.94" y1="67.3857" x2="1311.94" y2="67.3857" stroke="#474747" stroke-width="5"/>
</svg>
