<svg width="232" height="232" viewBox="0 0 232 232" fill="none" xmlns="http://www.w3.org/2000/svg">
<circle cx="116" cy="116" r="113.5" stroke="#474747" stroke-width="5"/>
<circle cx="116" cy="116" r="67.5" stroke="#474747" stroke-width="5"/>
<path d="M71.25 115.695C71.25 133.03 82.1367 145.978 94.3614 145.978C106.586 145.978 117.473 133.03 117.473 115.695C117.473 98.3608 106.586 85.4126 94.3614 85.4126C82.1367 85.4126 71.25 98.3608 71.25 115.695Z" fill="#FBF9FF" stroke="#474747" stroke-width="5"/>
<path d="M114.277 115.695C114.277 133.03 125.164 145.978 137.389 145.978C149.613 145.978 160.5 133.03 160.5 115.695C160.5 98.3608 149.613 85.4126 137.389 85.4126C125.164 85.4126 114.277 98.3608 114.277 115.695Z" fill="#FBF9FF" stroke="#474747" stroke-width="5"/>
<path d="M118.424 130.037C118.424 137.801 123.351 143.879 129.193 143.879C135.035 143.879 139.962 137.801 139.962 130.037C139.962 122.273 135.035 116.194 129.193 116.194C123.351 116.194 118.424 122.273 118.424 130.037Z" fill="#474747" stroke="#474747"/>
<path d="M75.3968 130.037C75.3968 137.801 80.3238 143.879 86.1658 143.879C92.0077 143.879 96.9348 137.801 96.9348 130.037C96.9348 122.273 92.0077 116.194 86.1658 116.194C80.3238 116.194 75.3968 122.273 75.3968 130.037Z" fill="#474747" stroke="#474747"/>
<path d="M113.689 218C111.769 218 110.339 217.55 109.399 216.65C108.459 215.75 107.989 214.42 107.989 212.66C107.989 211.72 108.219 210.89 108.679 210.17C109.139 209.47 109.819 208.92 110.719 208.52C111.619 208.14 112.729 207.95 114.049 207.95L113.929 209.3C113.309 209.3 112.599 209.21 111.799 209.03C110.999 208.87 110.229 208.57 109.489 208.13C108.729 207.71 108.109 207.11 107.629 206.33C107.129 205.57 106.879 204.59 106.879 203.39C106.879 202.07 107.099 200.99 107.539 200.15C107.959 199.31 108.519 198.66 109.219 198.2C109.919 197.74 110.669 197.42 111.469 197.24C112.269 197.08 113.039 197 113.779 197H121.249C121.769 197 122.209 197.17 122.569 197.51C122.909 197.87 123.079 198.31 123.079 198.83V216.17C123.079 216.69 122.909 217.12 122.569 217.46C122.209 217.82 121.769 218 121.249 218H113.689ZM114.229 214.46H119.569L119.179 214.94V209.51L119.539 209.78H114.139C113.559 209.78 113.039 209.97 112.579 210.35C112.119 210.73 111.889 211.28 111.889 212C111.889 212.86 112.109 213.48 112.549 213.86C112.969 214.26 113.529 214.46 114.229 214.46ZM113.989 206.24H119.449L119.179 206.48V200.15L119.479 200.45H113.779C112.859 200.45 112.129 200.69 111.589 201.17C111.049 201.67 110.779 202.41 110.779 203.39C110.779 204.29 110.959 204.94 111.319 205.34C111.679 205.74 112.109 205.99 112.609 206.09C113.109 206.19 113.569 206.24 113.989 206.24Z" fill="#474747"/>
<path d="M93.7552 211.231L103.464 197.815C103.685 197.476 103.966 197.233 104.308 197.085C104.625 196.952 104.95 196.924 105.281 196.999C105.808 197.12 106.164 197.355 106.351 197.705C106.538 198.055 106.582 198.445 106.484 198.874C106.444 199.05 106.373 199.228 106.27 199.41L94.9948 215.238C94.7498 215.592 94.4468 215.841 94.0859 215.984C93.7055 216.123 93.3345 216.131 92.9729 216.007C92.6219 215.927 92.3247 215.746 92.0812 215.465C91.8137 215.199 91.654 214.865 91.602 214.463L88.319 195.682C88.2794 195.406 88.284 195.161 88.333 194.947C88.4531 194.42 88.7243 194.041 89.1465 193.809C89.5492 193.573 89.9552 193.501 90.3647 193.595C90.7157 193.675 91.0129 193.856 91.2565 194.137C91.4805 194.414 91.6282 194.755 91.6996 195.161L94.6434 211.25L93.7552 211.231ZM101.743 201.177L99.3665 204.173L91.4696 202.371L91.6816 198.88L101.743 201.177Z" fill="#474747"/>
<path d="M64.6716 203.948C64.3159 203.488 64.2235 202.989 64.3944 202.449C64.5473 201.901 64.8947 201.503 65.4367 201.253C65.8271 201.041 66.2203 201.009 66.616 201.155C66.9938 201.293 67.3284 201.543 67.6201 201.905C67.9571 202.311 68.3428 202.686 68.7773 203.028C69.1937 203.362 69.6632 203.655 70.1858 203.906C71.1588 204.375 72.1065 204.643 73.0289 204.709C73.9332 204.768 74.7945 204.639 75.6128 204.322C76.4224 204.024 77.1579 203.557 77.8193 202.921C78.4628 202.276 79.0101 201.485 79.4613 200.548C79.9907 199.449 80.2974 198.42 80.3816 197.462C80.4477 196.495 80.3317 195.607 80.0334 194.797C79.7351 193.987 79.2727 193.265 78.646 192.63C78.0107 192.014 77.2516 191.493 76.3686 191.068C75.8821 190.833 75.3739 190.644 74.844 190.5C74.3141 190.356 73.7675 190.292 73.2042 190.309C72.739 190.307 72.3392 190.193 72.0048 189.965C71.6525 189.729 71.4283 189.388 71.3322 188.942C71.1887 188.318 71.2882 187.789 71.6306 187.354C71.9463 186.929 72.3815 186.717 72.9361 186.717C73.5174 186.709 74.0994 186.745 74.6821 186.826C75.238 186.916 75.7856 187.046 76.3249 187.217C76.8728 187.37 77.408 187.572 77.9306 187.824C79.228 188.449 80.3625 189.25 81.3342 190.229C82.2879 191.199 83.0289 192.31 83.5574 193.564C84.0679 194.809 84.2937 196.16 84.2349 197.619C84.1673 199.096 83.7474 200.637 82.9751 202.24C82.3069 203.628 81.4566 204.795 80.424 205.74C79.3734 206.677 78.2118 207.361 76.939 207.791C75.6395 208.231 74.2823 208.399 72.8674 208.294C71.4438 208.208 70.0293 207.827 68.6238 207.15C67.8309 206.768 67.0995 206.305 66.4295 205.76C65.7594 205.215 65.1735 204.611 64.6716 203.948Z" fill="#474747"/>
<path d="M59.7011 175.412C60.1389 175.761 60.3473 176.221 60.3263 176.793L60.0582 188.244L56.1843 188.723L56.4892 176.841C56.5072 176.369 56.6534 175.961 56.9277 175.617C57.2769 175.18 57.7279 174.951 58.2807 174.931C58.8211 174.927 59.2945 175.087 59.7011 175.412ZM46.2328 191.723C45.8575 191.424 45.6773 191.024 45.6922 190.524C45.6789 190.028 45.797 189.623 46.0464 189.31C46.3082 188.982 46.6921 188.789 47.198 188.732L64.5262 187.164L61.9687 190.612L47.8123 192.1C47.1659 192.173 46.6394 192.047 46.2328 191.723ZM69.5522 183.268C69.99 183.617 70.2358 184.03 70.2896 184.508C70.331 185.002 70.1896 185.452 69.8654 185.858L59.0541 199.415C58.7298 199.822 58.321 200.046 57.8276 200.087C57.3217 200.144 56.8498 199.998 56.412 199.649C55.9741 199.3 55.7424 198.885 55.7166 198.404C55.6628 197.926 55.798 197.484 56.1222 197.077L66.9335 183.52C67.2577 183.113 67.665 182.875 68.1552 182.806C68.6331 182.752 69.0987 182.906 69.5522 183.268Z" fill="#474747"/>
<path d="M42.2974 150.988C42.5404 151.493 42.5868 151.981 42.4367 152.453C42.2685 152.933 41.9502 153.286 41.4817 153.512L25.8048 161.061L24.1127 157.548L39.7895 149.998C40.258 149.772 40.7369 149.753 41.2261 149.939C41.6886 150.116 42.0457 150.465 42.2974 150.988ZM29.362 164.576C29.5876 165.045 29.6344 165.51 29.5023 165.974C29.3615 166.419 29.0569 166.754 28.5884 166.98C28.1198 167.205 27.6767 167.23 27.2589 167.054C26.8144 166.868 26.4793 166.541 26.2537 166.073L20.4744 154.072C20.2487 153.604 20.2063 153.147 20.3471 152.702C20.4792 152.238 20.7795 151.894 21.248 151.668C21.7165 151.443 22.173 151.423 22.6176 151.608C23.0354 151.784 23.3571 152.107 23.5827 152.575L29.362 164.576Z" fill="#474747"/>
<path d="M23.8464 126.111C25.3088 125.777 26.7293 125.71 28.108 125.908C29.4867 126.106 30.7658 126.542 31.9455 127.217C33.1012 127.876 34.0922 128.758 34.9185 129.861C35.7404 130.946 36.316 132.209 36.6453 133.652C36.9747 135.095 37.0043 136.483 36.7343 137.817C36.4642 139.15 35.9539 140.375 35.2032 141.49C34.4285 142.59 33.4631 143.528 32.307 144.305C31.1508 145.081 29.8415 145.637 28.3792 145.97C26.9168 146.304 25.4962 146.372 24.1176 146.174C22.7389 145.976 21.4717 145.547 20.316 144.888C19.1364 144.213 18.1356 143.334 17.3137 142.249C16.4918 141.165 15.9162 139.902 15.5869 138.459C15.2576 137.016 15.2279 135.628 15.4979 134.294C15.7635 132.941 16.2836 131.715 17.0583 130.615C17.809 129.5 18.7624 128.554 19.9186 127.777C21.0747 127 22.384 126.445 23.8464 126.111ZM24.7142 129.913C23.4078 130.212 22.2882 130.744 21.3555 131.511C20.4032 132.282 19.7197 133.197 19.3049 134.256C18.8901 135.315 18.8207 136.449 19.0966 137.658C19.3726 138.867 19.9271 139.858 20.7602 140.632C21.5933 141.406 22.5964 141.936 23.7695 142.222C24.9382 142.489 26.1854 142.471 27.5113 142.168C28.8177 141.87 29.9493 141.345 30.906 140.593C31.8388 139.827 32.5125 138.914 32.9273 137.855C33.3421 136.796 33.4115 135.662 33.1356 134.453C32.8597 133.244 32.3051 132.253 31.472 131.479C30.6389 130.705 29.6358 130.175 28.4627 129.889C27.2701 129.607 26.0206 129.615 24.7142 129.913Z" fill="#474747"/>
<path d="M36.5364 97.4761C36.4118 98.0221 36.1437 98.4327 35.7321 98.708C35.301 98.9789 34.832 99.0565 34.3251 98.9408L17.3613 95.0689L18.2291 91.2667L35.1929 95.1386C35.6999 95.2543 36.0865 95.5374 36.353 95.988C36.6043 96.4146 36.6655 96.9107 36.5364 97.4761ZM17.9511 100.035C17.8354 100.542 17.5815 100.935 17.1894 101.215C16.8018 101.475 16.3545 101.547 15.8475 101.432C15.3406 101.316 14.9787 101.059 14.7619 100.661C14.53 100.238 14.4719 99.7739 14.5876 99.267L17.5516 86.2809C17.6673 85.774 17.919 85.3903 18.3066 85.1301C18.6987 84.8503 19.1482 84.7683 19.6552 84.884C20.1621 84.9997 20.5316 85.2686 20.7634 85.6908C20.9803 86.0891 21.0308 86.5417 20.9151 87.0486L17.9511 100.035Z" fill="#474747"/>
<path d="M37.6207 66.5236C38.9721 67.1745 40.125 68.0072 41.0793 69.0217C42.0337 70.0362 42.7617 71.1749 43.2635 72.4376C43.756 73.6737 43.9811 74.9809 43.939 76.3591C43.9055 77.7192 43.5677 79.066 42.9255 80.3995C42.2834 81.7329 41.441 82.8367 40.3985 83.711C39.3559 84.5852 38.1936 85.2241 36.9115 85.6278C35.62 86.0048 34.2802 86.1365 32.892 86.023C31.5038 85.9094 30.1339 85.5272 28.7825 84.8764C27.431 84.2256 26.2781 83.3929 25.3238 82.3783C24.3695 81.3638 23.6461 80.2385 23.1537 79.0024C22.6519 77.7397 22.4177 76.4282 22.4512 75.068C22.4847 73.7078 22.8225 72.361 23.4646 71.0276C24.1068 69.6942 24.9491 68.5903 25.9917 67.7161C27.0429 66.8238 28.2143 66.1892 29.5057 65.8122C30.7878 65.4086 32.123 65.2635 33.5112 65.3771C34.8994 65.4906 36.2692 65.8728 37.6207 66.5236ZM35.9285 70.0374C34.7212 69.456 33.5139 69.1743 32.3066 69.1922C31.0812 69.2015 29.9763 69.4907 28.9918 70.0599C28.0074 70.6292 27.2461 71.4724 26.7081 72.5896C26.1701 73.7068 25.9855 74.8277 26.1542 75.9523C26.323 77.0769 26.7768 78.1167 27.5155 79.0718C28.2629 80.0089 29.2493 80.7725 30.4746 81.3626C31.6819 81.944 32.8939 82.2391 34.1106 82.2479C35.3179 82.2299 36.4139 81.9364 37.3983 81.3671C38.3828 80.7979 39.144 79.9547 39.6821 78.8375C40.2201 77.7203 40.4047 76.5994 40.2359 75.4748C40.0672 74.3502 39.6134 73.3103 38.8746 72.3552C38.1179 71.3914 37.1358 70.6188 35.9285 70.0374Z" fill="#474747"/>
<path d="M37.2043 50.2971C37.8527 49.484 38.692 48.9126 39.7223 48.5831C40.765 48.2379 41.8597 48.1644 43.0063 48.3625C44.1529 48.5606 45.2188 49.0525 46.2039 49.8381C47.1734 50.6112 47.8822 51.5347 48.3306 52.6085C48.7789 53.6822 48.9586 54.7721 48.8697 55.8779C48.7777 56.9556 48.4074 57.9011 47.759 58.7142L44.3173 63.0299L44.0822 62.4586L48.9374 66.3305C49.3439 66.6547 49.5882 67.0542 49.6701 67.5288C49.7364 67.991 49.6075 68.4253 49.2833 68.8319C48.9715 69.2228 48.583 69.4374 48.1176 69.4756C47.6367 69.5013 47.1929 69.3521 46.7863 69.0278L33.2294 58.2165C32.8228 57.8923 32.5926 57.4913 32.5388 57.0135C32.4818 56.5076 32.6154 56.0513 32.9396 55.6448L37.2043 50.2971ZM45.0851 56.5818C45.3221 56.2847 45.4277 55.8957 45.4019 55.4147C45.3762 54.9338 45.2427 54.4436 45.0014 53.9442C44.7445 53.4323 44.3971 53.0018 43.9593 52.6527C43.5059 52.2911 43.0088 52.0482 42.4683 51.9241C41.9277 51.8 41.428 51.7851 40.969 51.8795C40.4943 51.9615 40.1385 52.151 39.9016 52.4481L36.4225 56.8107L36.2248 56.1926L42.2058 60.9623L41.6248 60.921L45.0851 56.5818Z" fill="#474747"/>
<path d="M74.9561 37.0518C74.4876 37.2774 74.0175 37.3152 73.5456 37.165C73.0917 37.0062 72.752 36.6926 72.5264 36.2241C72.3008 35.7556 72.2717 35.3034 72.4392 34.8676C72.616 34.405 72.9387 34.061 73.4072 33.8354L78.1102 31.5705C78.5787 31.3449 79.0443 31.3205 79.5068 31.4973C79.9787 31.6474 80.3274 31.9567 80.553 32.4252C80.77 32.8757 80.79 33.3322 80.6132 33.7948C80.4457 34.2306 80.1277 34.5613 79.6592 34.7869L74.9561 37.0518Z" fill="#474747"/>
<path d="M117.311 14C119.231 14 120.661 14.45 121.601 15.35C122.541 16.25 123.011 17.58 123.011 19.34C123.011 20.28 122.781 21.11 122.321 21.83C121.861 22.53 121.181 23.08 120.281 23.48C119.381 23.86 118.271 24.05 116.951 24.05L117.071 22.7C117.691 22.7 118.401 22.79 119.201 22.97C120.001 23.13 120.771 23.43 121.511 23.87C122.271 24.29 122.891 24.89 123.371 25.67C123.871 26.43 124.121 27.41 124.121 28.61C124.121 29.93 123.901 31.01 123.461 31.85C123.041 32.69 122.481 33.34 121.781 33.8C121.081 34.26 120.331 34.58 119.531 34.76C118.731 34.92 117.961 35 117.221 35H109.751C109.231 35 108.791 34.83 108.431 34.49C108.091 34.13 107.921 33.69 107.921 33.17V15.83C107.921 15.31 108.091 14.88 108.431 14.54C108.791 14.18 109.231 14 109.751 14L117.311 14ZM116.771 17.54H111.431L111.821 17.06V22.49L111.461 22.22H116.861C117.441 22.22 117.961 22.03 118.421 21.65C118.881 21.27 119.111 20.72 119.111 20C119.111 19.14 118.891 18.52 118.451 18.14C118.031 17.74 117.471 17.54 116.771 17.54ZM117.011 25.76L111.551 25.76L111.821 25.52V31.85L111.521 31.55L117.221 31.55C118.141 31.55 118.871 31.31 119.411 30.83C119.951 30.33 120.221 29.59 120.221 28.61C120.221 27.71 120.041 27.06 119.681 26.66C119.321 26.26 118.891 26.01 118.391 25.91C117.891 25.81 117.431 25.76 117.011 25.76Z" fill="#474747"/>
<path d="M138.007 20.7686L128.298 34.1845C128.077 34.5239 127.796 34.7674 127.454 34.9151C127.137 35.0478 126.812 35.0763 126.481 35.0006C125.954 34.8805 125.598 34.6452 125.411 34.2949C125.224 33.9446 125.18 33.5549 125.278 33.1259C125.318 32.9505 125.389 32.7719 125.492 32.5903L136.767 16.7623C137.012 16.4079 137.315 16.1591 137.676 16.0158C138.056 15.877 138.427 15.8694 138.789 15.9929C139.14 16.073 139.437 16.2537 139.681 16.5349C139.948 16.8011 140.108 17.135 140.16 17.5367L143.443 36.3181C143.482 36.5938 143.478 36.8389 143.429 37.0534C143.309 37.5799 143.038 37.959 142.615 38.1909C142.213 38.4272 141.807 38.4987 141.397 38.4052C141.046 38.3251 140.749 38.1444 140.505 37.8632C140.281 37.5864 140.134 37.245 140.062 36.8389L137.118 20.7505L138.007 20.7686ZM130.019 30.8232L132.395 27.8269L140.292 29.6293L140.08 33.1197L130.019 30.8232Z" fill="#474747"/>
<path d="M167.09 28.052C167.446 28.5119 167.538 29.0115 167.367 29.5507C167.214 30.0986 166.867 30.4974 166.325 30.747C165.934 30.9585 165.541 30.9912 165.146 30.845C164.768 30.7075 164.433 30.4575 164.142 30.0951C163.805 29.6886 163.419 29.3142 162.984 28.9717C162.568 28.638 162.098 28.3453 161.576 28.0937C160.603 27.6251 159.655 27.3574 158.733 27.2905C157.828 27.2324 156.967 27.3615 156.149 27.6778C155.339 27.9761 154.604 28.4432 153.942 29.0792C153.299 29.7238 152.751 30.5147 152.3 31.4517C151.771 32.5509 151.464 33.5797 151.38 34.538C151.314 35.5051 151.43 36.3934 151.728 37.203C152.026 38.0126 152.489 38.7348 153.116 39.3696C153.751 39.9863 154.51 40.5073 155.393 40.9325C155.88 41.1668 156.388 41.356 156.918 41.5002C157.448 41.6444 157.994 41.7079 158.557 41.6905C159.023 41.6926 159.422 41.8074 159.757 42.035C160.109 42.2713 160.333 42.6124 160.429 43.0582C160.573 43.6822 160.473 44.2115 160.131 44.6459C159.815 45.0711 159.38 45.2833 158.825 45.2826C158.244 45.2912 157.662 45.2551 157.08 45.1743C156.524 45.0842 155.976 44.9536 155.437 44.7827C154.889 44.6299 154.354 44.4276 153.831 44.176C152.534 43.5512 151.399 42.7495 150.427 41.771C149.474 40.8012 148.733 39.6896 148.204 38.4361C147.694 37.1914 147.468 35.8395 147.527 34.3806C147.594 32.9036 148.014 31.3633 148.786 29.7595C149.455 28.372 150.305 27.2055 151.338 26.2598C152.388 25.3229 153.55 24.6392 154.823 24.2088C156.122 23.7691 157.479 23.6014 158.894 23.7056C160.318 23.7918 161.732 24.1733 163.138 24.8502C163.931 25.232 164.662 25.6952 165.332 26.2399C166.002 26.7845 166.588 27.3886 167.09 28.052Z" fill="#474747"/>
<path d="M172.061 56.5878C171.623 56.2386 171.415 55.7783 171.436 55.2066L171.704 43.7555L175.578 43.2764L175.273 55.1585C175.255 55.6302 175.109 56.0381 174.834 56.3821C174.485 56.8199 174.034 57.0486 173.481 57.0682C172.941 57.0721 172.467 56.912 172.061 56.5878ZM185.529 40.2765C185.904 40.5758 186.085 40.9753 186.07 41.4751C186.083 41.9717 185.965 42.3764 185.716 42.6891C185.454 43.0175 185.07 43.2102 184.564 43.2672L167.236 44.8353L169.793 41.3878L183.95 39.8995C184.596 39.8266 185.123 39.9523 185.529 40.2765ZM162.21 48.7318C161.772 48.3827 161.526 47.9692 161.472 47.4914C161.431 46.9979 161.572 46.5479 161.897 46.1414L172.708 32.5844C173.032 32.1779 173.441 31.9539 173.934 31.9125C174.44 31.8555 174.912 32.0016 175.35 32.3508C175.788 32.6999 176.02 33.115 176.045 33.596C176.099 34.0738 175.964 34.516 175.64 34.9225L164.828 48.4795C164.504 48.886 164.097 49.124 163.607 49.1935C163.129 49.2473 162.663 49.0935 162.21 48.7318Z" fill="#474747"/>
<path d="M189.464 81.0111C189.221 80.5065 189.175 80.0183 189.325 79.5464C189.493 79.0659 189.811 78.7128 190.28 78.4872L205.957 70.9376L207.649 74.4514L191.972 82.001C191.503 82.2266 191.025 82.2463 190.535 82.0601C190.073 81.8833 189.716 81.5336 189.464 81.0111ZM202.399 67.423C202.174 66.9545 202.127 66.4886 202.259 66.0254C202.4 65.5803 202.705 65.2449 203.173 65.0192C203.642 64.7936 204.085 64.7689 204.503 64.9451C204.947 65.1306 205.282 65.4576 205.508 65.9261L211.287 77.927C211.513 78.3955 211.555 78.8523 211.414 79.2975C211.282 79.7607 210.982 80.1051 210.513 80.3307C210.045 80.5563 209.588 80.5764 209.144 80.3909C208.726 80.2147 208.404 79.8924 208.179 79.4239L202.399 67.423Z" fill="#474747"/>
<path d="M207.915 105.888C206.453 106.222 205.033 106.29 203.654 106.092C202.275 105.894 200.996 105.457 199.816 104.783C198.661 104.123 197.67 103.242 196.843 102.138C196.021 101.054 195.446 99.7902 195.117 98.3473C194.787 96.9044 194.758 95.5162 195.028 94.1826C195.298 92.8491 195.808 91.6249 196.559 90.5098C197.333 89.4099 198.299 88.4715 199.455 87.6948C200.611 86.9181 201.92 86.3628 203.383 86.029C204.845 85.6952 206.266 85.6274 207.644 85.8256C209.023 86.0238 210.29 86.4526 211.446 87.112C212.625 87.7864 213.626 88.6657 214.448 89.75C215.27 90.8343 215.846 92.0979 216.175 93.5408C216.504 94.9837 216.534 96.3719 216.264 97.7054C215.998 99.0585 215.478 100.285 214.704 101.385C213.953 102.5 212.999 103.446 211.843 104.223C210.687 104.999 209.378 105.555 207.915 105.888ZM207.048 102.086C208.354 101.788 209.474 101.255 210.406 100.489C211.359 99.7174 212.042 98.8024 212.457 97.7435C212.872 96.6847 212.941 95.5508 212.665 94.3419C212.389 93.133 211.835 92.1415 211.002 91.3675C210.169 90.5935 209.165 90.0634 207.992 89.7773C206.824 89.5106 205.576 89.5286 204.251 89.8312C202.944 90.1294 201.813 90.6544 200.856 91.4061C199.923 92.1729 199.249 93.0857 198.835 94.1446C198.42 95.2034 198.35 96.3373 198.626 97.5462C198.902 98.7551 199.457 99.7466 200.29 100.521C201.123 101.295 202.126 101.825 203.299 102.111C204.492 102.393 205.741 102.384 207.048 102.086Z" fill="#474747"/>
<path d="M195.225 134.523C195.35 133.977 195.618 133.567 196.03 133.291C196.461 133.021 196.93 132.943 197.437 133.059L214.4 136.931L213.533 140.733L196.569 136.861C196.062 136.745 195.675 136.462 195.409 136.012C195.157 135.585 195.096 135.089 195.225 134.523ZM213.811 131.965C213.926 131.458 214.18 131.065 214.572 130.785C214.96 130.524 215.407 130.452 215.914 130.568C216.421 130.684 216.783 130.941 217 131.339C217.232 131.761 217.29 132.226 217.174 132.733L214.21 145.719C214.094 146.226 213.843 146.609 213.455 146.869C213.063 147.149 212.613 147.231 212.107 147.116C211.6 147 211.23 146.731 210.998 146.309C210.781 145.91 210.731 145.458 210.847 144.951L213.811 131.965Z" fill="#474747"/>
<path d="M194.141 165.476C192.79 164.826 191.637 163.993 190.682 162.978C189.728 161.964 189 160.825 188.498 159.562C188.006 158.326 187.781 157.019 187.823 155.641C187.856 154.281 188.194 152.934 188.836 151.601C189.478 150.267 190.321 149.163 191.363 148.289C192.406 147.415 193.568 146.776 194.85 146.372C196.142 145.995 197.482 145.863 198.87 145.977C200.258 146.091 201.628 146.473 202.979 147.124C204.331 147.774 205.484 148.607 206.438 149.622C207.392 150.636 208.116 151.761 208.608 152.998C209.11 154.26 209.344 155.572 209.311 156.932C209.277 158.292 208.939 159.639 208.297 160.972C207.655 162.306 206.813 163.41 205.77 164.284C204.719 165.176 203.547 165.811 202.256 166.188C200.974 166.591 199.639 166.737 198.251 166.623C196.862 166.509 195.492 166.127 194.141 165.476ZM195.833 161.963C197.04 162.544 198.248 162.826 199.455 162.808C200.681 162.799 201.785 162.509 202.77 161.94C203.754 161.371 204.516 160.528 205.054 159.41C205.592 158.293 205.776 157.172 205.607 156.048C205.439 154.923 204.985 153.883 204.246 152.928C203.499 151.991 202.512 151.227 201.287 150.637C200.08 150.056 198.868 149.761 197.651 149.752C196.444 149.77 195.348 150.064 194.363 150.633C193.379 151.202 192.618 152.045 192.08 153.163C191.542 154.28 191.357 155.401 191.526 156.525C191.695 157.65 192.148 158.69 192.887 159.645C193.644 160.609 194.626 161.381 195.833 161.963Z" fill="#474747"/>
<path d="M194.557 181.703C193.909 182.516 193.07 183.087 192.039 183.417C190.997 183.762 189.902 183.836 188.755 183.638C187.609 183.439 186.543 182.948 185.558 182.162C184.588 181.389 183.879 180.465 183.431 179.392C182.983 178.318 182.803 177.228 182.892 176.122C182.984 175.044 183.354 174.099 184.003 173.286L187.444 168.97L187.68 169.541L182.824 165.669C182.418 165.345 182.174 164.946 182.092 164.471C182.025 164.009 182.154 163.575 182.478 163.168C182.79 162.777 183.179 162.563 183.644 162.524C184.125 162.499 184.569 162.648 184.975 162.972L198.532 173.783C198.939 174.108 199.169 174.509 199.223 174.987C199.28 175.492 199.146 175.949 198.822 176.355L194.557 181.703ZM186.677 175.418C186.44 175.715 186.334 176.104 186.36 176.585C186.386 177.066 186.519 177.556 186.76 178.056C187.017 178.568 187.365 178.998 187.802 179.347C188.256 179.709 188.753 179.952 189.293 180.076C189.834 180.2 190.334 180.215 190.793 180.12C191.267 180.039 191.623 179.849 191.86 179.552L195.339 175.189L195.537 175.807L189.556 171.038L190.137 171.079L186.677 175.418Z" fill="#474747"/>
<path d="M156.806 194.949C157.274 194.723 157.744 194.685 158.216 194.835C158.67 194.994 159.01 195.308 159.235 195.776C159.461 196.245 159.49 196.697 159.323 197.133C159.146 197.595 158.823 197.94 158.355 198.165L153.651 200.43C153.183 200.656 152.717 200.68 152.255 200.503C151.783 200.353 151.434 200.044 151.209 199.575C150.992 199.125 150.972 198.668 151.149 198.206C151.316 197.77 151.634 197.439 152.103 197.214L156.806 194.949Z" fill="#474747"/>
</svg>
