<svg width="71" height="60" viewBox="0 0 71 60" fill="none" xmlns="http://www.w3.org/2000/svg">
<rect x="-0.707107" width="23.3819" height="35.3381" rx="11.691" transform="matrix(-0.707107 -0.707107 -0.707107 0.707107 64.436 17.5869)" fill="#00BFFF" fill-opacity="0.35" stroke="#474747"/>
<rect width="64.0504" height="36.2024" rx="18.1012" transform="matrix(-1 0 0 1 68.6935 22.8462)" fill="#474747"/>
<path fill-rule="evenodd" clip-rule="evenodd" d="M16.8402 58.0638C13.4437 53.2171 11.4505 47.3151 11.4505 40.9474C11.4505 34.5797 13.4437 28.6776 16.8403 23.8309C18.6908 23.1927 20.6771 22.8462 22.7444 22.8462H50.5923C60.5894 22.8462 68.6935 30.9504 68.6935 40.9474C68.6935 50.9444 60.5894 59.0486 50.5924 59.0486L22.7444 59.0486C20.6771 59.0486 18.6907 58.702 16.8402 58.0638Z" fill="#FFD600"/>
<path fill-rule="evenodd" clip-rule="evenodd" d="M24.0585 59.0486C20.2251 54.0267 17.9483 47.753 17.9483 40.9474C17.9483 34.1418 20.2251 27.8681 24.0586 22.8462L50.5923 22.8462C60.5894 22.8462 68.6935 30.9504 68.6935 40.9474C68.6935 50.9444 60.5894 59.0486 50.5924 59.0486L24.0585 59.0486Z" fill="#474747"/>
<path fill-rule="evenodd" clip-rule="evenodd" d="M33.0318 59.0486C29.1984 54.0267 26.9216 47.753 26.9216 40.9474C26.9216 34.1418 29.1984 27.8681 33.0318 22.8462L50.5923 22.8462C60.5894 22.8462 68.6935 30.9504 68.6935 40.9474C68.6935 50.9444 60.5894 59.0486 50.5924 59.0486L33.0318 59.0486Z" fill="#FFD600"/>
<path fill-rule="evenodd" clip-rule="evenodd" d="M42.3144 59.0486C38.481 54.0267 36.2042 47.753 36.2042 40.9474C36.2042 34.1418 38.481 27.8681 42.3145 22.8462L50.5923 22.8462C60.5894 22.8462 68.6935 30.9504 68.6935 40.9474C68.6935 50.9444 60.5894 59.0486 50.5924 59.0486L42.3144 59.0486Z" fill="#474747"/>
<rect x="-1" y="1" width="62.0504" height="34.2024" rx="17.1012" transform="matrix(-1 0 0 1 66.6935 22.8462)" stroke="#474747" stroke-width="2"/>
<path d="M69.6432 37.6097C69.6432 42.1908 66.7785 45.4628 63.7267 45.4628C60.6749 45.4628 57.8102 42.1908 57.8102 37.6097C57.8102 33.0286 60.6749 29.7566 63.7267 29.7566C66.7785 29.7566 69.6432 33.0286 69.6432 37.6097Z" fill="#FBF9FF" stroke="#474747" stroke-width="2"/>
<path d="M58.0235 37.6097C58.0235 42.1908 55.1588 45.4628 52.107 45.4628C49.0552 45.4628 46.1905 42.1908 46.1905 37.6097C46.1905 33.0286 49.0552 29.7566 52.107 29.7566C55.1588 29.7566 58.0235 33.0286 58.0235 37.6097Z" fill="#FBF9FF" stroke="#474747" stroke-width="2"/>
<path d="M56.8635 41.4829C56.8635 43.4649 55.6192 44.8561 54.3202 44.8561C53.0212 44.8561 51.777 43.4649 51.777 41.4829C51.777 39.5008 53.0212 38.1096 54.3202 38.1096C55.6192 38.1096 56.8635 39.5008 56.8635 41.4829Z" fill="#474747" stroke="#474747"/>
<path d="M68.4832 41.4829C68.4832 43.4649 67.239 44.8561 65.94 44.8561C64.641 44.8561 63.3967 43.4649 63.3967 41.4829C63.3967 39.5008 64.641 38.1096 65.94 38.1096C67.239 38.1096 68.4832 39.5008 68.4832 41.4829Z" fill="#474747" stroke="#474747"/>
<rect y="0.707107" width="23.3819" height="35.3381" rx="11.691" transform="matrix(-0.707107 0.707107 0.707107 0.707107 17.6788 1.82283)" fill="#00BFFF" fill-opacity="0.35" stroke="#474747"/>
</svg>
