<svg width="70" height="59" viewBox="0 0 70 59" fill="none" xmlns="http://www.w3.org/2000/svg">
<rect x="5.70717" y="17.2407" width="23.3819" height="35.3381" rx="11.691" transform="rotate(-45 5.70717 17.2407)" fill="#00BFFF" fill-opacity="0.35" stroke="#474747"/>
<rect x="1.94965" y="22" width="64.0504" height="36.2024" rx="18.1012" fill="#474747"/>
<path fill-rule="evenodd" clip-rule="evenodd" d="M53.803 57.2176C57.1995 52.371 59.1927 46.4689 59.1927 40.1012C59.1927 33.7335 57.1995 27.8314 53.8029 22.9847C51.9524 22.3466 49.9661 22 47.8988 22H20.0508C10.0538 22 1.94965 30.1042 1.94965 40.1012C1.94965 50.0982 10.0538 58.2024 20.0508 58.2024H47.8988C49.9661 58.2024 51.9525 57.8558 53.803 57.2176Z" fill="#FFD600"/>
<path fill-rule="evenodd" clip-rule="evenodd" d="M46.5846 58.2024C50.4181 53.1805 52.6949 46.9068 52.6949 40.1012C52.6949 33.2957 50.418 27.0219 46.5846 22H20.0508C10.0538 22 1.94965 30.1042 1.94965 40.1012C1.94965 50.0982 10.0538 58.2024 20.0508 58.2024H46.5846Z" fill="#474747"/>
<path fill-rule="evenodd" clip-rule="evenodd" d="M37.6114 58.2024C41.4448 53.1805 43.7216 46.9068 43.7216 40.1012C43.7216 33.2957 41.4448 27.0219 37.6114 22H20.0508C10.0538 22 1.94965 30.1042 1.94965 40.1012C1.94965 50.0982 10.0538 58.2024 20.0508 58.2024H37.6114Z" fill="#FFD600"/>
<path fill-rule="evenodd" clip-rule="evenodd" d="M28.3287 58.2024C32.1622 53.1805 34.439 46.9068 34.439 40.1012C34.439 33.2957 32.1622 27.0219 28.3287 22H20.0508C10.0538 22 1.94965 30.1042 1.94965 40.1012C1.94965 50.0982 10.0538 58.2024 20.0508 58.2024H28.3287Z" fill="#474747"/>
<rect x="2.94965" y="23" width="62.0504" height="34.2024" rx="17.1012" stroke="#474747" stroke-width="2"/>
<path d="M1.00003 36.7635C1.00003 41.3446 3.86471 44.6166 6.91652 44.6166C9.96832 44.6166 12.833 41.3446 12.833 36.7635C12.833 32.1825 9.96832 28.9104 6.91652 28.9104C3.86471 28.9104 1.00003 32.1825 1.00003 36.7635Z" fill="#FBF9FF" stroke="#474747" stroke-width="2"/>
<path d="M12.6197 36.7635C12.6197 41.3446 15.4844 44.6166 18.5362 44.6166C21.588 44.6166 24.4527 41.3446 24.4527 36.7635C24.4527 32.1825 21.588 28.9104 18.5362 28.9104C15.4844 28.9104 12.6197 32.1825 12.6197 36.7635Z" fill="#FBF9FF" stroke="#474747" stroke-width="2"/>
<path d="M13.7797 40.6367C13.7797 42.6187 15.024 44.0099 16.323 44.0099C17.6219 44.0099 18.8662 42.6187 18.8662 40.6367C18.8662 38.6546 17.6219 37.2634 16.323 37.2634C15.024 37.2634 13.7797 38.6546 13.7797 40.6367Z" fill="#474747" stroke="#474747"/>
<path d="M2.15995 40.6367C2.15995 42.6187 3.40422 44.0099 4.7032 44.0099C6.00219 44.0099 7.24646 42.6187 7.24646 40.6367C7.24646 38.6546 6.00219 37.2634 4.7032 37.2634C3.40422 37.2634 2.15995 38.6546 2.15995 40.6367Z" fill="#474747" stroke="#474747"/>
<rect x="52.4644" y="1.47664" width="23.3819" height="35.3381" rx="11.691" transform="rotate(45 52.4644 1.47664)" fill="#00BFFF" fill-opacity="0.35" stroke="#474747"/>
</svg>
