<svg width="156" height="156" viewBox="0 0 156 156" fill="none" xmlns="http://www.w3.org/2000/svg">
<g clip-path="url(#clip0_642_192)">
<circle cx="78.6392" cy="77.9992" r="73.7612" fill="#FFD600" stroke="#474747" stroke-width="6"/>
<path d="M110.167 97.809C111.088 97.5921 112.052 97.6493 112.941 97.9737C113.83 98.298 114.605 98.8752 115.171 99.6343C115.736 100.393 116.067 101.301 116.122 102.246C116.178 103.191 115.957 104.131 115.485 104.952C111.653 111.593 106.139 117.108 99.4978 120.941C92.857 124.774 85.3237 126.79 77.6561 126.787C69.9884 126.79 62.4551 124.774 55.8143 120.941C49.1735 117.108 43.6596 111.593 39.8275 104.952C39.3556 104.131 39.1339 103.191 39.1897 102.246C39.2455 101.301 39.5764 100.393 40.1416 99.6343C40.7068 98.8752 41.4816 98.298 42.3707 97.9737C43.2598 97.6493 44.2244 97.5921 45.1456 97.809H45.1941L45.3591 97.8575L46.0093 98.0031L48.4549 98.5368C50.5414 98.9832 53.4527 99.5849 56.7717 100.177C63.497 101.38 71.5421 102.525 77.6561 102.525C83.77 102.525 91.8248 101.38 98.5404 100.177C102.143 99.5288 105.731 98.804 109.303 98.0031L109.953 97.8575L110.118 97.8187L110.167 97.7993V97.809ZM46.5139 44.9382C53.9186 31.1189 85.5265 43.7737 55.7527 78.2639C12.1208 62.7753 32.9469 36.5534 46.5139 44.9382ZM109.478 44.9382C123.045 36.5534 143.871 62.7753 100.239 78.2639C70.4746 43.7737 102.083 31.1189 109.478 44.9382Z" fill="#474747"/>
</g>
<defs>
<clipPath id="clip0_642_192">
<rect width="155.274" height="155.274" fill="white" transform="translate(0.358887 0.626953)"/>
</clipPath>
</defs>
</svg>
