<svg width="492" height="492" viewBox="0 0 492 492" fill="none" xmlns="http://www.w3.org/2000/svg">
<mask id="path-1-inside-1_639_168" fill="white">
<path fill-rule="evenodd" clip-rule="evenodd" d="M0.455172 154.782C0.455172 188.937 11.5699 220.496 30.3798 246.039C11.5699 271.583 0.455078 303.142 0.455078 337.297C0.455078 422.381 69.4295 491.356 154.514 491.356C188.669 491.356 220.228 480.241 245.771 461.431C271.315 480.241 302.874 491.356 337.029 491.356C422.114 491.356 491.088 422.382 491.088 337.297C491.088 303.142 479.973 271.583 461.164 246.04C479.974 220.496 491.088 188.937 491.088 154.782C491.088 69.6977 422.114 0.723257 337.03 0.723257C302.875 0.723257 271.315 11.8381 245.772 30.6481C220.228 11.838 188.669 0.723145 154.514 0.723145C69.4296 0.723145 0.455172 69.6976 0.455172 154.782Z"/>
</mask>
<path fill-rule="evenodd" clip-rule="evenodd" d="M0.455172 154.782C0.455172 188.937 11.5699 220.496 30.3798 246.039C11.5699 271.583 0.455078 303.142 0.455078 337.297C0.455078 422.381 69.4295 491.356 154.514 491.356C188.669 491.356 220.228 480.241 245.771 461.431C271.315 480.241 302.874 491.356 337.029 491.356C422.114 491.356 491.088 422.382 491.088 337.297C491.088 303.142 479.973 271.583 461.164 246.04C479.974 220.496 491.088 188.937 491.088 154.782C491.088 69.6977 422.114 0.723257 337.03 0.723257C302.875 0.723257 271.315 11.8381 245.772 30.6481C220.228 11.838 188.669 0.723145 154.514 0.723145C69.4296 0.723145 0.455172 69.6976 0.455172 154.782Z" fill="#FF003D"/>
<path d="M30.3798 246.039L35.2112 249.597C36.7693 247.481 36.7693 244.598 35.2112 242.482L30.3798 246.039ZM245.771 461.431L249.329 456.6C247.213 455.042 244.33 455.042 242.214 456.6L245.771 461.431ZM461.164 246.04L456.332 242.482C454.774 244.598 454.774 247.482 456.332 249.598L461.164 246.04ZM245.772 30.6481L242.214 35.4795C244.33 37.0376 247.214 37.0376 249.33 35.4795L245.772 30.6481ZM35.2112 242.482C17.1347 217.934 6.45517 187.614 6.45517 154.782H-5.54483C-5.54483 190.26 6.0052 223.058 25.5484 249.597L35.2112 242.482ZM6.45508 337.297C6.45508 304.465 17.1346 274.145 35.2112 249.597L25.5484 242.482C6.00514 269.021 -5.54492 301.819 -5.54492 337.297H6.45508ZM154.514 485.356C72.7432 485.356 6.45508 419.068 6.45508 337.297H-5.54492C-5.54492 425.695 66.1158 497.356 154.514 497.356V485.356ZM242.214 456.6C217.666 474.676 187.346 485.356 154.514 485.356V497.356C189.992 497.356 222.79 485.806 249.329 466.262L242.214 456.6ZM337.029 485.356C304.197 485.356 273.877 474.676 249.329 456.6L242.214 466.262C268.753 485.806 301.551 497.356 337.029 497.356V485.356ZM485.088 337.297C485.088 419.068 418.8 485.356 337.029 485.356V497.356C425.427 497.356 497.088 425.695 497.088 337.297H485.088ZM456.332 249.598C474.409 274.145 485.088 304.465 485.088 337.297H497.088C497.088 301.819 485.538 269.021 465.995 242.482L456.332 249.598ZM485.088 154.782C485.088 187.614 474.409 217.934 456.332 242.482L465.995 249.598C485.538 223.058 497.088 190.26 497.088 154.782H485.088ZM337.03 6.72326C418.8 6.72326 485.088 73.0114 485.088 154.782H497.088C497.088 66.384 425.428 -5.27674 337.03 -5.27674V6.72326ZM249.33 35.4795C273.877 17.4028 304.198 6.72326 337.03 6.72326V-5.27674C301.552 -5.27674 268.753 6.27336 242.214 25.8167L249.33 35.4795ZM154.514 6.72314C187.346 6.72314 217.666 17.4028 242.214 35.4795L249.33 25.8167C222.79 6.27329 189.992 -5.27686 154.514 -5.27686V6.72314ZM6.45517 154.782C6.45517 73.0113 72.7433 6.72314 154.514 6.72314V-5.27686C66.1159 -5.27686 -5.54483 66.3839 -5.54483 154.782H6.45517Z" fill="#474747" mask="url(#path-1-inside-1_639_168)"/>
</svg>
