<svg width="58" height="58" viewBox="0 0 58 58" fill="none" xmlns="http://www.w3.org/2000/svg">
<g clip-path="url(#clip0_1312_2028)">
<path d="M35.3438 15.8682H22.6562C22.4057 15.8682 22.2031 16.0712 22.2031 16.3213C22.2031 16.5714 22.4057 16.7744 22.6562 16.7744H35.3438C35.5943 16.7744 35.7969 16.5714 35.7969 16.3213C35.7969 16.0712 35.5943 15.8682 35.3438 15.8682Z" fill="#474747"/>
<path d="M49.8438 19.4844H1.35938C1.10925 19.4844 0.90625 19.285 0.90625 19.0399V17.2274C0.90625 16.9772 1.11378 16.7656 1.35938 16.7656H19.4844C19.735 16.7656 19.9375 16.5626 19.9375 16.3125C19.9375 16.0624 19.735 15.8594 19.4844 15.8594H1.35938C0.609906 15.8594 0 16.4729 0 17.2274V19.0399C0 19.7848 0.609906 20.3906 1.35938 20.3906H49.8438C50.0943 20.3906 50.2969 20.1876 50.2969 19.9375C50.2969 19.6874 50.0943 19.4844 49.8438 19.4844Z" fill="#474747"/>
<path d="M56.6406 15.8594H38.5156C38.265 15.8594 38.0625 16.0624 38.0625 16.3125C38.0625 16.5626 38.265 16.7656 38.5156 16.7656H56.6406C56.8862 16.7656 57.0938 16.9772 57.0938 17.2274V19.0399C57.0938 19.285 56.8908 19.4844 56.6406 19.4844H54.375C54.1244 19.4844 53.9219 19.6874 53.9219 19.9375C53.9219 20.1876 54.1244 20.3906 54.375 20.3906H56.6406C57.3901 20.3906 58 19.7848 58 19.0399V17.2274C58 16.4729 57.3901 15.8594 56.6406 15.8594Z" fill="#474747"/>
<path d="M16.3125 43.9533H7.24998C5.48415 43.9533 3.94443 42.5219 3.81756 40.752L1.81021 19.8969C1.7862 19.6477 1.56145 19.4642 1.31585 19.4891C1.06709 19.5131 0.884478 19.7342 0.908494 19.9834L2.91493 40.8276C3.07398 43.0507 5.01879 44.8596 7.24998 44.8596H16.3125C16.5631 44.8596 16.7656 44.6566 16.7656 44.4064C16.7656 44.1563 16.5631 43.9533 16.3125 43.9533Z" fill="#474747"/>
<path d="M56.6841 19.4908C56.4394 19.4673 56.2142 19.6494 56.1898 19.8986L54.1815 40.7605C54.0555 42.5209 52.5158 43.9532 50.75 43.9532H41.6875C41.4369 43.9532 41.2344 44.1562 41.2344 44.4064C41.2344 44.6565 41.4369 44.8595 41.6875 44.8595H50.75C52.9812 44.8595 54.926 43.0497 55.0841 40.8362L57.0915 19.9852C57.1155 19.7364 56.9333 19.5148 56.6841 19.4908Z" fill="#474747"/>
<path d="M27.4544 1.47465C27.2405 1.04055 26.8708 0.715211 26.4126 0.559336C26.2232 0.494539 26.0266 0.461914 25.8281 0.461914C25.0519 0.461914 24.3627 0.95582 24.1117 1.69351L19.1287 16.6439C18.9723 17.102 19.004 17.5937 19.2179 18.0282C19.4318 18.4628 19.802 18.7881 20.2597 18.9435C20.4491 19.0083 20.6457 19.0409 20.8446 19.0409C21.6204 19.0409 22.3096 18.547 22.5606 17.8094L27.5436 2.85895C27.7 2.40084 27.6683 1.9092 27.4544 1.47465ZM26.6854 2.5694L21.702 17.5203C21.5447 17.982 21.0182 18.2453 20.5519 18.0862C20.3231 18.0083 20.1378 17.8456 20.0308 17.6286C19.9239 17.4111 19.908 17.1655 19.9869 16.9335L24.9699 1.9826C25.0954 1.61512 25.4402 1.36816 25.8281 1.36816C25.9269 1.36816 26.0252 1.38448 26.1204 1.4171C26.5934 1.57796 26.8472 2.09362 26.6854 2.5694Z" fill="#474747"/>
<path d="M38.8727 16.6466L33.8879 1.69079C33.6378 0.95582 32.9486 0.461914 32.1724 0.461914C31.9739 0.461914 31.7772 0.494539 31.5883 0.558883C31.1297 0.715211 30.76 1.04055 30.5461 1.47465C30.3327 1.9092 30.3005 2.40084 30.4559 2.85623L35.4407 17.8121C35.6909 18.547 36.3801 19.0409 37.1563 19.0409C37.3547 19.0409 37.5514 19.0083 37.7404 18.944C38.1985 18.7881 38.5691 18.4628 38.7825 18.0282C38.996 17.5937 39.0281 17.102 38.8727 16.6466ZM37.9692 17.6281C37.8622 17.8451 37.6774 18.0078 37.4476 18.0858C36.98 18.2448 36.4548 17.9802 36.299 17.5225L31.3141 2.56668C31.1533 2.09362 31.407 1.57796 31.8805 1.41665C31.9752 1.38448 32.0736 1.36816 32.1724 1.36816C32.5602 1.36816 32.9051 1.61512 33.0297 1.98034L38.014 16.9357C38.092 17.165 38.0757 17.4111 37.9692 17.6281Z" fill="#474747"/>
<path d="M29 23.5713C28.0004 23.5713 27.1875 24.3842 27.1875 25.3838V31.7189C27.1875 31.9691 27.39 32.1721 27.6406 32.1721C27.8912 32.1721 28.0938 31.9691 28.0938 31.7189V25.3838C28.0938 24.884 28.5002 24.4775 29 24.4775C29.4998 24.4775 29.9062 24.884 29.9062 25.3838V31.7189C29.9062 31.9691 30.1088 32.1721 30.3594 32.1721C30.61 32.1721 30.8125 31.9691 30.8125 31.7189V25.3838C30.8125 24.3842 29.9996 23.5713 29 23.5713Z" fill="#474747"/>
<path d="M20.3906 23.5713C19.391 23.5713 18.5781 24.3842 18.5781 25.3838V36.2502C18.5781 36.5003 18.7807 36.7033 19.0312 36.7033C19.2818 36.7033 19.4844 36.5003 19.4844 36.2502V25.3838C19.4844 24.884 19.8908 24.4775 20.3906 24.4775C20.8904 24.4775 21.2969 24.884 21.2969 25.3838V33.9846C21.2969 34.2347 21.4994 34.4377 21.75 34.4377C22.0006 34.4377 22.2031 34.2347 22.2031 33.9846V25.3838C22.2031 24.3842 21.3902 23.5713 20.3906 23.5713Z" fill="#474747"/>
<path d="M11.7812 23.5713C10.7817 23.5713 9.96875 24.3842 9.96875 25.3838V39.4307C9.96875 40.4303 10.7817 41.2432 11.7812 41.2432C12.7808 41.2432 13.5938 40.4303 13.5938 39.4307V25.3838C13.5938 24.3842 12.7808 23.5713 11.7812 23.5713ZM12.6875 39.4307C12.6875 39.9305 12.281 40.3369 11.7812 40.3369C11.2815 40.3369 10.875 39.9305 10.875 39.4307V25.3838C10.875 24.884 11.2815 24.4775 11.7812 24.4775C12.281 24.4775 12.6875 24.884 12.6875 25.3838V39.4307Z" fill="#474747"/>
<path d="M46.2188 23.5713C45.2192 23.5713 44.4062 24.3842 44.4062 25.3838V39.4307C44.4062 40.4303 45.2192 41.2432 46.2188 41.2432C47.2183 41.2432 48.0312 40.4303 48.0312 39.4307V25.3838C48.0312 24.3842 47.2183 23.5713 46.2188 23.5713ZM47.125 39.4307C47.125 39.9305 46.7185 40.3369 46.2188 40.3369C45.719 40.3369 45.3125 39.9305 45.3125 39.4307V25.3838C45.3125 24.884 45.719 24.4775 46.2188 24.4775C46.7185 24.4775 47.125 24.884 47.125 25.3838V39.4307Z" fill="#474747"/>
<path d="M37.6094 23.5713C36.6098 23.5713 35.7969 24.3842 35.7969 25.3838V33.9846C35.7969 34.2347 35.9994 34.4377 36.25 34.4377C36.5006 34.4377 36.7031 34.2347 36.7031 33.9846V25.3838C36.7031 24.884 37.1096 24.4775 37.6094 24.4775C38.1092 24.4775 38.5156 24.884 38.5156 25.3838V36.2502C38.5156 36.5003 38.7182 36.7033 38.9688 36.7033C39.2193 36.7033 39.4219 36.5003 39.4219 36.2502V25.3838C39.4219 24.3842 38.609 23.5713 37.6094 23.5713Z" fill="#474747"/>
<path d="M35.4339 41.1666C34.9205 40.6528 34.0252 40.6528 33.5118 41.1666L28.1069 46.5711L25.3333 43.7975C24.8199 43.2836 23.9246 43.2836 23.4112 43.7975C22.881 44.3272 22.881 45.1899 23.4112 45.7196L27.1458 49.4543C27.4023 49.7112 27.7439 49.8526 28.1069 49.8526C28.4699 49.8526 28.8115 49.7112 29.068 49.4543L35.4339 43.0892C35.6909 42.8323 35.8322 42.4911 35.8322 42.1277C35.8322 41.7643 35.6904 41.4231 35.4339 41.1666ZM34.7932 42.4481L28.4273 48.8136C28.2555 48.9849 27.9583 48.9849 27.7865 48.8136L24.0519 45.0789C23.8752 44.9022 23.8752 44.6149 24.0519 44.4382C24.1375 44.3526 24.2513 44.3054 24.3722 44.3054C24.4932 44.3054 24.607 44.3526 24.6926 44.4382L27.7865 47.5321C27.9637 47.7093 28.2501 47.7093 28.4273 47.5321L34.1525 41.8074C34.3242 41.6361 34.6215 41.6356 34.7932 41.8074C34.8789 41.893 34.926 42.0067 34.926 42.1277C34.926 42.2487 34.8789 42.3624 34.7932 42.4481Z" fill="#474747"/>
<path d="M29.0177 31.2915C21.7818 31.2915 15.8948 37.1785 15.8948 44.4145C15.8948 51.6509 21.7818 57.5383 29.0177 57.5383C36.2537 57.5383 42.1407 51.6509 42.1407 44.4145C42.1407 37.1785 36.2537 31.2915 29.0177 31.2915ZM29.0177 56.6321C22.2816 56.6321 16.801 51.1511 16.801 44.4145C16.801 37.6783 22.2816 32.1978 29.0177 32.1978C35.7539 32.1978 41.2344 37.6783 41.2344 44.4145C41.2344 51.1511 35.7539 56.6321 29.0177 56.6321Z" fill="#474747"/>
<path d="M37.8495 37.296C37.6923 37.1016 37.4068 37.0713 37.2125 37.229C37.0181 37.3867 36.9877 37.6721 37.1454 37.8665C38.6389 39.7112 39.4613 42.0371 39.4613 44.4155C39.4613 50.1584 34.7887 54.8306 29.0458 54.8306C23.3029 54.8306 18.6302 50.1584 18.6302 44.4155C18.6302 38.6726 23.3024 34.0005 29.0458 34.0005C31.0898 34.0005 33.0677 34.5913 34.7665 35.7101C34.9754 35.8488 35.2568 35.7903 35.3941 35.581C35.5318 35.3721 35.4743 35.0911 35.2649 34.9534C33.4175 33.7367 31.267 33.0938 29.0458 33.0938C22.8031 33.0938 17.724 38.1724 17.724 44.4151C17.724 50.6578 22.8031 55.7364 29.0458 55.7364C35.2885 55.7364 40.3676 50.6578 40.3676 44.4151C40.3676 41.8295 39.4731 39.3016 37.8495 37.296Z" fill="#474747"/>
</g>
<defs>
<clipPath id="clip0_1312_2028">
<rect width="58" height="58" fill="white"/>
</clipPath>
</defs>
</svg>
