<svg width="310" height="266" viewBox="0 0 310 266" fill="none" xmlns="http://www.w3.org/2000/svg">
<path fill-rule="evenodd" clip-rule="evenodd" d="M144.869 235.287C224.531 235.287 289.15 242.088 289.15 250.395C289.15 258.702 224.531 265.437 144.869 265.437C65.1422 265.437 0.523293 258.702 0.523293 250.395C0.523293 242.088 65.1422 235.287 144.869 235.287Z" fill="#474747"/>
<path fill-rule="evenodd" clip-rule="evenodd" d="M166.583 210.432C166.583 210.432 162.005 200.099 164.621 189.111C167.236 178.058 176.851 179.432 176.851 179.432C176.851 179.432 180.972 173.283 187.316 174.133C193.661 174.919 198.828 179.89 198.828 179.89C198.828 179.89 205.759 177.077 210.862 187.999C215.898 198.922 209.227 216.319 209.227 216.319L201.706 218.215C201.706 218.215 199.94 241.762 179.469 253.926C158.996 266.091 138.328 248.301 138.328 248.301C138.328 248.301 137.152 245.685 137.61 243.92C138.002 242.22 140.422 240.65 140.422 240.65C140.422 240.65 135.387 229.4 144.15 219.197C152.98 208.928 166.583 210.432 166.583 210.432Z" fill="#FFA500"/>
<path d="M139.301 247.578C140.324 248.408 145.085 252.105 151.706 254.6C161.583 258.322 170.72 257.755 178.866 252.914C189.131 246.815 194.47 237.708 197.142 231.142C200.056 223.978 200.526 218.185 200.531 218.126C200.569 217.622 200.927 217.198 201.417 217.075L208.332 215.33C209.394 212.292 214.064 197.758 209.793 188.493C205.219 178.702 199.329 180.956 199.27 180.981C198.839 181.155 198.347 181.061 198.012 180.738C197.962 180.692 193.037 176.027 187.171 175.302C181.635 174.561 177.865 180.033 177.828 180.09C177.576 180.462 177.131 180.66 176.685 180.598C176.34 180.549 168.093 179.55 165.766 189.382C163.272 199.864 167.616 209.857 167.661 209.956C167.83 210.341 167.782 210.789 167.534 211.129C167.285 211.467 166.873 211.647 166.454 211.603C166.369 211.594 163.087 211.264 158.833 212.134C153.153 213.294 148.513 215.929 145.042 219.965C136.86 229.491 141.448 240.062 141.496 240.169C141.733 240.698 141.55 241.322 141.062 241.637C140.404 242.068 138.97 243.259 138.756 244.185C138.754 244.194 138.752 244.205 138.749 244.215C138.492 245.206 139.002 246.824 139.301 247.578ZM164.086 259.343C159.781 259.343 155.323 258.49 150.805 256.777C142.975 253.81 137.778 249.381 137.56 249.194C137.43 249.082 137.327 248.943 137.256 248.784C137.118 248.479 135.93 245.744 136.466 243.64C136.808 242.188 138.127 240.93 139.002 240.229C138.588 239.032 137.94 236.726 137.822 233.797C137.665 229.856 138.48 223.99 143.257 218.431C147.04 214.03 152.292 211.051 158.445 209.81C161.082 209.279 163.354 209.174 164.842 209.178C163.634 205.709 161.406 197.528 163.475 188.838C164.945 182.629 168.541 180.075 171.299 179.026C173.382 178.233 175.294 178.171 176.293 178.208C177.566 176.592 181.617 172.184 187.473 172.968C193.018 173.654 197.629 177.274 199.133 178.579C199.979 178.39 201.47 178.217 203.249 178.714C206.741 179.691 209.66 182.647 211.928 187.502C217.115 198.751 210.606 216.011 210.326 216.74C210.189 217.098 209.886 217.367 209.514 217.461L202.789 219.156C202.554 221.079 201.757 226.018 199.354 231.951C196.549 238.877 190.926 248.486 180.069 254.938C175.135 257.869 169.742 259.343 164.086 259.343Z" fill="#474747"/>
<path d="M180.384 216.385C179.973 216.385 179.576 216.17 179.358 215.787C175.857 209.588 166.939 211.558 166.85 211.58C166.217 211.726 165.585 211.332 165.437 210.698C165.291 210.065 165.683 209.434 166.315 209.286C166.424 209.262 168.999 208.674 172.11 209C176.366 209.449 179.583 211.394 181.409 214.628C181.728 215.195 181.528 215.913 180.962 216.232C180.78 216.335 180.58 216.385 180.384 216.385Z" fill="#474747"/>
<path d="M183.194 188.261C182.656 188.261 182.172 187.891 182.047 187.344C180.49 180.441 177.004 180.601 176.97 180.603C176.322 180.671 175.746 180.197 175.68 179.55C175.615 178.903 176.087 178.326 176.733 178.26C176.96 178.237 182.307 177.802 184.344 186.825C184.488 187.459 184.089 188.088 183.454 188.233C183.367 188.252 183.28 188.261 183.194 188.261Z" fill="#474747"/>
<path d="M161.305 253.018C152.54 253.019 144.916 248.982 139.463 241.332C139.086 240.803 139.209 240.067 139.738 239.691C140.267 239.314 141.003 239.437 141.381 239.966C149.055 250.732 159.161 251.478 166.289 250.211C181.284 247.544 196.342 233.352 200.569 217.905C207.522 192.5 198.021 180.76 197.925 180.646C197.508 180.147 197.574 179.404 198.073 178.987C198.57 178.57 199.313 178.636 199.73 179.135C199.84 179.265 202.438 182.42 204.104 188.899C205.617 194.781 206.625 204.697 202.841 218.527C200.654 226.517 195.742 234.389 189.007 240.693C182.316 246.958 174.394 251.161 166.7 252.529C164.863 252.857 163.06 253.018 161.305 253.018Z" fill="#474747"/>
<path fill-rule="evenodd" clip-rule="evenodd" d="M203.405 210.694L209.227 216.319L201.706 218.215L203.405 210.694Z" fill="#474747"/>
<path d="M204.092 212.994L203.275 216.606L206.887 215.696L204.092 212.994ZM201.706 219.393C201.401 219.393 201.105 219.275 200.882 219.058C200.59 218.773 200.467 218.356 200.556 217.957L202.258 210.434C202.351 210.021 202.661 209.687 203.069 209.566C203.477 209.445 203.919 209.552 204.223 209.848L210.045 215.473C210.351 215.769 210.474 216.211 210.364 216.622C210.253 217.036 209.929 217.356 209.514 217.461L201.993 219.357C201.898 219.38 201.8 219.393 201.706 219.393Z" fill="#474747"/>
<path fill-rule="evenodd" clip-rule="evenodd" d="M116.223 154.252C116.223 154.252 113.542 150.72 109.812 150.522C106.085 150.392 101.375 152.224 101.375 152.224C101.375 152.224 96.2098 184.206 121.912 198.922C147.681 213.704 172.862 204.023 172.862 204.023C172.862 204.023 175.609 201.145 175.675 196.044C175.739 191.009 172.078 188.261 172.078 188.261C172.078 188.261 150.691 198.856 129.695 187.215C108.766 175.507 116.223 154.252 116.223 154.252Z" fill="#474747"/>
<path d="M102.448 153.09C102.2 155.2 101.616 161.985 103.175 169.905C105.669 182.568 112.169 191.987 122.497 197.901C135.525 205.372 148.392 206.345 156.893 205.846C165.055 205.365 170.875 203.474 172.169 203.022C172.71 202.345 174.447 199.873 174.497 196.03C174.54 192.726 172.764 190.54 171.871 189.653C170.123 190.421 165.389 192.3 158.933 193.268C151.48 194.383 140.258 194.417 129.125 188.243C117.873 181.95 114.657 172.93 113.941 166.473C113.313 160.826 114.422 156.194 114.905 154.522C114.11 153.662 112.15 151.83 109.76 151.7C107.102 151.611 103.818 152.619 102.448 153.09ZM153.151 208.31C144.525 208.31 132.992 206.633 121.326 199.943C115.293 196.488 110.425 191.809 106.858 186.036C104.014 181.431 101.994 176.13 100.85 170.281C98.911 160.353 100.16 152.37 100.213 152.035L100.32 151.37L100.949 151.126C101.151 151.048 105.93 149.213 109.855 149.346L109.875 149.348C114.099 149.571 117.037 153.377 117.16 153.539L117.543 154.043L117.333 154.64C117.315 154.692 115.553 159.854 116.291 166.304C117.269 174.855 121.971 181.545 130.271 186.187C140.794 192.022 151.434 191.999 158.506 190.952C166.221 189.808 171.502 187.231 171.556 187.206L172.204 186.885L172.783 187.319C172.952 187.447 176.924 190.488 176.851 196.06C176.782 201.561 173.838 204.705 173.713 204.835L173.532 205.028L173.284 205.122C173.02 205.224 166.709 207.613 157.121 208.191C155.883 208.265 154.555 208.31 153.151 208.31Z" fill="#474747"/>
<path d="M86.3991 86.5588H19.6211V101.929H86.3991V86.5588Z" fill="#FFA500"/>
<path d="M20.7984 100.751H85.2213V87.7365H20.7984V100.751ZM86.3991 103.105H19.6211C18.971 103.105 18.4439 102.579 18.4439 101.929V86.5587C18.4439 85.9083 18.971 85.3809 19.6211 85.3809H86.3991C87.0477 85.3809 87.5751 85.9083 87.5751 86.5587V101.929C87.5751 102.579 87.0477 103.105 86.3991 103.105Z" fill="#474747"/>
<path fill-rule="evenodd" clip-rule="evenodd" d="M22.2374 101.929H83.7816L76.5884 146.533H29.4972L22.2374 101.929Z" fill="#FFA500"/>
<path d="M30.4982 145.357H75.5853L82.4007 103.105H23.6217L30.4982 145.357ZM76.5884 147.711H29.497C28.9199 147.711 28.4278 147.292 28.3351 146.724L21.0753 102.118C21.0199 101.777 21.1168 101.428 21.3406 101.166C21.5642 100.902 21.8921 100.751 22.2374 100.751H83.7816C84.1273 100.751 84.4551 100.902 84.6779 101.164C84.9024 101.428 84.9986 101.775 84.9451 102.116L77.7502 146.722C77.6575 147.292 77.1657 147.711 76.5884 147.711Z" fill="#474747"/>
<path fill-rule="evenodd" clip-rule="evenodd" d="M130.349 5.52362C175.217 -6.44483 221.391 20.1737 233.36 65.0398C245.394 109.908 218.775 156.083 173.909 168.116C128.976 180.15 82.8658 153.466 70.8314 108.6C58.7981 63.7319 85.4173 17.558 130.349 5.52362Z" fill="#96D8E6"/>
<path d="M130.654 6.6604C109.233 12.3978 91.3312 26.1338 80.2483 45.3382C69.169 64.5337 66.229 86.8937 71.97 108.295C83.8226 152.488 129.416 178.814 173.605 166.979C217.779 155.13 244.077 109.537 232.223 65.3462C226.517 43.9573 212.803 26.0733 193.604 14.9886C174.414 3.9075 152.057 0.951467 130.652 6.6604H130.654ZM152.105 172.186C148.196 172.186 144.283 171.915 140.377 171.37C129.45 169.846 119.042 166.261 109.445 160.716C99.85 155.171 91.5486 147.948 84.767 139.243C77.7502 130.233 72.6791 120.027 69.6946 108.904C66.7119 97.7824 65.9973 86.409 67.5707 75.0963C69.0906 64.1684 72.6684 53.7591 78.2081 44.1604C83.7495 34.56 90.973 26.2514 99.679 19.4681C108.693 12.4424 118.91 7.36778 130.045 4.3868L130.046 4.38502C141.167 1.4183 152.542 0.71625 163.853 2.2985C174.781 3.82552 185.186 7.40875 194.78 12.9484C204.378 18.4898 212.68 25.7098 219.454 34.4068C226.471 43.4139 231.531 53.6183 234.498 64.7368C237.481 75.8554 238.195 87.2305 236.624 98.5432C235.106 109.471 231.528 119.879 225.992 129.479C220.456 139.079 213.239 147.388 204.542 154.171C195.537 161.197 185.333 166.272 174.214 169.254C166.921 171.207 159.521 172.186 152.105 172.186Z" fill="#474747"/>
<path fill-rule="evenodd" clip-rule="evenodd" d="M84.9594 36.1317C90.4527 28.8726 97.0597 22.4634 104.711 17.2961C118.447 20.5658 123.482 40.0571 107.196 37.2436C91.8924 34.6279 100.395 47.9701 88.3608 38.6833C87.1171 37.7015 86.0053 36.8515 84.9594 36.1317Z" fill="#32CD32"/>
<path d="M86.6379 35.8804C87.3275 36.3864 88.1115 36.9869 89.0897 37.7584C92.582 40.4543 93.9879 40.9157 94.5509 40.8302C94.8824 40.7803 95.1746 40.383 95.6628 39.6827C97.0526 37.6889 99.1551 34.6759 107.396 36.0835C112.36 36.9405 115.444 35.6897 116.088 32.5626C116.558 30.2676 115.61 27.1833 113.615 24.5124C111.441 21.6027 108.372 19.5055 104.935 18.5682C98.0807 23.2633 91.9317 29.081 86.6379 35.8804ZM94.4262 43.1947C92.8903 43.1947 90.9125 42.1399 87.6411 39.615C86.1907 38.4693 85.1928 37.721 84.293 37.1027L83.2774 36.4042L84.0204 35.4224C89.7454 27.8568 96.486 21.4298 104.053 16.3196L104.481 16.0309L104.983 16.1503C109.158 17.1446 112.893 19.6142 115.501 23.103C117.923 26.3459 119.005 30.0574 118.393 33.0366C117.96 35.1427 116.733 36.7641 114.84 37.721C112.847 38.7295 110.208 38.9593 106.997 38.4034C100.231 37.247 98.7685 39.3442 97.5943 41.0298C96.9653 41.9314 96.2543 42.9524 94.9091 43.1591C94.7523 43.1822 94.5919 43.1947 94.4262 43.1947Z" fill="#474747"/>
<path fill-rule="evenodd" clip-rule="evenodd" d="M97.7136 151.046C85.0895 140.385 75.4765 125.801 70.8314 108.6C68.4116 99.5089 67.5617 90.3521 68.0856 81.4573C69.9814 80.7375 71.2251 81.0636 71.4871 82.7652C74.4948 100.817 93.2003 94.7996 82.9976 107.422C70.3093 122.988 94.1161 129.463 94.5081 129.333C115.633 121.288 128.126 151.896 107.982 148.43C101.113 147.253 99.0215 149.28 97.7136 151.046Z" fill="#32CD32"/>
<path d="M69.217 82.3394C68.7858 91.0846 69.7124 99.8137 71.9699 108.297C76.3193 124.406 85.1625 138.588 97.5746 149.378C99.2869 147.588 102.1 146.228 108.18 147.271C112.273 147.974 115.181 147.21 116.367 145.116C117.816 142.565 116.722 138.329 113.707 134.819C111.957 132.779 105.427 126.434 94.9268 130.432L94.8805 130.45C94.6026 130.543 94.362 130.623 92.4822 130.023C91.6002 129.741 90.2157 129.251 88.6228 128.515C85.902 127.259 82.1958 125.094 80.0006 121.914C77.8392 118.781 76.4459 113.596 82.0853 106.679C84.1184 104.161 85.011 102.363 84.8079 101.186C84.6012 99.9865 83.0742 99.0493 81.141 97.8626C77.2245 95.4589 71.8595 92.1679 70.3253 82.9577C70.3004 82.7938 70.2291 82.4357 70.0634 82.3394C69.9405 82.2682 69.6589 82.2432 69.217 82.3394ZM97.9114 152.755L96.9528 151.946C83.7014 140.753 74.2756 125.871 69.6963 108.906C67.3016 99.9135 66.3644 90.6552 66.9096 81.388L66.9541 80.6271L67.6686 80.3563C69.144 79.7968 70.3485 79.779 71.2501 80.3046C71.7757 80.6111 72.4457 81.2561 72.6506 82.5853C74.0066 90.7229 78.6446 93.5684 82.3722 95.8563C84.717 97.2942 86.7412 98.5361 87.1296 100.787C87.4628 102.723 86.4703 104.999 83.9134 108.161C80.7347 112.062 79.744 115.629 80.9681 118.769C83.2595 124.643 92.5891 127.715 94.3834 128.121C98.592 126.58 102.712 126.382 106.633 127.53C110.06 128.533 113.123 130.523 115.494 133.285C119.2 137.602 120.375 142.825 118.415 146.278C117.592 147.732 115.587 149.881 110.951 149.881C110.008 149.881 108.955 149.792 107.783 149.59C101.104 148.445 99.5738 150.512 98.6597 151.746L97.9114 152.755Z" fill="#474747"/>
<path fill-rule="evenodd" clip-rule="evenodd" d="M132.115 5.13164C157.558 -1.14747 183.262 4.93386 202.817 19.6499C202.36 19.7817 191.895 38.2253 184.046 31.0303C177.505 25.079 171.096 23.5752 169.2 31.7502C167.236 39.9251 176.525 44.9623 177.767 45.1583C183.522 44.2425 192.157 39.991 193.137 49.5398C194.053 58.8266 204.517 54.5111 207.133 59.4164C209.423 63.6678 225.643 75.1124 225.643 77.598C228.912 82.5034 229.044 95.9115 219.429 100.423C218.841 100.685 206.021 118.214 203.863 127.173C201.706 136.134 188.951 145.357 188.232 122.204C187.97 112.589 176.851 116.971 183.85 93.8179C186.204 85.9048 162.921 80.0837 169.658 67.2635C171.686 63.4059 177.309 63.536 175.085 57.0608C172.078 48.362 136.04 31.7502 131.003 12.1288C131.135 9.77505 131.461 7.41949 132.115 5.13164Z" fill="#32CD32"/>
<path d="M132.19 12.0111C135.258 23.5181 149.538 34.1145 161.023 42.6387C168.779 48.3976 174.907 52.9448 176.199 56.6759C177.926 61.7059 175.367 63.6285 173.312 65.1751C172.268 65.9591 171.283 66.7004 170.699 67.8122C167.254 74.3675 172.742 78.9147 178.048 83.3122C182.238 86.7832 186.195 90.0635 184.978 94.1546C180.643 108.496 183.39 111.62 186.045 114.64C187.647 116.461 189.304 118.344 189.409 122.172C189.664 130.39 191.526 135.281 194.518 135.589C197.52 135.902 201.588 131.594 202.719 126.899C203.899 122.003 208.006 114.952 211.244 109.902C213.357 106.606 215.192 104.015 216.099 102.763C218.36 99.6408 218.656 99.4804 218.939 99.3539C223.196 97.3511 225.019 93.6022 225.798 90.8083C227.184 85.8371 226.248 80.627 224.663 78.2519L224.465 77.9543V77.6692C224.051 76.5217 219.349 72.5109 216.227 69.8471C211.648 65.9413 207.324 62.253 206.096 59.974C205.287 58.4541 203.268 58.0657 200.934 57.6149C197.217 56.9004 192.592 56.0095 191.966 49.6555C191.745 47.5084 191.118 46.0955 190.053 45.34C188.093 43.9555 184.531 44.8179 181.388 45.5787C180.181 45.871 179.039 46.1471 177.952 46.32L177.769 46.3503L177.583 46.32C176.333 46.124 172.147 43.7862 169.717 40.1496C167.889 37.4162 167.329 34.4976 168.054 31.4757C168.853 28.0386 170.454 25.92 172.817 25.1823C176.849 23.9244 181.58 27.1958 184.839 30.1589C185.985 31.2102 187.209 31.645 188.583 31.4864C193.625 30.9091 199.215 22.7466 201.053 20.0649C201.093 20.0061 201.132 19.9491 201.169 19.8939C181.459 5.48257 156.745 0.473891 133.07 6.11155C132.609 7.90762 132.32 9.84623 132.19 12.0111ZM194.822 137.96C194.641 137.96 194.459 137.95 194.277 137.932C191.195 137.615 187.44 134.634 187.056 122.24C186.974 119.26 185.783 117.908 184.278 116.194C181.34 112.855 178.011 109.068 182.722 93.4775C183.495 90.8832 180.119 88.0857 176.546 85.1243C171.082 80.5967 164.282 74.9626 168.616 66.7164C169.444 65.1377 170.748 64.1577 171.898 63.2935C173.922 61.7701 175.142 60.8525 173.972 57.4439C172.92 54.4023 166.46 49.6056 159.619 44.5292C147.779 35.7413 133.042 24.8046 129.863 12.421L129.818 12.2446L129.827 12.0628C129.977 9.3794 130.355 7.00603 130.984 4.80727L131.171 4.15156L131.834 3.98764C156.781 -2.16853 182.911 3.19652 203.525 18.709L205.415 20.1327L203.487 20.6832C203.359 20.8632 203.176 21.1323 202.996 21.396C200.797 24.6032 194.96 33.1256 188.85 33.8259C186.787 34.0629 184.903 33.4143 183.251 31.898C179.349 28.3486 175.8 26.72 173.519 27.431C172.01 27.9014 170.943 29.4426 170.346 32.0156C169.808 34.2624 170.184 36.4469 171.465 38.5156C173.432 41.6944 176.91 43.6187 177.829 43.9537C178.758 43.7934 179.768 43.5493 180.835 43.2909C184.465 42.4125 188.579 41.4164 191.41 43.4174C193.066 44.588 194.014 46.5516 194.308 49.4203C194.762 54.0299 197.828 54.6197 201.378 55.3039C204.061 55.8206 206.835 56.3552 208.172 58.8622C209.187 60.7473 213.74 64.6299 217.756 68.0563C223.786 73.2004 226.377 75.5417 226.767 77.1703C228.889 80.5736 229.44 86.5124 228.066 91.4409C227.162 94.6766 225.047 99.0153 220.092 101.412C218.465 103.153 206.976 119.276 205.007 127.45C203.773 132.576 199.24 137.96 194.822 137.96Z" fill="#474747"/>
<path fill-rule="evenodd" clip-rule="evenodd" d="M98.3016 86.7547C98.3016 86.7547 99.3475 71.6467 99.4134 68.9651C99.4794 66.2175 100.001 57.2568 105.823 57.2568C111.71 57.2568 113.018 63.9938 113.214 70.0769C113.345 76.1583 112.364 88.8483 112.364 88.8483C112.364 88.8483 105.823 83.943 98.3016 86.7547Z" fill="white"/>
<path d="M103.146 84.7004C106.644 84.7004 109.579 85.8995 111.33 86.8332C111.594 83.0575 112.134 74.6491 112.038 70.102C111.783 62.2548 109.752 58.4346 105.823 58.4346C101.327 58.4346 100.666 65.8185 100.591 68.9937C100.538 71.1568 99.8696 81.0762 99.5934 85.1262C100.823 84.8251 102.013 84.7004 103.146 84.7004ZM112.364 90.0244C112.112 90.0244 111.865 89.9442 111.656 89.7892C111.599 89.7465 105.518 85.3133 98.7132 87.8577C98.339 87.9985 97.9185 87.9379 97.5978 87.6974C97.2771 87.4586 97.0989 87.072 97.1274 86.6728C97.1381 86.5232 98.1733 71.5613 98.2374 68.9367C98.4317 60.767 101.197 56.0809 105.823 56.0809C108.935 56.0809 111.323 57.7504 112.727 60.9078C113.72 63.1386 114.265 66.125 114.39 70.0396C114.521 76.1227 113.577 88.4172 113.538 88.9375C113.504 89.3669 113.24 89.7429 112.848 89.9193C112.693 89.9906 112.528 90.0244 112.364 90.0244Z" fill="#474747"/>
<path fill-rule="evenodd" clip-rule="evenodd" d="M112.168 62.816C112.888 64.9756 113.148 67.5913 113.214 70.0769C113.346 76.1583 112.364 88.8484 112.364 88.8484C112.364 88.8484 108.898 86.2309 104.123 85.9048C104.319 82.6334 104.581 78.7757 104.711 76.356L109.944 75.5043L105.039 71.1888C105.497 67.5254 106.935 62.7519 111.252 62.7519C111.578 62.7519 111.84 62.7519 112.168 62.816Z" fill="#474747"/>
<path d="M105.366 84.8517C107.879 85.2099 109.964 86.1025 111.33 86.8313C111.596 83.0556 112.134 74.649 112.038 70.1019C111.972 67.6038 111.72 65.5725 111.273 63.9279H111.252C108.05 63.9279 106.783 67.4879 106.291 70.7219L110.721 74.6205C111.063 74.9217 111.2 75.3938 111.075 75.8304C110.949 76.2687 110.582 76.5948 110.133 76.6678L105.833 77.3663C105.76 78.635 105.662 80.1531 105.562 81.7425C105.497 82.7741 105.429 83.8307 105.366 84.8517ZM112.364 90.0243C112.112 90.0243 111.863 89.9441 111.655 89.7873C111.624 89.7642 108.387 87.3765 104.043 87.079C103.398 87.0344 102.909 86.4785 102.947 85.8335C103.029 84.474 103.121 83.0111 103.212 81.5928C103.339 79.5918 103.46 77.7013 103.537 76.2919C103.565 75.7395 103.977 75.2816 104.522 75.1925L107.294 74.7435L104.26 72.0726C103.968 71.8142 103.822 71.4293 103.87 71.0427C104.634 64.9364 107.255 61.5741 111.252 61.5741C111.615 61.5741 111.957 61.5741 112.398 61.6632C112.813 61.7452 113.151 62.0445 113.285 62.4436C113.946 64.4303 114.308 66.9178 114.391 70.0448C114.521 76.1226 113.577 88.4171 113.538 88.9374C113.504 89.3668 113.24 89.7446 112.847 89.921C112.693 89.9905 112.528 90.0243 112.364 90.0243Z" fill="#474747"/>
<path fill-rule="evenodd" clip-rule="evenodd" d="M137.87 88.1927C137.87 88.1927 138.918 73.0847 138.982 70.4031C139.048 67.6573 139.572 58.6965 145.457 58.6965C151.278 58.6965 152.652 65.4336 152.782 71.5149C152.98 77.598 151.932 90.2863 151.932 90.2863C151.932 90.2863 145.457 85.381 137.87 88.1927Z" fill="white"/>
<path d="M142.742 86.1382C146.245 86.1382 149.165 87.3373 150.908 88.271C151.188 84.4989 151.752 76.0941 151.606 71.554C151.439 63.7996 149.37 59.8742 145.457 59.8742C140.903 59.8742 140.235 67.2563 140.16 70.4315C140.107 72.5964 139.438 82.5193 139.162 86.5676C140.404 86.2647 141.603 86.1382 142.742 86.1382ZM151.932 91.464C151.681 91.464 151.43 91.3821 151.221 91.2253C151.164 91.1807 145.145 86.7529 138.28 89.2973C137.906 89.4363 137.485 89.3757 137.165 89.1352C136.846 88.8964 136.669 88.5116 136.696 88.1124C136.707 87.961 137.742 72.9991 137.806 70.3745C138 62.2049 140.789 57.5187 145.457 57.5187C149.199 57.5187 153.712 59.9437 153.96 71.4899C154.156 77.557 153.149 89.8622 153.107 90.3825C153.071 90.8119 152.806 91.1861 152.414 91.3607C152.259 91.4302 152.096 91.464 151.932 91.464Z" fill="#474747"/>
<path fill-rule="evenodd" clip-rule="evenodd" d="M151.802 64.2558C152.456 66.4136 152.718 69.0311 152.782 71.5149C152.98 77.598 151.932 90.2863 151.932 90.2863C151.932 90.2863 148.467 87.6706 143.692 87.3428C143.888 84.0731 144.149 80.2137 144.281 77.794L149.513 76.9441L144.607 72.6268C145.065 68.9651 146.505 64.1899 150.821 64.1899C151.148 64.1899 151.474 64.1899 151.802 64.2558Z" fill="#474747"/>
<path d="M144.935 86.2914C147.453 86.6496 149.541 87.5458 150.908 88.2746C151.188 84.506 151.753 76.0959 151.606 71.554C151.542 69.1165 151.3 67.0425 150.887 65.3676H150.821C147.62 65.3676 146.352 68.9276 145.86 72.1616L150.291 76.0603C150.632 76.3614 150.771 76.8318 150.644 77.2701C150.518 77.7066 150.151 78.0327 149.702 78.1058L145.402 78.8042C145.329 80.0729 145.233 81.5928 145.131 83.1804C145.065 84.2138 144.999 85.2687 144.935 86.2914ZM151.932 91.464C151.681 91.464 151.432 91.3821 151.223 91.2253C151.193 91.2039 147.955 88.8145 143.611 88.5169C142.966 88.4741 142.478 87.9182 142.517 87.2732C142.599 85.9119 142.692 84.4508 142.781 83.0325C142.909 81.0297 143.029 79.1392 143.105 77.7316C143.136 77.1775 143.545 76.7213 144.093 76.6322L146.865 76.1814L143.831 73.5105C143.537 73.2539 143.39 72.8672 143.44 72.4806C144.203 66.3761 146.824 63.0138 150.821 63.0138C151.182 63.0138 151.592 63.0138 152.032 63.1011C152.458 63.1866 152.802 63.4985 152.929 63.9136C153.533 65.9093 153.88 68.4572 153.96 71.4845C154.156 77.557 153.149 89.8622 153.107 90.3825C153.071 90.8101 152.806 91.1861 152.414 91.3607C152.26 91.4302 152.096 91.464 151.932 91.464Z" fill="#474747"/>
<path d="M123.138 98.8051C121.658 98.8051 118.16 98.5752 116.1 96.5475C114.958 95.4214 114.427 93.9532 114.523 92.1839C114.619 90.4501 115.3 89.0657 116.547 88.0679C119.486 85.7159 124.574 86.5391 124.788 86.5747C125.43 86.6816 125.863 87.2892 125.756 87.9307C125.647 88.5721 125.041 89.0033 124.4 88.8964C123.217 88.7022 119.767 88.5026 118.014 89.9085C117.305 90.4787 116.932 91.2644 116.875 92.3121C116.815 93.3901 117.102 94.2258 117.75 94.8655C119.281 96.3782 122.538 96.5137 123.662 96.437C124.313 96.3961 124.872 96.8825 124.917 97.5311C124.963 98.1797 124.475 98.7409 123.826 98.7855C123.783 98.789 123.532 98.8051 123.138 98.8051Z" fill="#474747"/>
<path d="M124.496 114.886C124.261 114.886 124.022 114.884 123.78 114.877C115.006 114.663 109.919 110.412 107.196 106.882C104.258 103.073 103.401 99.3326 103.366 99.1758C103.225 98.5415 103.624 97.9125 104.26 97.7699C104.893 97.6292 105.522 98.0283 105.664 98.6609C105.671 98.6965 106.469 102.118 109.119 105.517C112.622 110.015 117.574 112.372 123.839 112.523C130.176 112.678 135.809 110.677 140.581 106.576C144.174 103.484 145.906 100.293 145.924 100.263C146.231 99.689 146.943 99.4734 147.517 99.7781C148.089 100.085 148.306 100.795 148.002 101.369C147.925 101.514 146.088 104.92 142.189 108.295C138.686 111.33 132.805 114.886 124.496 114.886Z" fill="#474747"/>
<path d="M100.921 103.832C100.857 103.832 100.793 103.826 100.728 103.816C100.085 103.711 99.6522 103.101 99.7556 102.458C99.7787 102.314 100.377 98.8996 104.185 97.7896C104.192 97.7878 104.199 97.786 104.207 97.7842C108.016 96.7508 110.156 99.158 110.245 99.2614C110.671 99.7514 110.617 100.496 110.126 100.922C109.634 101.348 108.891 101.294 108.465 100.803C108.424 100.756 107.17 99.4253 104.834 100.052C102.491 100.742 102.093 102.763 102.077 102.848C101.985 103.425 101.486 103.832 100.921 103.832Z" fill="#474747"/>
<path d="M148.403 106.31C148.383 106.31 148.365 106.31 148.347 106.308C147.699 106.28 147.195 105.729 147.225 105.079C147.25 104.436 147.113 102.575 146.186 101.701C145.117 100.828 142.713 100.672 141.949 100.685C141.3 100.705 140.762 100.181 140.75 99.5303C140.737 98.88 141.254 98.3437 141.903 98.3312C142.296 98.3223 145.801 98.3045 147.72 99.9152C147.733 99.9259 147.745 99.9366 147.758 99.9491C149.677 101.708 149.593 104.835 149.577 105.186C149.548 105.818 149.028 106.31 148.403 106.31Z" fill="#474747"/>
<path d="M123.7 120.782C123.379 120.782 123.051 120.777 122.718 120.764C117.289 120.488 113.714 118.255 113.565 118.161C113.016 117.813 112.852 117.085 113.201 116.536C113.549 115.989 114.274 115.825 114.823 116.172C114.855 116.192 118.058 118.17 122.823 118.412C127.666 118.594 131.181 117.201 131.217 117.188C131.819 116.944 132.505 117.236 132.749 117.838C132.994 118.441 132.701 119.127 132.099 119.371C131.946 119.431 128.541 120.782 123.7 120.782Z" fill="#474747"/>
<path fill-rule="evenodd" clip-rule="evenodd" d="M84.3714 13.7645H126.23L115.829 52.5493H73.971L84.3714 13.7645Z" fill="#474747"/>
<path d="M75.5069 51.3715H114.928L124.694 14.9405H85.2748L75.5069 51.3715ZM115.829 53.7253H73.971C73.6057 53.7253 73.26 53.556 73.0373 53.2655C72.8145 52.9751 72.7397 52.5974 72.8342 52.2428L83.2328 13.4598C83.3718 12.9449 83.8386 12.5867 84.3714 12.5867H126.23C126.595 12.5867 126.941 12.7578 127.163 13.0482C127.386 13.3387 127.461 13.7146 127.367 14.0692L116.968 52.8539C116.829 53.3671 116.362 53.7253 115.829 53.7253Z" fill="#474747"/>
<path fill-rule="evenodd" clip-rule="evenodd" d="M140.422 13.7645H182.28L171.946 52.5493H130.023L140.422 13.7645Z" fill="#474747"/>
<path d="M131.557 51.3715H171.042L180.748 14.9405H141.325L131.557 51.3715ZM171.946 53.7253H130.023C129.656 53.7253 129.311 53.556 129.088 53.2655C128.865 52.9751 128.79 52.5974 128.885 52.2428L139.285 13.4598C139.422 12.9449 139.889 12.5867 140.422 12.5867H182.28C182.646 12.5867 182.991 12.756 183.214 13.0464C183.437 13.3369 183.512 13.7146 183.417 14.0674L173.084 52.8522C172.947 53.3671 172.48 53.7253 171.946 53.7253Z" fill="#474747"/>
<path fill-rule="evenodd" clip-rule="evenodd" d="M100.657 214.946C100.657 214.946 108.962 186.821 128.257 170.667C147.551 154.514 162.071 146.665 170.9 150.196C179.729 153.728 171.162 159.615 164.359 162.885C157.624 166.22 151.606 169.228 137.806 183.29C124.006 197.352 116.223 218.477 116.223 218.477C116.223 218.477 114.195 224.232 106.739 222.205C99.2834 220.243 100.657 214.946 100.657 214.946Z" fill="#474747"/>
<path d="M101.794 215.25C101.678 215.767 101.06 219.494 107.038 221.066C113.374 222.789 115.044 218.279 115.111 218.087C115.197 217.857 123.147 196.545 136.965 182.467C150.961 168.205 157.216 165.108 163.837 161.83C169.772 158.975 173.557 155.864 173.489 153.895C173.45 152.726 171.821 151.834 170.463 151.288C162.618 148.152 149.058 154.786 129.013 171.571C119.215 179.774 112.339 191.203 108.298 199.344C104.041 207.918 101.945 214.75 101.794 215.25ZM109.744 223.817C108.759 223.817 107.658 223.675 106.43 223.341C97.9471 221.109 99.5008 214.714 99.5169 214.65C99.5204 214.637 99.524 214.625 99.5275 214.612C99.6131 214.322 101.684 207.38 106.167 198.341C110.311 189.984 117.378 178.24 127.5 169.764C148.563 152.131 162.49 145.565 171.336 149.102C174.26 150.273 175.777 151.859 175.843 153.815C175.983 157.972 169.027 161.945 164.87 163.945C158.163 167.266 152.362 170.138 138.645 184.115C125.189 197.828 117.404 218.675 117.328 218.885C117.312 218.93 115.51 223.817 109.744 223.817Z" fill="#474747"/>
<path fill-rule="evenodd" clip-rule="evenodd" d="M57.4245 181.46C57.4245 181.46 64.1611 174.133 77.8962 179.432C91.5645 184.664 98.6294 209.06 98.6294 209.06C98.6294 209.06 103.861 205.069 112.168 211.152C120.474 217.235 115.111 226.784 115.111 226.784C115.111 226.784 120.213 237.183 117.989 243.396C115.765 249.545 109.748 252.814 109.748 252.814C109.748 252.814 108.57 257 106.542 257.786C104.515 258.57 91.4345 258.57 82.4096 255.104C73.4489 251.573 67.8896 245.816 67.8896 245.816L68.4776 240.322C68.4776 240.322 42.9048 226.654 42.2509 204.809C41.5314 182.964 57.4245 181.46 57.4245 181.46Z" fill="#FFA500"/>
<path d="M69.1208 245.374C70.5053 246.683 75.5407 251.131 82.8408 254.008C91.5467 257.351 104.42 257.344 106.118 256.688C107.127 256.296 108.203 253.955 108.615 252.495C108.7 252.189 108.907 251.932 109.185 251.779C109.24 251.751 114.842 248.631 116.881 242.997C118.908 237.33 114.103 227.402 114.053 227.302C113.884 226.955 113.894 226.545 114.085 226.207C114.279 225.856 118.819 217.483 111.471 212.102C103.962 206.603 99.3885 209.962 99.3422 209.996C99.0339 210.231 98.6295 210.299 98.2606 210.177C97.8918 210.056 97.6067 209.76 97.498 209.386C97.4285 209.149 90.4349 185.492 77.4758 180.532C64.6335 175.578 58.353 182.189 58.2911 182.256C58.095 182.468 57.8272 182.602 57.5389 182.631C57.5016 182.634 53.776 183.039 50.2101 185.936C45.4259 189.824 43.144 196.16 43.4274 204.77C43.7528 215.637 50.6495 224.414 56.3778 229.863C62.665 235.844 68.9694 239.251 69.0335 239.285C69.4558 239.511 69.6999 239.971 69.6483 240.449L69.1208 245.374ZM101.675 259.384C96.2525 259.384 88.0491 258.53 81.9873 256.203C72.884 252.615 67.2767 246.877 67.0415 246.633C66.7991 246.384 66.6815 246.038 66.719 245.691L67.225 240.969C65.3701 239.9 60.1433 236.685 54.799 231.611C50.9563 227.962 47.8622 224.109 45.6029 220.157C42.7527 215.174 41.2292 210.021 41.0742 204.843C40.6865 193.075 45.0792 187.024 48.8326 184.022C52.2308 181.303 55.6861 180.539 56.8814 180.346C57.5617 179.721 59.3077 178.315 62.127 177.346C65.4147 176.216 70.8937 175.469 78.3203 178.333C84.2645 180.608 89.6883 186.442 94.4351 195.668C96.9777 200.609 98.6045 205.154 99.3261 207.353C101.584 206.409 106.404 205.473 112.863 210.202C117.6 213.672 118.231 218.185 117.927 221.362C117.688 223.835 116.861 225.863 116.419 226.802C117.461 229.084 121.187 237.952 119.097 243.793C117.075 249.381 112.225 252.69 110.74 253.597C110.311 254.926 109.098 258.058 106.968 258.883C106.159 259.195 104.224 259.384 101.675 259.384Z" fill="#474747"/>
<path fill-rule="evenodd" clip-rule="evenodd" d="M109.748 252.814C109.748 252.814 108.57 257 106.542 257.786C104.515 258.57 91.4345 258.57 82.4096 255.104C73.4489 251.573 67.8896 245.816 67.8896 245.816L68.4776 240.322C68.4776 240.322 42.9048 226.654 42.2509 204.809C41.9893 195.782 44.4746 190.223 47.614 186.821C64.6843 169.686 68.0197 222.663 89.4727 236.333C93.9861 244.64 100.199 251.115 109.748 252.814Z" fill="#474747"/>
<path d="M69.1208 245.374C70.5053 246.683 75.5407 251.131 82.8408 254.008C91.5467 257.351 104.42 257.344 106.118 256.688C106.876 256.394 107.674 254.995 108.198 253.7C100.103 251.836 93.6742 246.412 88.5818 237.159C78.9119 230.823 72.9874 217.084 67.7542 204.948C63.4625 194.995 59.409 185.594 54.6892 184.694C52.8297 184.341 50.7936 185.303 48.4639 187.637C44.9045 191.504 43.21 197.27 43.4276 204.775C43.7528 215.637 50.6495 224.414 56.3778 229.863C62.665 235.844 68.9694 239.251 69.0335 239.285C69.4558 239.511 69.6999 239.971 69.6482 240.449L69.1208 245.374ZM101.675 259.384C96.2525 259.384 88.049 258.531 81.9873 256.203C72.884 252.615 67.2766 246.877 67.0414 246.633C66.7991 246.384 66.6815 246.038 66.7189 245.691L67.225 240.969C65.3701 239.9 60.1433 236.685 54.799 231.611C50.9563 227.962 47.8622 224.109 45.6028 220.157C42.7526 215.174 41.2292 210.021 41.0742 204.843C40.8377 196.691 42.7471 190.358 46.7489 186.023C46.7591 186.012 46.7692 186.002 46.7799 185.991C49.7096 183.051 52.4411 181.87 55.1297 182.381C61.0766 183.514 65.173 193.015 69.9155 204.014C75.0614 215.947 80.8915 229.469 90.1052 235.34C90.2727 235.447 90.4117 235.595 90.5061 235.771C95.5344 245.024 101.896 250.22 109.955 251.654C110.281 251.713 110.568 251.907 110.744 252.189C110.922 252.471 110.97 252.813 110.881 253.133C110.657 253.926 109.42 257.934 106.968 258.883C106.159 259.195 104.224 259.384 101.675 259.384Z" fill="#474747"/>
<path d="M86.857 245.032C86.7804 245.032 86.7038 245.024 86.6254 245.008C85.9875 244.882 85.5741 244.26 85.7024 243.624C85.9768 242.247 86.8054 239.936 87.47 238.195C84.9362 238.97 80.9485 240.13 78.4326 240.565C74.5946 241.291 68.7627 241.491 68.5168 241.498C67.8665 241.521 67.323 241.012 67.3016 240.361C67.2802 239.711 67.7898 239.168 68.4384 239.146C68.4972 239.144 74.3451 238.943 78.0032 238.25C78.0103 238.248 78.0157 238.248 78.0228 238.246C81.6898 237.614 89.0344 235.237 89.1093 235.214C89.5458 235.071 90.0251 235.196 90.3369 235.533C90.6487 235.869 90.7361 236.358 90.5614 236.782C90.5401 236.833 88.4411 241.935 88.0099 244.085C87.8994 244.645 87.4076 245.032 86.857 245.032Z" fill="#474747"/>
<path d="M106.544 258.962H106.496C95.93 258.539 88.1684 247.957 86.2833 245.135C84.8204 245.365 81.4955 245.883 78.6054 246.325C74.6926 246.986 68.1658 246.993 67.8896 246.993C67.2392 246.993 66.7118 246.466 66.7118 245.815C66.7118 245.167 67.2392 244.639 67.8896 244.639C67.9555 244.639 74.5073 244.631 78.2224 244.002C78.2295 244 78.2348 244 78.242 243.998C82.0533 243.417 86.6272 242.699 86.6735 242.692C87.1439 242.617 87.6125 242.834 87.8602 243.241C87.9404 243.369 95.9175 256.182 106.591 256.61C107.239 256.635 107.745 257.183 107.718 257.832C107.694 258.466 107.171 258.962 106.544 258.962Z" fill="#474747"/>
<path d="M89.4728 237.511C89.1342 237.511 88.7956 237.364 88.564 237.081C80.6937 227.531 76.2962 215.482 72.4154 204.852C67.9057 192.493 64.342 182.732 57.4081 182.636C56.7581 182.627 56.2383 182.093 56.2474 181.442C56.2565 180.792 56.7923 180.28 57.4409 180.282C61.4443 180.337 64.6906 182.677 67.6562 187.646C70.1935 191.894 72.3477 197.796 74.6284 204.044C78.4433 214.497 82.7678 226.344 90.3815 235.584C90.7949 236.087 90.7236 236.828 90.2211 237.241C90.0019 237.421 89.7365 237.511 89.4728 237.511Z" fill="#474747"/>
<path d="M102.095 214.946C101.646 214.946 101.217 214.687 101.021 214.251C100.388 212.84 98.4584 210.603 97.7671 209.862C97.3234 209.385 97.3501 208.64 97.8276 208.198C98.3034 207.754 99.0482 207.781 99.4901 208.258C99.6023 208.378 102.25 211.236 103.17 213.287C103.435 213.88 103.17 214.577 102.576 214.842C102.421 214.914 102.257 214.946 102.095 214.946Z" fill="#474747"/>
<path d="M115.111 227.962C114.689 227.962 114.281 227.734 114.071 227.335C113.447 226.157 111.393 223.744 109.47 223.504C108.825 223.423 108.367 222.836 108.449 222.191C108.529 221.545 109.117 221.088 109.762 221.168C113.003 221.574 115.523 225.049 116.152 226.233C116.455 226.807 116.236 227.52 115.662 227.825C115.485 227.917 115.297 227.962 115.111 227.962Z" fill="#474747"/>
<path fill-rule="evenodd" clip-rule="evenodd" d="M21.4525 109.058C25.4422 108.534 48.3989 105.526 45.9788 114.355C44.9324 118.149 28.3854 119.326 23.5454 119.914C21.0601 120.176 16.024 119.064 15.6969 115.139C15.4353 111.216 20.1445 109.188 21.4525 109.058Z" fill="white"/>
<path d="M16.8709 115.052C16.9473 115.939 17.3438 116.668 18.0829 117.279C19.4912 118.444 21.8774 118.902 23.4135 118.744C24.053 118.667 24.8875 118.58 25.8527 118.478C29.0177 118.149 33.8006 117.648 37.8248 116.832C44.2586 115.528 44.8031 114.189 44.8439 114.041C45.1973 112.753 44.7868 112.085 44.447 111.697C42.2596 109.186 33.7204 108.635 21.6055 110.225C21.5936 110.227 21.5817 110.227 21.5697 110.228C20.8304 110.303 16.6704 111.919 16.8709 115.052ZM22.7949 121.128C20.8499 121.13 18.3229 120.534 16.5817 119.093C15.3613 118.083 14.6497 116.75 14.5237 115.237C14.5232 115.232 14.5226 115.225 14.5223 115.217C14.2183 110.658 19.3033 108.103 21.3149 107.887C22.9961 107.668 28.0477 107.007 33.1716 106.968C40.0364 106.909 44.3096 107.955 46.222 110.148C46.9615 110.996 47.7162 112.47 47.1142 114.667C46.1782 118.059 38.3786 119.537 26.0975 120.821C25.1376 120.921 24.3087 121.007 23.6876 121.083C23.6813 121.083 23.6749 121.085 23.6687 121.085C23.3957 121.113 23.1024 121.128 22.7949 121.128Z" fill="#474747"/>
<path fill-rule="evenodd" clip-rule="evenodd" d="M23.5454 119.914C27.5351 119.39 50.4918 116.383 48.0717 125.212C47.0252 129.005 30.4783 130.249 25.6383 130.771C23.153 131.033 18.1823 129.921 17.8554 125.997C17.5282 122.138 22.2374 120.044 23.5454 119.914Z" fill="white"/>
<path d="M35.7371 120.187C32.333 120.187 28.2705 120.483 23.6985 121.081C23.6866 121.083 23.6746 121.085 23.6627 121.085C22.95 121.156 18.7682 122.828 19.0284 125.898C19.1036 126.801 19.5021 127.539 20.2468 128.155C21.6393 129.308 23.9998 129.761 25.5152 129.6C25.9867 129.549 26.5738 129.491 27.2473 129.424C30.2331 129.128 35.2302 128.633 39.4599 127.802C46.3202 126.455 46.8941 125.055 46.9369 124.9C47.2902 123.61 46.8797 122.942 46.5399 122.553C45.1779 120.99 41.3536 120.187 35.7371 120.187ZM24.8987 131.984C22.9713 131.984 20.4698 131.396 18.7456 129.969C17.5225 128.957 16.8089 127.617 16.6821 126.095C16.5076 124.036 17.4335 122.147 19.3596 120.632C20.7676 119.526 22.4553 118.847 23.4075 118.745C25.0883 118.524 30.1403 117.863 35.2648 117.824C42.1305 117.765 46.4025 118.811 48.315 121.007C49.0544 121.855 49.8092 123.326 49.2073 125.523C48.2414 129.025 40.1776 130.507 27.4799 131.767C26.8142 131.833 26.2342 131.892 25.7649 131.941C25.4942 131.97 25.2036 131.984 24.8987 131.984Z" fill="#474747"/>
<path fill-rule="evenodd" clip-rule="evenodd" d="M24.1995 130.903C27.2079 130.379 44.3438 127.369 42.5125 136.33C41.7276 140.19 29.4318 141.431 25.7691 141.955C23.9378 142.217 20.1445 141.105 19.9483 137.116C19.6865 133.191 23.2184 131.099 24.1995 130.903Z" fill="white"/>
<path d="M24.4233 132.057C24.0242 132.154 20.904 133.754 21.1229 137.038C21.1234 137.045 21.1237 137.05 21.1241 137.057C21.1813 138.221 21.62 139.149 22.4279 139.815C23.5099 140.708 24.9192 140.888 25.6027 140.79C25.9448 140.74 26.3617 140.685 26.8371 140.623C29.0573 140.329 32.7732 139.839 35.9148 139.006C40.6731 137.747 41.2846 136.46 41.3587 136.095C41.6294 134.773 41.4129 133.771 40.6973 133.034C38.6876 130.965 32.7588 130.609 24.4306 132.057H24.4233ZM25.233 143.169C23.9253 143.169 22.2504 142.722 20.9294 141.631C19.6105 140.544 18.8649 139.005 18.7728 137.184C18.4794 132.686 22.317 130.078 23.9684 129.748C23.9782 129.746 23.9878 129.745 23.9978 129.743L24.027 129.737C30.5645 128.599 39.0563 127.965 42.3865 131.395C43.2671 132.301 44.2039 133.934 43.6658 136.567C42.8546 140.555 34.7131 141.957 27.1457 142.957C26.6796 143.019 26.271 143.073 25.9357 143.121C25.7182 143.151 25.4821 143.169 25.233 143.169Z" fill="#474747"/>
<path fill-rule="evenodd" clip-rule="evenodd" d="M47.8102 86.5587C47.8102 86.5587 42.3163 72.4966 49.38 57.9107C56.4434 43.3925 40.0926 26.4528 40.0926 26.4528C40.0926 26.4528 55.2662 34.1039 57.0975 46.0082C58.9943 57.9107 53.1079 62.294 53.8274 71.3848C54.2851 77.532 58.2748 86.5587 58.2748 86.5587H47.8102Z" fill="#32CD32"/>
<path d="M48.6505 85.381H56.5054C55.3196 82.4445 53.0061 76.21 52.6533 71.4721C52.3166 67.2172 53.3705 63.878 54.3897 60.6476C55.6468 56.6635 56.9468 52.5439 55.9349 46.1935C54.9499 39.7915 49.7563 34.6082 45.4787 31.3385C46.4526 32.7569 47.4743 34.3908 48.4254 36.1869C52.8016 44.4473 53.4977 52.1376 50.4385 58.4275C44.5842 70.5153 47.6808 82.3394 48.6505 85.381ZM58.2748 87.7365H47.8102C47.3253 87.7365 46.89 87.439 46.7137 86.9864C46.655 86.8367 45.2739 83.2535 44.7738 77.8118C44.3127 72.7924 44.5534 65.177 48.3203 57.3994C54.9481 43.7756 39.4034 27.4328 39.2455 27.2707C38.8468 26.8573 38.8042 26.2158 39.1449 25.7543C39.4854 25.2911 40.1102 25.1432 40.6227 25.4015C41.2643 25.724 56.3595 33.4678 58.2611 45.8283C59.3595 52.7221 57.9122 57.3103 56.6351 61.3568C55.64 64.5106 54.6999 67.4898 55.0009 71.2922C55.439 77.1739 59.3125 85.9939 59.3515 86.083C59.5126 86.4465 59.4786 86.867 59.2612 87.2002C59.044 87.5352 58.673 87.7365 58.2748 87.7365Z" fill="#474747"/>
<path fill-rule="evenodd" clip-rule="evenodd" d="M40.0926 26.4528C40.0926 26.4528 39.8309 15.0064 32.8982 10.625C25.8999 6.17756 1.17743 9.9051 1.17743 9.9051C1.17743 9.9051 16.8089 45.0924 40.0926 26.4528Z" fill="#32CD32"/>
<path d="M2.94655 10.8442C5.1421 15.1187 12.4121 27.7375 22.8384 30.273C28.0798 31.547 33.4756 30.0771 38.8831 25.9058C38.7163 23.6109 37.7338 15.0742 32.2691 11.6192C27.2152 8.40841 10.6761 9.81249 2.94655 10.8442ZM26.549 33.0776C25.1202 33.0776 23.6958 32.9048 22.2757 32.5591C16.504 31.1533 11.011 26.9785 5.94926 20.1506C2.22741 15.1294 0.186518 10.5751 0.101348 10.3827C-0.0477902 10.0477 -0.0315765 9.66102 0.145001 9.33851C0.321579 9.01778 0.638572 8.79684 1.00171 8.74161C2.0291 8.58659 26.2436 4.9998 33.5296 9.63073C40.9086 14.2955 41.2582 25.9326 41.2695 26.4261C41.2778 26.7932 41.1148 27.1424 40.8283 27.3723C36.0865 31.1675 31.2997 33.0776 26.549 33.0776Z" fill="#474747"/>
<path d="M40.0917 27.6287C39.8367 27.6287 39.58 27.5468 39.3642 27.3775C39.2158 27.2599 24.362 15.6906 10.0003 14.8086C9.35114 14.7676 8.8574 14.2099 8.89731 13.5613C8.93722 12.9127 9.49974 12.4192 10.1444 12.4584C25.2501 13.3849 40.1924 25.0326 40.8212 25.528C41.3317 25.9307 41.4195 26.6701 41.0174 27.1797C40.7852 27.4755 40.4401 27.6287 40.0917 27.6287Z" fill="#474747"/>
<path fill-rule="evenodd" clip-rule="evenodd" d="M51.0803 47.9041C51.0803 47.9041 45.1286 38.1594 36.8878 37.8333C28.5816 37.4395 9.09118 53.0714 9.09118 53.0714C9.09118 53.0714 40.2234 75.7022 51.0803 47.9041Z" fill="#32CD32"/>
<path d="M11.0896 52.9965C15.1246 55.5944 27.7279 62.8767 38.0293 59.8565C43.2127 58.3348 47.157 54.3596 49.7589 48.0377C48.4634 46.1383 43.338 39.2676 36.841 39.0093C30.8405 38.7278 17.2487 48.2284 11.0896 52.9965ZM32.6738 62.9444C28.3622 62.9444 23.5673 61.8094 18.3441 59.5483C12.6118 57.0662 8.5682 54.1476 8.39892 54.0246C8.10225 53.809 7.92283 53.4669 7.91427 53.0999C7.90554 52.7328 8.0684 52.3836 8.35456 52.1537C9.16475 51.5034 28.2954 36.2439 36.9432 36.6573C45.7041 37.0047 51.8287 46.8706 52.0851 47.2912C52.2768 47.6048 52.3108 47.9896 52.177 48.3335C49.2994 55.6995 44.7602 60.3376 38.6855 62.1176C36.8041 62.6682 34.797 62.9444 32.6738 62.9444Z" fill="#474747"/>
<path d="M18.641 53.0071C18.2076 53.0071 17.7905 52.7666 17.5851 52.3514C17.2966 51.7687 17.5352 51.0631 18.1178 50.7745C31.6306 44.0838 50.4497 46.6264 51.2441 46.7387C51.8878 46.8296 52.3363 47.4247 52.2462 48.0679C52.1558 48.7112 51.5598 49.1602 50.9169 49.0711C50.7295 49.0443 32.0156 46.5195 19.1625 52.8842C18.9947 52.9679 18.8165 53.0071 18.641 53.0071Z" fill="#474747"/>
<path fill-rule="evenodd" clip-rule="evenodd" d="M52.7809 36.7214C52.7809 36.7214 50.0339 25.6671 55.6585 19.5857C61.218 13.5026 86.0712 10.6909 86.0712 10.6909C86.0712 10.6909 80.12 48.6899 52.7809 36.7214Z" fill="#32CD32"/>
<path d="M53.8047 35.8786C60.1239 38.5103 65.7265 38.5299 70.4643 35.9338C79.8723 30.7772 83.6016 16.7436 84.6083 12.0557C76.8735 13.0624 60.5387 15.99 56.5277 20.3786C52.089 25.1788 53.3664 33.6335 53.8047 35.8786ZM62.797 40.2297C59.515 40.2297 56.0111 39.4208 52.3087 37.7994C51.9741 37.6533 51.7264 37.3592 51.6384 37.0047C51.5199 36.5289 48.8069 25.2607 54.7943 18.7856C57.2644 16.0826 63.2923 13.6985 72.7058 11.7047C79.589 10.2472 85.877 9.5273 85.9393 9.52018C86.3028 9.47919 86.6663 9.61105 86.9211 9.87475C87.1759 10.1402 87.2917 10.5091 87.2347 10.8726C87.2027 11.0793 86.4151 15.9989 84.1273 21.804C81.0162 29.6974 76.8004 35.1462 71.5957 37.9989C68.8803 39.4867 65.9403 40.2297 62.797 40.2297Z" fill="#474747"/>
<path d="M52.78 37.8974C52.5343 37.8974 52.2866 37.8208 52.0749 37.6622C51.5546 37.2737 51.4488 36.5361 51.8385 36.0158C52.3176 35.3761 63.7346 20.2966 78.1083 15.4608C78.7248 15.2541 79.393 15.5855 79.5997 16.2002C79.8082 16.8167 79.4767 17.4849 78.8602 17.6916C65.1885 22.2905 53.8361 37.2755 53.7229 37.427C53.4916 37.7352 53.1379 37.8974 52.78 37.8974Z" fill="#474747"/>
<path fill-rule="evenodd" clip-rule="evenodd" d="M207.329 96.4994C207.329 96.4994 202.948 96.8273 201.444 99.9009C200.004 102.909 200.136 107.88 200.136 107.88C200.136 107.88 229.174 129.593 252.393 116.055C275.676 102.517 275.218 76.0941 275.218 76.0941C275.218 76.0941 273.388 72.2347 268.547 69.423C263.642 66.6095 259.784 68.2452 259.784 68.2452C259.784 68.2452 262.465 91.856 243.824 103.105C225.185 114.355 207.329 96.4994 207.329 96.4994Z" fill="#474747"/>
<path d="M201.312 107.276C203.069 108.509 209.563 112.86 218.02 115.96C227.038 119.267 240.22 121.79 251.8 115.039C263.481 108.247 268.903 98.0549 271.394 90.7031C273.8 83.6026 274.022 77.6941 274.04 76.3845C273.588 75.5755 271.759 72.6498 267.955 70.4404C264.86 68.6657 262.278 68.8474 261.033 69.1058C261.154 71.1246 261.245 75.9782 259.942 81.7175C257.697 91.5994 252.336 99.3449 244.434 104.113C236.467 108.922 227.362 109.261 218.104 105.095C212.32 102.492 208.22 98.9405 206.926 97.7413C205.872 97.9213 203.423 98.5342 202.5 100.418C201.478 102.558 201.33 105.936 201.312 107.276ZM235.314 121.676C235.013 121.676 234.71 121.673 234.407 121.666C228.978 121.546 223.173 120.363 217.15 118.15C206.944 114.398 199.733 109.049 199.43 108.822L198.974 108.48L198.958 107.91C198.953 107.696 198.839 102.62 200.382 99.3931C202.167 95.7439 207.035 95.3412 207.242 95.3252L207.78 95.286L208.161 95.6673C208.206 95.71 212.6 100.051 219.135 102.976C227.754 106.836 235.856 106.54 243.217 102.098C250.641 97.6166 255.491 90.6087 257.63 81.2702C259.242 74.2285 258.62 68.434 258.613 68.377L258.515 67.5039L259.324 67.1618C259.504 67.0852 263.782 65.3337 269.133 68.402C274.236 71.3669 276.201 75.4188 276.282 75.5898L276.392 75.8197L276.396 76.0727C276.401 76.3506 276.481 82.979 273.653 91.3731C271.991 96.307 269.66 100.824 266.729 104.799C263.061 109.774 258.435 113.904 252.984 117.074C247.744 120.13 241.802 121.676 235.314 121.676Z" fill="#474747"/>
<path fill-rule="evenodd" clip-rule="evenodd" d="M280.255 70.9269C280.255 70.9269 280.713 76.5521 276.658 78.252C272.536 79.8877 258.736 80.1496 256.774 76.6822C254.813 73.2166 255.336 69.2912 255.336 69.2912C255.336 69.2912 250.823 66.5454 249.907 61.902C248.927 57.2568 247.488 51.9595 244.152 50.5857C240.882 49.2137 226.231 44.1766 228.848 37.5714C231.464 30.9003 238.135 30.8343 242.778 34.4318C247.358 38.0935 255.14 45.3543 257.756 38.2253C260.372 31.0303 266.063 13.6327 271.032 7.48545C275.938 1.40234 279.601 0.0944747 282.347 1.99211C285.16 3.95388 283.263 10.1011 280.777 14.5485C278.293 18.9318 269.987 31.4883 273.192 33.712C276.462 35.8697 288.364 16.3803 288.364 16.3803C288.364 16.3803 292.551 8.46722 297.915 12.0629C303.342 15.5963 296.999 23.9672 296.999 23.9672C296.999 23.9672 285.618 40.7751 286.402 44.0465C287.188 47.2502 299.876 40.3831 299.876 40.3831C299.876 40.3831 308.117 37.7014 308.117 44.3726C308.117 51.0437 300.726 55.8848 296.867 56.7348C293.074 57.5188 287.122 57.5847 287.122 57.5847C287.122 57.5847 286.992 68.4413 280.255 70.9269Z" fill="white"/>
<path d="M236.308 33.2326C235.692 33.2326 235.09 33.3092 234.514 33.4677C232.465 34.0326 230.885 35.6006 229.944 38.0007C227.998 42.9114 239.608 47.512 243.425 49.0248C243.894 49.2101 244.298 49.3704 244.608 49.5005C248.345 51.04 249.918 56.2536 251.06 61.6578C251.869 65.7613 255.907 68.2612 255.948 68.2862C256.347 68.5285 256.564 68.9847 256.504 69.4479C256.498 69.48 256.065 73.0401 257.799 76.103C258.314 77.0099 261.035 78.0131 265.953 78.2037C269.974 78.3605 274.286 77.9222 276.212 77.1614C279.432 75.8019 279.084 71.0694 279.081 71.023C279.038 70.4956 279.352 70.0056 279.847 69.8221C285.756 67.6429 285.944 57.6701 285.944 57.5704C285.953 56.9307 286.47 56.4139 287.11 56.4068C287.169 56.4068 292.993 56.3338 296.628 55.5818C300.217 54.7907 306.94 50.24 306.94 44.3724C306.94 43.0806 306.59 42.1969 305.872 41.6748C304.368 40.579 301.455 41.1331 300.334 41.4734C299.821 41.7478 297.512 42.9648 294.896 44.0838C289.298 46.4785 287.432 46.2148 286.516 45.8086C285.87 45.5217 285.424 44.9961 285.259 44.3261C284.977 43.1519 285.308 40.7162 290.395 32.1777C293.127 27.5913 295.994 23.3488 296.024 23.3078C296.035 23.29 296.047 23.2722 296.06 23.2562C297.004 22.0053 299.351 18.1513 298.866 15.393C298.693 14.4023 298.171 13.6362 297.271 13.0499C296.243 12.3604 295.256 12.1537 294.241 12.4085C291.928 12.9911 289.966 15.8706 289.405 16.9307C289.394 16.9521 289.382 16.9735 289.369 16.9931C289.344 17.0359 286.787 21.2124 283.755 25.4478C278.065 33.3929 275.676 34.6972 274.375 34.9876C273.516 35.1783 272.905 34.9342 272.543 34.6954C272.535 34.6901 272.527 34.6847 272.52 34.6794C269.16 32.347 273.165 25.0095 278.334 16.373C278.903 15.4251 279.393 14.6055 279.754 13.9676C282.194 9.60392 283.58 4.28698 281.673 2.95775C279.341 1.34699 276.068 3.11632 271.95 8.22478C267.802 13.3546 263.004 26.9356 260.137 35.05C259.65 36.4256 259.232 37.614 258.863 38.6279C258.136 40.6075 256.974 41.828 255.406 42.2556C251.719 43.2624 247.051 39.444 243.302 36.3739C242.864 36.0158 242.445 35.6718 242.049 35.3565C240.262 33.9738 238.217 33.2326 236.308 33.2326ZM267.594 80.5896C267.016 80.5896 266.437 80.5789 265.862 80.5557C262.015 80.4079 257.138 79.7147 255.75 77.263C254.125 74.3907 254.045 71.2761 254.109 69.8809C252.748 68.892 249.554 66.1908 248.753 62.1282C247.796 57.6006 246.445 52.804 243.703 51.6743C243.407 51.5514 243.013 51.3946 242.557 51.2128C240.262 50.3041 235.99 48.6114 232.636 46.3859C228.144 43.4085 226.501 40.2974 227.754 37.1383C229.297 33.2023 231.941 31.7358 233.889 31.1977C236.954 30.3531 240.547 31.2138 243.5 33.5016C243.505 33.5052 243.509 33.5087 243.514 33.5123C243.919 33.8348 244.346 34.1858 244.793 34.5529C247.771 36.9886 252.27 40.6716 254.786 39.9838C255.586 39.7664 256.197 39.0573 256.651 37.8189C257.015 36.8193 257.432 35.6362 257.917 34.2642C260.833 26.0073 265.716 12.1893 270.117 6.74589C275.145 0.509536 279.485 -1.41482 283.017 1.0227C286.559 3.49408 284.578 10.1634 281.805 15.124C281.428 15.7922 280.93 16.6207 280.355 17.5829C278.744 20.2734 276.538 23.96 275.095 27.1619C273.19 31.3866 273.662 32.4824 273.821 32.6998C274.149 32.6588 276.043 32.0815 281.486 24.5676C284.494 20.4177 287.112 16.1717 287.343 15.7939C287.6 15.32 290.007 11.0472 293.665 10.126C295.34 9.70369 296.992 10.0262 298.57 11.0864C300.014 12.0254 300.899 13.3422 301.186 14.9903C301.924 19.2132 298.301 24.1881 297.957 24.6495C297.726 24.9934 295.017 29.0203 292.429 33.3644C287.821 41.0957 287.525 43.2214 287.537 43.6776C287.858 43.7613 289.287 43.9056 293.817 41.983C296.68 40.7696 299.29 39.362 299.315 39.3477C299.378 39.3139 299.444 39.2854 299.511 39.264C300.01 39.1018 304.459 37.7388 307.253 39.7665C308.607 40.75 309.293 42.3002 309.293 44.3724C309.293 48.5258 306.817 51.6832 304.737 53.6022C302.485 55.6798 299.495 57.3601 297.12 57.8839C294.207 58.4862 290.167 58.6786 288.239 58.7374C288.006 61.6168 286.88 69.0755 281.445 71.6984C281.406 73.5354 280.891 77.753 277.114 79.337C277.107 79.3406 277.1 79.3441 277.092 79.3459C275.159 80.1139 271.419 80.5896 267.594 80.5896Z" fill="#474747"/>
<path d="M267.959 62.032C267.711 62.032 267.46 61.9536 267.248 61.7933C266.729 61.3995 266.628 60.6618 267.02 60.1433C272.722 52.6205 268.228 47.2911 268.183 47.2376C267.756 46.7476 267.807 46.0046 268.297 45.577C268.789 45.1511 269.532 45.2028 269.96 45.6928C270.02 45.7641 271.478 47.4657 272.048 50.2881C272.567 52.8521 272.44 56.8915 268.898 61.5652C268.666 61.8717 268.313 62.032 267.959 62.032Z" fill="#474747"/>
<path d="M275.537 73.7903C274.748 73.7903 273.883 73.687 272.951 73.4375C272.322 73.2682 271.952 72.6232 272.119 71.9942C272.289 71.367 272.934 70.9947 273.563 71.1639C277.255 72.1546 279.412 70.1055 279.434 70.0841C279.899 69.6298 280.644 69.6405 281.098 70.1055C281.552 70.5706 281.542 71.3154 281.076 71.7697C280.973 71.8695 278.956 73.7903 275.537 73.7903Z" fill="#474747"/>
<path d="M263.315 72.8227H263.258C258.913 72.616 254.928 70.4137 254.761 70.3193C254.194 70.0021 253.991 69.284 254.308 68.7174C254.626 68.149 255.342 67.9477 255.91 68.2631C255.946 68.2845 259.59 70.2908 263.371 70.4707C264.021 70.501 264.522 71.0534 264.491 71.702C264.461 72.3327 263.941 72.8227 263.315 72.8227Z" fill="#474747"/>
<path fill-rule="evenodd" clip-rule="evenodd" d="M80.708 9.44727H122.566L112.234 48.232H70.3093L80.708 9.44727Z" fill="#474747"/>
<path d="M71.8434 47.0542H111.328L121.034 10.625H81.6113L71.8434 47.0542ZM112.234 49.4097H70.3093C69.9422 49.4097 69.5983 49.2387 69.3756 48.9482C69.1529 48.6578 69.0763 48.2801 69.1725 47.9273L79.5711 9.1425C79.7083 8.62756 80.1752 8.26941 80.7079 8.26941H122.566C122.932 8.26941 123.277 8.44048 123.5 8.73091C123.723 9.01957 123.798 9.39731 123.705 9.75011L113.37 48.5349C113.233 49.0498 112.766 49.4097 112.234 49.4097Z" fill="#474747"/>
<path fill-rule="evenodd" clip-rule="evenodd" d="M82.0817 11.0829H88.8188L99.8055 46.5962H93.0043L82.0817 11.0829Z" fill="#237C9D"/>
<path fill-rule="evenodd" clip-rule="evenodd" d="M92.2185 11.0829H98.9555L109.944 46.5962H103.207L92.2185 11.0829Z" fill="#237C9D"/>
<path d="M79.7315 22.2673H91.1298L93.9807 11.7368H82.5824L79.7315 22.2673ZM91.6305 23.5751H78.8762C78.6731 23.5751 78.4807 23.4789 78.3578 23.3186C78.233 23.1564 78.192 22.9461 78.2455 22.7501L81.451 10.9118C81.5276 10.6267 81.7859 10.4289 82.0817 10.4289H94.836C95.0391 10.4289 95.2315 10.5233 95.3545 10.6855C95.4792 10.8458 95.5202 11.0561 95.4667 11.2539L92.2612 23.0923C92.1846 23.3773 91.9263 23.5751 91.6305 23.5751Z" fill="#98D4CB"/>
<path d="M92.4858 22.2673H103.946L106.738 11.7368H95.3367L92.4858 22.2673ZM104.451 23.5751H91.6305C91.4274 23.5751 91.2349 23.4789 91.112 23.3186C90.9873 23.1564 90.9463 22.9461 90.9997 22.7501L94.2034 10.9118C94.2818 10.6267 94.5402 10.4289 94.836 10.4289H107.588C107.792 10.4289 107.984 10.5233 108.107 10.6837C108.232 10.8441 108.273 11.0543 108.221 11.2503L105.081 23.0887C105.007 23.3756 104.746 23.5751 104.451 23.5751Z" fill="#98D4CB"/>
<path d="M105.301 22.2673H116.702L119.553 11.7368H108.093L105.301 22.2673ZM117.203 23.5751H104.451C104.248 23.5751 104.055 23.4807 103.932 23.3186C103.807 23.1582 103.766 22.9497 103.818 22.7537L106.958 10.9153C107.032 10.6285 107.293 10.4289 107.588 10.4289H120.409C120.612 10.4289 120.804 10.5233 120.927 10.6855C121.052 10.8458 121.093 11.0561 121.039 11.2539L117.834 23.0923C117.757 23.3773 117.499 23.5751 117.203 23.5751Z" fill="#98D4CB"/>
<path d="M76.5884 34.1039H87.9885L90.7806 23.5751H79.3805L76.5884 34.1039ZM88.4909 35.4117H75.7367C75.5336 35.4117 75.3429 35.3191 75.22 35.1569C75.0952 34.9965 75.0525 34.7881 75.106 34.5903L78.2455 22.7537C78.3203 22.4668 78.5805 22.2673 78.8763 22.2673H91.6305C91.8336 22.2673 92.026 22.3599 92.149 22.5221C92.2719 22.6824 92.3147 22.8927 92.263 23.0887L89.1235 34.9271C89.0469 35.2122 88.7885 35.4117 88.4909 35.4117Z" fill="#98D4CB"/>
<path d="M89.3409 34.1039H100.744L103.595 23.5751H92.1348L89.3409 34.1039ZM101.245 35.4117H88.491C88.2878 35.4117 88.0972 35.3191 87.9725 35.1569C87.8495 34.9965 87.8067 34.7881 87.8584 34.5903L90.998 22.7537C91.0746 22.4668 91.3347 22.2673 91.6305 22.2673H104.451C104.654 22.2673 104.846 22.3617 104.969 22.5238C105.092 22.6842 105.135 22.8945 105.081 23.0923L101.876 34.9288C101.799 35.2139 101.541 35.4117 101.245 35.4117Z" fill="#98D4CB"/>
<path d="M102.1 34.1039H113.561L116.353 23.5751H104.95L102.1 34.1039ZM114.064 35.4117H101.245C101.042 35.4117 100.85 35.3173 100.725 35.1569C100.602 34.9948 100.561 34.7845 100.614 34.5885L103.818 22.7501C103.896 22.465 104.155 22.2673 104.451 22.2673H117.203C117.406 22.2673 117.599 22.3599 117.722 22.5221C117.846 22.6824 117.887 22.8927 117.836 23.0887L114.696 34.9271C114.619 35.2122 114.361 35.4117 114.064 35.4117Z" fill="#98D4CB"/>
<path d="M73.3883 45.9423H84.8489L87.641 35.4117H76.2374L73.3883 45.9423ZM85.3514 47.2501H72.533C72.3299 47.2501 72.1374 47.1557 72.0127 46.9935C71.8898 46.8332 71.8488 46.6229 71.9022 46.4251L75.106 34.5886C75.1826 34.3017 75.4427 34.1039 75.7367 34.1039H88.4909C88.6941 34.1039 88.8865 34.1983 89.0094 34.3605C89.1342 34.5208 89.1751 34.7293 89.1235 34.9271L85.9839 46.7637C85.9073 47.0506 85.6489 47.2501 85.3514 47.2501Z" fill="#98D4CB"/>
<path d="M86.2013 45.9423H97.6031L100.395 35.4117H88.9952L86.2013 45.9423ZM98.1056 47.2501H85.3514C85.1483 47.2501 84.9576 47.1557 84.8329 46.9953C84.7099 46.835 84.6672 46.6247 84.7188 46.4287L87.8584 34.5903C87.935 34.3035 88.1952 34.1039 88.491 34.1039H101.245C101.448 34.1039 101.639 34.1983 101.764 34.3605C101.887 34.5208 101.929 34.7293 101.878 34.9271L98.7382 46.7637C98.6616 47.0506 98.4014 47.2501 98.1056 47.2501Z" fill="#98D4CB"/>
<path d="M98.9556 45.9423H110.359L113.21 35.4117H101.748L98.9556 45.9423ZM110.86 47.2501H98.1056C97.9025 47.2501 97.7118 47.1557 97.5871 46.9953C97.4642 46.835 97.4214 46.6247 97.4731 46.4287L100.613 34.5903C100.689 34.3035 100.948 34.1039 101.245 34.1039H114.064C114.268 34.1039 114.459 34.2001 114.584 34.3605C114.707 34.5226 114.75 34.7329 114.696 34.9289L111.491 46.7672C111.414 47.0523 111.154 47.2501 110.86 47.2501Z" fill="#98D4CB"/>
<path fill-rule="evenodd" clip-rule="evenodd" d="M136.824 9.44727H178.683L168.284 48.232H126.426L136.824 9.44727Z" fill="#474747"/>
<path d="M127.96 47.0542H167.381L177.149 10.625H137.728L127.96 47.0542ZM168.284 49.4097H126.426C126.059 49.4097 125.715 49.2387 125.492 48.9482C125.269 48.6578 125.193 48.2801 125.289 47.9273L135.688 9.1425C135.825 8.62756 136.292 8.26941 136.824 8.26941H178.683C179.05 8.26941 179.394 8.44048 179.617 8.73091C179.839 9.02135 179.914 9.39909 179.82 9.75189L169.421 48.5366C169.284 49.0516 168.817 49.4097 168.284 49.4097Z" fill="#474747"/>
<path fill-rule="evenodd" clip-rule="evenodd" d="M138.132 11.0829H144.869L155.858 46.5962H149.121L138.132 11.0829Z" fill="#237C9D"/>
<path fill-rule="evenodd" clip-rule="evenodd" d="M148.271 11.0829H155.006L165.994 46.5962H159.257L148.271 11.0829Z" fill="#237C9D"/>
<path d="M135.843 22.2673H147.245L150.037 11.7368H138.637L135.843 22.2673ZM147.747 23.5751H134.993C134.79 23.5751 134.599 23.4807 134.474 23.3186C134.351 23.1582 134.309 22.9497 134.362 22.7537L137.5 10.9153C137.576 10.6285 137.837 10.4289 138.132 10.4289H150.887C151.09 10.4289 151.28 10.5233 151.405 10.6837C151.528 10.8441 151.571 11.0543 151.519 11.2503L148.38 23.0887C148.303 23.3756 148.045 23.5751 147.747 23.5751Z" fill="#98D4CB"/>
<path d="M148.597 22.2673H160L162.851 11.7368H151.389L148.597 22.2673ZM160.501 23.5751H147.747C147.544 23.5751 147.353 23.4807 147.228 23.3186C147.105 23.1582 147.063 22.9497 147.114 22.7537L150.254 10.9153C150.331 10.6285 150.589 10.4289 150.886 10.4289H163.705C163.91 10.4289 164.1 10.5233 164.225 10.6855C164.348 10.8458 164.391 11.0561 164.337 11.2539L161.132 23.0923C161.055 23.3773 160.797 23.5751 160.501 23.5751Z" fill="#98D4CB"/>
<path d="M161.355 22.2673H172.755L175.604 11.7368H164.206L161.355 22.2673ZM173.254 23.5751H160.501C160.296 23.5751 160.106 23.4789 159.981 23.3186C159.858 23.1564 159.817 22.9461 159.869 22.7501L163.074 10.9118C163.151 10.6267 163.411 10.4289 163.705 10.4289H176.459C176.662 10.4289 176.855 10.5233 176.979 10.6855C177.102 10.8458 177.143 11.0561 177.09 11.2539L173.886 23.0923C173.808 23.3773 173.549 23.5751 173.254 23.5751Z" fill="#98D4CB"/>
<path d="M132.643 34.1039H144.041L146.892 23.5751H135.493L132.643 34.1039ZM144.541 35.4117H131.789C131.584 35.4117 131.393 35.3173 131.269 35.1569C131.146 34.9948 131.105 34.7845 131.157 34.5885L134.362 22.7501C134.439 22.465 134.699 22.2673 134.993 22.2673H147.747C147.95 22.2673 148.143 22.3617 148.267 22.5238C148.39 22.6842 148.431 22.8945 148.378 23.0923L145.174 34.9288C145.096 35.2139 144.837 35.4117 144.541 35.4117Z" fill="#98D4CB"/>
<path d="M145.397 34.1039H156.857L159.651 23.5751H148.248L145.397 34.1039ZM157.362 35.4117H144.541C144.338 35.4117 144.146 35.3173 144.023 35.1569C143.898 34.9948 143.857 34.7845 143.911 34.5885L147.116 22.7501C147.193 22.465 147.451 22.2673 147.747 22.2673H160.501C160.704 22.2673 160.895 22.3599 161.02 22.5221C161.143 22.6824 161.185 22.8927 161.134 23.0887L157.994 34.9271C157.918 35.2122 157.657 35.4117 157.362 35.4117Z" fill="#98D4CB"/>
<path d="M158.212 34.1039H169.612L172.404 23.5751H161.004L158.212 34.1039ZM170.116 35.4117H157.362C157.158 35.4117 156.966 35.3191 156.843 35.1569C156.718 34.9965 156.677 34.7881 156.729 34.5903L159.869 22.7537C159.945 22.4668 160.204 22.2673 160.501 22.2673H173.254C173.457 22.2673 173.649 22.3599 173.772 22.5221C173.897 22.6824 173.938 22.8927 173.886 23.0887L170.747 34.9271C170.672 35.2122 170.412 35.4117 170.116 35.4117Z" fill="#98D4CB"/>
<path d="M129.499 45.9423H140.899L143.692 35.4117H132.291L129.499 45.9423ZM141.404 47.2501H128.649C128.446 47.2501 128.254 47.1557 128.131 46.9953C128.006 46.835 127.965 46.6247 128.017 46.4287L131.156 34.5903C131.233 34.3035 131.491 34.1039 131.789 34.1039H144.541C144.745 34.1039 144.937 34.1983 145.06 34.3605C145.185 34.5208 145.226 34.7293 145.174 34.9271L142.034 46.7637C141.96 47.0506 141.699 47.2501 141.404 47.2501Z" fill="#98D4CB"/>
<path d="M142.254 45.9423H153.655L156.506 35.4117H145.046L142.254 45.9423ZM154.156 47.2501H141.404C141.201 47.2501 141.008 47.1557 140.885 46.9953C140.76 46.835 140.719 46.6247 140.771 46.4287L143.911 34.5903C143.986 34.3035 144.246 34.1039 144.541 34.1039H157.362C157.565 34.1039 157.757 34.2001 157.88 34.3605C158.005 34.5226 158.046 34.7329 157.992 34.9289L154.789 46.7672C154.71 47.0523 154.452 47.2501 154.156 47.2501Z" fill="#98D4CB"/>
<path d="M155.011 45.9423H166.472L169.266 35.4117H157.862L155.011 45.9423ZM166.976 47.2501H154.156C153.953 47.2501 153.761 47.1557 153.638 46.9935C153.513 46.8332 153.472 46.6229 153.525 46.4251L156.731 34.5886C156.807 34.3017 157.066 34.1039 157.362 34.1039H170.116C170.319 34.1039 170.51 34.1983 170.633 34.3605C170.757 34.5208 170.8 34.7293 170.747 34.9271L167.607 46.7637C167.532 47.0506 167.272 47.2501 166.976 47.2501Z" fill="#98D4CB"/>
<path d="M131.591 29.9843C131.329 29.9843 131.066 29.897 130.846 29.717C126.399 26.0732 122.258 26.0643 118.181 29.6868C117.695 30.118 116.952 30.0752 116.521 29.5888C116.088 29.1023 116.132 28.3593 116.617 27.9263C121.563 23.5324 127 23.5199 132.338 27.896C132.842 28.3076 132.915 29.0507 132.504 29.5531C132.27 29.8364 131.932 29.9843 131.591 29.9843Z" fill="#474747"/>
<path fill-rule="evenodd" clip-rule="evenodd" d="M174.169 26.2568C174.169 26.2568 237.351 57.1927 239.377 64.6478C241.404 72.1688 239.247 83.0914 236.499 75.5044C233.753 67.8533 237.611 66.7414 228.52 61.1162C219.429 55.4911 172.797 31.3582 172.797 31.3582L174.169 26.2568Z" fill="#474747"/>
<path d="M174.18 30.7487C180.712 34.1341 220.678 54.8798 229.14 60.1148C235.508 64.0544 236.016 66.0999 236.421 69.6671C236.586 71.1282 236.774 72.7853 237.607 75.107C237.873 75.8411 238.097 76.2919 238.261 76.5627C238.953 74.9341 239.502 69.6332 238.242 64.9542C238.067 64.3181 236.693 62.2155 227.702 56.4977C222.232 53.0178 214.747 48.7094 205.455 43.6918C192.219 36.5449 179.018 29.9647 174.934 27.9459L174.18 30.7487ZM238.281 79.2586C236.606 79.2586 235.708 76.7783 235.393 75.9052C234.466 73.3216 234.252 71.4435 234.081 69.9326C233.746 66.9854 233.593 65.6402 227.902 62.1175C218.952 56.5797 172.721 32.6445 172.256 32.404C171.764 32.1492 171.516 31.5862 171.661 31.0516L173.033 25.9503C173.125 25.6099 173.364 25.3302 173.683 25.1841C174.004 25.0398 174.371 25.0433 174.688 25.1983C174.847 25.2767 190.687 33.0419 206.574 41.6195C215.916 46.6656 223.449 51.0026 228.966 54.511C238.477 60.5602 240.134 62.9407 240.514 64.3395C241.235 67.0175 241.511 70.2907 241.269 73.3234C240.993 76.7819 240.179 78.7472 238.848 79.1677C238.65 79.2301 238.461 79.2586 238.281 79.2586Z" fill="#474747"/>
</svg>
