<svg width="1347" height="235" viewBox="0 0 1347 235" fill="none" xmlns="http://www.w3.org/2000/svg">
<path d="M80.8223 234.934C71.1543 234.934 62.3457 233.806 54.3965 231.55C46.4473 229.294 39.0889 225.588 32.3213 220.432C25.5537 215.168 19.8604 208.508 15.2412 200.451C10.6221 192.287 7.02344 182.136 4.44531 169.997C1.86719 157.751 0.578125 143.786 0.578125 128.103C0.578125 102.858 4.01562 80.5684 10.8906 61.2324C17.873 41.7891 27.7559 26.75 40.5391 16.1152C53.3223 5.37305 68.0928 0.00195312 84.8506 0.00195312C99.2451 0.00195312 111.76 3.6543 122.395 10.959C124.973 13.2148 126.101 16.0615 125.778 19.499C125.456 24.5479 124.973 34.001 124.328 47.8584C123.791 61.7158 123.361 71.1689 123.039 76.2178C122.932 79.9775 121.696 82.1797 119.333 82.8242C117.077 83.4688 114.929 82.6094 112.888 80.2461C105.905 73.5859 98.0635 70.2559 89.3623 70.2559C70.2412 70.2559 60.6807 88.8398 60.6807 126.008C60.6807 137.072 63.4199 145.773 68.8984 152.111C74.377 158.342 81.5205 161.457 90.3291 161.457C96.8818 161.457 102.79 160.329 108.054 158.073C113.317 155.817 118.742 152.219 124.328 147.277C126.369 144.592 128.625 143.732 131.096 144.699C133.566 145.559 134.855 148.029 134.963 152.111C135.393 165.754 135.822 186.433 136.252 214.147C136.252 218.122 134.587 221.237 131.257 223.493C125.349 226.823 117.722 229.562 108.376 231.711C99.1377 233.859 89.9531 234.934 80.8223 234.934ZM216.657 234.934C192.38 234.934 174.333 227.468 162.517 212.536C150.7 197.497 144.792 173.059 144.792 139.221C144.792 123.215 145.49 102.482 146.887 77.0234C148.283 51.457 150.002 29.1133 152.043 9.99219C152.365 7.95117 153.278 6.17871 154.782 4.6748C156.286 3.1709 158.112 2.25781 160.261 1.93555C166.491 1.29102 173.42 0.96875 181.047 0.96875C189.211 0.96875 196.569 1.29102 203.122 1.93555C205.593 2.25781 207.634 3.38574 209.245 5.31934C210.964 7.14551 211.662 9.24023 211.34 11.6035C208.977 29.3281 207.097 48.9863 205.7 70.5781C204.411 92.0625 203.767 110.539 203.767 126.008C203.767 147.385 208.063 158.073 216.657 158.073C225.036 158.073 229.226 147.385 229.226 126.008C229.226 89.0547 226.809 50.9199 221.975 11.6035C221.652 9.13281 222.243 6.98437 223.747 5.1582C225.358 3.33203 227.507 2.25781 230.192 1.93555C236.423 1.29102 243.781 0.96875 252.268 0.96875C259.572 0.96875 266.394 1.29102 272.731 1.93555C274.88 2.25781 276.76 3.1709 278.371 4.6748C279.982 6.17871 280.842 7.95117 280.949 9.99219C282.99 30.0801 284.763 52.7998 286.267 78.1514C287.878 103.396 288.684 123.752 288.684 139.221C288.576 173.059 282.561 197.497 270.637 212.536C258.713 227.468 240.72 234.934 216.657 234.934ZM364.899 233.322C353.835 233.322 345.026 233 338.474 232.355C335.896 231.818 333.801 230.583 332.189 228.649C330.578 226.716 329.934 224.514 330.256 222.043C331.223 209.26 332.351 193.093 333.64 173.542C334.929 153.884 336.164 134.602 337.346 115.695C338.635 96.6816 339.44 84.8652 339.763 80.2461C340.944 71.4375 338.527 67.0332 332.512 67.0332C329.182 67.0332 324.777 69.0742 319.299 73.1562C313.82 77.1309 309.309 81.2666 305.764 85.5635C304.689 87.6045 303.132 88.8936 301.091 89.4307C299.157 89.8604 297.331 89.2158 295.612 87.4971C294.001 85.7783 293.195 83.1465 293.195 79.6016C293.195 72.082 293.518 60.2656 294.162 44.1523C294.807 27.9316 295.505 16.4375 296.257 9.66992C296.579 4.83594 299.426 2.25781 304.797 1.93555C316.506 1.29102 336.325 0.96875 364.255 0.96875C392.292 0.96875 412.165 1.29102 423.874 1.93555C429.03 2.25781 431.931 4.83594 432.575 9.66992C433.327 16.4375 433.972 27.9316 434.509 44.1523C435.153 60.373 435.476 72.2969 435.476 79.9238C435.476 83.3613 434.616 85.9395 432.897 87.6582C431.286 89.2695 429.46 89.8604 427.419 89.4307C425.485 88.8936 423.981 87.6045 422.907 85.5635C419.04 81.1592 414.475 76.9697 409.211 72.9951C404.055 69.0205 399.865 67.0332 396.643 67.0332C390.52 67.0332 388.049 71.4375 389.23 80.2461C391.701 125.471 395.031 172.736 399.221 222.043C399.328 224.514 398.576 226.716 396.965 228.649C395.354 230.583 393.259 231.818 390.681 232.355C384.343 233 375.749 233.322 364.899 233.322ZM504.602 233.967C476.027 233.967 458.41 233.645 451.75 233C449.387 232.678 447.346 231.657 445.627 229.938C444.016 228.112 443.21 225.964 443.21 223.493C443.962 123.161 446.271 51.7256 450.139 9.18652C450.246 7.03809 451.105 5.37305 452.717 4.19141C454.328 2.90234 456.315 2.15039 458.679 1.93555C466.628 1.29102 483.01 0.96875 507.824 0.96875C527.805 0.96875 543.435 1.29102 554.714 1.93555C557.077 2.15039 559.064 3.00977 560.676 4.51367C562.287 5.91016 563.146 7.73633 563.254 9.99219C563.898 20.3047 564.543 41.5205 565.188 73.6396C565.402 77.1846 564.167 79.6016 561.481 80.8906C558.796 82.0723 555.896 81.3203 552.78 78.6348C546.442 73.8008 540.642 70.3633 535.378 68.3223C530.222 66.1738 524.689 65.0996 518.781 65.0996C513.303 65.0996 509.328 66.6572 506.857 69.7725C504.387 72.7803 503.151 76.1641 503.151 79.9238V81.5352C503.151 90.3438 509.006 94.748 520.715 94.748C523.723 94.748 527.805 94.4258 532.961 93.7812C538.117 93.0293 541.716 92.5996 543.757 92.4922C546.228 92.2773 548.376 93.0293 550.202 94.748C552.136 96.4668 553.103 98.5615 553.103 101.032L552.78 127.136C552.78 130.573 551.599 132.829 549.235 133.903C546.979 134.87 544.831 134.226 542.79 131.97C537.634 128.103 533.498 125.417 530.383 123.913C527.268 122.302 523.83 121.496 520.07 121.496C508.791 121.818 503.151 128.425 503.151 141.315V146.149C503.151 162.048 509.65 169.997 522.648 169.997C530.168 169.997 536.452 168.439 541.501 165.324C546.55 162.209 551.491 156.301 556.325 147.6C557.292 145.773 558.796 144.646 560.837 144.216C562.878 143.679 564.758 144.108 566.477 145.505C568.303 146.794 569.323 148.889 569.538 151.789C571.257 178.43 572.331 202.438 572.761 223.815C572.761 226.286 571.955 228.381 570.344 230.1C568.84 231.711 566.906 232.678 564.543 233C557.883 233.645 537.902 233.967 504.602 233.967ZM641.726 234.934C633.347 234.934 624.055 234.074 613.85 232.355C603.645 230.529 594.943 228.005 587.746 224.782C586.457 224.138 585.275 222.902 584.201 221.076C583.234 219.25 582.751 217.37 582.751 215.437L581.784 151.789C581.784 146.848 583.503 144.055 586.94 143.41C590.485 142.658 593.493 144.162 595.964 147.922C605.31 159.309 617.18 165.002 631.574 165.002C637.053 165.002 641.242 163.283 644.143 159.846C647.15 156.408 648.762 152.219 648.977 147.277C649.084 143.732 648.01 140.349 645.754 137.126C643.498 133.796 640.49 130.734 636.73 127.941C632.971 125.148 628.835 122.302 624.323 119.401C619.812 116.394 615.246 113.063 610.627 109.411C606.115 105.651 601.926 101.623 598.059 97.3262C594.299 92.9219 591.237 87.6045 588.874 81.374C586.511 75.0361 585.329 68.1611 585.329 60.749C585.329 40.7686 591.076 25.6758 602.57 15.4707C614.172 5.1582 630.446 0.00195312 651.394 0.00195312C667.829 0.00195312 682.761 2.2041 696.188 6.6084C699.841 8.21973 701.828 10.8516 702.15 14.5039C702.902 37.9219 703.439 57.6338 703.762 73.6396C703.869 78.4736 702.419 81.3203 699.411 82.1797C696.403 83.0391 693.718 81.6963 691.354 78.1514C684.372 71.1689 675.241 67.4629 663.962 67.0332C657.409 67.0332 652.307 68.4297 648.654 71.2227C645.002 73.9082 643.176 77.5605 643.176 82.1797C643.176 85.7246 644.411 89.0547 646.882 92.1699C649.46 95.2852 652.79 98.1318 656.872 100.71C660.954 103.288 665.412 105.974 670.246 108.767C675.188 111.56 680.075 114.782 684.909 118.435C689.851 122.087 694.309 126.115 698.283 130.52C702.365 134.924 705.588 140.456 707.951 147.116C710.422 153.669 711.604 160.974 711.496 169.03C711.389 190.085 705.104 206.359 692.644 217.854C680.183 229.24 663.21 234.934 641.726 234.934ZM784.167 233.322C773.103 233.322 764.294 233 757.741 232.355C755.163 231.818 753.068 230.583 751.457 228.649C749.846 226.716 749.201 224.514 749.523 222.043C750.49 209.26 751.618 193.093 752.907 173.542C754.196 153.884 755.432 134.602 756.613 115.695C757.902 96.6816 758.708 84.8652 759.03 80.2461C760.212 71.4375 757.795 67.0332 751.779 67.0332C748.449 67.0332 744.045 69.0742 738.566 73.1562C733.088 77.1309 728.576 81.2666 725.031 85.5635C723.957 87.6045 722.399 88.8936 720.358 89.4307C718.425 89.8604 716.599 89.2158 714.88 87.4971C713.269 85.7783 712.463 83.1465 712.463 79.6016C712.463 72.082 712.785 60.2656 713.43 44.1523C714.074 27.9316 714.772 16.4375 715.524 9.66992C715.847 4.83594 718.693 2.25781 724.064 1.93555C735.773 1.29102 755.593 0.96875 783.522 0.96875C811.56 0.96875 831.433 1.29102 843.142 1.93555C848.298 2.25781 851.198 4.83594 851.843 9.66992C852.595 16.4375 853.239 27.9316 853.776 44.1523C854.421 60.373 854.743 72.2969 854.743 79.9238C854.743 83.3613 853.884 85.9395 852.165 87.6582C850.554 89.2695 848.728 89.8604 846.687 89.4307C844.753 88.8936 843.249 87.6045 842.175 85.5635C838.308 81.1592 833.742 76.9697 828.479 72.9951C823.322 69.0205 819.133 67.0332 815.91 67.0332C809.787 67.0332 807.316 71.4375 808.498 80.2461C810.969 125.471 814.299 172.736 818.488 222.043C818.596 224.514 817.844 226.716 816.232 228.649C814.621 230.583 812.526 231.818 809.948 232.355C803.61 233 795.017 233.322 784.167 233.322ZM962.219 229.777C953.625 233.215 943.474 234.934 931.765 234.934C920.056 234.934 909.851 233.215 901.149 229.777C892.556 226.34 884.929 220.646 878.269 212.697C871.716 204.748 866.774 193.791 863.444 179.826C860.114 165.861 858.449 148.835 858.449 128.747C858.449 87.3896 864.895 55.6465 877.785 33.5176C890.783 11.3887 908.776 0.216797 931.765 0.00195312C954.646 0.00195312 972.531 11.1201 985.422 33.3564C998.312 55.4854 1004.76 87.2822 1004.76 128.747C1004.76 148.835 1003.09 165.861 999.763 179.826C996.433 193.791 991.491 204.748 984.938 212.697C978.386 220.646 970.812 226.34 962.219 229.777ZM931.765 163.068C936.384 163.068 939.714 160.49 941.755 155.334C943.903 150.178 944.978 140.993 944.978 127.78C944.978 111.56 943.903 98.2393 941.755 87.8193C939.606 77.292 936.276 72.0283 931.765 72.0283C927.253 72.0283 923.869 77.3457 921.613 87.9805C919.357 98.6152 918.229 111.882 918.229 127.78C918.229 140.993 919.304 150.178 921.452 155.334C923.601 160.49 927.038 163.068 931.765 163.068ZM1041.98 233.967C1032.1 233.967 1024.85 233.645 1020.23 233C1017.97 232.678 1015.98 231.711 1014.26 230.1C1012.55 228.488 1011.69 226.608 1011.69 224.46C1011.69 133.151 1014 61.7695 1018.62 10.3145C1018.72 8.16602 1019.58 6.28613 1021.19 4.6748C1022.91 3.06348 1024.79 2.15039 1026.83 1.93555C1035.32 1.29102 1054.12 0.96875 1083.23 0.96875C1102.46 0.96875 1117.71 5.21191 1128.99 13.6982C1140.27 22.1846 1145.91 34.3232 1145.91 50.1143C1145.91 65.3682 1141.88 78.6885 1133.83 90.0752C1125.77 101.354 1115.08 109.948 1101.76 115.856C1099.83 116.608 1098.91 117.736 1099.02 119.24C1099.24 120.744 1100.47 121.711 1102.73 122.141C1109.6 123.752 1115.89 126.813 1121.58 131.325C1127.38 135.837 1132.64 142.014 1137.37 149.855C1142.2 157.697 1146.07 167.902 1148.97 180.471C1151.87 192.932 1153.59 207.272 1154.13 223.493C1154.24 225.856 1153.38 227.897 1151.55 229.616C1149.83 231.335 1147.63 232.463 1144.94 233C1138.71 233.645 1130.55 233.967 1120.45 233.967C1109.39 233.967 1101.06 233.645 1095.48 233C1089.78 231.926 1086.94 229.079 1086.94 224.46C1086.94 203.083 1086.24 184.929 1084.84 169.997C1083.44 154.958 1080.6 143.732 1076.3 136.32C1074.47 133.742 1072.97 133.635 1071.79 135.998C1071.14 137.18 1070.77 138.845 1070.66 140.993C1069.48 159.899 1071.36 187.399 1076.3 223.493C1076.73 225.856 1076.14 227.951 1074.53 229.777C1072.92 231.604 1070.88 232.678 1068.41 233C1062.93 233.645 1054.12 233.967 1041.98 233.967ZM1077.59 107.961C1085.32 101.945 1089.19 93.7812 1089.19 83.4688C1089.19 78.2051 1088.12 74.2305 1085.97 71.5449C1083.82 68.752 1081.03 67.3555 1077.59 67.3555H1076.95C1073.83 67.3555 1072.27 69.665 1072.27 74.2842C1072.27 78.2588 1072.22 83.5762 1072.11 90.2363C1072 96.7891 1071.95 102.053 1071.95 106.027C1071.95 110.109 1073.83 110.754 1077.59 107.961ZM1193.12 233.967C1181.52 233.967 1173.52 233.645 1169.11 233C1166.54 232.678 1164.44 231.765 1162.83 230.261C1161.33 228.649 1160.57 226.608 1160.57 224.138C1161.11 157.858 1165.03 86.4766 1172.34 9.99219C1172.44 7.84375 1173.3 6.07129 1174.91 4.6748C1176.63 3.1709 1178.57 2.25781 1180.71 1.93555C1187.05 1.29102 1195.06 0.96875 1204.72 0.96875C1215.25 0.96875 1222.5 1.29102 1226.48 1.93555C1232.49 3.00977 1235.93 6.87695 1236.79 13.5371C1240.12 37.3848 1242.21 51.7793 1243.07 56.7207C1246.51 77.2383 1250.11 87.4971 1253.87 87.4971C1257.63 87.4971 1261.07 77.4531 1264.18 57.3652C1265.04 51.9941 1266.22 44.1523 1267.73 33.8398C1269.23 23.4199 1270.25 16.6523 1270.79 13.5371C1271.65 6.76953 1275.03 2.90234 1280.94 1.93555C1284.7 1.29102 1291.95 0.96875 1302.69 0.96875C1311.39 0.96875 1319.34 1.29102 1326.54 1.93555C1328.9 2.25781 1330.89 3.11719 1332.5 4.51367C1334.11 5.91016 1334.97 7.73633 1335.08 9.99219C1342.49 87.6582 1346.47 159.04 1347 224.138C1347 226.608 1346.2 228.649 1344.59 230.261C1342.98 231.765 1340.88 232.678 1338.3 233C1334.11 233.645 1326.54 233.967 1315.58 233.967C1302.37 233.967 1293.56 233.645 1289.16 233C1284.32 232.141 1282.01 228.864 1282.23 223.171C1282.34 221.237 1282.82 214.685 1283.68 203.513C1284.65 192.341 1285.34 182.888 1285.77 175.153C1286.31 167.312 1286.58 160.651 1286.58 155.173C1286.58 132.292 1284.48 120.852 1280.29 120.852C1278.36 120.852 1276.8 122.839 1275.62 126.813C1274.55 130.788 1273.21 137.556 1271.59 147.116C1271.27 149.265 1271 150.93 1270.79 152.111C1270.36 155.764 1269.66 160.759 1268.69 167.097C1267.83 173.327 1267.19 178.269 1266.76 181.921C1265.04 191.804 1260.64 196.745 1253.55 196.745C1246.67 196.745 1242.38 191.804 1240.66 181.921L1236.47 151.789C1234.75 140.939 1233.24 133.205 1231.96 128.586C1230.67 123.859 1228.95 121.496 1226.8 121.496C1224.97 121.496 1223.52 124.558 1222.45 130.681C1221.37 136.804 1220.84 145.183 1220.84 155.817C1220.84 164.089 1222.18 186.54 1224.87 223.171C1225.08 228.864 1222.77 232.141 1217.94 233C1213.75 233.645 1205.48 233.967 1193.12 233.967Z" fill="#E189FF"/>
</svg>
