<svg width="491" height="343" viewBox="0 0 491 343" fill="none" xmlns="http://www.w3.org/2000/svg">
<path d="M7.58121 171.462C7.58121 263.39 65.5271 334.6 133.392 334.6C201.257 334.6 259.203 263.39 259.203 171.462C259.203 79.5342 201.257 8.32404 133.392 8.32404C65.5271 8.32404 7.58121 79.5342 7.58121 171.462Z" fill="#FBF9FF" stroke="#474747" stroke-width="15"/>
<path d="M231.544 171.462C231.544 263.39 289.49 334.6 357.355 334.6C425.22 334.6 483.166 263.39 483.166 171.462C483.166 79.5342 425.22 8.32404 357.355 8.32404C289.49 8.32404 231.544 79.5342 231.544 171.462Z" fill="#FBF9FF" stroke="#474747" stroke-width="15"/>
<path d="M256.538 246.116C256.538 287.19 282.682 320.271 314.695 320.271C346.709 320.271 372.852 287.19 372.852 246.116C372.852 205.043 346.709 171.962 314.695 171.962C282.682 171.962 256.538 205.043 256.538 246.116Z" fill="#474747" stroke="#474747"/>
<path d="M32.5758 246.116C32.5758 287.19 58.7191 320.271 90.7327 320.271C122.746 320.271 148.89 287.19 148.89 246.116C148.89 205.043 122.746 171.962 90.7327 171.962C58.7191 171.962 32.5758 205.043 32.5758 246.116Z" fill="#474747" stroke="#474747"/>
</svg>
