<svg width="150" height="150" viewBox="0 0 150 150" fill="none" xmlns="http://www.w3.org/2000/svg">
<circle cx="75" cy="75" r="71.5" fill="#FFD600" stroke="#474747" stroke-width="7"/>
<circle cx="74.999" cy="108.75" r="21.5" fill="#474747" stroke="#474747" stroke-width="8"/>
<path d="M55.1245 65.0626C60.6128 65.0626 65.062 58.3888 65.062 50.1563C65.062 41.9238 60.6128 35.2501 55.1245 35.2501C49.6362 35.2501 45.187 41.9238 45.187 50.1563C45.187 58.3888 49.6362 65.0626 55.1245 65.0626Z" fill="#474747"/>
<path d="M94.8745 65.0626C100.363 65.0626 104.812 58.3888 104.812 50.1563C104.812 41.9238 100.363 35.2501 94.8745 35.2501C89.3862 35.2501 84.937 41.9238 84.937 50.1563C84.937 58.3888 89.3862 65.0626 94.8745 65.0626Z" fill="#474747"/>
<path d="M36.3532 52.3133C36.3532 66.7478 45.3851 77.1244 55.0807 77.1244C64.7762 77.1244 73.8081 66.7478 73.8081 52.3133C73.8081 37.8788 64.7762 27.5021 55.0807 27.5021C45.3851 27.5021 36.3532 37.8788 36.3532 52.3133Z" fill="#FBF9FF" stroke="#474747" stroke-width="6"/>
<path d="M45.9199 66.9844C45.9199 73.5471 50.0818 78.6518 54.98 78.6518C59.8781 78.6518 64.04 73.5471 64.04 66.9844C64.04 60.4216 59.8781 55.317 54.98 55.317C50.0818 55.317 45.9199 60.4216 45.9199 66.9844Z" fill="#474747" stroke="#474747"/>
<path d="M75.7839 52.3133C75.7839 66.7478 84.8158 77.1244 94.5113 77.1244C104.207 77.1244 113.239 66.7478 113.239 52.3133C113.239 37.8788 104.207 27.5021 94.5113 27.5021C84.8158 27.5021 75.7839 37.8788 75.7839 52.3133Z" fill="#FBF9FF" stroke="#474747" stroke-width="6"/>
<path d="M85.3506 66.9844C85.3506 73.5471 89.5125 78.6518 94.4106 78.6518C99.3088 78.6518 103.471 73.5471 103.471 66.9844C103.471 60.4216 99.3088 55.317 94.4106 55.317C89.5125 55.317 85.3506 60.4216 85.3506 66.9844Z" fill="#474747" stroke="#474747"/>
</svg>
