<svg width="150" height="151" viewBox="0 0 150 151" fill="none" xmlns="http://www.w3.org/2000/svg">
<path d="M132.637 27.0469C144.647 23.7937 139.519 0 139.519 0C133.772 12.1031 126.394 15.3094 120.853 15.75C107.744 5.5433 91.6047 0.00120562 74.9906 0.00120562C58.3766 0.00120562 42.2373 5.5433 29.1282 15.75C23.6063 15.3094 16.2094 12.1031 10.4625 0C10.4625 0 5.33442 23.7937 17.3438 27.0469C8.23039 38.0013 2.42631 51.3253 0.61107 65.4589C-1.20417 79.5926 1.04456 93.9508 7.09398 106.853C13.1434 119.755 22.7432 130.666 34.7693 138.31C46.7955 145.953 60.7503 150.013 75 150.013C89.2497 150.013 103.205 145.953 115.231 138.31C127.257 130.666 136.857 119.755 142.906 106.853C148.955 93.9508 151.204 79.5926 149.389 65.4589C147.574 51.3253 141.77 38.0013 132.656 27.0469H132.637ZM74.9906 140.625C62.0112 140.625 49.3233 136.776 38.5314 129.565C27.7394 122.354 19.3281 112.105 14.3611 100.114C9.39407 88.1221 8.09448 74.9271 10.6266 62.1972C13.1588 49.4672 19.409 37.7739 28.5868 28.5961C37.7646 19.4183 49.4578 13.1681 62.1878 10.636C74.9178 8.1038 88.1128 9.4034 100.104 14.3704C112.096 19.3374 122.345 27.7487 129.556 38.5407C136.767 49.3326 140.616 62.0206 140.616 74.9999C140.596 92.3987 133.675 109.079 121.373 121.382C109.07 133.685 92.3894 140.605 74.9906 140.625Z" fill="#474747"/>
<circle cx="75" cy="75" r="69" fill="#FF003D"/>
<path d="M111.966 74.9999H28.1162C28.1162 87.4319 33.0548 99.3547 41.8456 108.145C50.6363 116.936 62.5592 121.875 74.9912 121.875C87.4232 121.875 99.346 116.936 108.137 108.145C116.928 99.3547 121.866 87.4319 121.866 74.9999H111.966ZM93.7412 105.937C89.3791 108.618 84.4895 110.326 79.4068 110.944V84.2436H93.7412V105.937ZM56.2412 84.2436H70.0318V110.887C65.1421 110.209 60.4463 108.523 56.2412 105.937V84.2436ZM40.0225 84.2436H46.8662V97.5936C43.6819 93.6676 41.351 89.1209 40.0225 84.2436ZM103.116 97.5936V84.2436H109.96C108.631 89.1209 106.3 93.6676 103.116 97.5936Z" fill="#474747"/>
<path fill-rule="evenodd" clip-rule="evenodd" d="M35.3384 80.8256C37.7838 100.594 54.6403 115.897 75.0708 115.897C95.5014 115.897 112.358 100.594 114.803 80.8256H35.3384Z" fill="#F3EBFF"/>
<path d="M42.0668 50.0748C42.0668 59.8247 48.1502 66.6245 54.4494 66.6245C60.7487 66.6245 66.832 59.8247 66.832 50.0748C66.832 40.3248 60.7487 33.525 54.4494 33.525C48.1502 33.525 42.0668 40.3248 42.0668 50.0748Z" fill="#FBF9FF" stroke="#474747" stroke-width="5"/>
<path d="M48.332 58.1696C48.332 62.6154 51.1456 66.0038 54.3804 66.0038C57.6152 66.0038 60.4287 62.6154 60.4287 58.1696C60.4287 53.7238 57.6152 50.3353 54.3804 50.3353C51.1456 50.3353 48.332 53.7238 48.332 58.1696Z" fill="#474747" stroke="#474747"/>
<rect width="42.5404" height="7.93073" transform="matrix(-0.866025 -0.5 -0.5 0.866025 78.6636 42.035)" fill="#474747"/>
<path d="M106.941 50.0747C106.941 59.8246 100.858 66.6244 94.5589 66.6244C88.2596 66.6244 82.1763 59.8246 82.1763 50.0747C82.1763 40.3248 88.2596 33.525 94.5589 33.525C100.858 33.525 106.941 40.3248 106.941 50.0747Z" fill="#FBF9FF" stroke="#474747" stroke-width="5"/>
<path d="M100.676 58.1696C100.676 62.6154 97.8627 66.0038 94.6279 66.0038C91.3931 66.0038 88.5796 62.6154 88.5796 58.1696C88.5796 53.7238 91.3931 50.3353 94.6279 50.3353C97.8627 50.3353 100.676 53.7238 100.676 58.1696Z" fill="#474747" stroke="#474747"/>
<rect x="70.3452" y="42.035" width="42.5404" height="7.93073" transform="rotate(-30 70.3452 42.035)" fill="#474747"/>
</svg>
