<svg width="150" height="150" viewBox="0 0 150 150" fill="none" xmlns="http://www.w3.org/2000/svg">
<circle cx="75" cy="75" r="72" fill="#FFA500" stroke="#474747" stroke-width="6"/>
<path d="M66.1512 42.2183C63.3875 39.4555 58.9066 39.4555 56.1427 42.2183L50.5132 47.8457L44.9193 42.254C42.1555 39.4912 37.6745 39.4912 34.9106 42.254C32.1468 45.0168 32.1467 49.4961 34.9105 52.2588L40.5044 57.8505L34.8888 63.4642C32.125 66.2264 32.1249 70.7058 34.8888 73.4688C37.6527 76.2318 42.1337 76.2318 44.8976 73.4688L50.5132 67.8556L56.1664 73.5063C58.9303 76.2693 63.4116 76.2693 66.1753 73.5063C68.939 70.7433 68.939 66.264 66.1753 63.5017L60.522 57.8505L66.1512 52.2232C68.9156 49.4604 68.9156 44.9811 66.1512 42.2183Z" fill="#474747"/>
<path d="M105.748 42.2184C108.511 39.4556 112.992 39.4556 115.756 42.2184C118.52 44.9812 118.52 49.4605 115.756 52.2233L110.126 57.8506L115.78 63.5018C118.543 66.2641 118.543 70.7434 115.78 73.5064C113.016 76.2694 108.535 76.2694 105.771 73.5064L100.118 67.8557L94.5021 73.4688C91.7384 76.2318 87.2569 76.2318 84.4932 73.4688C81.7295 70.7058 81.7295 66.2265 84.4932 63.4642L90.1092 57.8506L84.5152 52.2589C81.7515 49.4962 81.7515 45.0168 84.5152 42.254C87.2789 39.4913 91.7603 39.4913 94.524 42.254L100.118 47.8457L105.748 42.2184Z" fill="#474747"/>
<path d="M42.2094 99.363C44.0267 113.904 61.133 123.738 80.4174 121.328C99.7018 118.918 113.862 105.176 112.044 90.6352" stroke="#474747" stroke-width="8" stroke-linecap="round"/>
</svg>
