<svg width="1918" height="588" viewBox="0 0 1918 588" fill="none" xmlns="http://www.w3.org/2000/svg">
<mask id="mask0_1171_1853" style="mask-type:alpha" maskUnits="userSpaceOnUse" x="0" y="0" width="1918" height="588">
<rect width="1918" height="588" fill="#D9D9D9"/>
</mask>
<g mask="url(#mask0_1171_1853)">
<mask id="path-2-inside-1_1171_1853" fill="white">
<path fill-rule="evenodd" clip-rule="evenodd" d="M926.332 674.836C877.733 661.246 849.353 610.832 862.943 562.233L960.23 214.323C973.82 165.724 1024.23 137.344 1072.83 150.933C1098.25 158.041 1118.14 175.221 1129.38 196.947C1150.26 184.206 1176.18 179.833 1201.6 186.94C1224.17 193.254 1242.39 207.515 1254.06 225.85C1273.54 216.227 1296.51 213.482 1319.09 219.796C1367.69 233.386 1396.07 283.799 1382.48 332.398L1285.19 680.309C1271.6 728.908 1221.19 757.288 1172.59 743.698C1150.01 737.385 1131.8 723.123 1120.13 704.789C1100.64 714.411 1077.67 717.156 1055.1 710.843C1029.68 703.735 1009.79 686.555 998.546 664.829C977.664 677.571 951.75 681.943 926.332 674.836Z"/>
</mask>
<path fill-rule="evenodd" clip-rule="evenodd" d="M926.332 674.836C877.733 661.246 849.353 610.832 862.943 562.233L960.23 214.323C973.82 165.724 1024.23 137.344 1072.83 150.933C1098.25 158.041 1118.14 175.221 1129.38 196.947C1150.26 184.206 1176.18 179.833 1201.6 186.94C1224.17 193.254 1242.39 207.515 1254.06 225.85C1273.54 216.227 1296.51 213.482 1319.09 219.796C1367.69 233.386 1396.07 283.799 1382.48 332.398L1285.19 680.309C1271.6 728.908 1221.19 757.288 1172.59 743.698C1150.01 737.385 1131.8 723.123 1120.13 704.789C1100.64 714.411 1077.67 717.156 1055.1 710.843C1029.68 703.735 1009.79 686.555 998.546 664.829C977.664 677.571 951.75 681.943 926.332 674.836Z" fill="#FF84DC"/>
<path d="M862.943 562.233L868.721 563.849L862.943 562.233ZM926.332 674.836L927.948 669.057L926.332 674.836ZM960.23 214.323L966.008 215.939L960.23 214.323ZM1072.83 150.933L1071.22 156.712L1072.83 150.933ZM1129.38 196.947L1124.05 199.705C1124.82 201.183 1126.16 202.277 1127.77 202.725C1129.37 203.173 1131.09 202.936 1132.51 202.069L1129.38 196.947ZM1201.6 186.94L1203.21 181.162L1201.6 186.94ZM1254.06 225.85L1249 229.071C1250.64 231.655 1253.97 232.586 1256.71 231.23L1254.06 225.85ZM1319.09 219.796L1317.48 225.574L1319.09 219.796ZM1382.48 332.398L1388.26 334.014L1382.48 332.398ZM1285.19 680.309L1290.97 681.925L1285.19 680.309ZM1172.59 743.698L1174.21 737.92L1172.59 743.698ZM1120.13 704.789L1125.19 701.567C1123.55 698.983 1120.22 698.053 1117.47 699.409L1120.13 704.789ZM1055.1 710.843L1053.48 716.621L1055.1 710.843ZM998.546 664.829L1003.87 662.071C1003.11 660.593 1001.77 659.499 1000.16 659.051C998.559 658.603 996.842 658.84 995.421 659.707L998.546 664.829ZM857.164 560.617C842.682 612.408 872.926 666.132 924.716 680.614L927.948 669.057C882.54 656.36 856.024 609.257 868.721 563.849L857.164 560.617ZM954.452 212.707L857.164 560.617L868.721 563.849L966.008 215.939L954.452 212.707ZM1074.45 145.155C1022.66 130.673 968.934 160.917 954.452 212.707L966.008 215.939C978.706 170.531 1025.81 144.014 1071.22 156.712L1074.45 145.155ZM1134.71 194.189C1122.73 171.047 1101.53 152.729 1074.45 145.155L1071.22 156.712C1094.97 163.353 1113.54 179.396 1124.05 199.705L1134.71 194.189ZM1203.21 181.162C1176.13 173.588 1148.5 178.253 1126.26 191.825L1132.51 202.069C1152.03 190.158 1176.23 186.078 1199.98 192.719L1203.21 181.162ZM1259.12 222.628C1246.69 203.094 1227.27 187.889 1203.21 181.162L1199.98 192.719C1221.08 198.619 1238.09 211.936 1249 229.071L1259.12 222.628ZM1256.71 231.23C1274.93 222.237 1296.38 219.674 1317.48 225.574L1320.71 214.017C1296.65 207.29 1272.16 210.218 1251.4 220.47L1256.71 231.23ZM1317.48 225.574C1362.88 238.272 1389.4 285.375 1376.7 330.782L1388.26 334.014C1402.74 282.224 1372.5 228.5 1320.71 214.017L1317.48 225.574ZM1376.7 330.782L1279.42 678.693L1290.97 681.925L1388.26 334.014L1376.7 330.782ZM1279.42 678.693C1266.72 724.1 1219.62 750.617 1174.21 737.92L1170.98 749.476C1222.77 763.959 1276.49 733.715 1290.97 681.925L1279.42 678.693ZM1174.21 737.92C1153.11 732.02 1136.1 718.702 1125.19 701.567L1115.07 708.01C1127.5 727.544 1146.92 742.749 1170.98 749.476L1174.21 737.92ZM1053.48 716.621C1077.54 723.348 1102.03 720.42 1122.79 710.168L1117.47 699.409C1099.26 708.402 1077.81 710.964 1056.71 705.064L1053.48 716.621ZM993.218 667.587C1005.2 690.729 1026.39 709.047 1053.48 716.621L1056.71 705.064C1032.96 698.423 1014.39 682.38 1003.87 662.071L993.218 667.587ZM924.716 680.614C951.803 688.188 979.427 683.523 1001.67 669.951L995.421 659.707C975.9 671.618 951.697 675.698 927.948 669.057L924.716 680.614Z" fill="#474747" mask="url(#path-2-inside-1_1171_1853)"/>
<path d="M1075.27 166.167C1066.49 208.601 1086.46 246.803 1117.55 253.235C1148.63 259.667 1182.13 232.528 1190.91 190.093C1199.69 147.659 1179.71 109.457 1148.63 103.025C1117.54 96.593 1084.05 123.732 1075.27 166.167Z" fill="#FBF9FF" stroke="#474747" stroke-width="8"/>
<path d="M1178.98 187.627C1170.2 230.061 1190.18 268.263 1221.26 274.695C1252.35 281.127 1285.84 253.988 1294.62 211.553C1303.4 169.119 1283.43 130.917 1252.34 124.485C1221.26 118.053 1187.76 145.192 1178.98 187.627Z" fill="#FBF9FF" stroke="#474747" stroke-width="8"/>
<path d="M1183.22 224.556C1179.3 243.495 1188.21 261.13 1202.84 264.157C1217.47 267.184 1232.65 254.534 1236.57 235.594C1240.49 216.654 1231.57 199.019 1216.95 195.992C1202.32 192.966 1187.14 205.616 1183.22 224.556Z" fill="#474747" stroke="#474747"/>
<path d="M1079.5 203.096C1075.59 222.035 1084.5 239.67 1099.13 242.697C1113.75 245.724 1128.93 233.074 1132.85 214.134C1136.77 195.194 1127.86 177.559 1113.23 174.532C1098.6 171.506 1083.42 184.156 1079.5 203.096Z" fill="#474747" stroke="#474747"/>
<mask id="path-8-inside-2_1171_1853" fill="white">
<path fill-rule="evenodd" clip-rule="evenodd" d="M1288.1 337.558C1289.23 371.694 1301.39 402.868 1321.03 427.775C1303.08 453.927 1293.02 485.837 1294.15 519.973C1296.96 605.011 1368.19 671.663 1453.22 668.845C1487.36 667.714 1518.53 655.56 1543.44 635.915C1569.59 653.868 1601.5 663.932 1635.64 662.801C1720.68 659.983 1787.33 588.762 1784.51 503.724C1783.38 469.588 1771.23 438.414 1751.58 413.508C1769.53 387.356 1779.6 355.446 1778.47 321.309C1775.65 236.272 1704.43 169.619 1619.39 172.437C1585.25 173.568 1554.08 185.722 1529.17 205.368C1503.02 187.414 1471.11 177.351 1436.97 178.482C1351.94 181.3 1285.28 252.521 1288.1 337.558Z"/>
</mask>
<path fill-rule="evenodd" clip-rule="evenodd" d="M1288.1 337.558C1289.23 371.694 1301.39 402.868 1321.03 427.775C1303.08 453.927 1293.02 485.837 1294.15 519.973C1296.96 605.011 1368.19 671.663 1453.22 668.845C1487.36 667.714 1518.53 655.56 1543.44 635.915C1569.59 653.868 1601.5 663.932 1635.64 662.801C1720.68 659.983 1787.33 588.762 1784.51 503.724C1783.38 469.588 1771.23 438.414 1751.58 413.508C1769.53 387.356 1779.6 355.446 1778.47 321.309C1775.65 236.272 1704.43 169.619 1619.39 172.437C1585.25 173.568 1554.08 185.722 1529.17 205.368C1503.02 187.414 1471.11 177.351 1436.97 178.482C1351.94 181.3 1285.28 252.521 1288.1 337.558Z" fill="#FF00B8"/>
<path d="M1321.03 427.775L1325.98 431.17C1327.47 429.004 1327.37 426.122 1325.74 424.059L1321.03 427.775ZM1543.44 635.915L1546.84 630.968C1544.67 629.481 1541.79 629.576 1539.72 631.204L1543.44 635.915ZM1751.58 413.508L1746.63 410.112C1745.15 412.279 1745.24 415.161 1746.87 417.224L1751.58 413.508ZM1529.17 205.368L1525.78 210.314C1527.94 211.802 1530.83 211.706 1532.89 210.079L1529.17 205.368ZM1325.74 424.059C1306.86 400.123 1295.19 370.173 1294.1 337.359L1282.11 337.757C1283.28 373.215 1295.91 405.613 1316.32 431.49L1325.74 424.059ZM1300.14 519.775C1299.06 486.96 1308.73 456.303 1325.98 431.17L1316.09 424.379C1297.43 451.551 1286.98 484.713 1288.15 520.172L1300.14 519.775ZM1453.02 662.849C1371.3 665.557 1302.85 601.5 1300.14 519.775L1288.15 520.172C1291.08 608.522 1365.07 677.77 1453.42 674.842L1453.02 662.849ZM1539.72 631.204C1515.79 650.083 1485.84 661.761 1453.02 662.849L1453.42 674.842C1488.88 673.667 1521.28 661.037 1547.16 640.625L1539.72 631.204ZM1635.44 656.804C1602.63 657.891 1571.97 648.222 1546.84 630.968L1540.04 640.861C1567.22 659.515 1600.38 669.972 1635.84 668.797L1635.44 656.804ZM1778.51 503.923C1781.22 585.649 1717.17 654.096 1635.44 656.804L1635.84 668.797C1724.19 665.87 1793.44 591.875 1790.51 503.526L1778.51 503.923ZM1746.87 417.224C1765.75 441.159 1777.43 471.109 1778.51 503.923L1790.51 503.526C1789.33 468.067 1776.7 435.67 1756.29 409.792L1746.87 417.224ZM1772.47 321.508C1773.56 354.322 1763.89 384.979 1746.63 410.112L1756.53 416.904C1775.18 389.732 1785.64 356.569 1784.46 321.11L1772.47 321.508ZM1619.59 178.434C1701.31 175.726 1769.76 239.782 1772.47 321.508L1784.46 321.11C1781.54 232.761 1707.54 163.513 1619.19 166.44L1619.59 178.434ZM1532.89 210.079C1556.82 191.199 1586.77 179.521 1619.59 178.434L1619.19 166.44C1583.73 167.615 1551.33 180.245 1525.46 200.657L1532.89 210.079ZM1437.17 184.478C1469.99 183.391 1500.64 193.061 1525.78 210.314L1532.57 200.421C1505.4 181.768 1472.23 171.31 1436.78 172.485L1437.17 184.478ZM1294.1 337.359C1291.39 255.634 1355.45 187.187 1437.17 184.478L1436.78 172.485C1348.43 175.413 1279.18 249.407 1282.11 337.757L1294.1 337.359Z" fill="#474747" mask="url(#path-8-inside-2_1171_1853)"/>
<path d="M1400.24 162.143C1401.99 205.442 1430.61 237.678 1462.33 236.4C1494.05 235.122 1519.98 200.688 1518.24 157.39C1516.49 114.092 1487.87 81.8553 1456.15 83.1332C1424.43 84.4112 1398.5 118.845 1400.24 162.143Z" fill="#FBF9FF" stroke="#474747" stroke-width="8"/>
<path d="M1506.07 157.88C1507.82 201.178 1536.44 233.414 1568.16 232.136C1599.87 230.858 1625.81 196.424 1624.06 153.126C1622.32 109.828 1593.7 77.5916 1561.98 78.8696C1530.26 80.1475 1504.33 114.582 1506.07 157.88Z" fill="#FBF9FF" stroke="#474747" stroke-width="8"/>
<path d="M1519.11 192.687C1519.89 212.012 1532.81 226.968 1547.73 226.367C1562.66 225.765 1574.33 209.819 1573.55 190.494C1572.77 171.169 1559.86 156.213 1544.93 156.814C1530 157.416 1518.34 173.362 1519.11 192.687Z" fill="#474747" stroke="#474747"/>
<path d="M1413.29 196.951C1414.07 216.276 1426.98 231.232 1441.91 230.63C1456.83 230.029 1468.5 214.083 1467.72 194.758C1466.94 175.432 1454.03 160.477 1439.1 161.078C1424.18 161.679 1412.51 177.626 1413.29 196.951Z" fill="#474747" stroke="#474747"/>
<path d="M2020.32 408.651C2019.3 408.906 2018.48 409.681 2018.18 410.692C2017.87 411.702 2018.12 412.799 2018.83 413.581C2054.99 453.351 2052.65 514.912 2013.29 551.785L2013.29 551.785C1973.93 588.662 1912.34 586.975 1875.02 548.297C1874.28 547.537 1873.21 547.219 1872.18 547.459C1871.15 547.698 1870.32 548.461 1870 549.467C1853.64 600.669 1799.16 629.426 1747.54 613.772C1695.93 598.122 1666.59 543.946 1681.43 492.278C1681.72 491.263 1681.46 490.17 1680.74 489.399C1680.02 488.628 1678.94 488.294 1677.91 488.519C1625.39 499.95 1573.24 467.145 1560.99 414.619C1548.74 362.093 1580.99 309.604 1633.15 296.617C1634.17 296.362 1634.99 295.587 1635.3 294.576C1635.6 293.566 1635.36 292.469 1634.64 291.687C1598.48 251.916 1600.82 190.356 1640.18 153.485L1638.13 151.295L1640.18 153.485C1679.55 116.61 1741.13 118.295 1778.46 156.975C1779.19 157.735 1780.27 158.053 1781.3 157.813C1782.33 157.573 1783.15 156.811 1783.47 155.805C1799.84 104.6 1854.32 75.8451 1905.93 91.4985C1957.55 107.152 1986.88 161.325 1972.05 212.991C1971.75 214.005 1972.02 215.099 1972.74 215.869C1973.46 216.64 1974.53 216.974 1975.57 216.75C2028.09 205.319 2080.23 238.123 2092.48 290.649L2095.4 289.967L2092.48 290.649C2104.74 343.175 2072.49 395.664 2020.32 408.651Z" fill="#FFD600" stroke="#474747" stroke-width="6" stroke-linejoin="round"/>
<path d="M1789.7 107.601C1776.88 148.994 1793.08 188.939 1823.4 198.332C1853.73 207.726 1889.67 183.934 1902.5 142.541C1915.32 101.148 1899.11 61.2028 1868.79 51.8097C1838.47 42.4165 1802.52 66.2077 1789.7 107.601Z" fill="#FBF9FF" stroke="#474747" stroke-width="8"/>
<path d="M1890.87 138.939C1878.05 180.332 1894.25 220.278 1924.57 229.671C1954.9 239.064 1990.85 215.273 2003.67 173.88C2016.49 132.487 2000.29 92.5412 1969.96 83.148C1939.64 73.7549 1903.69 97.5461 1890.87 138.939Z" fill="#FBF9FF" stroke="#474747" stroke-width="8"/>
<path d="M1891.53 176.104C1885.81 194.579 1892.98 212.99 1907.25 217.41C1921.52 221.83 1937.85 210.698 1943.57 192.223C1949.29 173.749 1942.12 155.338 1927.85 150.918C1913.58 146.498 1897.25 157.629 1891.53 176.104Z" fill="#474747" stroke="#474747"/>
<path d="M1790.36 144.766C1784.64 163.241 1791.81 181.651 1806.08 186.071C1820.35 190.491 1836.68 179.36 1842.4 160.885C1848.12 142.41 1840.95 124 1826.68 119.58C1812.41 115.159 1796.08 126.291 1790.36 144.766Z" fill="#474747" stroke="#474747"/>
<mask id="path-19-inside-3_1171_1853" fill="white">
<path fill-rule="evenodd" clip-rule="evenodd" d="M537.111 180.746C545.504 140.184 585.19 114.105 625.752 122.498L968.492 193.414C1009.05 201.806 1035.13 241.492 1026.74 282.054L1018.64 321.225C945.624 306.118 874.19 353.059 859.083 426.071C843.976 499.083 890.917 570.518 963.929 585.624L955.825 624.795C947.432 665.357 907.746 691.435 867.184 683.043L524.444 612.127C483.882 603.734 457.803 564.049 466.196 523.486L474.3 484.316C547.312 499.423 618.747 452.481 633.853 379.47C648.96 306.458 602.019 235.023 529.007 219.916L537.111 180.746Z"/>
</mask>
<path fill-rule="evenodd" clip-rule="evenodd" d="M537.111 180.746C545.504 140.184 585.19 114.105 625.752 122.498L968.492 193.414C1009.05 201.806 1035.13 241.492 1026.74 282.054L1018.64 321.225C945.624 306.118 874.19 353.059 859.083 426.071C843.976 499.083 890.917 570.518 963.929 585.624L955.825 624.795C947.432 665.357 907.746 691.435 867.184 683.043L524.444 612.127C483.882 603.734 457.803 564.049 466.196 523.486L474.3 484.316C547.312 499.423 618.747 452.481 633.853 379.47C648.96 306.458 602.019 235.023 529.007 219.916L537.111 180.746Z" fill="#E189FF"/>
<path d="M537.111 180.746L531.236 179.53L537.111 180.746ZM1018.64 321.225L1017.42 327.1C1020.67 327.772 1023.84 325.685 1024.51 322.44L1018.64 321.225ZM963.929 585.624L969.805 586.84C970.127 585.282 969.818 583.659 968.944 582.329C968.07 580.999 966.703 580.071 965.145 579.749L963.929 585.624ZM955.825 624.795L949.949 623.579L955.825 624.795ZM474.3 484.316L475.516 478.441C472.271 477.769 469.096 479.855 468.425 483.1L474.3 484.316ZM529.007 219.916L523.131 218.701C522.46 221.946 524.546 225.121 527.791 225.792L529.007 219.916ZM626.968 116.622C583.161 107.558 540.3 135.723 531.236 179.53L542.987 181.962C550.708 144.645 587.219 120.652 624.536 128.374L626.968 116.622ZM969.708 187.538L626.968 116.622L624.536 128.374L967.277 199.289L969.708 187.538ZM1032.62 283.27C1041.68 239.463 1013.52 196.602 969.708 187.538L967.277 199.289C1004.59 207.011 1028.59 243.521 1020.86 280.839L1032.62 283.27ZM1024.51 322.44L1032.62 283.27L1020.86 280.839L1012.76 320.009L1024.51 322.44ZM864.958 427.287C879.394 357.52 947.653 312.665 1017.42 327.1L1019.85 315.349C943.595 299.571 868.985 348.599 853.207 424.856L864.958 427.287ZM965.145 579.749C895.378 565.313 850.523 497.054 864.958 427.287L853.207 424.856C837.429 501.113 886.457 575.722 962.714 591.5L965.145 579.749ZM961.7 626.01L969.805 586.84L958.054 584.409L949.949 623.579L961.7 626.01ZM865.968 688.918C909.776 697.982 952.636 669.818 961.7 626.01L949.949 623.579C942.228 660.896 905.717 684.888 868.4 677.167L865.968 688.918ZM523.228 618.003L865.968 688.918L868.4 677.167L525.659 606.252L523.228 618.003ZM460.32 522.271C451.256 566.078 479.421 608.939 523.228 618.003L525.659 606.252C488.342 598.53 464.35 562.019 472.071 524.702L460.32 522.271ZM468.425 483.1L460.32 522.271L472.071 524.702L480.176 485.532L468.425 483.1ZM627.978 378.254C613.542 448.021 545.283 492.876 475.516 478.441L473.085 490.192C549.342 505.97 623.951 456.942 639.729 380.685L627.978 378.254ZM527.791 225.792C597.558 240.227 642.413 308.487 627.978 378.254L639.729 380.685C655.507 304.428 606.479 229.819 530.222 214.041L527.791 225.792ZM531.236 179.53L523.131 218.701L534.882 221.132L542.987 181.962L531.236 179.53Z" fill="#474747" mask="url(#path-19-inside-3_1171_1853)"/>
<path d="M677.267 116.832C668.487 159.267 688.459 197.468 719.546 203.9C750.633 210.332 784.125 183.193 792.905 140.759C801.685 98.3241 781.713 60.123 750.626 53.6908C719.538 47.2586 686.047 74.3978 677.267 116.832Z" fill="#FBF9FF" stroke="#474747" stroke-width="8"/>
<path d="M794.944 138.443C786.164 180.877 806.136 219.078 837.223 225.511C868.31 231.943 901.801 204.804 910.581 162.369C919.361 119.934 899.39 81.7333 868.302 75.3011C837.215 68.8689 803.724 96.0081 794.944 138.443Z" fill="#FBF9FF" stroke="#474747" stroke-width="8"/>
<path d="M826.643 184.673C822.724 203.613 831.637 221.248 846.265 224.275C860.893 227.301 876.072 214.651 879.991 195.711C883.91 176.772 874.997 159.137 860.369 156.11C845.74 153.083 830.561 165.734 826.643 184.673Z" fill="#474747" stroke="#474747"/>
<path d="M713.643 163.673C709.724 182.613 718.637 200.248 733.265 203.275C747.893 206.301 763.072 193.651 766.991 174.711C770.91 155.772 761.997 138.137 747.369 135.11C732.74 132.083 717.561 144.734 713.643 163.673Z" fill="#474747" stroke="#474747"/>
<mask id="path-25-inside-4_1171_1853" fill="white">
<path fill-rule="evenodd" clip-rule="evenodd" d="M200.193 259.441C168.264 268.307 149.569 301.379 158.435 333.307C165.138 357.444 185.674 374.019 209.091 376.84C190.482 391.333 181.433 416.123 188.136 440.26C193.898 461.007 209.879 476.166 229.125 481.807C215.543 496.565 209.667 517.794 215.429 538.541C222.132 562.678 242.667 579.252 266.085 582.074C247.475 596.566 238.427 621.356 245.13 645.493C253.996 677.422 287.067 696.118 318.996 687.251L727.536 573.799C759.465 564.933 778.16 531.862 769.294 499.933C762.591 475.796 742.055 459.221 718.638 456.4C737.247 441.907 746.296 417.117 739.593 392.98C733.832 372.233 717.851 357.074 698.604 351.433C712.186 336.675 718.062 315.446 712.3 294.699C705.597 270.562 685.062 253.988 661.644 251.166C680.254 236.674 689.302 211.884 682.6 187.747C673.733 155.818 640.662 137.122 608.733 145.989L200.193 259.441Z"/>
</mask>
<path fill-rule="evenodd" clip-rule="evenodd" d="M200.193 259.441C168.264 268.307 149.569 301.379 158.435 333.307C165.138 357.444 185.674 374.019 209.091 376.84C190.482 391.333 181.433 416.123 188.136 440.26C193.898 461.007 209.879 476.166 229.125 481.807C215.543 496.565 209.667 517.794 215.429 538.541C222.132 562.678 242.667 579.252 266.085 582.074C247.475 596.566 238.427 621.356 245.13 645.493C253.996 677.422 287.067 696.118 318.996 687.251L727.536 573.799C759.465 564.933 778.16 531.862 769.294 499.933C762.591 475.796 742.055 459.221 718.638 456.4C737.247 441.907 746.296 417.117 739.593 392.98C733.832 372.233 717.851 357.074 698.604 351.433C712.186 336.675 718.062 315.446 712.3 294.699C705.597 270.562 685.062 253.988 661.644 251.166C680.254 236.674 689.302 211.884 682.6 187.747C673.733 155.818 640.662 137.122 608.733 145.989L200.193 259.441Z" fill="#BD00FF"/>
<path d="M209.091 376.84L212.778 381.574C214.696 380.081 215.523 377.577 214.873 375.235C214.222 372.893 212.223 371.174 209.809 370.884L209.091 376.84ZM229.125 481.807L233.54 485.87C234.945 484.344 235.461 482.201 234.906 480.202C234.351 478.203 232.803 476.633 230.813 476.049L229.125 481.807ZM266.085 582.074L269.771 586.808C271.689 585.314 272.516 582.811 271.866 580.468C271.215 578.126 269.216 576.408 266.802 576.117L266.085 582.074ZM718.638 456.4L714.951 451.666C713.033 453.159 712.206 455.663 712.857 458.005C713.507 460.347 715.507 462.066 717.92 462.357L718.638 456.4ZM698.604 351.433L694.189 347.37C692.784 348.896 692.268 351.04 692.823 353.038C693.378 355.037 694.926 356.607 696.916 357.191L698.604 351.433ZM661.644 251.166L657.958 246.432C656.04 247.926 655.213 250.429 655.863 252.772C656.514 255.114 658.513 256.832 660.927 257.123L661.644 251.166ZM164.217 331.702C156.237 302.966 173.063 273.202 201.799 265.222L198.588 253.659C163.466 263.413 142.901 299.791 152.654 334.913L164.217 331.702ZM209.809 370.884C188.721 368.343 170.247 353.416 164.217 331.702L152.654 334.913C160.03 361.473 182.627 379.695 208.374 382.797L209.809 370.884ZM193.917 438.655C187.887 416.94 196.02 394.625 212.778 381.574L205.405 372.107C184.944 388.041 174.979 415.305 182.355 441.865L193.917 438.655ZM230.813 476.049C213.473 470.967 199.101 457.32 193.917 438.655L182.355 441.865C188.694 464.693 206.284 481.365 227.438 487.565L230.813 476.049ZM221.21 536.935C216.027 518.27 221.304 499.166 233.54 485.87L224.71 477.744C209.783 493.964 203.308 517.318 209.648 540.146L221.21 536.935ZM266.802 576.117C245.714 573.576 227.24 558.65 221.21 536.935L209.648 540.146C217.023 566.706 239.62 584.929 265.367 588.031L266.802 576.117ZM250.911 643.888C244.881 622.174 253.013 599.858 269.771 586.808L262.398 577.34C241.937 593.274 231.973 620.539 239.348 647.099L250.911 643.888ZM317.391 681.47C288.655 689.45 258.891 672.624 250.911 643.888L239.348 647.099C249.102 682.221 285.48 702.786 320.602 693.032L317.391 681.47ZM725.931 568.018L317.391 681.47L320.602 693.032L729.141 579.581L725.931 568.018ZM763.513 501.538C771.492 530.274 754.666 560.038 725.931 568.018L729.141 579.581C764.263 569.827 784.828 533.449 775.075 498.327L763.513 501.538ZM717.92 462.357C739.008 464.897 757.482 479.824 763.513 501.538L775.075 498.327C767.699 471.767 745.103 453.545 719.355 450.443L717.92 462.357ZM733.812 394.586C739.842 416.3 731.71 438.615 714.951 451.666L722.324 461.133C742.785 445.199 752.75 417.935 745.374 391.375L733.812 394.586ZM696.916 357.191C714.256 362.273 728.628 375.92 733.812 394.586L745.374 391.375C739.035 368.547 721.445 351.875 700.291 345.675L696.916 357.191ZM706.519 296.305C711.703 314.97 706.425 334.074 694.189 347.37L703.019 355.496C717.946 339.276 724.421 315.922 718.082 293.094L706.519 296.305ZM660.927 257.123C682.015 259.664 700.489 274.59 706.519 296.305L718.082 293.094C710.706 266.534 688.109 248.311 662.362 245.209L660.927 257.123ZM676.818 189.352C682.848 211.066 674.716 233.382 657.958 246.432L665.331 255.9C685.792 239.966 695.756 212.701 688.381 186.141L676.818 189.352ZM610.338 151.77C639.074 143.79 668.838 160.616 676.818 189.352L688.381 186.141C678.627 151.02 642.249 130.454 607.127 140.208L610.338 151.77ZM201.799 265.222L610.338 151.77L607.127 140.208L198.588 253.659L201.799 265.222Z" fill="#474747" mask="url(#path-25-inside-4_1171_1853)"/>
<path d="M524.822 181.661C531.606 224.46 509.868 261.685 478.513 266.655C447.159 271.624 414.975 242.947 408.191 200.148C401.407 157.349 423.145 120.125 454.5 115.155C485.854 110.185 518.038 138.862 524.822 181.661Z" fill="#FBF9FF" stroke="#474747" stroke-width="8"/>
<path d="M420.215 198.242C426.998 241.041 405.26 278.266 373.906 283.236C342.552 288.206 310.368 259.528 303.584 216.729C296.8 173.93 318.538 136.706 349.892 131.736C381.247 126.766 413.431 155.443 420.215 198.242Z" fill="#FBF9FF" stroke="#474747" stroke-width="8"/>
<path d="M414.254 234.932C417.282 254.034 407.553 271.233 392.799 273.571C378.046 275.91 363.475 262.563 360.448 243.461C357.42 224.358 367.148 207.16 381.902 204.821C396.656 202.483 411.226 215.83 414.254 234.932Z" fill="#474747" stroke="#474747"/>
<path d="M518.861 218.351C521.889 237.454 512.161 254.652 497.407 256.991C482.653 259.329 468.083 245.983 465.055 226.88C462.027 207.778 471.756 190.579 486.51 188.241C501.263 185.902 515.834 199.249 518.861 218.351Z" fill="#474747" stroke="#474747"/>
<mask id="path-31-inside-5_1171_1853" fill="white">
<path fill-rule="evenodd" clip-rule="evenodd" d="M-184.635 222.375C-192.08 255.709 -188.112 288.932 -175.322 317.961C-199.247 338.791 -216.974 367.168 -224.419 400.502C-242.965 483.54 -190.683 565.891 -107.645 584.437C-74.3111 591.882 -41.0881 587.913 -12.0588 575.123C8.77042 599.049 37.148 616.776 70.482 624.221C153.52 642.767 235.871 590.485 254.417 507.447C261.862 474.113 257.893 440.89 245.104 411.861C269.029 391.032 286.756 362.654 294.201 329.32C312.747 246.282 260.465 163.931 177.427 145.385C144.093 137.94 110.87 141.909 81.8406 154.699C61.0114 130.773 32.6337 113.047 -0.700295 105.602C-83.7387 87.0556 -166.089 139.337 -184.635 222.375Z"/>
</mask>
<path fill-rule="evenodd" clip-rule="evenodd" d="M-184.635 222.375C-192.08 255.709 -188.112 288.932 -175.322 317.961C-199.247 338.791 -216.974 367.168 -224.419 400.502C-242.965 483.54 -190.683 565.891 -107.645 584.437C-74.3111 591.882 -41.0881 587.913 -12.0588 575.123C8.77042 599.049 37.148 616.776 70.482 624.221C153.52 642.767 235.871 590.485 254.417 507.447C261.862 474.113 257.893 440.89 245.104 411.861C269.029 391.032 286.756 362.654 294.201 329.32C312.747 246.282 260.465 163.931 177.427 145.385C144.093 137.94 110.87 141.909 81.8406 154.699C61.0114 130.773 32.6337 113.047 -0.700295 105.602C-83.7387 87.0556 -166.089 139.337 -184.635 222.375Z" fill="#FF004D"/>
<path d="M-175.322 317.961L-171.382 322.487C-169.4 320.761 -168.772 317.947 -169.831 315.542L-175.322 317.961ZM-12.0588 575.123L-7.53346 571.184C-9.25889 569.202 -12.0732 568.573 -14.4779 569.633L-12.0588 575.123ZM245.104 411.861L241.164 407.336C239.182 409.061 238.553 411.875 239.613 414.28L245.104 411.861ZM81.8406 154.699L77.3152 158.638C79.0407 160.62 81.855 161.249 84.2597 160.19L81.8406 154.699ZM-169.831 315.542C-182.122 287.645 -185.936 255.726 -178.779 223.683L-190.491 221.067C-198.224 255.692 -194.101 290.219 -180.813 320.38L-169.831 315.542ZM-218.563 401.81C-211.406 369.767 -194.375 342.504 -171.382 322.487L-179.262 313.436C-204.12 335.077 -222.541 364.569 -230.274 399.194L-218.563 401.81ZM-106.337 578.581C-186.142 560.757 -236.387 481.614 -218.563 401.81L-230.274 399.194C-249.543 485.467 -195.225 571.024 -108.953 590.293L-106.337 578.581ZM-14.4779 569.633C-42.3754 581.924 -74.2945 585.738 -106.337 578.581L-108.953 590.293C-74.3278 598.026 -39.8008 593.903 -9.63967 580.614L-14.4779 569.633ZM71.7898 618.365C39.7471 611.208 12.4837 594.176 -7.53346 571.184L-16.5841 579.063C5.05717 603.921 34.549 622.343 69.1741 630.076L71.7898 618.365ZM248.561 506.139C230.737 585.943 151.594 636.189 71.7898 618.365L69.1741 630.076C155.447 649.345 241.004 595.027 260.273 508.755L248.561 506.139ZM239.613 414.28C251.904 442.178 255.718 474.096 248.561 506.139L260.273 508.755C268.006 474.13 263.883 439.603 250.594 409.442L239.613 414.28ZM288.345 328.012C281.188 360.055 264.157 387.319 241.164 407.336L249.043 416.386C273.902 394.745 292.323 365.253 300.056 330.628L288.345 328.012ZM176.119 151.241C255.923 169.065 306.169 248.208 288.345 328.012L300.056 330.628C319.325 244.356 265.007 158.798 178.735 139.53L176.119 151.241ZM84.2597 160.19C112.157 147.898 144.076 144.084 176.119 151.241L178.735 139.53C144.11 131.796 109.583 135.92 79.4215 149.208L84.2597 160.19ZM-2.00813 111.457C30.0347 118.614 57.2981 135.646 77.3152 158.638L86.3659 150.759C64.7246 125.901 35.2328 107.479 0.607543 99.7459L-2.00813 111.457ZM-178.779 223.683C-160.956 143.879 -81.8125 93.6336 -2.00813 111.457L0.607543 99.7459C-85.6649 80.4775 -171.223 134.795 -190.491 221.067L-178.779 223.683Z" fill="#474747" mask="url(#path-31-inside-5_1171_1853)"/>
<path d="M187.02 179.05C167.073 217.519 127.482 234.571 99.2994 219.957C71.1172 205.344 62.2412 163.161 82.1888 124.692C102.136 86.2224 141.727 69.1711 169.91 83.7845C198.092 98.3979 206.968 140.581 187.02 179.05Z" fill="#FBF9FF" stroke="#474747" stroke-width="8"/>
<path d="M92.9958 130.295C73.0483 168.765 33.4572 185.816 5.27498 171.202C-22.9072 156.589 -31.7832 114.406 -11.8357 75.9367C8.11191 37.4676 47.703 20.4162 75.8852 35.0296C104.067 49.643 112.943 91.8262 92.9958 130.295Z" fill="#FBF9FF" stroke="#474747" stroke-width="8"/>
<path d="M66.4196 156.283C57.5164 173.453 39.478 181.518 26.2167 174.641C12.9554 167.765 9.15341 148.375 18.0566 131.205C26.9597 114.035 44.9981 105.97 58.2595 112.846C71.5208 119.723 75.3227 139.113 66.4196 156.283Z" fill="#474747" stroke="#474747"/>
<path d="M160.444 205.038C151.541 222.207 133.502 230.273 120.241 223.396C106.98 216.52 103.178 197.13 112.081 179.96C120.984 162.79 139.023 154.725 152.284 161.601C165.545 168.478 169.347 187.868 160.444 205.038Z" fill="#474747" stroke="#474747"/>
<mask id="path-37-inside-6_1171_1853" fill="white">
<path fill-rule="evenodd" clip-rule="evenodd" d="M1216.63 376C1193.96 369.925 1170.65 383.38 1164.58 406.052C1158.5 428.724 1171.96 452.028 1194.63 458.104L1328.12 493.871L1339.96 523.362L1376.01 495.088C1386.17 489.77 1394.16 480.379 1397.37 468.427C1403.44 445.755 1389.99 422.451 1367.31 416.376L1216.63 376Z"/>
</mask>
<path fill-rule="evenodd" clip-rule="evenodd" d="M1216.63 376C1193.96 369.925 1170.65 383.38 1164.58 406.052C1158.5 428.724 1171.96 452.028 1194.63 458.104L1328.12 493.871L1339.96 523.362L1376.01 495.088C1386.17 489.77 1394.16 480.379 1397.37 468.427C1403.44 445.755 1389.99 422.451 1367.31 416.376L1216.63 376Z" fill="#FBF9FF"/>
<path d="M1216.63 376L1215.08 381.795L1216.63 376ZM1194.63 458.104L1193.08 463.899L1194.63 458.104ZM1328.12 493.871L1333.68 491.634L1332.56 488.851L1329.67 488.075L1328.12 493.871ZM1339.96 523.362L1334.4 525.599L1337.38 533.016L1343.67 528.083L1339.96 523.362ZM1376.01 495.088L1373.23 489.772L1372.74 490.027L1372.31 490.367L1376.01 495.088ZM1367.31 416.376L1368.87 410.58L1367.31 416.376ZM1170.37 407.605C1175.59 388.133 1195.61 376.578 1215.08 381.795L1218.18 370.204C1192.31 363.272 1165.72 378.626 1158.78 404.499L1170.37 407.605ZM1196.18 452.308C1176.71 447.091 1165.16 427.076 1170.37 407.605L1158.78 404.499C1151.85 430.372 1167.2 456.966 1193.08 463.899L1196.18 452.308ZM1329.67 488.075L1196.18 452.308L1193.08 463.899L1326.56 499.666L1329.67 488.075ZM1345.53 521.125L1333.68 491.634L1322.55 496.108L1334.4 525.599L1345.53 521.125ZM1372.31 490.367L1336.26 518.641L1343.67 528.083L1379.71 499.809L1372.31 490.367ZM1391.57 466.874C1388.82 477.139 1381.97 485.199 1373.23 489.772L1378.79 500.404C1390.38 494.341 1399.51 483.62 1403.16 469.98L1391.57 466.874ZM1365.76 422.171C1385.23 427.389 1396.79 447.403 1391.57 466.874L1403.16 469.98C1410.09 444.107 1394.74 417.513 1368.87 410.58L1365.76 422.171ZM1215.08 381.795L1365.76 422.171L1368.87 410.58L1218.18 370.204L1215.08 381.795Z" fill="#474747" mask="url(#path-37-inside-6_1171_1853)"/>
<circle cx="1215.74" cy="421.83" r="12.5" transform="rotate(15 1215.74 421.83)" fill="#474747"/>
<circle cx="1259.2" cy="433.477" r="12.5" transform="rotate(15 1259.2 433.477)" fill="#474747"/>
<circle cx="1346.14" cy="456.771" r="12.5" transform="rotate(15 1346.14 456.771)" fill="#474747"/>
<circle cx="1302.67" cy="445.124" r="12.5" transform="rotate(15 1302.67 445.124)" fill="#474747"/>
<mask id="path-43-inside-7_1171_1853" fill="white">
<path fill-rule="evenodd" clip-rule="evenodd" d="M332.924 387.761C353.919 398.256 362.43 423.784 351.934 444.779C341.439 465.774 315.911 474.285 294.916 463.789L171.308 401.995L142.876 416.2L134.662 371.131C130.587 360.41 130.837 348.082 136.37 337.014C146.866 316.02 172.394 307.509 193.389 318.004L332.924 387.761Z"/>
</mask>
<path fill-rule="evenodd" clip-rule="evenodd" d="M332.924 387.761C353.919 398.256 362.43 423.784 351.934 444.779C341.439 465.774 315.911 474.285 294.916 463.789L171.308 401.995L142.876 416.2L134.662 371.131C130.587 360.41 130.837 348.082 136.37 337.014C146.866 316.02 172.394 307.509 193.389 318.004L332.924 387.761Z" fill="#FBF9FF"/>
<path d="M332.924 387.761L335.607 382.394L332.924 387.761ZM294.916 463.789L292.233 469.156L294.916 463.789ZM171.308 401.995L168.626 396.628L171.308 395.288L173.99 396.628L171.308 401.995ZM142.876 416.2L145.558 421.568L138.407 425.141L136.973 417.276L142.876 416.2ZM134.662 371.131L140.271 368.999L140.466 369.513L140.565 370.055L134.662 371.131ZM193.389 318.004L190.706 323.371L193.389 318.004ZM346.568 442.096C355.582 424.065 348.272 402.141 330.241 393.127L335.607 382.394C359.566 394.371 369.279 423.503 357.301 447.462L346.568 442.096ZM297.599 458.423C315.63 467.437 337.554 460.127 346.568 442.096L357.301 447.462C345.324 471.421 316.192 481.133 292.233 469.156L297.599 458.423ZM173.99 396.628L297.599 458.423L292.233 469.156L168.625 407.362L173.99 396.628ZM140.194 410.833L168.626 396.628L173.989 407.362L145.558 421.568L140.194 410.833ZM140.565 370.055L148.779 415.125L136.973 417.276L128.759 372.206L140.565 370.055ZM141.737 339.697C136.985 349.203 136.766 359.78 140.271 368.999L129.054 373.263C124.407 361.039 124.69 346.962 131.004 334.332L141.737 339.697ZM190.706 323.371C172.675 314.357 150.751 321.667 141.737 339.697L131.004 334.332C142.981 310.373 172.113 300.66 196.072 312.637L190.706 323.371ZM330.241 393.127L190.706 323.371L196.072 312.637L335.607 382.394L330.241 393.127Z" fill="#474747" mask="url(#path-43-inside-7_1171_1853)"/>
<circle cx="12.5" cy="12.5" r="12.5" transform="matrix(-0.894456 -0.447156 -0.447156 0.894456 319.957 417.054)" fill="#474747"/>
<circle cx="12.5" cy="12.5" r="12.5" transform="matrix(-0.894456 -0.447156 -0.447156 0.894456 279.706 396.932)" fill="#474747"/>
<circle cx="12.5" cy="12.5" r="12.5" transform="matrix(-0.894456 -0.447156 -0.447156 0.894456 199.205 356.688)" fill="#474747"/>
<circle cx="12.5" cy="12.5" r="12.5" transform="matrix(-0.894456 -0.447156 -0.447156 0.894456 239.456 376.81)" fill="#474747"/>
<mask id="path-49-inside-8_1171_1853" fill="white">
<path fill-rule="evenodd" clip-rule="evenodd" d="M795.633 359.869C817.82 352.209 842.016 363.986 849.675 386.173C857.335 408.361 845.558 432.556 823.371 440.216L692.742 485.312L683.003 515.565L645.051 489.905C634.539 485.317 625.906 476.514 621.868 464.818C614.209 442.631 625.986 418.435 648.173 410.775L795.633 359.869Z"/>
</mask>
<path fill-rule="evenodd" clip-rule="evenodd" d="M795.633 359.869C817.82 352.209 842.016 363.986 849.675 386.173C857.335 408.361 845.558 432.556 823.371 440.216L692.742 485.312L683.003 515.565L645.051 489.905C634.539 485.317 625.906 476.514 621.868 464.818C614.209 442.631 625.986 418.435 648.173 410.775L795.633 359.869Z" fill="#FBF9FF"/>
<path d="M823.371 440.216L821.413 434.544L823.371 440.216ZM692.742 485.312L687.031 483.473L687.95 480.619L690.784 479.64L692.742 485.312ZM683.003 515.565L688.714 517.404L686.264 525.014L679.642 520.536L683.003 515.565ZM645.051 489.905L647.451 484.406L647.956 484.626L648.412 484.935L645.051 489.905ZM844.004 388.131C837.426 369.077 816.646 358.962 797.591 365.54L793.675 354.197C818.995 345.456 846.606 358.896 855.347 384.216L844.004 388.131ZM821.413 434.544C840.468 427.966 850.582 407.186 844.004 388.131L855.347 384.216C864.088 409.535 850.648 437.146 825.329 445.887L821.413 434.544ZM690.784 479.64L821.413 434.544L825.329 445.887L694.7 490.983L690.784 479.64ZM677.291 513.727L687.031 483.473L698.453 487.15L688.714 517.404L677.291 513.727ZM648.412 484.935L686.363 510.595L679.642 520.536L641.691 494.876L648.412 484.935ZM627.54 462.86C631.008 472.905 638.412 480.461 647.451 484.406L642.651 495.404C630.666 490.173 620.805 480.123 616.197 466.776L627.54 462.86ZM650.131 416.447C631.076 423.025 620.962 443.805 627.54 462.86L616.197 466.776C607.456 441.456 620.896 413.845 646.215 405.104L650.131 416.447ZM797.591 365.54L650.131 416.447L646.215 405.104L793.675 354.197L797.591 365.54Z" fill="#474747" mask="url(#path-49-inside-8_1171_1853)"/>
<circle cx="12.5" cy="12.5" r="12.5" transform="matrix(-0.945258 0.326325 0.326325 0.945258 807.493 389.627)" fill="#474747"/>
<circle cx="12.5" cy="12.5" r="12.5" transform="matrix(-0.945258 0.326325 0.326325 0.945258 764.957 404.312)" fill="#474747"/>
<circle cx="12.5" cy="12.5" r="12.5" transform="matrix(-0.945258 0.326325 0.326325 0.945258 679.884 433.681)" fill="#474747"/>
<circle cx="12.5" cy="12.5" r="12.5" transform="matrix(-0.945258 0.326325 0.326325 0.945258 722.42 418.997)" fill="#474747"/>
<mask id="path-55-inside-9_1171_1853" fill="white">
<path fill-rule="evenodd" clip-rule="evenodd" d="M1527.03 291.792C1504.37 297.917 1490.96 321.25 1497.09 343.909C1503.21 366.568 1526.55 379.972 1549.21 373.848L1682.61 337.791L1707.66 357.352L1724.65 314.806C1730.77 305.106 1732.97 292.973 1729.74 281.028C1723.62 258.369 1700.28 244.965 1677.62 251.089L1527.03 291.792Z"/>
</mask>
<path fill-rule="evenodd" clip-rule="evenodd" d="M1527.03 291.792C1504.37 297.917 1490.96 321.25 1497.09 343.909C1503.21 366.568 1526.55 379.972 1549.21 373.848L1682.61 337.791L1707.66 357.352L1724.65 314.806C1730.77 305.106 1732.97 292.973 1729.74 281.028C1723.62 258.369 1700.28 244.965 1677.62 251.089L1527.03 291.792Z" fill="#FBF9FF"/>
<path d="M1549.21 373.848L1550.77 379.64L1549.21 373.848ZM1682.61 337.791L1686.31 333.062L1683.94 331.216L1681.05 331.999L1682.61 337.791ZM1707.66 357.352L1703.97 362.081L1710.27 367.001L1713.24 359.577L1707.66 357.352ZM1724.65 314.806L1719.58 311.604L1719.28 312.069L1719.08 312.581L1724.65 314.806ZM1502.88 342.344C1497.62 322.884 1509.13 302.844 1528.59 297.585L1525.46 286C1499.6 292.989 1484.31 319.617 1491.3 345.475L1502.88 342.344ZM1547.64 368.056C1528.18 373.316 1508.14 361.804 1502.88 342.344L1491.3 345.475C1498.29 371.333 1524.91 386.629 1550.77 379.64L1547.64 368.056ZM1681.05 331.999L1547.64 368.056L1550.77 379.64L1684.18 343.583L1681.05 331.999ZM1711.36 352.623L1686.31 333.062L1678.92 342.52L1703.97 362.081L1711.36 352.623ZM1719.08 312.581L1702.09 355.127L1713.24 359.577L1730.22 317.03L1719.08 312.581ZM1723.95 282.594C1726.72 292.852 1724.84 303.263 1719.58 311.604L1729.72 318.007C1736.7 306.948 1739.22 293.094 1735.53 279.463L1723.95 282.594ZM1679.19 256.881C1698.65 251.622 1718.69 263.133 1723.95 282.594L1735.53 279.463C1728.54 253.605 1701.92 238.308 1676.06 245.297L1679.19 256.881ZM1528.59 297.585L1679.19 256.881L1676.06 245.297L1525.46 286L1528.59 297.585Z" fill="#474747" mask="url(#path-55-inside-9_1171_1853)"/>
<circle cx="1549.26" cy="331.881" r="12.5" transform="rotate(-15.1245 1549.26 331.881)" fill="#474747"/>
<circle cx="1592.7" cy="320.14" r="12.5" transform="rotate(-15.1245 1592.7 320.14)" fill="#474747"/>
<circle cx="1679.58" cy="296.657" r="12.5" transform="rotate(-15.1245 1679.58 296.657)" fill="#474747"/>
<circle cx="1636.14" cy="308.398" r="12.5" transform="rotate(-15.1245 1636.14 308.398)" fill="#474747"/>
</g>
</svg>
