<svg width="200" height="201" viewBox="0 0 200 201" fill="none" xmlns="http://www.w3.org/2000/svg">
<path d="M54.9402 86.3026L56.7785 87.0904L57.5663 85.2521L59.5993 80.5084L60.4066 78.6247L58.5038 77.8636C58.1253 77.7122 57.7311 77.5495 57.3256 77.3821C56.0409 76.852 54.6432 76.2752 53.2739 75.8628C28.5484 67.8673 21.7771 56.7683 22.2743 47.479C22.5318 42.6665 24.7192 37.9493 28.0056 33.867C31.2894 29.7879 35.5792 26.4607 39.8194 24.4302C45.4976 21.711 50.0484 21.3946 53.8039 22.4861C57.5974 23.5886 60.8758 26.2135 63.8157 29.9337C68.9198 36.3925 72.6021 45.5887 76.0487 54.1964C76.6255 55.637 77.1957 57.0611 77.7649 58.453L78.523 60.3072L80.3759 59.5461L85.1197 57.5978L87.0133 56.8201L86.1917 54.9451C85.5145 53.3998 84.8022 51.8238 84.0799 50.2259C81.2083 43.8727 78.1796 37.1719 76.5816 30.6727C74.5943 22.5907 74.9823 15.4506 80.2078 10.0385L80.2086 10.0377C87.6515 2.32057 99.1763 0.368947 108.666 3.28658C118.086 6.18262 125.095 13.7063 124.213 24.7543L124.213 24.7553C123.814 29.7719 121.902 35.5504 119.673 41.0512C118.565 43.783 117.398 46.4032 116.328 48.7898C116.256 48.9522 116.183 49.1136 116.111 49.2742C115.135 51.4523 114.239 53.451 113.588 55.0976L112.868 56.9212L114.677 57.6776L119.336 59.626L121.174 60.3947L121.95 58.5592C122.925 56.2511 123.611 54.4099 124.314 52.5251C125.533 49.2551 126.8 45.854 129.711 39.656L127.903 38.8073L129.711 39.6559C133.958 30.6109 139.308 25.7918 144.68 23.7628C150.054 21.7325 155.759 22.3783 160.953 24.8645C171.516 29.9209 179.22 42.1605 177.185 53.0025C175.865 59.8139 170.848 64.6035 163.989 68.4697C158.765 71.4147 152.775 73.6668 146.978 75.8463C145.116 76.5463 143.273 77.2389 141.483 77.9446L139.567 78.6998L140.378 80.5931L142.411 85.3368L143.212 87.2053L145.067 86.3742C146.379 85.7867 147.755 85.1492 149.184 84.4874C153.643 82.4219 158.614 80.1196 163.717 78.3607C170.476 76.0311 177.035 74.8217 182.457 76.2345C188.473 77.8049 192.868 82.2457 195.438 88.02C198.016 93.8119 198.682 100.808 197.284 107.115C195.888 113.415 192.484 118.846 187.105 121.818C181.753 124.774 174.068 125.502 163.67 121.642C156.498 118.952 153.804 117.713 150.724 116.297C149.165 115.579 147.507 114.817 145.119 113.798L143.283 113.014L142.496 114.85L140.463 119.593L139.649 121.493L141.574 122.244C142.689 122.679 143.983 123.156 145.411 123.681C148.599 124.855 152.451 126.272 156.441 128.016C162.202 130.535 167.909 133.599 171.757 137.247C176.876 142.136 178.413 147.914 177.617 153.583C176.809 159.331 173.576 165.057 168.986 169.531C164.396 174.006 158.608 177.074 152.879 177.707C147.232 178.331 141.546 176.613 136.851 171.32C133.46 167.49 130.617 162.17 128.206 156.689C126.495 152.799 125.053 148.95 123.787 145.572C123.267 144.186 122.776 142.878 122.31 141.68L121.575 139.793L119.698 140.551L114.869 142.499L112.946 143.275L113.791 145.169C114.723 147.255 115.524 148.98 116.254 150.549C118.604 155.608 120.199 159.041 122.945 167.663L122.946 167.665C125.499 175.645 124.711 181.941 122.136 186.644C119.542 191.381 114.997 194.75 109.597 196.578C98.6584 200.281 85.0825 197.435 78.7323 188.046C74.8223 182.256 75.0758 175.213 77.2611 167.574C78.8383 162.062 81.3107 156.574 83.6765 151.323C84.6122 149.246 85.5312 147.207 86.3717 145.217L87.1576 143.356L85.2891 142.589L80.5453 140.64L78.6711 139.87L77.9258 141.755C77.4018 143.079 76.8471 144.565 76.2497 146.166C75.0469 149.388 73.6709 153.075 72.0235 156.841C69.5681 162.455 66.6493 167.894 63.1625 171.619L63.1586 171.623C56.4885 178.789 47.2647 179.168 39.0973 175.327C30.8661 171.455 24.1319 163.455 22.8059 154.563L22.805 154.557C22.0531 149.61 22.7098 145.701 24.2953 142.478C25.8921 139.233 28.509 136.526 31.928 134.133C37.6624 130.119 45.2714 127.217 53.3353 124.142C55.0377 123.493 56.7603 122.836 58.4899 122.159L60.4127 121.406L59.5993 119.509L57.5663 114.765L56.7672 112.9L54.9142 113.726C53.6829 114.274 52.3798 114.873 51.0185 115.498C47.1266 117.286 42.7585 119.293 38.2282 120.973C32.1057 123.244 26.0047 124.79 20.817 124.402C8.36089 123.344 -2.86238 107.998 4.15294 88.968L4.15614 88.9592C6.33369 82.9659 9.43212 79.5197 12.957 77.6554C16.5207 75.7706 20.7881 75.3606 25.5414 75.9655C33.7258 77.007 42.6836 80.9379 50.7613 84.4827C52.1846 85.1073 53.5806 85.7199 54.9402 86.3026ZM144.047 100.051C144.047 75.6603 124.526 55.9543 100.123 55.8655C75.7268 55.7768 55.8458 75.4727 55.8458 99.8814C55.8458 124.193 75.5413 143.978 99.8544 144.067C124.341 144.155 144.047 124.539 144.047 100.051Z" fill="#FBF9FF" stroke="#474747" stroke-width="4"/>
<path d="M129.916 129.936C113.404 146.449 86.5829 146.449 69.9751 129.936C53.4627 113.424 53.4627 86.6034 69.9751 69.9956C86.4875 53.4832 113.308 53.4832 129.916 69.9956C146.428 86.508 146.428 113.424 129.916 129.936Z" fill="#2BCAFF"/>
<path d="M134.169 102.423C133.999 99.8813 130.103 102.338 125.952 98.4413C124.512 97.0859 120.785 99.4578 126.799 102.592C116.041 132.494 84.4443 133.003 72.9239 102.423C74.8722 101.321 77.4982 99.2884 75.4651 98.0177C73.4321 96.7471 73.178 100.728 66.9942 101.152C65.1306 101.237 64.0294 105.387 70.3826 103.439C82.8349 135.968 117.396 135.883 129.256 103.524C131.373 104.032 134.253 104.54 134.169 102.423Z" fill="#474747"/>
<path d="M80.2665 85.6606C80.2665 93.2038 84.9888 98.6563 90.0912 98.6563C95.1936 98.6563 99.916 93.2038 99.916 85.6606C99.916 78.1174 95.1936 72.6649 90.0912 72.6649C84.9888 72.6649 80.2665 78.1174 80.2665 85.6606Z" fill="#FBF9FF" stroke="#474747" stroke-width="3"/>
<path d="M85.5557 93.3075C85.5557 96.6529 87.6684 99.1493 90.0386 99.1493C92.4088 99.1493 94.5215 96.6529 94.5215 93.3075C94.5215 89.962 92.4088 87.4656 90.0386 87.4656C87.6684 87.4656 85.5557 89.962 85.5557 93.3075Z" fill="#474747" stroke="#474747"/>
<path d="M100.819 85.6606C100.819 93.2038 105.542 98.6563 110.644 98.6563C115.746 98.6563 120.469 93.2038 120.469 85.6606C120.469 78.1174 115.746 72.6649 110.644 72.6649C105.542 72.6649 100.819 78.1174 100.819 85.6606Z" fill="#FBF9FF" stroke="#474747" stroke-width="3"/>
<path d="M106.108 93.3075C106.108 96.6529 108.221 99.1493 110.591 99.1493C112.962 99.1493 115.074 96.6529 115.074 93.3075C115.074 89.962 112.962 87.4656 110.591 87.4656C108.221 87.4656 106.108 89.962 106.108 93.3075Z" fill="#474747" stroke="#474747"/>
</svg>
