<svg width="1911" height="1561" viewBox="0 0 1911 1561" fill="none" xmlns="http://www.w3.org/2000/svg">
<line x1="53.5" y1="2.18557e-08" x2="53.4999" y2="2067" stroke="#888888" stroke-opacity="0.2"/>
<line x1="108.5" y1="2.18557e-08" x2="108.5" y2="2067" stroke="#888888" stroke-opacity="0.2"/>
<line x1="163.5" y1="2.18557e-08" x2="163.5" y2="2067" stroke="#888888" stroke-opacity="0.2"/>
<line x1="218.5" y1="2.18557e-08" x2="218.5" y2="2067" stroke="#888888" stroke-opacity="0.2"/>
<line x1="273.5" y1="2.18557e-08" x2="273.5" y2="2067" stroke="#888888" stroke-opacity="0.2"/>
<line x1="328.5" y1="2.18557e-08" x2="328.5" y2="2067" stroke="#888888" stroke-opacity="0.2"/>
<line x1="383.5" y1="2.18557e-08" x2="383.5" y2="2067" stroke="#888888" stroke-opacity="0.2"/>
<line x1="438.5" y1="2.18557e-08" x2="438.5" y2="2067" stroke="#888888" stroke-opacity="0.2"/>
<line x1="493.5" y1="2.18557e-08" x2="493.5" y2="2067" stroke="#888888" stroke-opacity="0.2"/>
<line x1="548.5" y1="2.18557e-08" x2="548.5" y2="2067" stroke="#888888" stroke-opacity="0.2"/>
<line x1="603.5" y1="2.18557e-08" x2="603.5" y2="2067" stroke="#888888" stroke-opacity="0.2"/>
<line x1="658.5" y1="2.18557e-08" x2="658.5" y2="2067" stroke="#888888" stroke-opacity="0.2"/>
<line x1="713.5" y1="2.18557e-08" x2="713.5" y2="2067" stroke="#888888" stroke-opacity="0.2"/>
<line x1="878.5" y1="2.18557e-08" x2="878.5" y2="2067" stroke="#888888" stroke-opacity="0.2"/>
<line x1="1043.5" y1="2.18557e-08" x2="1043.5" y2="2067" stroke="#888888" stroke-opacity="0.2"/>
<line x1="1208.5" y1="2.18557e-08" x2="1208.5" y2="2067" stroke="#888888" stroke-opacity="0.2"/>
<line x1="1373.5" y1="2.18557e-08" x2="1373.5" y2="2067" stroke="#888888" stroke-opacity="0.2"/>
<line x1="1538.5" y1="2.18557e-08" x2="1538.5" y2="2067" stroke="#888888" stroke-opacity="0.2"/>
<line x1="1703.5" y1="2.18557e-08" x2="1703.5" y2="2067" stroke="#888888" stroke-opacity="0.2"/>
<line x1="768.5" y1="2.18557e-08" x2="768.5" y2="2067" stroke="#888888" stroke-opacity="0.2"/>
<line x1="933.5" y1="2.18557e-08" x2="933.5" y2="2067" stroke="#888888" stroke-opacity="0.2"/>
<line x1="1098.5" y1="2.18557e-08" x2="1098.5" y2="2067" stroke="#888888" stroke-opacity="0.2"/>
<line x1="1263.5" y1="2.18557e-08" x2="1263.5" y2="2067" stroke="#888888" stroke-opacity="0.2"/>
<line x1="1428.5" y1="2.18557e-08" x2="1428.5" y2="2067" stroke="#888888" stroke-opacity="0.2"/>
<line x1="1593.5" y1="2.18557e-08" x2="1593.5" y2="2067" stroke="#888888" stroke-opacity="0.2"/>
<line x1="1758.5" y1="2.18557e-08" x2="1758.5" y2="2067" stroke="#888888" stroke-opacity="0.2"/>
<line x1="823.5" y1="2.18557e-08" x2="823.5" y2="2067" stroke="#888888" stroke-opacity="0.2"/>
<line x1="988.5" y1="2.18557e-08" x2="988.5" y2="2067" stroke="#888888" stroke-opacity="0.2"/>
<line x1="1153.5" y1="2.18557e-08" x2="1153.5" y2="2067" stroke="#888888" stroke-opacity="0.2"/>
<line x1="1318.5" y1="2.18557e-08" x2="1318.5" y2="2067" stroke="#888888" stroke-opacity="0.2"/>
<line x1="1483.5" y1="2.18557e-08" x2="1483.5" y2="2067" stroke="#888888" stroke-opacity="0.2"/>
<line x1="1648.5" y1="2.18557e-08" x2="1648.5" y2="2067" stroke="#888888" stroke-opacity="0.2"/>
<line x1="1813.5" y1="2.18557e-08" x2="1813.5" y2="2067" stroke="#888888" stroke-opacity="0.2"/>
<line x1="1538.5" y1="2.18557e-08" x2="1538.5" y2="2067" stroke="#888888" stroke-opacity="0.2"/>
<line x1="1868.5" y1="2.18557e-08" x2="1868.5" y2="2067" stroke="#888888" stroke-opacity="0.2"/>
<line x1="2.18557e-08" y1="875.5" x2="1946" y2="875.5" stroke="#888888" stroke-opacity="0.2"/>
<line x1="2.18557e-08" y1="820.5" x2="1946" y2="820.5" stroke="#888888" stroke-opacity="0.2"/>
<line x1="2.18557e-08" y1="765.5" x2="1946" y2="765.5" stroke="#888888" stroke-opacity="0.2"/>
<line x1="2.18557e-08" y1="710.5" x2="1946" y2="710.5" stroke="#888888" stroke-opacity="0.2"/>
<line x1="2.18557e-08" y1="655.5" x2="1946" y2="655.5" stroke="#888888" stroke-opacity="0.2"/>
<line x1="2.18557e-08" y1="600.5" x2="1946" y2="600.5" stroke="#888888" stroke-opacity="0.2"/>
<line x1="2.18557e-08" y1="545.5" x2="1946" y2="545.5" stroke="#888888" stroke-opacity="0.2"/>
<line x1="2.18557e-08" y1="490.5" x2="1946" y2="490.5" stroke="#888888" stroke-opacity="0.2"/>
<line x1="2.18557e-08" y1="435.5" x2="1946" y2="435.5" stroke="#888888" stroke-opacity="0.2"/>
<line x1="2.18557e-08" y1="380.5" x2="1946" y2="380.5" stroke="#888888" stroke-opacity="0.2"/>
<line x1="2.18557e-08" y1="325.5" x2="1946" y2="325.5" stroke="#888888" stroke-opacity="0.2"/>
<line x1="2.18557e-08" y1="270.5" x2="1946" y2="270.5" stroke="#888888" stroke-opacity="0.2"/>
<line x1="2.18557e-08" y1="215.5" x2="1946" y2="215.5" stroke="#888888" stroke-opacity="0.2"/>
<line x1="2.18557e-08" y1="160.5" x2="1946" y2="160.5" stroke="#888888" stroke-opacity="0.2"/>
<line x1="2.18557e-08" y1="105.5" x2="1946" y2="105.5" stroke="#888888" stroke-opacity="0.2"/>
<line x1="2.18557e-08" y1="50.4995" x2="1946" y2="50.4996" stroke="#888888" stroke-opacity="0.2"/>
<line x1="2.18557e-08" y1="1535.5" x2="1946" y2="1535.5" stroke="#888888" stroke-opacity="0.2"/>
<line x1="2.18557e-08" y1="1480.5" x2="1946" y2="1480.5" stroke="#888888" stroke-opacity="0.2"/>
<line x1="2.18557e-08" y1="1425.5" x2="1946" y2="1425.5" stroke="#888888" stroke-opacity="0.2"/>
<line x1="2.18557e-08" y1="1370.5" x2="1946" y2="1370.5" stroke="#888888" stroke-opacity="0.2"/>
<line x1="2.18557e-08" y1="1315.5" x2="1946" y2="1315.5" stroke="#888888" stroke-opacity="0.2"/>
<line x1="2.18557e-08" y1="1260.5" x2="1946" y2="1260.5" stroke="#888888" stroke-opacity="0.2"/>
<line x1="2.18557e-08" y1="1205.5" x2="1946" y2="1205.5" stroke="#888888" stroke-opacity="0.2"/>
<line x1="2.18557e-08" y1="1150.5" x2="1946" y2="1150.5" stroke="#888888" stroke-opacity="0.2"/>
<line x1="2.18557e-08" y1="1095.5" x2="1946" y2="1095.5" stroke="#888888" stroke-opacity="0.2"/>
<line x1="2.18557e-08" y1="1040.5" x2="1946" y2="1040.5" stroke="#888888" stroke-opacity="0.2"/>
<line x1="2.18557e-08" y1="985.5" x2="1946" y2="985.5" stroke="#888888" stroke-opacity="0.2"/>
<line x1="2.18557e-08" y1="930.5" x2="1946" y2="930.5" stroke="#888888" stroke-opacity="0.2"/>
</svg>
