<svg width="913" height="972" viewBox="0 0 913 972" fill="none" xmlns="http://www.w3.org/2000/svg">
<line x1="53.5" y1="2.18557e-08" x2="53.5" y2="972" stroke="#888888" stroke-opacity="0.2"/>
<line x1="108.5" y1="2.18557e-08" x2="108.5" y2="972" stroke="#888888" stroke-opacity="0.2"/>
<line x1="163.5" y1="2.18557e-08" x2="163.5" y2="972" stroke="#888888" stroke-opacity="0.2"/>
<line x1="218.5" y1="2.18557e-08" x2="218.5" y2="972" stroke="#888888" stroke-opacity="0.2"/>
<line x1="273.5" y1="2.18557e-08" x2="273.5" y2="972" stroke="#888888" stroke-opacity="0.2"/>
<line x1="328.5" y1="2.18557e-08" x2="328.5" y2="972" stroke="#888888" stroke-opacity="0.2"/>
<line x1="383.5" y1="2.18557e-08" x2="383.5" y2="972" stroke="#888888" stroke-opacity="0.2"/>
<line x1="438.5" y1="2.18557e-08" x2="438.5" y2="972" stroke="#888888" stroke-opacity="0.2"/>
<line x1="493.5" y1="2.18557e-08" x2="493.5" y2="972" stroke="#888888" stroke-opacity="0.2"/>
<line x1="548.5" y1="2.18557e-08" x2="548.5" y2="972" stroke="#888888" stroke-opacity="0.2"/>
<line x1="603.5" y1="2.18557e-08" x2="603.5" y2="972" stroke="#888888" stroke-opacity="0.2"/>
<line x1="658.5" y1="2.18557e-08" x2="658.5" y2="972" stroke="#888888" stroke-opacity="0.2"/>
<line x1="713.5" y1="2.18557e-08" x2="713.5" y2="972" stroke="#888888" stroke-opacity="0.2"/>
<line x1="768.5" y1="2.18557e-08" x2="768.5" y2="972" stroke="#888888" stroke-opacity="0.2"/>
<line x1="823.5" y1="2.18557e-08" x2="823.5" y2="972" stroke="#888888" stroke-opacity="0.2"/>
<line x1="878.5" y1="2.18557e-08" x2="878.5" y2="972" stroke="#888888" stroke-opacity="0.2"/>
<line x1="2.18557e-08" y1="875.5" x2="913" y2="875.5" stroke="#888888" stroke-opacity="0.2"/>
<line x1="2.18557e-08" y1="930.5" x2="913" y2="930.5" stroke="#888888" stroke-opacity="0.2"/>
<line x1="2.18557e-08" y1="820.5" x2="913" y2="820.5" stroke="#888888" stroke-opacity="0.2"/>
<line x1="2.18557e-08" y1="765.5" x2="913" y2="765.5" stroke="#888888" stroke-opacity="0.2"/>
<line x1="2.18557e-08" y1="710.5" x2="913" y2="710.5" stroke="#888888" stroke-opacity="0.2"/>
<line x1="2.18557e-08" y1="655.5" x2="913" y2="655.5" stroke="#888888" stroke-opacity="0.2"/>
<line x1="2.18557e-08" y1="600.5" x2="913" y2="600.5" stroke="#888888" stroke-opacity="0.2"/>
<line x1="2.18557e-08" y1="545.5" x2="913" y2="545.5" stroke="#888888" stroke-opacity="0.2"/>
<line x1="2.18557e-08" y1="490.5" x2="913" y2="490.5" stroke="#888888" stroke-opacity="0.2"/>
<line x1="2.18557e-08" y1="435.5" x2="913" y2="435.5" stroke="#888888" stroke-opacity="0.2"/>
<line x1="2.18557e-08" y1="380.5" x2="913" y2="380.5" stroke="#888888" stroke-opacity="0.2"/>
<line x1="2.18557e-08" y1="325.5" x2="913" y2="325.5" stroke="#888888" stroke-opacity="0.2"/>
<line x1="2.18557e-08" y1="270.5" x2="913" y2="270.5" stroke="#888888" stroke-opacity="0.2"/>
<line x1="2.18557e-08" y1="215.5" x2="913" y2="215.5" stroke="#888888" stroke-opacity="0.2"/>
<line x1="2.18557e-08" y1="160.5" x2="913" y2="160.5" stroke="#888888" stroke-opacity="0.2"/>
<line x1="2.18557e-08" y1="105.5" x2="913" y2="105.5" stroke="#888888" stroke-opacity="0.2"/>
<line x1="2.18557e-08" y1="50.4999" x2="913" y2="50.4999" stroke="#888888" stroke-opacity="0.2"/>
</svg>
