<svg width="939" height="911" viewBox="0 0 939 911" fill="none" xmlns="http://www.w3.org/2000/svg">
<line x1="36.6152" y1="4.37114e-08" x2="36.6152" y2="911" stroke="#474747" stroke-width="2"/>
<line x1="88.1641" y1="4.37114e-08" x2="88.164" y2="911" stroke="#474747" stroke-width="2"/>
<line x1="139.712" y1="4.37114e-08" x2="139.712" y2="911" stroke="#474747" stroke-width="2"/>
<line x1="191.261" y1="4.37114e-08" x2="191.261" y2="911" stroke="#474747" stroke-width="2"/>
<line x1="242.809" y1="4.37114e-08" x2="242.809" y2="911" stroke="#474747" stroke-width="2"/>
<line x1="294.357" y1="4.37114e-08" x2="294.357" y2="911" stroke="#474747" stroke-width="2"/>
<line x1="345.905" y1="4.37114e-08" x2="345.905" y2="911" stroke="#474747" stroke-width="2"/>
<line x1="397.454" y1="4.37114e-08" x2="397.454" y2="911" stroke="#474747" stroke-width="2"/>
<line x1="449.002" y1="4.37114e-08" x2="449.002" y2="911" stroke="#474747" stroke-width="2"/>
<line x1="500.551" y1="4.37114e-08" x2="500.551" y2="911" stroke="#474747" stroke-width="2"/>
<line x1="552.099" y1="4.37114e-08" x2="552.099" y2="911" stroke="#474747" stroke-width="2"/>
<line x1="603.647" y1="4.37114e-08" x2="603.647" y2="911" stroke="#474747" stroke-width="2"/>
<line x1="655.195" y1="4.37114e-08" x2="655.195" y2="911" stroke="#474747" stroke-width="2"/>
<line x1="706.744" y1="4.37114e-08" x2="706.744" y2="911" stroke="#474747" stroke-width="2"/>
<line x1="758.292" y1="4.37114e-08" x2="758.292" y2="911" stroke="#474747" stroke-width="2"/>
<line x1="861.389" y1="4.37114e-08" x2="861.389" y2="911" stroke="#474747" stroke-width="2"/>
<line x1="809.841" y1="4.37114e-08" x2="809.841" y2="911" stroke="#474747" stroke-width="2"/>
<line x1="912.938" y1="4.37114e-08" x2="912.937" y2="911" stroke="#474747" stroke-width="2"/>
<line x1="4.37114e-08" y1="820.025" x2="938.18" y2="820.025" stroke="#474747" stroke-width="2"/>
<line x1="4.37114e-08" y1="871.573" x2="938.18" y2="871.573" stroke="#474747" stroke-width="2"/>
<line x1="4.37114e-08" y1="768.476" x2="938.18" y2="768.477" stroke="#474747" stroke-width="2"/>
<line x1="4.37114e-08" y1="716.928" x2="938.18" y2="716.928" stroke="#474747" stroke-width="2"/>
<line x1="4.37114e-08" y1="665.38" x2="938.18" y2="665.38" stroke="#474747" stroke-width="2"/>
<line x1="4.37114e-08" y1="613.832" x2="938.18" y2="613.832" stroke="#474747" stroke-width="2"/>
<line x1="4.37114e-08" y1="562.283" x2="938.18" y2="562.283" stroke="#474747" stroke-width="2"/>
<line x1="4.37114e-08" y1="510.735" x2="938.18" y2="510.735" stroke="#474747" stroke-width="2"/>
<line x1="4.37114e-08" y1="459.186" x2="938.18" y2="459.186" stroke="#474747" stroke-width="2"/>
<line x1="4.37114e-08" y1="407.638" x2="938.18" y2="407.638" stroke="#474747" stroke-width="2"/>
<line x1="4.37114e-08" y1="356.089" x2="938.18" y2="356.09" stroke="#474747" stroke-width="2"/>
<line x1="4.37114e-08" y1="304.541" x2="938.18" y2="304.541" stroke="#474747" stroke-width="2"/>
<line x1="4.37114e-08" y1="252.993" x2="938.18" y2="252.993" stroke="#474747" stroke-width="2"/>
<line x1="4.37114e-08" y1="201.444" x2="938.18" y2="201.444" stroke="#474747" stroke-width="2"/>
<line x1="4.37114e-08" y1="149.896" x2="938.18" y2="149.896" stroke="#474747" stroke-width="2"/>
<line x1="4.37114e-08" y1="98.3476" x2="938.18" y2="98.3476" stroke="#474747" stroke-width="2"/>
<line x1="4.37114e-08" y1="46.7993" x2="938.18" y2="46.7993" stroke="#474747" stroke-width="2"/>
</svg>
