<svg width="46" height="32" viewBox="0 0 46 32" fill="none" xmlns="http://www.w3.org/2000/svg">
<path d="M1 16C1 24.5282 6.36451 31 12.5 31C18.6355 31 24 24.5282 24 16C24 7.47183 18.6355 1 12.5 1C6.36451 1 1 7.47183 1 16Z" fill="#E189FF" stroke="#474747" stroke-width="2"/>
<path d="M22 16C22 24.5282 27.3645 31 33.5 31C39.6355 31 45 24.5282 45 16C45 7.47183 39.6355 1 33.5 1C27.3645 1 22 7.47183 22 16Z" fill="#E189FF" stroke="#474747" stroke-width="2"/>
<path d="M24.5 23C24.5 26.7089 26.8442 29.5 29.5 29.5C32.1558 29.5 34.5 26.7089 34.5 23C34.5 19.2911 32.1558 16.5 29.5 16.5C26.8442 16.5 24.5 19.2911 24.5 23Z" fill="#474747" stroke="#474747"/>
<path d="M3.5 23C3.5 26.7089 5.84419 29.5 8.5 29.5C11.1558 29.5 13.5 26.7089 13.5 23C13.5 19.2911 11.1558 16.5 8.5 16.5C5.84419 16.5 3.5 19.2911 3.5 23Z" fill="#474747" stroke="#474747"/>
</svg>
