<svg width="1497" height="972" viewBox="0 0 1497 972" fill="none" xmlns="http://www.w3.org/2000/svg">
<line x1="38.5" y1="2.18557e-08" x2="38.5" y2="972" stroke="#888888" stroke-opacity="0.35"/>
<line x1="93.5" y1="2.18557e-08" x2="93.5" y2="972" stroke="#888888" stroke-opacity="0.35"/>
<line x1="148.5" y1="2.18557e-08" x2="148.5" y2="972" stroke="#888888" stroke-opacity="0.35"/>
<line x1="203.5" y1="2.18557e-08" x2="203.5" y2="972" stroke="#888888" stroke-opacity="0.35"/>
<line x1="258.5" y1="2.18557e-08" x2="258.5" y2="972" stroke="#888888" stroke-opacity="0.35"/>
<line x1="313.5" y1="2.18557e-08" x2="313.5" y2="972" stroke="#888888" stroke-opacity="0.35"/>
<line x1="368.5" y1="2.18557e-08" x2="368.5" y2="972" stroke="#888888" stroke-opacity="0.35"/>
<line x1="423.5" y1="2.18557e-08" x2="423.5" y2="972" stroke="#888888" stroke-opacity="0.35"/>
<line x1="478.5" y1="2.18557e-08" x2="478.5" y2="972" stroke="#888888" stroke-opacity="0.35"/>
<line x1="533.5" y1="2.18557e-08" x2="533.5" y2="972" stroke="#888888" stroke-opacity="0.35"/>
<line x1="588.5" y1="2.18557e-08" x2="588.5" y2="972" stroke="#888888" stroke-opacity="0.35"/>
<line x1="643.5" y1="2.18557e-08" x2="643.5" y2="972" stroke="#888888" stroke-opacity="0.35"/>
<line x1="698.5" y1="2.18557e-08" x2="698.5" y2="972" stroke="#888888" stroke-opacity="0.35"/>
<line x1="753.5" y1="2.18557e-08" x2="753.5" y2="972" stroke="#888888" stroke-opacity="0.35"/>
<line x1="808.5" y1="2.18557e-08" x2="808.5" y2="972" stroke="#888888" stroke-opacity="0.35"/>
<line x1="918.5" y1="2.18557e-08" x2="918.5" y2="972" stroke="#888888" stroke-opacity="0.35"/>
<line x1="863.5" y1="2.18557e-08" x2="863.5" y2="972" stroke="#888888" stroke-opacity="0.35"/>
<line x1="973.5" y1="2.18557e-08" x2="973.5" y2="972" stroke="#888888" stroke-opacity="0.35"/>
<line x1="1028.5" y1="2.18557e-08" x2="1028.5" y2="972" stroke="#888888" stroke-opacity="0.35"/>
<line x1="1083.5" y1="2.18557e-08" x2="1083.5" y2="972" stroke="#888888" stroke-opacity="0.35"/>
<line x1="1138.5" y1="2.18557e-08" x2="1138.5" y2="972" stroke="#888888" stroke-opacity="0.35"/>
<line x1="1193.5" y1="2.18557e-08" x2="1193.5" y2="972" stroke="#888888" stroke-opacity="0.35"/>
<line x1="1248.5" y1="2.18557e-08" x2="1248.5" y2="972" stroke="#888888" stroke-opacity="0.35"/>
<line x1="1303.5" y1="2.18557e-08" x2="1303.5" y2="972" stroke="#888888" stroke-opacity="0.35"/>
<line x1="1358.5" y1="2.18557e-08" x2="1358.5" y2="972" stroke="#888888" stroke-opacity="0.35"/>
<line x1="1413.5" y1="2.18557e-08" x2="1413.5" y2="972" stroke="#888888" stroke-opacity="0.35"/>
<line x1="1468.5" y1="2.18557e-08" x2="1468.5" y2="972" stroke="#888888" stroke-opacity="0.35"/>
<line x1="2.18557e-08" y1="875.5" x2="1497" y2="875.5" stroke="#888888" stroke-opacity="0.2"/>
<line x1="2.18557e-08" y1="930.5" x2="1497" y2="930.5" stroke="#888888" stroke-opacity="0.2"/>
<line x1="2.18557e-08" y1="820.5" x2="1497" y2="820.5" stroke="#888888" stroke-opacity="0.2"/>
<line x1="2.18557e-08" y1="765.5" x2="1497" y2="765.5" stroke="#888888" stroke-opacity="0.2"/>
<line x1="2.18557e-08" y1="710.5" x2="1497" y2="710.5" stroke="#888888" stroke-opacity="0.2"/>
<line x1="2.18557e-08" y1="655.5" x2="1497" y2="655.5" stroke="#888888" stroke-opacity="0.2"/>
<line x1="2.18557e-08" y1="600.5" x2="1497" y2="600.5" stroke="#888888" stroke-opacity="0.2"/>
<line x1="2.18557e-08" y1="545.5" x2="1497" y2="545.5" stroke="#888888" stroke-opacity="0.2"/>
<line x1="2.18557e-08" y1="490.5" x2="1497" y2="490.5" stroke="#888888" stroke-opacity="0.2"/>
<line x1="2.18557e-08" y1="435.5" x2="1497" y2="435.5" stroke="#888888" stroke-opacity="0.2"/>
<line x1="2.18557e-08" y1="380.5" x2="1497" y2="380.5" stroke="#888888" stroke-opacity="0.2"/>
<line x1="2.18557e-08" y1="325.5" x2="1497" y2="325.5" stroke="#888888" stroke-opacity="0.2"/>
<line x1="2.18557e-08" y1="270.5" x2="1497" y2="270.5" stroke="#888888" stroke-opacity="0.2"/>
<line x1="2.18557e-08" y1="215.5" x2="1497" y2="215.5" stroke="#888888" stroke-opacity="0.2"/>
<line x1="2.18557e-08" y1="160.5" x2="1497" y2="160.5" stroke="#888888" stroke-opacity="0.2"/>
<line x1="2.18557e-08" y1="105.5" x2="1497" y2="105.5" stroke="#888888" stroke-opacity="0.2"/>
<line x1="2.18557e-08" y1="50.4999" x2="1497" y2="50.4999" stroke="#888888" stroke-opacity="0.2"/>
</svg>
