<svg width="350" height="88" viewBox="0 0 350 88" fill="none" xmlns="http://www.w3.org/2000/svg">
<mask id="path-1-inside-1_652_497" fill="white">
<path fill-rule="evenodd" clip-rule="evenodd" d="M263 0H293V21.554C290 23.4024 288 26.7176 288 30.5C288 36.299 292.701 41 298.5 41C304.299 41 309 36.299 309 30.5C309 26.7176 307 23.4024 304 21.554V0H325C338.807 0 350 11.1929 350 25V88H0V25C0 11.1929 11.1929 0 25 0H47V21.554C43.9999 23.4024 42 26.7176 42 30.5C42 36.299 46.701 41 52.5 41C58.299 41 63 36.299 63 30.5C63 26.7176 61.0001 23.4024 58 21.554V0H88V21.554C84.9999 23.4024 83 26.7176 83 30.5C83 36.299 87.701 41 93.5 41C99.299 41 104 36.299 104 30.5C104 26.7176 102 23.4024 99 21.554V0H129V21.554C126 23.4024 124 26.7176 124 30.5C124 36.299 128.701 41 134.5 41C140.299 41 145 36.299 145 30.5C145 26.7176 143 23.4024 140 21.554V0H170V21.554C167 23.4024 165 26.7176 165 30.5C165 36.299 169.701 41 175.5 41C181.299 41 186 36.299 186 30.5C186 26.7176 184 23.4024 181 21.554V0H211V21.554C208 23.4024 206 26.7176 206 30.5C206 36.299 210.701 41 216.5 41C222.299 41 227 36.299 227 30.5C227 26.7176 225 23.4024 222 21.554V0H252V21.554C249 23.4024 247 26.7176 247 30.5C247 36.299 251.701 41 257.5 41C263.299 41 268 36.299 268 30.5C268 26.7176 266 23.4024 263 21.554V0Z"/>
</mask>
<path fill-rule="evenodd" clip-rule="evenodd" d="M263 0H293V21.554C290 23.4024 288 26.7176 288 30.5C288 36.299 292.701 41 298.5 41C304.299 41 309 36.299 309 30.5C309 26.7176 307 23.4024 304 21.554V0H325C338.807 0 350 11.1929 350 25V88H0V25C0 11.1929 11.1929 0 25 0H47V21.554C43.9999 23.4024 42 26.7176 42 30.5C42 36.299 46.701 41 52.5 41C58.299 41 63 36.299 63 30.5C63 26.7176 61.0001 23.4024 58 21.554V0H88V21.554C84.9999 23.4024 83 26.7176 83 30.5C83 36.299 87.701 41 93.5 41C99.299 41 104 36.299 104 30.5C104 26.7176 102 23.4024 99 21.554V0H129V21.554C126 23.4024 124 26.7176 124 30.5C124 36.299 128.701 41 134.5 41C140.299 41 145 36.299 145 30.5C145 26.7176 143 23.4024 140 21.554V0H170V21.554C167 23.4024 165 26.7176 165 30.5C165 36.299 169.701 41 175.5 41C181.299 41 186 36.299 186 30.5C186 26.7176 184 23.4024 181 21.554V0H211V21.554C208 23.4024 206 26.7176 206 30.5C206 36.299 210.701 41 216.5 41C222.299 41 227 36.299 227 30.5C227 26.7176 225 23.4024 222 21.554V0H252V21.554C249 23.4024 247 26.7176 247 30.5C247 36.299 251.701 41 257.5 41C263.299 41 268 36.299 268 30.5C268 26.7176 266 23.4024 263 21.554V0Z" fill="#FFA500"/>
<path d="M293 0H296V-3H293V0ZM263 0V-3H260V0H263ZM293 21.554L294.574 24.1081L296 23.2293V21.554H293ZM304 21.554H301V23.2293L302.426 24.1081L304 21.554ZM304 0V-3H301V0H304ZM350 88V91H353V88H350ZM0 88H-3V91H0V88ZM47 0H50V-3H47V0ZM47 21.554L48.5736 24.1081L50 23.2293V21.554H47ZM58 21.554H55V23.2293L56.4264 24.1081L58 21.554ZM58 0V-3H55V0H58ZM88 0H91V-3H88V0ZM88 21.554L89.5736 24.1081L91 23.2293V21.554H88ZM99 21.554H96V23.2293L97.4264 24.1081L99 21.554ZM99 0V-3H96V0H99ZM129 0H132V-3H129V0ZM129 21.554L130.574 24.1081L132 23.2293V21.554H129ZM140 21.554H137V23.2293L138.426 24.1081L140 21.554ZM140 0V-3H137V0H140ZM170 0H173V-3H170V0ZM170 21.554L171.574 24.1081L173 23.2293V21.554H170ZM181 21.554H178V23.2293L179.426 24.1081L181 21.554ZM181 0V-3H178V0H181ZM211 0H214V-3H211V0ZM211 21.554L212.574 24.1081L214 23.2293V21.554H211ZM222 21.554H219V23.2293L220.426 24.1081L222 21.554ZM222 0V-3H219V0H222ZM252 0H255V-3H252V0ZM252 21.554L253.574 24.1081L255 23.2293V21.554H252ZM263 21.554H260V23.2293L261.426 24.1081L263 21.554ZM293 -3H263V3H293V-3ZM296 21.554V0H290V21.554H296ZM291 30.5C291 27.8017 292.423 25.4332 294.574 24.1081L291.426 18.9999C287.577 21.3715 285 25.6335 285 30.5H291ZM298.5 38C294.358 38 291 34.6421 291 30.5H285C285 37.9558 291.044 44 298.5 44V38ZM306 30.5C306 34.6421 302.642 38 298.5 38V44C305.956 44 312 37.9558 312 30.5H306ZM302.426 24.1081C304.577 25.4332 306 27.8017 306 30.5H312C312 25.6335 309.423 21.3715 305.574 18.9999L302.426 24.1081ZM301 0V21.554H307V0H301ZM325 -3H304V3H325V-3ZM353 25C353 9.53603 340.464 -3 325 -3V3C337.15 3 347 12.8497 347 25H353ZM353 88V25H347V88H353ZM0 91H350V85H0V91ZM-3 25V88H3V25H-3ZM25 -3C9.53603 -3 -3 9.53603 -3 25H3C3 12.8497 12.8497 3 25 3V-3ZM47 -3H25V3H47V-3ZM50 21.554V0H44V21.554H50ZM45 30.5C45 27.8017 46.4229 25.4332 48.5736 24.1081L45.4264 18.9998C41.5769 21.3715 39 25.6335 39 30.5H45ZM52.5 38C48.3579 38 45 34.6421 45 30.5H39C39 37.9558 45.0442 44 52.5 44V38ZM60 30.5C60 34.6421 56.6421 38 52.5 38V44C59.9558 44 66 37.9558 66 30.5H60ZM56.4264 24.1081C58.5771 25.4332 60 27.8017 60 30.5H66C66 25.6335 63.4231 21.3715 59.5736 18.9998L56.4264 24.1081ZM55 0V21.554H61V0H55ZM88 -3H58V3H88V-3ZM91 21.554V0H85V21.554H91ZM86 30.5C86 27.8017 87.4229 25.4332 89.5736 24.1081L86.4264 18.9998C82.5769 21.3715 80 25.6335 80 30.5H86ZM93.5 38C89.3579 38 86 34.6421 86 30.5H80C80 37.9558 86.0442 44 93.5 44V38ZM101 30.5C101 34.6421 97.6421 38 93.5 38V44C100.956 44 107 37.9558 107 30.5H101ZM97.4264 24.1081C99.5771 25.4332 101 27.8017 101 30.5H107C107 25.6335 104.423 21.3715 100.574 18.9998L97.4264 24.1081ZM96 0V21.554H102V0H96ZM129 -3H99V3H129V-3ZM132 21.554V0H126V21.554H132ZM127 30.5C127 27.8017 128.423 25.4332 130.574 24.1081L127.426 18.9998C123.577 21.3715 121 25.6335 121 30.5H127ZM134.5 38C130.358 38 127 34.6421 127 30.5H121C121 37.9558 127.044 44 134.5 44V38ZM142 30.5C142 34.6421 138.642 38 134.5 38V44C141.956 44 148 37.9558 148 30.5H142ZM138.426 24.1081C140.577 25.4332 142 27.8017 142 30.5H148C148 25.6335 145.423 21.3715 141.574 18.9998L138.426 24.1081ZM137 0V21.554H143V0H137ZM170 -3H140V3H170V-3ZM173 21.554V0H167V21.554H173ZM168 30.5C168 27.8017 169.423 25.4332 171.574 24.1081L168.426 18.9998C164.577 21.3715 162 25.6335 162 30.5H168ZM175.5 38C171.358 38 168 34.6421 168 30.5H162C162 37.9558 168.044 44 175.5 44V38ZM183 30.5C183 34.6421 179.642 38 175.5 38V44C182.956 44 189 37.9558 189 30.5H183ZM179.426 24.1081C181.577 25.4332 183 27.8017 183 30.5H189C189 25.6335 186.423 21.3715 182.574 18.9998L179.426 24.1081ZM178 0V21.554H184V0H178ZM211 -3H181V3H211V-3ZM214 21.554V0H208V21.554H214ZM209 30.5C209 27.8017 210.423 25.4332 212.574 24.1081L209.426 18.9998C205.577 21.3715 203 25.6335 203 30.5H209ZM216.5 38C212.358 38 209 34.6421 209 30.5H203C203 37.9558 209.044 44 216.5 44V38ZM224 30.5C224 34.6421 220.642 38 216.5 38V44C223.956 44 230 37.9558 230 30.5H224ZM220.426 24.1081C222.577 25.4332 224 27.8017 224 30.5H230C230 25.6335 227.423 21.3715 223.574 18.9998L220.426 24.1081ZM219 0V21.554H225V0H219ZM252 -3H222V3H252V-3ZM255 21.554V0H249V21.554H255ZM250 30.5C250 27.8017 251.423 25.4332 253.574 24.1081L250.426 18.9998C246.577 21.3715 244 25.6335 244 30.5H250ZM257.5 38C253.358 38 250 34.6421 250 30.5H244C244 37.9558 250.044 44 257.5 44V38ZM265 30.5C265 34.6421 261.642 38 257.5 38V44C264.956 44 271 37.9558 271 30.5H265ZM261.426 24.1081C263.577 25.4332 265 27.8017 265 30.5H271C271 25.6335 268.423 21.3715 264.574 18.9999L261.426 24.1081ZM260 0V21.554H266V0H260Z" fill="#474747" mask="url(#path-1-inside-1_652_497)"/>
</svg>
