<svg width="54" height="54" viewBox="0 0 54 54" fill="none" xmlns="http://www.w3.org/2000/svg">
<g clip-path="url(#clip0_1312_2074)">
<path d="M41.5547 14.8911C40.7405 14.8911 40.0781 15.5497 40.0781 16.3592V20.5729C40.0781 20.8058 40.2671 20.9948 40.5 20.9948C40.7329 20.9948 40.9219 20.8058 40.9219 20.5729V16.3592C40.9219 16.015 41.2058 15.7349 41.5547 15.7349C41.9036 15.7349 42.1875 16.015 42.1875 16.3592V22.6823C42.1875 22.9152 42.3765 23.1042 42.6094 23.1042C42.8423 23.1042 43.0312 22.9152 43.0312 22.6823V16.3592C43.0312 15.5501 42.3689 14.8911 41.5547 14.8911Z" fill="#474747"/>
<path d="M47.4609 14.8911C46.6467 14.8911 45.9844 15.5497 45.9844 16.3592V30.7194C45.9844 31.5286 46.6467 32.1876 47.4609 32.1876C48.2752 32.1876 48.9375 31.529 48.9375 30.7194V16.3592C48.9375 15.5501 48.2752 14.8911 47.4609 14.8911ZM48.0938 30.719C48.0938 31.0633 47.8098 31.3434 47.4609 31.3434C47.112 31.3434 46.8281 31.0633 46.8281 30.719V16.3588C46.8281 16.0146 47.112 15.7344 47.4609 15.7344C47.8098 15.7344 48.0938 16.0146 48.0938 16.3592V30.719Z" fill="#474747"/>
<path d="M35.6484 14.8911C34.8342 14.8911 34.1719 15.5497 34.1719 16.3592V18.4636C34.1719 18.6964 34.3609 18.8854 34.5938 18.8854C34.8266 18.8854 35.0156 18.6964 35.0156 18.4636V16.3592C35.0156 16.015 35.2995 15.7349 35.6484 15.7349C35.9973 15.7349 36.2812 16.015 36.2812 16.3592V18.8854C36.2812 19.1183 36.4702 19.3073 36.7031 19.3073C36.936 19.3073 37.125 19.1183 37.125 18.8854V16.3592C37.125 15.5501 36.4627 14.8911 35.6484 14.8911Z" fill="#474747"/>
<path d="M29.7422 14.8911C28.928 14.8911 28.2656 15.5497 28.2656 16.3592V19.7292C28.2656 19.962 28.4546 20.151 28.6875 20.151C28.9204 20.151 29.1094 19.962 29.1094 19.7292V16.3592C29.1094 16.015 29.3933 15.7349 29.7422 15.7349C30.0911 15.7349 30.375 16.015 30.375 16.3592V18.8854C30.375 19.1183 30.564 19.3073 30.7969 19.3073C31.0298 19.3073 31.2188 19.1183 31.2188 18.8854V16.3592C31.2188 15.5501 30.5564 14.8911 29.7422 14.8911Z" fill="#474747"/>
<path d="M23.8359 14.8911C23.0217 14.8911 22.3594 15.5497 22.3594 16.3592V25.6354C22.3594 25.8683 22.5484 26.0573 22.7812 26.0573C23.0141 26.0573 23.2031 25.8683 23.2031 25.6354V16.3592C23.2031 16.015 23.487 15.7349 23.8359 15.7349C24.1848 15.7349 24.4688 16.015 24.4688 16.3592V22.2604C24.4688 22.4933 24.6577 22.6823 24.8906 22.6823C25.1235 22.6823 25.3125 22.4933 25.3125 22.2604V16.3592C25.3125 15.5501 24.6502 14.8911 23.8359 14.8911Z" fill="#474747"/>
<path d="M17.9297 14.8911C17.1155 14.8911 16.4531 15.5497 16.4531 16.3592V21.0163C16.4531 21.8255 17.1155 22.4844 17.9297 22.4844C18.7439 22.4844 19.4062 21.8259 19.4062 21.0163V16.3592C19.4062 15.5501 18.7439 14.8911 17.9297 14.8911ZM18.5625 21.0159C18.5625 21.3601 18.2786 21.6403 17.9297 21.6403C17.5808 21.6403 17.2969 21.3601 17.2969 21.0159V16.3588C17.2969 16.0146 17.5808 15.7344 17.9297 15.7344C18.2786 15.7344 18.5625 16.0146 18.5625 16.3592V21.0159Z" fill="#474747"/>
<path d="M11.8159 10.0786L9.63942 5.17811C8.67924 3.04638 7.07273 2.01025 4.7288 2.01025H0.421875C0.189 2.01025 0 2.19925 0 2.43213V4.5415C0 4.77438 0.189 4.96338 0.421875 4.96338H4.66678C6.03197 4.96338 6.24375 5.40339 6.66014 6.26655L8.50458 10.4688C8.57419 10.6271 8.72859 10.7216 8.89102 10.7216C8.94755 10.7216 9.00492 10.7102 9.06019 10.6853C9.27366 10.592 9.37069 10.3431 9.27703 10.1297L7.42627 5.91386C6.98161 4.99122 6.56227 4.11963 4.66678 4.11963H0.84375V2.854H4.7288C6.73313 2.854 8.04938 3.70282 8.8695 5.52279L11.0447 10.4212C11.1392 10.6338 11.3889 10.7296 11.6016 10.6355C11.8146 10.541 11.9104 10.2917 11.8159 10.0786Z" fill="#474747"/>
<path d="M52.7344 12.1353C52.5015 12.1353 52.3125 12.3243 52.3125 12.5571V33.0311C52.3125 33.7078 51.7594 34.4946 51.0469 34.4946H44.7188C44.4859 34.4946 44.2969 34.6836 44.2969 34.9165C44.2969 35.1494 44.4859 35.3384 44.7188 35.3384H51.0469C52.2543 35.3384 53.1562 34.1204 53.1562 33.0311V12.5571C53.1562 12.3243 52.9672 12.1353 52.7344 12.1353Z" fill="#474747"/>
<path d="M22.3593 34.495H21.1958C20.4554 34.495 19.5332 33.8672 19.2223 33.1522L10.3789 12.7338C10.2865 12.52 10.0376 12.4217 9.82417 12.5145C9.61028 12.6069 9.51199 12.8553 9.6048 13.0692L18.4481 33.488C18.892 34.5085 20.1243 35.3387 21.1958 35.3387H22.3593C22.5922 35.3387 22.7812 35.1497 22.7812 34.9169C22.7812 34.684 22.5922 34.495 22.3593 34.495Z" fill="#474747"/>
<path d="M18.1406 41.9175C15.3634 41.9175 13.1042 44.1762 13.1042 46.9534C13.1042 49.7306 15.3634 51.9897 18.1406 51.9897C20.9178 51.9897 23.1769 49.731 23.1769 46.9538C23.1769 44.1766 20.9178 41.9175 18.1406 41.9175ZM18.1406 51.1464C15.8287 51.1464 13.948 49.2657 13.948 46.9538C13.948 44.642 15.8291 42.7612 18.1406 42.7612C20.452 42.7612 22.3332 44.642 22.3332 46.9538C22.3332 49.2657 20.4525 51.1464 18.1406 51.1464Z" fill="#474747"/>
<path d="M11.3906 10.0259H9.28125C9.04838 10.0259 8.85938 10.2149 8.85938 10.4478C8.85938 10.6806 9.04838 10.8696 9.28125 10.8696H11.3906C11.6235 10.8696 11.8125 10.6806 11.8125 10.4478C11.8125 10.2149 11.6235 10.0259 11.3906 10.0259Z" fill="#474747"/>
<path d="M20.6397 46.5314C20.4069 46.5314 20.2179 46.7204 20.2179 46.9533C20.2179 48.0987 19.2859 49.0306 18.1405 49.0306C16.9952 49.0306 16.0632 48.0987 16.0632 46.9533C16.0632 45.8079 16.9952 44.876 18.1405 44.876C18.3734 44.876 18.5624 44.687 18.5624 44.4541C18.5624 44.2212 18.3734 44.0322 18.1405 44.0322C16.5298 44.0322 15.2195 45.3426 15.2195 46.9533C15.2195 48.564 16.5298 49.8744 18.1405 49.8744C19.7513 49.8744 21.0616 48.564 21.0616 46.9533C21.0616 46.7204 20.8726 46.5314 20.6397 46.5314Z" fill="#474747"/>
<path d="M48.9636 41.917C46.1864 41.917 43.9272 44.1761 43.9272 46.9533C43.9272 49.7305 46.1864 51.9897 48.9636 51.9897C51.7408 51.9897 53.9999 49.7301 53.9999 46.9533C53.9999 44.1766 51.7408 41.917 48.9636 41.917ZM48.9636 51.1464C46.6517 51.1464 44.771 49.2656 44.771 46.9538C44.771 44.6419 46.6521 42.7612 48.9636 42.7612C51.2755 42.7612 53.1562 44.6419 53.1562 46.9538C53.1562 49.2656 51.2755 51.1464 48.9636 51.1464Z" fill="#474747"/>
<path d="M51.4627 46.5314C51.2299 46.5314 51.0409 46.7204 51.0409 46.9533C51.0409 48.0987 50.1089 49.0306 48.9635 49.0306C47.8182 49.0306 46.8862 48.0987 46.8862 46.9533C46.8862 45.8079 47.8182 44.876 48.9635 44.876C49.1964 44.876 49.3854 44.687 49.3854 44.4541C49.3854 44.2212 49.1964 44.0322 48.9635 44.0322C47.3528 44.0322 46.0425 45.3426 46.0425 46.9533C46.0425 48.564 47.3528 49.8744 48.9635 49.8744C50.5743 49.8744 51.8846 48.564 51.8846 46.9533C51.8846 46.7204 51.6956 46.5314 51.4627 46.5314Z" fill="#474747"/>
<path d="M44.2969 47.5728H22.7812C22.5484 47.5728 22.3594 47.7618 22.3594 47.9946C22.3594 48.2275 22.5484 48.4165 22.7812 48.4165H44.2969C44.5298 48.4165 44.7188 48.2275 44.7188 47.9946C44.7188 47.7618 44.5298 47.5728 44.2969 47.5728Z" fill="#474747"/>
<path d="M44.2969 45.4634H22.7812C22.5484 45.4634 22.3594 45.6524 22.3594 45.8853C22.3594 46.1181 22.5484 46.3071 22.7812 46.3071H44.2969C44.5298 46.3071 44.7188 46.1181 44.7188 45.8853C44.7188 45.6524 44.5298 45.4634 44.2969 45.4634Z" fill="#474747"/>
<path d="M22.4788 34.3309C22.264 34.2377 22.0164 34.3372 21.9244 34.5515L18.6836 42.0812C18.5916 42.2951 18.6903 42.5435 18.9042 42.6355C18.9586 42.6591 19.0152 42.6701 19.0709 42.6701C19.2341 42.6701 19.3898 42.5748 19.4586 42.4149L22.6994 34.8852C22.7914 34.6714 22.6927 34.4229 22.4788 34.3309Z" fill="#474747"/>
<path d="M23.8233 36.5438C23.6086 36.4506 23.361 36.5501 23.269 36.7644L20.6011 42.963C20.5091 43.1769 20.6078 43.4254 20.8217 43.5174C20.8761 43.541 20.9327 43.552 20.9883 43.552C21.1516 43.552 21.3073 43.4566 21.376 43.2968L24.044 37.0981C24.136 36.8843 24.0372 36.6358 23.8233 36.5438Z" fill="#474747"/>
<path d="M52.7344 10.0259H8.85938C8.16159 10.0259 7.59375 10.5937 7.59375 11.2915V11.7134C7.59375 12.4112 8.16159 12.979 8.85938 12.979H52.7344C53.4322 12.979 54 12.4112 54 11.7134V11.2915C54 10.5937 53.4322 10.0259 52.7344 10.0259ZM53.1562 11.7134C53.1562 11.9458 52.9668 12.1353 52.7344 12.1353H8.85938C8.62692 12.1353 8.4375 11.9458 8.4375 11.7134V11.2915C8.4375 11.0591 8.62692 10.8696 8.85938 10.8696H52.7344C52.9668 10.8696 53.1562 11.0591 53.1562 11.2915V11.7134Z" fill="#474747"/>
<path d="M39.5301 27.4814C39.0517 27.003 38.2189 27.003 37.7405 27.4814L32.7084 32.5131L30.1261 29.9308C29.6477 29.4524 28.8149 29.4524 28.3365 29.9308C27.8429 30.4239 27.8429 31.2272 28.3365 31.7204L31.8136 35.1975C32.0524 35.4367 32.3705 35.5683 32.7084 35.5683C33.0467 35.5683 33.3644 35.4367 33.6032 35.1975L39.5301 29.2714C39.7693 29.0322 39.9009 28.7145 39.9009 28.3762C39.9009 28.0378 39.7689 27.7201 39.5301 27.4814ZM38.9336 28.6744L33.0067 34.6009C32.8472 34.7604 32.5696 34.7604 32.4101 34.6009L28.933 31.1238C28.7685 30.9593 28.7685 30.6918 28.933 30.5273C29.0128 30.4476 29.1187 30.4037 29.2313 30.4037C29.3439 30.4037 29.4498 30.4476 29.5296 30.5273L32.4101 33.4079C32.5751 33.5728 32.8417 33.5728 33.0067 33.4079L38.3371 28.0779C38.4965 27.9184 38.7741 27.918 38.934 28.0779C39.0133 28.1576 39.0572 28.2635 39.0572 28.3762C39.0572 28.4888 39.0133 28.5947 38.9336 28.6744Z" fill="#474747"/>
<path d="M33.5563 18.2715C26.8194 18.2715 21.3384 23.7525 21.3384 30.4894C21.3384 37.2267 26.8194 42.7082 33.5563 42.7082C40.2932 42.7082 45.7742 37.2267 45.7742 30.4894C45.7742 23.7525 40.2932 18.2715 33.5563 18.2715ZM33.5563 41.8644C27.2847 41.8644 22.1821 36.7614 22.1821 30.4894C22.1821 24.2178 27.2847 19.1152 33.5563 19.1152C39.8279 19.1152 44.9305 24.2178 44.9305 30.4894C44.9305 36.7614 39.8279 41.8644 33.5563 41.8644Z" fill="#474747"/>
<path d="M41.7804 23.8613C41.6336 23.6799 41.3674 23.652 41.1868 23.7988C41.0059 23.9456 40.978 24.2114 41.1244 24.3924C42.5149 26.1099 43.2806 28.2753 43.2806 30.4898C43.2806 35.8366 38.9302 40.1866 33.5834 40.1866C28.2365 40.1866 23.8862 35.8366 23.8862 30.4898C23.8862 25.1429 28.2361 20.793 33.5834 20.793C35.4852 20.793 37.3271 21.3435 38.9091 22.3851C39.104 22.5134 39.3656 22.459 39.4934 22.2645C39.6213 22.07 39.5673 21.8084 39.3728 21.6802C37.6524 20.5479 35.6501 19.9492 33.583 19.9492C27.7708 19.9492 23.042 24.6776 23.042 30.4898C23.042 36.3019 27.7708 41.0303 33.583 41.0303C39.3951 41.0303 44.1239 36.3019 44.1248 30.4893C44.1248 28.0821 43.292 25.7285 41.7804 23.8613Z" fill="#474747"/>
</g>
<defs>
<clipPath id="clip0_1312_2074">
<rect width="54" height="54" fill="white"/>
</clipPath>
</defs>
</svg>
