<svg width="58" height="58" viewBox="0 0 58 58" fill="none" xmlns="http://www.w3.org/2000/svg">
<g clip-path="url(#clip0_1312_2141)">
<path d="M16.1114 44.1927H7.29766C5.81168 44.1927 4.60281 42.9894 4.60281 41.5098V10.1273C4.60281 9.87323 4.39658 9.66699 4.14247 9.66699C3.88836 9.66699 3.68213 9.87323 3.68213 10.1273V41.5098C3.68213 43.4967 5.30392 45.1134 7.29766 45.1134H16.1114C16.3655 45.1134 16.5717 44.9072 16.5717 44.6531C16.5717 44.399 16.3655 44.1927 16.1114 44.1927Z" fill="#474747"/>
<path d="M52.0181 29.9224C51.764 29.9224 51.5577 30.1286 51.5577 30.3827V41.5101C51.5577 42.9643 50.2646 44.193 48.7344 44.193H41.8905C41.6364 44.193 41.4302 44.3992 41.4302 44.6533C41.4302 44.9074 41.6364 45.1137 41.8905 45.1137H48.7344C50.7636 45.1137 52.4784 43.4634 52.4784 41.5101V30.3827C52.4784 30.1286 52.2722 29.9224 52.0181 29.9224Z" fill="#474747"/>
<path d="M48.7348 6.90494H7.29752C5.81015 6.90494 4.60037 5.68687 4.60037 4.18984C4.60037 3.93573 4.39414 3.72949 4.14003 3.72949C3.88592 3.72949 3.67969 3.93573 3.67969 4.18984C3.67969 6.19463 5.30286 7.82562 7.29752 7.82562H48.7344C50.2646 7.82562 51.5577 9.04507 51.5577 10.4882V21.1756C51.5577 21.4297 51.7639 21.6359 52.018 21.6359C52.2721 21.6359 52.4783 21.4297 52.4788 21.1756V10.4882C52.4788 8.54606 50.764 6.90494 48.7348 6.90494Z" fill="#474747"/>
<path d="M48.7335 5.06762H48.4937C48.4937 5.04874 48.4923 5.02941 48.49 5.01007C48.2663 3.23545 46.6403 1.84521 44.7879 1.84521L7.60093 1.85626C6.46204 1.85626 5.53491 2.78293 5.53491 3.92274C5.53491 5.06255 6.46158 5.98968 7.60047 5.98968L48.7335 5.98784C50.2379 5.98784 51.5577 7.24872 51.5577 8.68683V18.8742C51.5577 19.1283 51.7639 19.3346 52.018 19.3346C52.2722 19.3346 52.4784 19.1283 52.4784 18.8742V8.68729C52.4784 6.72531 50.7636 5.06762 48.7335 5.06762ZM7.60047 5.06854C6.96934 5.06854 6.4556 4.55433 6.4556 3.92228C6.4556 3.29069 6.96934 2.77649 7.60139 2.77649L44.7884 2.76544C46.1418 2.76544 47.3759 3.79247 47.5684 5.0667L7.60047 5.06854Z" fill="#474747"/>
<path d="M44.7885 0H7.29766C5.30392 0 3.68213 1.61672 3.68213 3.60357V34.9861C3.68213 35.2402 3.88836 35.4464 4.14247 35.4464C4.39658 35.4464 4.60281 35.2402 4.60281 34.9861V3.60357C4.60281 2.12402 5.81168 0.920686 7.29766 0.920686H44.7885C46.2611 0.920686 47.4147 2.09916 47.4147 3.60357V5.06377C47.4147 5.31788 47.621 5.52412 47.8751 5.52412C48.1292 5.52412 48.3354 5.31788 48.3354 5.06377V3.60357C48.3354 1.58266 46.7776 0 44.7885 0Z" fill="#474747"/>
<path d="M52.281 20.7153H37.4851C36.3605 20.7153 35.4458 21.6305 35.4458 22.7551V28.8031C35.4458 29.9277 36.3605 30.8429 37.4851 30.8429H52.2805C53.4052 30.8429 54.3199 29.9277 54.3203 28.8036V22.7551C54.3203 21.6305 53.4052 20.7153 52.281 20.7153ZM53.3996 28.8031C53.3996 29.4204 52.8979 29.9222 52.281 29.9222H37.4851C36.8683 29.9222 36.3665 29.4204 36.3665 28.8036V22.7551C36.3665 22.1378 36.8683 21.636 37.4851 21.636H52.281C52.8979 21.636 53.3996 22.1383 53.3996 22.7551V28.8031Z" fill="#474747"/>
<path d="M40.5283 22.5542C38.7514 22.5542 37.3054 23.9997 37.3054 25.7766C37.3054 27.554 38.7514 28.9999 40.5283 28.9999C42.3052 28.9999 43.7511 27.554 43.7511 25.7766C43.7511 23.9997 42.3052 22.5542 40.5283 22.5542ZM40.5283 28.0792C39.2591 28.0792 38.2261 27.0462 38.2261 25.7766C38.2261 24.5074 39.2591 23.4749 40.5283 23.4749C41.7974 23.4749 42.8305 24.5074 42.8305 25.7766C42.8305 27.0462 41.7974 28.0792 40.5283 28.0792Z" fill="#474747"/>
<path d="M41.4339 25.3164C41.1798 25.3164 40.9735 25.5226 40.9735 25.7767C40.9735 26.029 40.7682 26.2343 40.516 26.2343C40.2637 26.2343 40.0584 26.029 40.0584 25.7767C40.0584 25.5245 40.2637 25.3196 40.516 25.3196C40.7701 25.3196 40.9763 25.1134 40.9763 24.8593C40.9763 24.6052 40.7701 24.3989 40.516 24.3989C39.7559 24.3989 39.1377 25.0172 39.1377 25.7767C39.1377 26.5368 39.7559 27.155 40.516 27.155C41.276 27.155 41.8942 26.5368 41.8942 25.7767C41.8942 25.5226 41.688 25.3164 41.4339 25.3164Z" fill="#474747"/>
<path d="M17.0319 39.5897H7.29752C5.81016 39.5897 4.60037 38.3804 4.60037 36.8934C4.60037 36.6393 4.39414 36.4331 4.14003 36.4331C3.88592 36.4331 3.67969 36.6393 3.67969 36.8934C3.67969 38.8877 5.30286 40.5104 7.29752 40.5104H17.0319C17.286 40.5104 17.4923 40.3041 17.4923 40.05C17.4923 39.7959 17.286 39.5897 17.0319 39.5897Z" fill="#474747"/>
<path d="M46.9543 29.9224C46.7002 29.9224 46.494 30.1286 46.494 30.3827V39.2392C46.494 39.416 46.3131 39.5896 46.1285 39.5896H40.9699C40.7158 39.5896 40.5095 39.7958 40.5095 40.0499C40.5095 40.304 40.7158 40.5103 40.9699 40.5103H46.1285C46.8259 40.5103 47.4147 39.9284 47.4147 39.2392V30.3827C47.4147 30.1286 47.2084 29.9224 46.9543 29.9224Z" fill="#474747"/>
<path d="M46.167 11.5085H7.29752C5.81015 11.5085 4.60037 10.2983 4.60037 8.81044C4.60037 8.55633 4.39414 8.3501 4.14003 8.3501C3.88592 8.3501 3.67969 8.55633 3.67969 8.81044C3.67969 10.806 5.30286 12.4292 7.29752 12.4292H46.1666C46.347 12.4292 46.4939 12.5765 46.4939 12.7579V18.874C46.4939 19.1281 46.7001 19.3343 46.9542 19.3343C47.2083 19.3343 47.4146 19.1281 47.415 18.874V12.7579C47.415 12.0687 46.8553 11.5085 46.167 11.5085Z" fill="#474747"/>
<path d="M35.4991 41.3603C34.9771 40.8382 34.0683 40.8382 33.5463 41.3603L28.0553 46.8508L25.2376 44.033C24.7156 43.511 23.8068 43.511 23.2848 44.033C22.7462 44.5712 22.7462 45.4477 23.2848 45.9858L27.079 49.7799C27.3395 50.041 27.6866 50.1846 28.0553 50.1846C28.4245 50.1846 28.7712 50.041 29.0322 49.7799L35.4991 43.3135C35.7601 43.0525 35.9037 42.7059 35.9037 42.3367C35.9037 41.9675 35.7596 41.6208 35.4991 41.3603ZM34.8482 42.6617L28.3808 49.1286C28.2068 49.3026 27.9039 49.3026 27.7299 49.1286L23.9357 45.3344C23.7562 45.1549 23.7562 44.863 23.9357 44.6835C24.0227 44.5965 24.1383 44.5486 24.2612 44.5486C24.3841 44.5486 24.4997 44.5965 24.5867 44.6835L27.7299 47.8267C27.9099 48.0067 28.2008 48.0067 28.3808 47.8267L34.1972 42.0107C34.3713 41.8367 34.6742 41.8363 34.8486 42.0107C34.9352 42.0977 34.983 42.2133 34.983 42.3362C34.983 42.4591 34.9352 42.5747 34.8482 42.6617Z" fill="#474747"/>
<path d="M29.0088 31.335C21.6575 31.335 15.6768 37.3157 15.6768 44.667C15.6768 52.0186 21.6575 57.9999 29.0088 57.9999C36.36 57.9999 42.3407 52.0186 42.3407 44.667C42.3407 37.3157 36.36 31.335 29.0088 31.335ZM29.0088 57.0792C22.1653 57.0792 16.5974 51.5109 16.5974 44.667C16.5974 37.8235 22.1653 32.2556 29.0088 32.2556C35.8522 32.2556 41.4201 37.8235 41.4201 44.667C41.4201 51.5109 35.8522 57.0792 29.0088 57.0792Z" fill="#474747"/>
<path d="M37.9817 37.4353C37.8211 37.2373 37.5311 37.2074 37.334 37.3671C37.1365 37.5273 37.1062 37.8174 37.2659 38.0148C38.7832 39.8889 39.6187 42.2518 39.6187 44.6682C39.6187 50.5026 34.8716 55.2492 29.0373 55.2492C23.2029 55.2492 18.4558 50.5026 18.4558 44.6682C18.4558 38.8338 23.2024 34.0872 29.0373 34.0872C31.1129 34.0872 33.1228 34.6879 34.8491 35.8245C35.0618 35.9645 35.3472 35.9051 35.4867 35.6929C35.6262 35.4807 35.5672 35.1952 35.355 35.0553C33.4777 33.8197 31.2929 33.1665 29.0368 33.1665C22.6947 33.1665 17.5347 38.326 17.5347 44.6682C17.5347 51.0103 22.6947 56.1698 29.0368 56.1698C35.3789 56.1698 40.5389 51.0099 40.5399 44.6677C40.5399 42.041 39.6311 39.4727 37.9817 37.4353Z" fill="#474747"/>
</g>
<defs>
<clipPath id="clip0_1312_2141">
<rect width="58" height="58" fill="white"/>
</clipPath>
</defs>
</svg>
