<svg width="204" height="204" viewBox="0 0 204 204" fill="none" xmlns="http://www.w3.org/2000/svg">
<path d="M7.48074 57.9518L57.9203 7.47985C59.537 5.86319 61.6925 5.00098 64.0636 5.00098H140.046C142.31 5.00098 144.573 5.86319 146.19 7.47985L196.521 57.844C198.138 59.4607 199 61.6162 199 63.9873V140.013C199 142.276 198.138 144.54 196.521 146.156L146.19 196.521C144.573 198.137 142.417 198.999 140.046 198.999H63.9558C61.6619 199.012 59.4551 198.122 57.8126 196.521L7.48074 146.156C6.67952 145.349 6.04755 144.39 5.62189 143.335C5.19623 142.28 4.98544 141.151 5.00187 140.013V63.9873C5.00187 61.724 5.86408 59.4607 7.48074 57.844V57.9518Z" fill="#FF003D" stroke="#474747" stroke-width="10" stroke-miterlimit="10" stroke-linejoin="round"/>
<path d="M102.002 145.111H102.088M102.002 58.8892V112.778" stroke="#FBF9FF" stroke-width="10" stroke-miterlimit="10" stroke-linecap="round"/>
</svg>
