<svg width="506" height="552" viewBox="0 0 506 552" fill="none" xmlns="http://www.w3.org/2000/svg">
<path d="M454.051 273.303C453.145 273.844 452.59 274.823 452.59 275.878C452.59 276.934 453.145 277.912 454.051 278.454C500.197 306.018 515.827 365.608 488.859 412.318L488.859 412.318C461.894 459.031 402.472 475.29 355.526 449.11C354.604 448.596 353.479 448.604 352.565 449.132C351.651 449.66 351.081 450.63 351.065 451.685C350.267 505.433 306.477 548.763 252.541 548.763C198.605 548.766 154.811 505.435 154.014 451.685C153.999 450.63 153.429 449.66 152.515 449.132C151.6 448.604 150.476 448.596 149.553 449.11C102.608 475.293 43.1866 459.034 16.2182 412.324L14.3413 413.407L16.2182 412.324C-10.7503 365.615 4.87843 306.025 51.026 278.458C51.9324 277.916 52.4875 276.938 52.4875 275.882C52.4874 274.826 51.9323 273.848 51.0258 273.307C4.87716 245.743 -10.7503 186.153 16.2168 139.445L13.7764 138.036L16.2169 139.445C43.184 92.7336 102.605 76.4734 149.551 102.655C150.473 103.169 151.598 103.161 152.512 102.633C153.426 102.105 153.996 101.135 154.012 100.079C154.81 46.3296 198.602 3 252.538 3C306.472 3 350.263 46.3296 351.064 100.076C351.08 101.131 351.649 102.101 352.564 102.629C353.478 103.157 354.603 103.165 355.525 102.651C402.469 76.4693 461.888 92.7282 488.856 139.437C515.826 186.146 500.197 245.736 454.051 273.303Z" fill="#FFD600" stroke="#474747" stroke-width="6" stroke-linejoin="round"/>
</svg>
