<svg width="113" height="167" viewBox="0 0 113 167" fill="none" xmlns="http://www.w3.org/2000/svg">
<path d="M107.679 71.102L29.8227 163.268L48.8425 92.166H12.4916C10.9988 92.2676 9.50456 91.9908 8.14728 91.3611C6.79001 90.7314 5.61368 89.7692 4.72733 88.5638C3.84097 87.3583 3.27329 85.9486 3.0769 84.4653C2.8805 82.9821 3.06176 81.4732 3.60386 80.0786L32.3113 8.97664C33.0457 7.24242 34.2877 5.771 35.874 4.75578C37.4603 3.74056 39.3166 3.22905 41.199 3.28848H79.7718C81.2646 3.18683 82.7589 3.46368 84.1162 4.09338C85.4734 4.72308 86.6498 5.68524 87.5361 6.89068C88.4225 8.09612 88.9902 9.50582 89.1866 10.9891C89.3829 12.4724 89.2017 13.9812 88.6596 15.3758L71.5951 56.615H100.925C102.591 56.6425 104.217 57.1381 105.615 58.0454C107.014 58.9526 108.129 60.2349 108.833 61.7457C109.538 63.2565 109.803 64.935 109.599 66.5895C109.395 68.2439 108.73 69.8076 107.679 71.102Z" fill="#FFA500"/>
<path d="M107.679 71.102L29.8227 163.268L48.8425 92.166H12.4916C10.9988 92.2676 9.50456 91.9908 8.14728 91.3611C6.79001 90.7314 5.61368 89.7692 4.72733 88.5638C3.84097 87.3583 3.27329 85.9486 3.0769 84.4653C2.8805 82.9821 3.06176 81.4732 3.60386 80.0786L32.3113 8.97664C33.0457 7.24242 34.2877 5.771 35.874 4.75578C37.4603 3.74056 39.3166 3.22905 41.199 3.28848H79.7718C81.2646 3.18683 82.7589 3.46368 84.1162 4.09338C85.4734 4.72308 86.6498 5.68524 87.5361 6.89068C88.4225 8.09612 88.9902 9.50582 89.1866 10.9891C89.3829 12.4724 89.2017 13.9812 88.6596 15.3758L71.5951 56.615H100.925C102.591 56.6425 104.217 57.1381 105.615 58.0454C107.014 58.9526 108.129 60.2349 108.833 61.7457C109.538 63.2565 109.803 64.935 109.599 66.5895C109.395 68.2439 108.73 69.8076 107.679 71.102Z" stroke="#474747" stroke-width="6" stroke-linecap="round" stroke-linejoin="round"/>
</svg>
