<svg width="59" height="59" viewBox="0 0 59 59" fill="none" xmlns="http://www.w3.org/2000/svg">
<g clip-path="url(#clip0_1312_1985)">
<path d="M18.2536 13.2695H10.5246C10.2876 13.2695 10.0905 13.4521 10.0728 13.6887L7.30244 50.3918C7.29292 50.5173 7.33642 50.6415 7.42206 50.7339C7.5077 50.8263 7.62823 50.8789 7.7542 50.8789H17.3473C17.5974 50.8789 17.8004 50.6759 17.8004 50.4258C17.8004 50.1757 17.5974 49.9727 17.3473 49.9727H8.24312L10.9451 14.1758H18.2536C18.5037 14.1758 18.7067 13.9728 18.7067 13.7227C18.7067 13.4725 18.5037 13.2695 18.2536 13.2695Z" fill="#474747"/>
<path d="M48.1843 13.6887C48.1666 13.4521 47.9695 13.2695 47.7325 13.2695H40.4567C40.2065 13.2695 40.0035 13.4725 40.0035 13.7227C40.0035 13.9728 40.2065 14.1758 40.4567 14.1758H47.3124L50.0144 49.9727H40.9098C40.6597 49.9727 40.4567 50.1757 40.4567 50.4258C40.4567 50.6759 40.6597 50.8789 40.9098 50.8789H50.5029C50.6289 50.8789 50.7494 50.8263 50.835 50.7339C50.9207 50.6415 50.9642 50.5173 50.9547 50.3918L48.1843 13.6887Z" fill="#474747"/>
<path d="M37.7379 13.2695H20.5192C20.269 13.2695 20.066 13.4725 20.066 13.7227C20.066 13.9728 20.269 14.1758 20.5192 14.1758H37.7379C37.988 14.1758 38.191 13.9728 38.191 13.7227C38.191 13.4725 37.988 13.2695 37.7379 13.2695Z" fill="#474747"/>
<path d="M29.3551 0.128906C22.9837 0.128906 17.8004 5.30405 17.8004 11.665V20.7692C17.8004 21.689 18.4973 22.4095 19.3864 22.4095C20.2754 22.4095 20.9723 21.689 20.9723 20.7692V11.665C20.9723 7.11338 24.6313 3.41044 29.129 3.40998C33.6263 3.40998 37.2848 7.11338 37.2848 11.665V20.7692C37.2848 21.7013 37.9309 22.3778 38.8213 22.3778C39.7385 22.3778 40.4567 21.6714 40.4567 20.7692V11.665C40.4567 5.1962 35.5801 0.128906 29.3551 0.128906ZM39.5504 20.7692C39.5504 21.1693 39.2369 21.4715 38.8213 21.4715C38.356 21.4715 38.191 21.0932 38.191 20.7692V11.665C38.191 6.61403 34.1256 2.50419 29.129 2.50373C24.1315 2.50373 20.066 6.61358 20.066 11.665V20.7692C20.066 21.1879 19.7738 21.5033 19.3864 21.5033C18.9989 21.5033 18.7067 21.1874 18.7067 20.7692V11.665C18.7067 5.80384 23.4835 1.03516 29.3551 1.03516C35.0722 1.03516 39.5504 5.70461 39.5504 11.665V20.7692Z" fill="#474747"/>
<path d="M20.6764 17.0214C20.4435 16.9322 20.1812 17.0477 20.0906 17.2811C20.0004 17.5144 20.1168 17.7768 20.3502 17.867C21.5419 18.3264 22.3426 19.4932 22.3426 20.7697C22.3426 22.4838 20.9479 23.8786 19.2328 23.8786C17.5186 23.8786 16.1239 22.4838 16.1239 20.7697C16.1239 19.4538 16.9567 18.2752 18.1965 17.8371C18.4321 17.7537 18.5558 17.4949 18.4724 17.2589C18.3891 17.0232 18.1303 16.8986 17.8943 16.9829C16.2934 17.5489 15.2177 19.0705 15.2177 20.7697C15.2177 22.9836 17.0188 24.7848 19.2328 24.7848C21.4472 24.7848 23.2488 22.9836 23.2488 20.7697C23.2488 19.1212 22.2153 17.615 20.6764 17.0214Z" fill="#474747"/>
<path d="M40.2391 17.0204C40.0062 16.9312 39.7434 17.0467 39.6532 17.2801C39.5631 17.5134 39.6795 17.7758 39.9129 17.866C41.1041 18.3254 41.9044 19.4918 41.9044 20.7687C41.9044 22.4829 40.5096 23.8776 38.7955 23.8776C37.0808 23.8776 35.6857 22.4829 35.6857 20.7687C35.6857 19.4533 36.519 18.2747 37.7587 17.8365C37.9943 17.7531 38.118 17.4944 38.0347 17.2583C37.9513 17.0227 37.6939 16.8995 37.4565 16.9824C35.8551 17.5483 34.7794 19.0699 34.7794 20.7691C34.7794 22.9831 36.581 24.7843 38.7955 24.7843C41.0094 24.7843 42.8106 22.9831 42.8106 20.7687C42.8106 19.1198 41.7775 17.6136 40.2391 17.0204Z" fill="#474747"/>
<path d="M16.441 47.707H8.28479C8.03467 47.707 7.83167 47.91 7.83167 48.1602C7.83167 48.4103 8.03467 48.6133 8.28479 48.6133H16.441C16.6912 48.6133 16.8942 48.4103 16.8942 48.1602C16.8942 47.91 16.6912 47.707 16.441 47.707Z" fill="#474747"/>
<path d="M46.3473 47.707H41.816C41.5659 47.707 41.3629 47.91 41.3629 48.1602C41.3629 48.4103 41.5659 48.6133 41.816 48.6133H46.3473C46.5974 48.6133 46.8004 48.4103 46.8004 48.1602C46.8004 47.91 46.5974 47.707 46.3473 47.707Z" fill="#474747"/>
<path d="M35.4659 41.7645C34.9521 41.2502 34.0567 41.2506 33.5433 41.7645L28.1348 47.1721L25.3594 44.3962C24.8456 43.8828 23.9502 43.8828 23.4368 44.3962C23.1795 44.6531 23.0381 44.9948 23.0381 45.3582C23.0381 45.7216 23.1795 46.0628 23.4364 46.3197L27.1738 50.0576C27.4307 50.314 27.7723 50.4554 28.1353 50.4554C28.4978 50.4554 28.839 50.314 29.0959 50.0571L35.4655 43.688C35.7229 43.4311 35.8642 43.0894 35.8642 42.726C35.8642 42.3621 35.7229 42.0209 35.4659 41.7645ZM34.8252 43.0482L28.4556 49.4173C28.2835 49.5886 27.9849 49.5877 27.814 49.4173L24.0771 45.6795C23.9915 45.5938 23.9443 45.4796 23.9443 45.3586C23.9443 45.2372 23.9915 45.1235 24.0771 45.0378C24.1627 44.9522 24.2769 44.9051 24.3979 44.9051C24.5194 44.9051 24.6335 44.9522 24.7187 45.0387L27.8145 48.1349C27.9916 48.3121 28.278 48.3121 28.4552 48.1349L34.1841 42.4065C34.3553 42.2348 34.653 42.2348 34.8252 42.407C34.9109 42.4926 34.958 42.6064 34.958 42.7273C34.9584 42.8483 34.9109 42.9625 34.8252 43.0482Z" fill="#474747"/>
<path d="M29.0696 31.8667C21.8296 31.8667 15.939 37.7573 15.939 44.9974C15.939 52.2383 21.8296 58.1289 29.0696 58.1289C36.3097 58.1289 42.2003 52.2383 42.2003 44.9974C42.2003 37.7573 36.3097 31.8667 29.0696 31.8667ZM29.0696 57.2227C22.3289 57.2227 16.8452 51.7385 16.8452 44.9974C16.8452 38.2567 22.3294 32.7729 29.0696 32.7729C35.8103 32.7729 41.294 38.2567 41.294 44.9974C41.294 51.738 35.8103 57.2227 29.0696 57.2227Z" fill="#474747"/>
<path d="M37.9069 37.874C37.7488 37.6791 37.4629 37.6497 37.2694 37.8069C37.075 37.9646 37.0451 38.2501 37.2023 38.4445C38.6972 40.2905 39.5201 42.6177 39.5201 44.9976C39.5201 50.7445 34.8447 55.4194 29.0977 55.4194C23.3508 55.4194 18.6754 50.7441 18.6754 44.9976C18.6754 39.251 23.3508 34.5757 29.0977 34.5757C31.1427 34.5757 33.1219 35.1675 34.8221 36.2867C35.0314 36.4244 35.3119 36.3664 35.4496 36.1571C35.5869 35.9482 35.5289 35.6673 35.3201 35.5295C33.4718 34.3124 31.3203 33.6694 29.0977 33.6694C22.851 33.6694 17.7692 38.7512 17.7692 44.9976C17.7692 51.2439 22.851 56.3257 29.0977 56.3257C35.3441 56.3257 40.4263 51.2439 40.4268 44.9976C40.4268 42.4107 39.5319 39.8809 37.9069 37.874Z" fill="#474747"/>
</g>
<defs>
<clipPath id="clip0_1312_1985">
<rect width="58" height="58" fill="white" transform="translate(0.12854 0.128906)"/>
</clipPath>
</defs>
</svg>
