<svg width="242" height="111" viewBox="0 0 242 111" fill="none" xmlns="http://www.w3.org/2000/svg">
<mask id="path-1-inside-1_639_185" fill="white">
<path fill-rule="evenodd" clip-rule="evenodd" d="M42.6836 0.57428C19.2115 0.57428 0.183594 19.6022 0.183594 43.0743C0.183594 66.5464 19.2115 85.5743 42.6836 85.5743L180.877 85.5743L199.956 110.994L227.456 74.3536C235.896 66.5865 241.184 55.4479 241.184 43.0743C241.184 19.6022 222.156 0.57428 198.684 0.57428L42.6836 0.57428Z"/>
</mask>
<path fill-rule="evenodd" clip-rule="evenodd" d="M42.6836 0.57428C19.2115 0.57428 0.183594 19.6022 0.183594 43.0743C0.183594 66.5464 19.2115 85.5743 42.6836 85.5743L180.877 85.5743L199.956 110.994L227.456 74.3536C235.896 66.5865 241.184 55.4479 241.184 43.0743C241.184 19.6022 222.156 0.57428 198.684 0.57428L42.6836 0.57428Z" fill="#FBF9FF"/>
<path d="M180.877 85.5743L185.676 81.9726L183.876 79.5743H180.877V85.5743ZM199.956 110.994L195.157 114.595L199.956 120.989L204.755 114.595L199.956 110.994ZM227.456 74.3536L223.393 69.9387L222.988 70.3116L222.658 70.7519L227.456 74.3536ZM6.18359 43.0743C6.18359 22.9159 22.5252 6.57428 42.6836 6.57428V-5.42572C15.8978 -5.42572 -5.81641 16.2885 -5.81641 43.0743H6.18359ZM42.6836 79.5743C22.5252 79.5743 6.18359 63.2327 6.18359 43.0743H-5.81641C-5.81641 69.8601 15.8978 91.5743 42.6836 91.5743V79.5743ZM180.877 79.5743L42.6836 79.5743V91.5743L180.877 91.5743V79.5743ZM204.755 107.392L185.676 81.9726L176.079 89.176L195.157 114.595L204.755 107.392ZM222.658 70.7519L195.157 107.392L204.755 114.595L232.255 77.9553L222.658 70.7519ZM235.184 43.0743C235.184 53.701 230.65 63.2601 223.393 69.9387L231.52 78.7684C241.141 69.913 247.184 57.1948 247.184 43.0743H235.184ZM198.684 6.57428C218.842 6.57428 235.184 22.9159 235.184 43.0743H247.184C247.184 16.2885 225.469 -5.42572 198.684 -5.42572V6.57428ZM42.6836 6.57428L198.684 6.57428V-5.42572L42.6836 -5.42572V6.57428Z" fill="#474747" mask="url(#path-1-inside-1_639_185)"/>
<circle cx="53.6836" cy="45.0743" r="12.5" fill="#474747"/>
<circle cx="98.6836" cy="45.0743" r="12.5" fill="#474747"/>
<circle cx="188.684" cy="45.0743" r="12.5" fill="#474747"/>
<circle cx="143.684" cy="45.0743" r="12.5" fill="#474747"/>
</svg>
