<svg width="545" height="472" viewBox="0 0 545 472" fill="none" xmlns="http://www.w3.org/2000/svg">
<mask id="path-1-inside-1_638_81" fill="white">
<path fill-rule="evenodd" clip-rule="evenodd" d="M133.875 0.12439C59.9378 0.12439 0 60.0622 0 133.999C0 174.628 18.0983 211.029 46.6728 235.581C18.0984 260.133 4.19617e-05 296.535 4.19617e-05 337.163C4.19617e-05 411.1 59.9379 471.038 133.875 471.038L410.392 471.038C484.329 471.038 544.267 411.1 544.267 337.163C544.267 296.535 526.169 260.133 497.594 235.581C526.169 211.029 544.267 174.628 544.267 133.999C544.267 60.0622 484.329 0.12439 410.392 0.12439L133.875 0.12439Z"/>
</mask>
<path fill-rule="evenodd" clip-rule="evenodd" d="M133.875 0.12439C59.9378 0.12439 0 60.0622 0 133.999C0 174.628 18.0983 211.029 46.6728 235.581C18.0984 260.133 4.19617e-05 296.535 4.19617e-05 337.163C4.19617e-05 411.1 59.9379 471.038 133.875 471.038L410.392 471.038C484.329 471.038 544.267 411.1 544.267 337.163C544.267 296.535 526.169 260.133 497.594 235.581C526.169 211.029 544.267 174.628 544.267 133.999C544.267 60.0622 484.329 0.12439 410.392 0.12439L133.875 0.12439Z" fill="#BD00FF"/>
<path d="M46.6728 235.581L50.583 240.132C51.9096 238.992 52.6728 237.33 52.6728 235.581C52.6728 233.832 51.9096 232.17 50.583 231.03L46.6728 235.581ZM497.594 235.581L493.684 231.03C492.358 232.17 491.594 233.832 491.594 235.581C491.594 237.33 492.358 238.992 493.684 240.132L497.594 235.581ZM6 133.999C6 63.3759 63.2515 6.12439 133.875 6.12439V-5.87561C56.6241 -5.87561 -6 56.7485 -6 133.999H6ZM50.583 231.03C23.2786 207.57 6 172.806 6 133.999H-6C-6 176.45 12.9181 214.489 42.7625 240.132L50.583 231.03ZM6.00004 337.163C6.00004 298.357 23.2786 263.593 50.583 240.132L42.7625 231.03C12.9181 256.674 -5.99996 294.712 -5.99996 337.163H6.00004ZM133.875 465.038C63.2516 465.038 6.00004 407.787 6.00004 337.163H-5.99996C-5.99996 414.414 56.6241 477.038 133.875 477.038V465.038ZM410.392 465.038L133.875 465.038V477.038L410.392 477.038V465.038ZM538.267 337.163C538.267 407.787 481.016 465.038 410.392 465.038V477.038C487.643 477.038 550.267 414.414 550.267 337.163H538.267ZM493.684 240.132C520.989 263.593 538.267 298.357 538.267 337.163H550.267C550.267 294.712 531.349 256.674 501.505 231.03L493.684 240.132ZM538.267 133.999C538.267 172.805 520.989 207.57 493.684 231.03L501.505 240.132C531.349 214.489 550.267 176.45 550.267 133.999H538.267ZM410.392 6.12439C481.016 6.12439 538.267 63.3759 538.267 133.999H550.267C550.267 56.7485 487.643 -5.87561 410.392 -5.87561V6.12439ZM133.875 6.12439L410.392 6.12439V-5.87561L133.875 -5.87561V6.12439Z" fill="#474747" mask="url(#path-1-inside-1_638_81)"/>
</svg>
