<svg width="237" height="78" viewBox="0 0 237 78" fill="none" xmlns="http://www.w3.org/2000/svg">
<mask id="path-1-inside-1_144_36" fill="white">
<path fill-rule="evenodd" clip-rule="evenodd" d="M148.977 5.29967L0.358842 14.6644L14.1542 26.6373L1.97418 46.0171L17.9218 56.024L4.34053 77.8535L88.0869 72.5764L88.0869 72.5765L236.705 63.2118L222.909 51.2388L235.089 31.8591L219.142 21.8521L232.723 0.0226867L148.977 5.29967Z"/>
</mask>
<path fill-rule="evenodd" clip-rule="evenodd" d="M148.977 5.29967L0.358842 14.6644L14.1542 26.6373L1.97418 46.0171L17.9218 56.024L4.34053 77.8535L88.0869 72.5764L88.0869 72.5765L236.705 63.2118L222.909 51.2388L235.089 31.8591L219.142 21.8521L232.723 0.0226867L148.977 5.29967Z" fill="#F3EBFF"/>
<path d="M0.358842 14.6644L0.233067 12.6684L-4.6386 12.9753L-0.952081 16.1749L0.358842 14.6644ZM148.977 5.29967L148.851 3.30363L148.977 5.29967ZM14.1542 26.6373L15.8475 27.7016L16.7596 26.2504L15.4651 25.1269L14.1542 26.6373ZM1.97418 46.0171L0.280842 44.9528L-0.784169 46.6474L0.911148 47.7112L1.97418 46.0171ZM17.9218 56.024L19.62 57.0805L20.6725 55.3889L18.9848 54.3299L17.9218 56.024ZM4.34053 77.8535L2.64236 76.7969L0.591284 80.0937L4.4663 79.8495L4.34053 77.8535ZM88.0869 72.5764L90.0829 72.4507L89.9571 70.4546L87.9611 70.5804L88.0869 72.5764ZM88.0869 72.5765L86.0908 72.7023L86.2166 74.6983L88.2126 74.5725L88.0869 72.5765ZM236.705 63.2118L236.83 65.2078L241.702 64.9008L238.015 61.7013L236.705 63.2118ZM222.909 51.2388L221.216 50.1746L220.304 51.6258L221.598 52.7493L222.909 51.2388ZM235.089 31.8591L236.783 32.9233L237.848 31.2288L236.152 30.165L235.089 31.8591ZM219.142 21.8521L217.443 20.7956L216.391 22.4873L218.079 23.5462L219.142 21.8521ZM232.723 0.0226867L234.421 1.07921L236.472 -2.21753L232.597 -1.97335L232.723 0.0226867ZM0.484617 16.6604L149.102 7.29571L148.851 3.30363L0.233067 12.6684L0.484617 16.6604ZM15.4651 25.1269L1.66977 13.1539L-0.952081 16.1749L12.8432 28.1478L15.4651 25.1269ZM3.66751 47.0813L15.8475 27.7016L12.4608 25.5731L0.280842 44.9528L3.66751 47.0813ZM18.9848 54.3299L3.0372 44.323L0.911148 47.7112L16.8588 57.7181L18.9848 54.3299ZM6.03869 78.91L19.62 57.0805L16.2236 54.9675L2.64236 76.7969L6.03869 78.91ZM87.9611 70.5804L4.21475 75.8574L4.4663 79.8495L88.2126 74.5725L87.9611 70.5804ZM90.0829 72.4507L90.0829 72.4507L86.0908 72.7022L86.0908 72.7023L90.0829 72.4507ZM236.579 61.2157L87.9611 70.5804L88.2126 74.5725L236.83 65.2078L236.579 61.2157ZM221.598 52.7493L235.394 64.7222L238.015 61.7013L224.22 49.7284L221.598 52.7493ZM233.396 30.7949L221.216 50.1746L224.603 52.3031L236.783 32.9233L233.396 30.7949ZM218.079 23.5462L234.026 33.5532L236.152 30.165L220.205 20.158L218.079 23.5462ZM231.025 -1.03383L217.443 20.7956L220.84 22.9087L234.421 1.07921L231.025 -1.03383ZM149.102 7.29571L232.849 2.01873L232.597 -1.97335L148.851 3.30363L149.102 7.29571Z" fill="#474747" mask="url(#path-1-inside-1_144_36)"/>
</svg>
