<svg width="842" height="842" viewBox="0 0 842 842" fill="none" xmlns="http://www.w3.org/2000/svg">
<rect x="1" y="1" width="70" height="70" fill="#FF00B8" stroke="#474747" stroke-width="2"/>
<rect x="71" y="1" width="70" height="70" fill="#FF003D" stroke="#474747" stroke-width="2"/>
<rect x="771" y="1" width="70" height="70" fill="#FF003D" stroke="#474747" stroke-width="2"/>
<rect x="141" y="1" width="70" height="70" fill="#FFA500" stroke="#474747" stroke-width="2"/>
<rect x="211" y="1" width="70" height="70" fill="#FFD600" stroke="#474747" stroke-width="2"/>
<rect x="281" y="1" width="70" height="70" fill="#32CD32" stroke="#474747" stroke-width="2"/>
<rect x="351" y="1" width="70" height="70" fill="#00BFFF" stroke="#474747" stroke-width="2"/>
<rect x="421" y="1" width="70" height="70" fill="#0075FF" stroke="#474747" stroke-width="2"/>
<rect x="491" y="1" width="70" height="70" fill="#BD00FF" stroke="#474747" stroke-width="2"/>
<rect x="561" y="1" width="70" height="70" fill="#E189FF" stroke="#474747" stroke-width="2"/>
<rect x="631" y="1" width="70" height="70" fill="#FF84DC" stroke="#474747" stroke-width="2"/>
<rect x="701" y="1" width="70" height="70" fill="#FF00B8" stroke="#474747" stroke-width="2"/>
<rect x="1" y="701" width="70" height="70" fill="#FF00B8" stroke="#474747" stroke-width="2"/>
<rect x="701" y="701" width="70" height="70" fill="#FF00B8" stroke="#474747" stroke-width="2"/>
<rect x="71" y="701" width="70" height="70" fill="#FF003D" stroke="#474747" stroke-width="2"/>
<rect x="771" y="701" width="70" height="70" fill="#FF003D" stroke="#474747" stroke-width="2"/>
<rect x="141" y="701" width="70" height="70" fill="#FFA500" stroke="#474747" stroke-width="2"/>
<rect x="211" y="701" width="70" height="70" fill="#FFD600" stroke="#474747" stroke-width="2"/>
<rect x="281" y="701" width="70" height="70" fill="#32CD32" stroke="#474747" stroke-width="2"/>
<rect x="351" y="701" width="70" height="70" fill="#00BFFF" stroke="#474747" stroke-width="2"/>
<rect x="421" y="701" width="70" height="70" fill="#0075FF" stroke="#474747" stroke-width="2"/>
<rect x="491" y="701" width="70" height="70" fill="#BD00FF" stroke="#474747" stroke-width="2"/>
<rect x="561" y="701" width="70" height="70" fill="#E189FF" stroke="#474747" stroke-width="2"/>
<rect x="631" y="701" width="70" height="70" fill="#FF84DC" stroke="#474747" stroke-width="2"/>
<rect x="1" y="71" width="70" height="70" fill="#FF003D" stroke="#474747" stroke-width="2"/>
<rect x="701" y="71" width="70" height="70" fill="#FF003D" stroke="#474747" stroke-width="2"/>
<rect x="71" y="71" width="70" height="70" fill="#FFA500" stroke="#474747" stroke-width="2"/>
<rect x="771" y="71" width="70" height="70" fill="#FFA500" stroke="#474747" stroke-width="2"/>
<rect x="141" y="71" width="70" height="70" fill="#FFD600" stroke="#474747" stroke-width="2"/>
<rect x="211" y="71" width="70" height="70" fill="#32CD32" stroke="#474747" stroke-width="2"/>
<rect x="281" y="71" width="70" height="70" fill="#00BFFF" stroke="#474747" stroke-width="2"/>
<rect x="351" y="71" width="70" height="70" fill="#0075FF" stroke="#474747" stroke-width="2"/>
<rect x="421" y="71" width="70" height="70" fill="#BD00FF" stroke="#474747" stroke-width="2"/>
<rect x="491" y="71" width="70" height="70" fill="#E189FF" stroke="#474747" stroke-width="2"/>
<rect x="561" y="71" width="70" height="70" fill="#FF84DC" stroke="#474747" stroke-width="2"/>
<rect x="631" y="71" width="70" height="70" fill="#FF00B8" stroke="#474747" stroke-width="2"/>
<rect x="1" y="771" width="70" height="70" fill="#FF003D" stroke="#474747" stroke-width="2"/>
<rect x="701" y="771" width="70" height="70" fill="#FF003D" stroke="#474747" stroke-width="2"/>
<rect x="71" y="771" width="70" height="70" fill="#FFA500" stroke="#474747" stroke-width="2"/>
<rect x="771" y="771" width="70" height="70" fill="#FFA500" stroke="#474747" stroke-width="2"/>
<rect x="141" y="771" width="70" height="70" fill="#FFD600" stroke="#474747" stroke-width="2"/>
<rect x="211" y="771" width="70" height="70" fill="#32CD32" stroke="#474747" stroke-width="2"/>
<rect x="281" y="771" width="70" height="70" fill="#00BFFF" stroke="#474747" stroke-width="2"/>
<rect x="351" y="771" width="70" height="70" fill="#0075FF" stroke="#474747" stroke-width="2"/>
<rect x="421" y="771" width="70" height="70" fill="#BD00FF" stroke="#474747" stroke-width="2"/>
<rect x="491" y="771" width="70" height="70" fill="#E189FF" stroke="#474747" stroke-width="2"/>
<rect x="561" y="771" width="70" height="70" fill="#FF84DC" stroke="#474747" stroke-width="2"/>
<rect x="631" y="771" width="70" height="70" fill="#FF00B8" stroke="#474747" stroke-width="2"/>
<rect x="1" y="141" width="70" height="70" fill="#FFA500" stroke="#474747" stroke-width="2"/>
<rect x="701" y="141" width="70" height="70" fill="#FFA500" stroke="#474747" stroke-width="2"/>
<rect x="71" y="141" width="70" height="70" fill="#FFD600" stroke="#474747" stroke-width="2"/>
<rect x="771" y="141" width="70" height="70" fill="#FFD600" stroke="#474747" stroke-width="2"/>
<rect x="141" y="141" width="70" height="70" fill="#32CD32" stroke="#474747" stroke-width="2"/>
<rect x="211" y="141" width="70" height="70" fill="#00BFFF" stroke="#474747" stroke-width="2"/>
<rect x="281" y="141" width="70" height="70" fill="#0075FF" stroke="#474747" stroke-width="2"/>
<rect x="351" y="141" width="70" height="70" fill="#BD00FF" stroke="#474747" stroke-width="2"/>
<rect x="421" y="141" width="70" height="70" fill="#E189FF" stroke="#474747" stroke-width="2"/>
<rect x="491" y="141" width="70" height="70" fill="#FF84DC" stroke="#474747" stroke-width="2"/>
<rect x="561" y="141" width="70" height="70" fill="#FF00B8" stroke="#474747" stroke-width="2"/>
<rect x="631" y="141" width="70" height="70" fill="#FF003D" stroke="#474747" stroke-width="2"/>
<rect x="1" y="211" width="70" height="70" fill="#FFD600" stroke="#474747" stroke-width="2"/>
<rect x="701" y="211" width="70" height="70" fill="#FFD600" stroke="#474747" stroke-width="2"/>
<rect x="71" y="211" width="70" height="70" fill="#32CD32" stroke="#474747" stroke-width="2"/>
<rect x="771" y="211" width="70" height="70" fill="#32CD32" stroke="#474747" stroke-width="2"/>
<rect x="141" y="211" width="70" height="70" fill="#00BFFF" stroke="#474747" stroke-width="2"/>
<rect x="211" y="211" width="70" height="70" fill="#0075FF" stroke="#474747" stroke-width="2"/>
<rect x="281" y="211" width="70" height="70" fill="#BD00FF" stroke="#474747" stroke-width="2"/>
<rect x="351" y="211" width="70" height="70" fill="#E189FF" stroke="#474747" stroke-width="2"/>
<rect x="421" y="211" width="70" height="70" fill="#FF84DC" stroke="#474747" stroke-width="2"/>
<rect x="491" y="211" width="70" height="70" fill="#FF00B8" stroke="#474747" stroke-width="2"/>
<rect x="561" y="211" width="70" height="70" fill="#FF003D" stroke="#474747" stroke-width="2"/>
<rect x="631" y="211" width="70" height="70" fill="#FFA500" stroke="#474747" stroke-width="2"/>
<rect x="1" y="281" width="70" height="70" fill="#32CD32" stroke="#474747" stroke-width="2"/>
<rect x="701" y="281" width="70" height="70" fill="#32CD32" stroke="#474747" stroke-width="2"/>
<rect x="71" y="281" width="70" height="70" fill="#00BFFF" stroke="#474747" stroke-width="2"/>
<rect x="771" y="281" width="70" height="70" fill="#00BFFF" stroke="#474747" stroke-width="2"/>
<rect x="141" y="281" width="70" height="70" fill="#0075FF" stroke="#474747" stroke-width="2"/>
<rect x="211" y="281" width="70" height="70" fill="#BD00FF" stroke="#474747" stroke-width="2"/>
<rect x="281" y="281" width="70" height="70" fill="#E189FF" stroke="#474747" stroke-width="2"/>
<rect x="351" y="281" width="70" height="70" fill="#FF84DC" stroke="#474747" stroke-width="2"/>
<rect x="421" y="281" width="70" height="70" fill="#FF00B8" stroke="#474747" stroke-width="2"/>
<rect x="491" y="281" width="70" height="70" fill="#FF003D" stroke="#474747" stroke-width="2"/>
<rect x="561" y="281" width="70" height="70" fill="#FFA500" stroke="#474747" stroke-width="2"/>
<rect x="631" y="281" width="70" height="70" fill="#FFD600" stroke="#474747" stroke-width="2"/>
<rect x="1" y="351" width="70" height="70" fill="#00BFFF" stroke="#474747" stroke-width="2"/>
<rect x="701" y="351" width="70" height="70" fill="#00BFFF" stroke="#474747" stroke-width="2"/>
<rect x="71" y="351" width="70" height="70" fill="#0075FF" stroke="#474747" stroke-width="2"/>
<rect x="771" y="351" width="70" height="70" fill="#0075FF" stroke="#474747" stroke-width="2"/>
<rect x="141" y="351" width="70" height="70" fill="#BD00FF" stroke="#474747" stroke-width="2"/>
<rect x="211" y="351" width="70" height="70" fill="#E189FF" stroke="#474747" stroke-width="2"/>
<rect x="281" y="351" width="70" height="70" fill="#FF84DC" stroke="#474747" stroke-width="2"/>
<rect x="351" y="351" width="70" height="70" fill="#FF00B8" stroke="#474747" stroke-width="2"/>
<rect x="421" y="351" width="70" height="70" fill="#FF003D" stroke="#474747" stroke-width="2"/>
<rect x="491" y="351" width="70" height="70" fill="#FFA500" stroke="#474747" stroke-width="2"/>
<rect x="561" y="351" width="70" height="70" fill="#FFD600" stroke="#474747" stroke-width="2"/>
<rect x="631" y="351" width="70" height="70" fill="#32CD32" stroke="#474747" stroke-width="2"/>
<rect x="1" y="421" width="70" height="70" fill="#0075FF" stroke="#474747" stroke-width="2"/>
<rect x="701" y="421" width="70" height="70" fill="#0075FF" stroke="#474747" stroke-width="2"/>
<rect x="71" y="421" width="70" height="70" fill="#BD00FF" stroke="#474747" stroke-width="2"/>
<rect x="771" y="421" width="70" height="70" fill="#BD00FF" stroke="#474747" stroke-width="2"/>
<rect x="141" y="421" width="70" height="70" fill="#E189FF" stroke="#474747" stroke-width="2"/>
<rect x="211" y="421" width="70" height="70" fill="#FF84DC" stroke="#474747" stroke-width="2"/>
<rect x="281" y="421" width="70" height="70" fill="#FF00B8" stroke="#474747" stroke-width="2"/>
<rect x="351" y="421" width="70" height="70" fill="#FF003D" stroke="#474747" stroke-width="2"/>
<rect x="421" y="421" width="70" height="70" fill="#FFA500" stroke="#474747" stroke-width="2"/>
<rect x="491" y="421" width="70" height="70" fill="#FFD600" stroke="#474747" stroke-width="2"/>
<rect x="561" y="421" width="70" height="70" fill="#32CD32" stroke="#474747" stroke-width="2"/>
<rect x="631" y="421" width="70" height="70" fill="#00BFFF" stroke="#474747" stroke-width="2"/>
<rect x="1" y="491" width="70" height="70" fill="#BD00FF" stroke="#474747" stroke-width="2"/>
<rect x="701" y="491" width="70" height="70" fill="#BD00FF" stroke="#474747" stroke-width="2"/>
<rect x="71" y="491" width="70" height="70" fill="#E189FF" stroke="#474747" stroke-width="2"/>
<rect x="771" y="491" width="70" height="70" fill="#E189FF" stroke="#474747" stroke-width="2"/>
<rect x="141" y="491" width="70" height="70" fill="#FF84DC" stroke="#474747" stroke-width="2"/>
<rect x="211" y="491" width="70" height="70" fill="#FF00B8" stroke="#474747" stroke-width="2"/>
<rect x="281" y="491" width="70" height="70" fill="#FF003D" stroke="#474747" stroke-width="2"/>
<rect x="351" y="491" width="70" height="70" fill="#FFA500" stroke="#474747" stroke-width="2"/>
<rect x="421" y="491" width="70" height="70" fill="#FFD600" stroke="#474747" stroke-width="2"/>
<rect x="491" y="491" width="70" height="70" fill="#32CD32" stroke="#474747" stroke-width="2"/>
<rect x="561" y="491" width="70" height="70" fill="#00BFFF" stroke="#474747" stroke-width="2"/>
<rect x="631" y="491" width="70" height="70" fill="#0075FF" stroke="#474747" stroke-width="2"/>
<rect x="1" y="561" width="70" height="70" fill="#E189FF" stroke="#474747" stroke-width="2"/>
<rect x="701" y="561" width="70" height="70" fill="#E189FF" stroke="#474747" stroke-width="2"/>
<rect x="71" y="561" width="70" height="70" fill="#FF84DC" stroke="#474747" stroke-width="2"/>
<rect x="771" y="561" width="70" height="70" fill="#FF84DC" stroke="#474747" stroke-width="2"/>
<rect x="141" y="561" width="70" height="70" fill="#FF00B8" stroke="#474747" stroke-width="2"/>
<rect x="211" y="561" width="70" height="70" fill="#FF003D" stroke="#474747" stroke-width="2"/>
<rect x="281" y="561" width="70" height="70" fill="#FFA500" stroke="#474747" stroke-width="2"/>
<rect x="351" y="561" width="70" height="70" fill="#FFD600" stroke="#474747" stroke-width="2"/>
<rect x="421" y="561" width="70" height="70" fill="#32CD32" stroke="#474747" stroke-width="2"/>
<rect x="491" y="561" width="70" height="70" fill="#00BFFF" stroke="#474747" stroke-width="2"/>
<rect x="561" y="561" width="70" height="70" fill="#0075FF" stroke="#474747" stroke-width="2"/>
<rect x="631" y="561" width="70" height="70" fill="#BD00FF" stroke="#474747" stroke-width="2"/>
<rect x="1" y="631" width="70" height="70" fill="#FF84DC" stroke="#474747" stroke-width="2"/>
<rect x="701" y="631" width="70" height="70" fill="#FF84DC" stroke="#474747" stroke-width="2"/>
<rect x="71" y="631" width="70" height="70" fill="#FF00B8" stroke="#474747" stroke-width="2"/>
<rect x="771" y="631" width="70" height="70" fill="#FF00B8" stroke="#474747" stroke-width="2"/>
<rect x="141" y="631" width="70" height="70" fill="#FF003D" stroke="#474747" stroke-width="2"/>
<rect x="211" y="631" width="70" height="70" fill="#FFA500" stroke="#474747" stroke-width="2"/>
<rect x="281" y="631" width="70" height="70" fill="#FFD600" stroke="#474747" stroke-width="2"/>
<rect x="351" y="631" width="70" height="70" fill="#32CD32" stroke="#474747" stroke-width="2"/>
<rect x="421" y="631" width="70" height="70" fill="#00BFFF" stroke="#474747" stroke-width="2"/>
<rect x="491" y="631" width="70" height="70" fill="#0075FF" stroke="#474747" stroke-width="2"/>
<rect x="561" y="631" width="70" height="70" fill="#BD00FF" stroke="#474747" stroke-width="2"/>
<rect x="631" y="631" width="70" height="70" fill="#E189FF" stroke="#474747" stroke-width="2"/>
</svg>
