<svg width="1920" height="527" viewBox="0 0 1920 527" fill="none" xmlns="http://www.w3.org/2000/svg">
<mask id="path-1-inside-1_1274_3022" fill="white">
<path fill-rule="evenodd" clip-rule="evenodd" d="M1920 527H1928H1962V274H1935.43C1985.81 251.881 2021 201.55 2021 143C2021 64.0233 1956.98 0 1878 0C1799.02 0 1735 64.0233 1735 143C1735 166.709 1740.77 189.07 1750.98 208.755C1727.27 212.366 1707.71 228.593 1699.36 250.372C1682.23 239.377 1661.86 233 1640 233C1583.32 233 1536.64 275.876 1530.65 330.967C1509.4 318.286 1484.55 311 1458 311C1410.17 311 1367.86 334.647 1342.13 370.888C1332.11 362.825 1319.37 358 1305.5 358C1285.45 358 1267.76 368.085 1257.22 383.459C1240.68 359.044 1212.71 343 1181 343C1147.42 343 1118.04 360.993 1101.98 387.864C1067.15 348.106 1016.01 323 959 323C907.124 323 860.103 343.79 825.816 377.493C808.956 356.464 783.05 343 754 343C722.288 343 694.324 359.044 677.782 383.459C667.241 368.085 649.548 358 629.5 358C615.633 358 602.892 362.825 592.866 370.888C567.136 334.647 524.83 311 477 311C450.451 311 425.604 318.286 404.349 330.967C398.356 275.876 351.685 233 295 233C273.353 233 253.166 239.253 236.148 250.051C230.826 232.653 214.641 220 195.5 220C193.208 220 190.958 220.182 188.764 220.531C192.179 207.764 194 194.344 194 180.5C194 95.172 124.828 26 39.5 26C-45.828 26 -115 95.172 -115 180.5C-115 242.02 -79.0437 295.141 -27 319.996V527H0H355.782H598.218H754H769.508H1148.49H1181H1336.78H1579.22H1920Z"/>
</mask>
<path fill-rule="evenodd" clip-rule="evenodd" d="M1920 527H1928H1962V274H1935.43C1985.81 251.881 2021 201.55 2021 143C2021 64.0233 1956.98 0 1878 0C1799.02 0 1735 64.0233 1735 143C1735 166.709 1740.77 189.07 1750.98 208.755C1727.27 212.366 1707.71 228.593 1699.36 250.372C1682.23 239.377 1661.86 233 1640 233C1583.32 233 1536.64 275.876 1530.65 330.967C1509.4 318.286 1484.55 311 1458 311C1410.17 311 1367.86 334.647 1342.13 370.888C1332.11 362.825 1319.37 358 1305.5 358C1285.45 358 1267.76 368.085 1257.22 383.459C1240.68 359.044 1212.71 343 1181 343C1147.42 343 1118.04 360.993 1101.98 387.864C1067.15 348.106 1016.01 323 959 323C907.124 323 860.103 343.79 825.816 377.493C808.956 356.464 783.05 343 754 343C722.288 343 694.324 359.044 677.782 383.459C667.241 368.085 649.548 358 629.5 358C615.633 358 602.892 362.825 592.866 370.888C567.136 334.647 524.83 311 477 311C450.451 311 425.604 318.286 404.349 330.967C398.356 275.876 351.685 233 295 233C273.353 233 253.166 239.253 236.148 250.051C230.826 232.653 214.641 220 195.5 220C193.208 220 190.958 220.182 188.764 220.531C192.179 207.764 194 194.344 194 180.5C194 95.172 124.828 26 39.5 26C-45.828 26 -115 95.172 -115 180.5C-115 242.02 -79.0437 295.141 -27 319.996V527H0H355.782H598.218H754H769.508H1148.49H1181H1336.78H1579.22H1920Z" fill="#FBF9FF"/>
<path d="M1962 527V531H1966V527H1962ZM1962 274H1966V270H1962V274ZM1935.43 274L1933.82 270.337L1935.43 278V274ZM1750.98 208.755L1751.58 212.71L1757.1 211.869L1754.53 206.914L1750.98 208.755ZM1699.36 250.372L1697.19 253.738L1701.33 256.394L1703.09 251.804L1699.36 250.372ZM1530.65 330.967L1528.6 334.402L1533.95 337.595L1534.63 331.399L1530.65 330.967ZM1342.13 370.888L1339.63 374.005L1342.94 376.667L1345.4 373.204L1342.13 370.888ZM1257.22 383.459L1253.91 385.702L1257.2 390.561L1260.52 385.721L1257.22 383.459ZM1101.98 387.864L1098.97 390.5L1102.59 394.635L1105.41 389.917L1101.98 387.864ZM825.816 377.493L822.695 379.995L825.464 383.448L828.62 380.346L825.816 377.493ZM677.782 383.459L674.483 385.721L677.802 390.561L681.094 385.702L677.782 383.459ZM592.866 370.888L589.604 373.204L592.063 376.667L595.373 374.005L592.866 370.888ZM404.349 330.967L400.373 331.399L401.047 337.595L406.399 334.402L404.349 330.967ZM236.148 250.051L232.323 251.221L233.858 256.241L238.291 253.429L236.148 250.051ZM188.764 220.531L184.899 219.497L183.307 225.45L189.393 224.481L188.764 220.531ZM-27 319.996H-23V317.473L-25.2762 316.386L-27 319.996ZM-27 527H-31V531H-27V527ZM1928 523H1920V531H1928V523ZM1962 523H1928V531H1962V523ZM1958 274V527H1966V274H1958ZM1935.43 278H1962V270H1935.43V278ZM2017 143C2017 199.906 1982.8 248.833 1933.82 270.337L1937.04 277.663C1988.82 254.928 2025 203.194 2025 143H2017ZM1878 4C1954.77 4 2017 66.2324 2017 143H2025C2025 61.8141 1959.19 -4 1878 -4V4ZM1739 143C1739 66.2324 1801.23 4 1878 4V-4C1796.81 -4 1731 61.8141 1731 143H1739ZM1754.53 206.914C1744.61 187.783 1739 166.052 1739 143H1731C1731 167.365 1736.93 190.356 1747.43 210.597L1754.53 206.914ZM1703.09 251.804C1710.94 231.342 1729.32 216.1 1751.58 212.71L1750.38 204.801C1725.22 208.632 1704.48 225.844 1695.62 248.94L1703.09 251.804ZM1640 237C1661.07 237 1680.7 243.144 1697.19 253.738L1701.52 247.006C1683.77 235.609 1662.65 229 1640 229V237ZM1534.63 331.399C1540.4 278.317 1585.38 237 1640 237V229C1581.25 229 1532.89 273.436 1526.67 330.534L1534.63 331.399ZM1458 315C1483.81 315 1507.95 322.08 1528.6 334.402L1532.7 327.532C1510.84 314.491 1485.29 307 1458 307V315ZM1345.4 373.204C1370.41 337.974 1411.52 315 1458 315V307C1408.82 307 1365.32 331.32 1338.87 368.573L1345.4 373.204ZM1305.5 362C1318.42 362 1330.29 366.493 1339.63 374.005L1344.64 367.771C1333.93 359.157 1320.31 354 1305.5 354V362ZM1260.52 385.721C1270.34 371.388 1286.83 362 1305.5 362V354C1284.08 354 1265.17 364.782 1253.92 381.197L1260.52 385.721ZM1181 347C1211.33 347 1238.08 362.34 1253.91 385.702L1260.53 381.215C1243.27 355.749 1214.09 339 1181 339V347ZM1105.41 389.917C1120.78 364.203 1148.88 347 1181 347V339C1145.95 339 1115.3 357.783 1098.54 385.812L1105.41 389.917ZM959 327C1014.81 327 1064.87 351.572 1098.97 390.5L1104.98 385.229C1069.43 344.64 1017.21 319 959 319V327ZM828.62 380.346C862.19 347.348 908.215 327 959 327V319C906.033 319 858.017 340.232 823.012 374.641L828.62 380.346ZM754 347C781.785 347 806.561 359.873 822.695 379.995L828.937 374.991C811.35 353.056 784.315 339 754 339V347ZM681.094 385.702C696.923 362.34 723.671 347 754 347V339C720.906 339 691.725 355.749 674.471 381.215L681.094 385.702ZM629.5 362C648.174 362 664.656 371.388 674.483 385.721L681.081 381.197C669.826 364.782 650.923 354 629.5 354V362ZM595.373 374.005C604.714 366.493 616.577 362 629.5 362V354C614.688 354 601.07 359.157 590.359 367.771L595.373 374.005ZM477 315C523.479 315 564.592 337.974 589.604 373.204L596.127 368.573C569.68 331.32 526.18 307 477 307V315ZM406.399 334.402C427.051 322.08 451.193 315 477 315V307C449.71 307 424.157 314.491 402.3 327.532L406.399 334.402ZM295 237C349.621 237 394.597 278.317 400.373 331.399L408.326 330.534C402.114 273.436 353.749 229 295 229V237ZM238.291 253.429C254.687 243.025 274.134 237 295 237V229C272.572 229 251.645 235.481 234.005 246.674L238.291 253.429ZM195.5 224C212.833 224 227.501 235.457 232.323 251.221L239.973 248.881C234.151 229.849 216.448 216 195.5 216V224ZM189.393 224.481C191.379 224.165 193.419 224 195.5 224V216C192.996 216 190.536 216.198 188.135 216.581L189.393 224.481ZM190 180.5C190 193.992 188.226 207.064 184.899 219.497L192.628 221.565C196.133 208.463 198 194.697 198 180.5H190ZM39.5 30C122.619 30 190 97.3811 190 180.5H198C198 92.9629 127.037 22 39.5 22V30ZM-111 180.5C-111 97.3811 -43.6189 30 39.5 30V22C-48.0371 22 -119 92.9629 -119 180.5H-111ZM-25.2762 316.386C-75.9818 292.171 -111 240.421 -111 180.5H-119C-119 243.618 -82.1056 298.112 -28.7238 323.605L-25.2762 316.386ZM-23 527V319.996H-31V527H-23ZM0 523H-27V531H0V523ZM0 531H355.782V523H0V531ZM355.782 531H598.218V523H355.782V531ZM598.218 531H754V523H598.218V531ZM754 531H769.508V523H754V531ZM769.508 531H1148.49V523H769.508V531ZM1148.49 531H1181V523H1148.49V531ZM1181 531H1336.78V523H1181V531ZM1336.78 531H1579.22V523H1336.78V531ZM1579.22 531H1920V523H1579.22V531Z" fill="#474747" mask="url(#path-1-inside-1_1274_3022)"/>
<mask id="path-3-inside-2_1274_3022" fill="white">
<path fill-rule="evenodd" clip-rule="evenodd" d="M189.698 249.439C189.837 249.348 189.976 249.256 190.114 249.162C203.131 240.312 206.509 222.586 197.66 209.569C188.811 196.552 171.084 193.174 158.067 202.023C157.929 202.117 157.792 202.212 157.656 202.308L189.698 249.439Z"/>
</mask>
<path fill-rule="evenodd" clip-rule="evenodd" d="M189.698 249.439C189.837 249.348 189.976 249.256 190.114 249.162C203.131 240.312 206.509 222.586 197.66 209.569C188.811 196.552 171.084 193.174 158.067 202.023C157.929 202.117 157.792 202.212 157.656 202.308L189.698 249.439Z" fill="#FBF9FF"/>
<path d="M189.698 249.439L186.39 251.688L188.6 254.94L191.889 252.785L189.698 249.439ZM157.656 202.308L155.351 199.039L152.138 201.305L154.348 204.557L157.656 202.308ZM187.865 245.854C187.746 245.935 187.626 246.014 187.506 246.093L191.889 252.785C192.048 252.682 192.205 252.576 192.363 252.47L187.865 245.854ZM194.352 211.818C201.959 223.008 199.055 238.246 187.865 245.854L192.363 252.47C207.206 242.378 211.059 222.164 200.968 207.32L194.352 211.818ZM160.316 205.331C171.506 197.724 186.745 200.628 194.352 211.818L200.968 207.32C190.876 192.477 170.662 188.624 155.819 198.715L160.316 205.331ZM159.962 205.577C160.079 205.494 160.197 205.412 160.316 205.331L155.819 198.715C155.662 198.822 155.506 198.93 155.351 199.039L159.962 205.577ZM154.348 204.557L186.39 251.688L193.006 247.19L160.964 200.059L154.348 204.557Z" fill="#474747" mask="url(#path-3-inside-2_1274_3022)"/>
<rect x="163.278" y="198.481" width="57" height="8.80025" transform="rotate(55.7909 163.278 198.481)" fill="#FBF9FF"/>
<mask id="path-6-inside-3_1274_3022" fill="white">
<path fill-rule="evenodd" clip-rule="evenodd" d="M438.652 374.272C438.715 374.025 438.776 373.777 438.835 373.528C444.372 350.069 429.842 326.562 406.382 321.025C382.923 315.488 359.416 330.018 353.879 353.478C353.821 353.727 353.764 353.976 353.71 354.224L438.652 374.272Z"/>
</mask>
<path fill-rule="evenodd" clip-rule="evenodd" d="M438.652 374.272C438.715 374.025 438.776 373.777 438.835 373.528C444.372 350.069 429.842 326.562 406.382 321.025C382.923 315.488 359.416 330.018 353.879 353.478C353.821 353.727 353.764 353.976 353.71 354.224L438.652 374.272Z" fill="#FBF9FF"/>
<path d="M438.652 374.272L437.734 378.165L441.56 379.068L442.529 375.258L438.652 374.272ZM353.71 354.224L349.802 353.373L348.964 357.214L352.791 358.117L353.71 354.224ZM434.942 372.61C434.888 372.836 434.833 373.062 434.776 373.286L442.529 375.258C442.597 374.989 442.664 374.718 442.728 374.447L434.942 372.61ZM405.464 324.918C426.773 329.948 439.971 351.3 434.942 372.61L442.728 374.447C448.772 348.837 432.911 323.177 407.301 317.132L405.464 324.918ZM357.772 354.396C362.802 333.087 384.154 319.889 405.464 324.918L407.301 317.132C381.691 311.088 356.031 326.949 349.986 352.559L357.772 354.396ZM357.618 355.076C357.667 354.85 357.719 354.623 357.772 354.396L349.986 352.559C349.922 352.83 349.861 353.101 349.802 353.373L357.618 355.076ZM352.791 358.117L437.734 378.165L439.571 370.379L354.629 350.331L352.791 358.117Z" fill="#474747" mask="url(#path-6-inside-3_1274_3022)"/>
<rect x="356.096" y="344.087" width="87.2894" height="13.4766" transform="rotate(13.2796 356.096 344.087)" fill="#FBF9FF"/>
<path fill-rule="evenodd" clip-rule="evenodd" d="M637.442 452.156C637.412 451.903 637.38 451.649 637.346 451.396C634.119 427.509 612.139 410.76 588.252 413.986C564.365 417.213 547.616 439.193 550.842 463.08C550.876 463.334 550.913 463.586 550.951 463.838L637.442 452.156Z" fill="#F3EBFF"/>
<rect x="549.551" y="453.519" width="87.2894" height="13.4766" transform="rotate(-7.69253 549.551 453.519)" fill="#F3EBFF"/>
<path fill-rule="evenodd" clip-rule="evenodd" d="M587.457 479.996C587.54 479.669 587.621 479.339 587.699 479.009C595.05 447.865 575.761 416.659 544.617 409.309C513.473 401.959 482.268 421.247 474.917 452.391C474.839 452.721 474.764 453.052 474.692 453.382L587.457 479.996Z" fill="#F3EBFF"/>
<rect x="480.53" y="441.322" width="103.851" height="16.0336" transform="rotate(13.2796 480.53 441.322)" fill="#F3EBFF"/>
<mask id="path-13-inside-4_1274_3022" fill="white">
<path fill-rule="evenodd" clip-rule="evenodd" d="M642.943 465.918C642.913 465.665 642.881 465.411 642.847 465.158C639.62 441.271 617.64 424.522 593.753 427.748C569.865 430.975 553.116 452.955 556.343 476.842C556.377 477.096 556.413 477.348 556.452 477.6L642.943 465.918Z"/>
</mask>
<path fill-rule="evenodd" clip-rule="evenodd" d="M642.943 465.918C642.913 465.665 642.881 465.411 642.847 465.158C639.62 441.271 617.64 424.522 593.753 427.748C569.865 430.975 553.116 452.955 556.343 476.842C556.377 477.096 556.413 477.348 556.452 477.6L642.943 465.918Z" fill="#FBF9FF"/>
<path d="M642.943 465.918L643.478 469.882L647.375 469.355L646.915 465.45L642.943 465.918ZM556.452 477.6L552.498 478.204L553.091 482.09L556.987 481.564L556.452 477.6ZM638.883 465.693C638.914 465.924 638.943 466.155 638.97 466.385L646.915 465.45C646.883 465.175 646.848 464.899 646.811 464.623L638.883 465.693ZM594.288 431.712C615.986 428.781 635.952 443.995 638.883 465.693L646.811 464.623C643.289 438.546 619.294 420.262 593.217 423.784L594.288 431.712ZM560.307 476.307C557.376 454.609 572.59 434.643 594.288 431.712L593.217 423.784C567.141 427.306 548.857 451.301 552.379 477.378L560.307 476.307ZM560.406 476.997C560.371 476.767 560.338 476.538 560.307 476.307L552.379 477.378C552.416 477.654 552.456 477.929 552.498 478.204L560.406 476.997ZM556.987 481.564L643.478 469.882L642.407 461.954L555.916 473.636L556.987 481.564Z" fill="#474747" mask="url(#path-13-inside-4_1274_3022)"/>
<rect x="555.051" y="467.281" width="87.2894" height="13.4766" transform="rotate(-7.69253 555.051 467.281)" fill="#FBF9FF"/>
<mask id="path-16-inside-5_1274_3022" fill="white">
<path fill-rule="evenodd" clip-rule="evenodd" d="M578.334 489.996C578.414 489.681 578.491 489.364 578.566 489.046C585.639 459.08 567.08 429.054 537.113 421.982C507.147 414.909 477.121 433.468 470.049 463.435C469.974 463.753 469.901 464.071 469.832 464.389L578.334 489.996Z"/>
</mask>
<path fill-rule="evenodd" clip-rule="evenodd" d="M578.334 489.996C578.414 489.681 578.491 489.364 578.566 489.046C585.639 459.08 567.08 429.054 537.113 421.982C507.147 414.909 477.121 433.468 470.049 463.435C469.974 463.753 469.901 464.071 469.832 464.389L578.334 489.996Z" fill="#FBF9FF"/>
<path d="M578.334 489.996L577.415 493.889L581.241 494.793L582.21 490.982L578.334 489.996ZM469.832 464.389L465.924 463.537L465.087 467.378L468.913 468.282L469.832 464.389ZM574.673 488.128C574.604 488.423 574.531 488.718 574.457 489.011L582.21 490.982C582.296 490.644 582.379 490.305 582.459 489.965L574.673 488.128ZM536.195 425.875C564.011 432.44 581.238 460.311 574.673 488.128L582.459 489.965C590.039 457.849 570.149 425.669 538.032 418.089L536.195 425.875ZM473.942 464.353C480.507 436.537 508.378 419.31 536.195 425.875L538.032 418.089C505.916 410.509 473.736 430.399 466.156 462.516L473.942 464.353ZM473.74 465.24C473.805 464.945 473.872 464.649 473.942 464.353L466.156 462.516C466.075 462.856 465.998 463.196 465.924 463.537L473.74 465.24ZM468.913 468.282L577.415 493.889L579.252 486.103L470.751 460.495L468.913 468.282Z" fill="#474747" mask="url(#path-16-inside-5_1274_3022)"/>
<rect x="472.88" y="451.44" width="111.499" height="17.2144" transform="rotate(13.2796 472.88 451.44)" fill="#FBF9FF"/>
<mask id="path-19-inside-6_1274_3022" fill="white">
<path fill-rule="evenodd" clip-rule="evenodd" d="M1166.61 456.653C1166.65 456.241 1166.69 455.828 1166.72 455.414C1169.7 416.411 1140.5 382.376 1101.49 379.396C1062.49 376.416 1028.45 405.619 1025.47 444.622C1025.44 445.036 1025.41 445.449 1025.39 445.862L1166.61 456.653Z"/>
</mask>
<path fill-rule="evenodd" clip-rule="evenodd" d="M1166.61 456.653C1166.65 456.241 1166.69 455.828 1166.72 455.414C1169.7 416.411 1140.5 382.376 1101.49 379.396C1062.49 376.416 1028.45 405.619 1025.47 444.622C1025.44 445.036 1025.41 445.449 1025.39 445.862L1166.61 456.653Z" fill="#FBF9FF"/>
<path d="M1166.61 456.653L1166.31 460.641L1170.23 460.941L1170.6 457.026L1166.61 456.653ZM1025.39 445.862L1021.4 445.626L1021.16 449.551L1025.08 449.85L1025.39 445.862ZM1162.73 455.11C1162.7 455.501 1162.67 455.891 1162.63 456.279L1170.6 457.026C1170.64 456.592 1170.67 456.156 1170.71 455.719L1162.73 455.11ZM1101.19 383.385C1137.99 386.196 1165.54 418.309 1162.73 455.11L1170.71 455.719C1173.85 414.513 1143 378.556 1101.8 375.408L1101.19 383.385ZM1029.46 444.927C1032.27 408.126 1064.39 380.573 1101.19 383.385L1101.8 375.408C1060.59 372.259 1024.63 403.111 1021.49 444.317L1029.46 444.927ZM1029.38 446.098C1029.41 445.708 1029.43 445.318 1029.46 444.927L1021.49 444.317C1021.45 444.754 1021.42 445.19 1021.4 445.626L1029.38 446.098ZM1025.08 449.85L1166.31 460.641L1166.92 452.664L1025.69 441.874L1025.08 449.85Z" fill="#474747" mask="url(#path-19-inside-6_1274_3022)"/>
<rect x="1026.67" y="429.01" width="141.656" height="21.8703" transform="rotate(4.36942 1026.67 429.01)" fill="#FBF9FF"/>
<mask id="path-22-inside-7_1274_3022" fill="white">
<path fill-rule="evenodd" clip-rule="evenodd" d="M1588.29 349.428C1588.23 349.195 1588.17 348.962 1588.1 348.729C1582.23 326.788 1559.67 313.766 1537.73 319.646C1515.79 325.525 1502.77 348.078 1508.65 370.02C1508.71 370.253 1508.77 370.485 1508.84 370.716L1588.29 349.428Z"/>
</mask>
<path fill-rule="evenodd" clip-rule="evenodd" d="M1588.29 349.428C1588.23 349.195 1588.17 348.962 1588.1 348.729C1582.23 326.788 1559.67 313.766 1537.73 319.646C1515.79 325.525 1502.77 348.078 1508.65 370.02C1508.71 370.253 1508.77 370.485 1508.84 370.716L1588.29 349.428Z" fill="#FBF9FF"/>
<path d="M1588.29 349.428L1589.32 353.292L1593.12 352.274L1592.17 348.459L1588.29 349.428ZM1508.84 370.716L1504.99 371.817L1506.08 375.597L1509.87 374.579L1508.84 370.716ZM1584.24 349.765C1584.3 349.975 1584.35 350.186 1584.4 350.397L1592.17 348.459C1592.1 348.204 1592.04 347.949 1591.97 347.694L1584.24 349.765ZM1538.77 323.509C1558.57 318.202 1578.93 329.957 1584.24 349.765L1591.97 347.694C1585.52 323.618 1560.77 309.331 1536.69 315.782L1538.77 323.509ZM1512.51 368.985C1507.2 349.177 1518.96 328.817 1538.77 323.509L1536.69 315.782C1512.62 322.233 1498.33 346.98 1504.78 371.056L1512.51 368.985ZM1512.68 369.614C1512.62 369.405 1512.57 369.196 1512.51 368.985L1504.78 371.056C1504.85 371.311 1504.92 371.564 1504.99 371.817L1512.68 369.614ZM1509.87 374.579L1589.32 353.292L1587.25 345.564L1507.8 366.852L1509.87 374.579Z" fill="#474747" mask="url(#path-22-inside-7_1274_3022)"/>
<rect x="1506.29" y="361.237" width="82.2618" height="12.7004" transform="rotate(-15 1506.29 361.237)" fill="#FBF9FF"/>
<path fill-rule="evenodd" clip-rule="evenodd" d="M2038.36 299.36C2038.19 298.667 2038.01 297.974 2037.83 297.281C2020.32 231.956 1953.18 193.189 1887.85 210.693C1822.53 228.197 1783.76 295.343 1801.26 360.668C1801.45 361.361 1801.64 362.05 1801.84 362.737L2038.36 299.36Z" fill="#F3EBFF"/>
<rect x="1794.26" y="334.519" width="244.907" height="37.8113" transform="rotate(-15 1794.26 334.519)" fill="#F3EBFF"/>
<path fill-rule="evenodd" clip-rule="evenodd" d="M1847.52 360.283C1847.44 359.951 1847.35 359.62 1847.27 359.289C1838.9 328.054 1806.79 309.518 1775.56 317.888C1744.32 326.257 1725.79 358.362 1734.15 389.597C1734.24 389.928 1734.33 390.258 1734.43 390.586L1847.52 360.283Z" fill="#F3EBFF"/>
<rect x="1730.8" y="377.094" width="117.1" height="18.0792" transform="rotate(-15 1730.8 377.094)" fill="#F3EBFF"/>
<mask id="path-29-inside-8_1274_3022" fill="white">
<path fill-rule="evenodd" clip-rule="evenodd" d="M2056.66 323.031C2056.48 322.338 2056.3 321.645 2056.12 320.952C2038.61 255.627 1971.47 216.861 1906.14 234.364C1840.82 251.868 1802.05 319.014 1819.56 384.339C1819.74 385.032 1819.93 385.721 1820.13 386.408L2056.66 323.031Z"/>
</mask>
<path fill-rule="evenodd" clip-rule="evenodd" d="M2056.66 323.031C2056.48 322.338 2056.3 321.645 2056.12 320.952C2038.61 255.627 1971.47 216.861 1906.14 234.364C1840.82 251.868 1802.05 319.014 1819.56 384.339C1819.74 385.032 1819.93 385.721 1820.13 386.408L2056.66 323.031Z" fill="#FBF9FF"/>
<path d="M2056.66 323.031L2057.69 326.895L2061.49 325.877L2060.54 322.062L2056.66 323.031ZM1820.13 386.408L1816.28 387.51L1817.37 391.29L1821.16 390.272L1820.13 386.408ZM2052.25 321.987C2052.43 322.658 2052.61 323.329 2052.77 324L2060.54 322.062C2060.36 321.347 2060.17 320.632 2059.98 319.917L2052.25 321.987ZM1907.18 238.228C1970.37 221.296 2035.32 258.796 2052.25 321.987L2059.98 319.917C2041.91 252.458 1972.57 212.425 1905.11 230.501L1907.18 238.228ZM1823.42 383.303C1806.49 320.112 1843.99 255.16 1907.18 238.228L1905.11 230.501C1837.65 248.576 1797.62 317.915 1815.69 385.374L1823.42 383.303ZM1823.97 385.307C1823.78 384.642 1823.6 383.974 1823.42 383.303L1815.69 385.374C1815.88 386.089 1816.08 386.801 1816.28 387.51L1823.97 385.307ZM1821.16 390.272L2057.69 326.895L2055.62 319.167L1819.09 382.544L1821.16 390.272Z" fill="#474747" mask="url(#path-29-inside-8_1274_3022)"/>
<rect x="1812.55" y="358.19" width="244.907" height="37.8113" transform="rotate(-15 1812.55 358.19)" fill="#FBF9FF"/>
<mask id="path-32-inside-9_1274_3022" fill="white">
<path fill-rule="evenodd" clip-rule="evenodd" d="M1851.83 380.726C1851.74 380.395 1851.66 380.063 1851.57 379.732C1843.2 348.497 1811.09 329.961 1779.86 338.331C1748.63 346.7 1730.09 378.805 1738.46 410.04C1738.55 410.371 1738.64 410.701 1738.73 411.029L1851.83 380.726Z"/>
</mask>
<path fill-rule="evenodd" clip-rule="evenodd" d="M1851.83 380.726C1851.74 380.395 1851.66 380.063 1851.57 379.732C1843.2 348.497 1811.09 329.961 1779.86 338.331C1748.63 346.7 1730.09 378.805 1738.46 410.04C1738.55 410.371 1738.64 410.701 1738.73 411.029L1851.83 380.726Z" fill="#FBF9FF"/>
<path d="M1851.83 380.726L1852.86 384.59L1856.66 383.572L1855.71 379.757L1851.83 380.726ZM1738.73 411.029L1734.89 412.131L1735.97 415.911L1739.77 414.893L1738.73 411.029ZM1847.71 380.767C1847.79 381.076 1847.87 381.386 1847.95 381.695L1855.71 379.757C1855.62 379.404 1855.53 379.05 1855.43 378.697L1847.71 380.767ZM1780.9 342.194C1810 334.397 1839.91 351.667 1847.71 380.767L1855.43 378.697C1846.49 345.328 1812.19 325.526 1778.82 334.467L1780.9 342.194ZM1742.32 409.005C1734.53 379.904 1751.79 349.992 1780.9 342.194L1778.82 334.467C1745.46 343.408 1725.65 377.707 1734.6 411.075L1742.32 409.005ZM1742.58 409.928C1742.49 409.621 1742.41 409.314 1742.32 409.005L1734.6 411.075C1734.69 411.428 1734.79 411.78 1734.89 412.131L1742.58 409.928ZM1739.77 414.893L1852.86 384.59L1850.79 376.862L1737.7 407.166L1739.77 414.893Z" fill="#474747" mask="url(#path-32-inside-9_1274_3022)"/>
<rect x="1735.11" y="397.537" width="117.1" height="18.0792" transform="rotate(-15 1735.11 397.537)" fill="#FBF9FF"/>
<path fill-rule="evenodd" clip-rule="evenodd" d="M1440.19 435.969C1440.12 435.681 1440.04 435.393 1439.96 435.105C1432.69 407.954 1404.78 391.842 1377.63 399.117C1350.48 406.392 1334.37 434.299 1341.64 461.45C1341.72 461.738 1341.8 462.025 1341.88 462.31L1440.19 435.969Z" fill="#F3EBFF"/>
<rect x="1338.73" y="450.582" width="101.789" height="15.7153" transform="rotate(-15 1338.73 450.582)" fill="#F3EBFF"/>
<path fill-rule="evenodd" clip-rule="evenodd" d="M1380.65 452.012C1380.59 451.817 1380.52 451.623 1380.45 451.429C1373.76 433.109 1353.49 423.68 1335.17 430.366C1316.85 437.053 1307.42 457.325 1314.11 475.644C1314.18 475.838 1314.25 476.032 1314.33 476.224L1380.65 452.012Z" fill="#F3EBFF"/>
<rect x="1314.92" y="475.281" width="70.6212" height="10.9032" transform="rotate(-20.0531 1314.92 475.281)" fill="#F3EBFF"/>
<mask id="path-39-inside-10_1274_3022" fill="white">
<path fill-rule="evenodd" clip-rule="evenodd" d="M1444.89 443.149C1444.82 442.879 1444.75 442.609 1444.68 442.338C1437.85 416.851 1411.65 401.725 1386.17 408.554C1360.68 415.384 1345.55 441.582 1352.38 467.07C1352.45 467.34 1352.53 467.609 1352.61 467.877L1444.89 443.149Z"/>
</mask>
<path fill-rule="evenodd" clip-rule="evenodd" d="M1444.89 443.149C1444.82 442.879 1444.75 442.609 1444.68 442.338C1437.85 416.851 1411.65 401.725 1386.17 408.554C1360.68 415.384 1345.55 441.582 1352.38 467.07C1352.45 467.34 1352.53 467.609 1352.61 467.877L1444.89 443.149Z" fill="#FBF9FF"/>
<path d="M1444.89 443.149L1445.93 447.013L1449.72 445.996L1448.77 442.181L1444.89 443.149ZM1352.61 467.877L1348.76 468.979L1349.84 472.759L1353.64 471.741L1352.61 467.877ZM1440.82 443.373C1440.88 443.622 1440.95 443.87 1441.01 444.118L1448.77 442.181C1448.7 441.888 1448.62 441.595 1448.55 441.303L1440.82 443.373ZM1387.2 412.418C1410.56 406.161 1434.56 420.02 1440.82 443.373L1448.55 441.303C1441.14 413.681 1412.75 397.29 1385.13 404.691L1387.2 412.418ZM1356.25 466.034C1349.99 442.681 1363.85 418.676 1387.2 412.418L1385.13 404.691C1357.51 412.092 1341.12 440.483 1348.52 468.105L1356.25 466.034ZM1356.45 466.776C1356.38 466.53 1356.31 466.283 1356.25 466.034L1348.52 468.105C1348.6 468.397 1348.68 468.689 1348.76 468.979L1356.45 466.776ZM1353.64 471.741L1445.93 447.013L1443.86 439.286L1351.57 464.013L1353.64 471.741Z" fill="#474747" mask="url(#path-39-inside-10_1274_3022)"/>
<rect x="1349.65" y="456.867" width="95.5549" height="14.7528" transform="rotate(-15 1349.65 456.867)" fill="#FBF9FF"/>
<mask id="path-42-inside-11_1274_3022" fill="white">
<path fill-rule="evenodd" clip-rule="evenodd" d="M1375.15 469.731C1375.1 469.561 1375.06 469.39 1375.01 469.219C1370.71 453.136 1354.17 443.592 1338.09 447.901C1322.01 452.211 1312.46 468.742 1316.77 484.825C1316.82 484.996 1316.87 485.166 1316.91 485.335L1375.15 469.731Z"/>
</mask>
<path fill-rule="evenodd" clip-rule="evenodd" d="M1375.15 469.731C1375.1 469.561 1375.06 469.39 1375.01 469.219C1370.71 453.136 1354.17 443.592 1338.09 447.901C1322.01 452.211 1312.46 468.742 1316.77 484.825C1316.82 484.996 1316.87 485.166 1316.91 485.335L1375.15 469.731Z" fill="#FBF9FF"/>
<path d="M1375.15 469.731L1376.18 473.595L1379.98 472.577L1379.03 468.763L1375.15 469.731ZM1316.91 485.335L1313.07 486.436L1314.15 490.216L1317.95 489.199L1316.91 485.335ZM1371.15 470.255C1371.19 470.403 1371.23 470.552 1371.27 470.7L1379.03 468.763C1378.98 468.57 1378.93 468.377 1378.88 468.184L1371.15 470.255ZM1339.13 451.765C1353.08 448.027 1367.41 456.306 1371.15 470.255L1378.88 468.184C1374 449.967 1355.27 439.156 1337.06 444.038L1339.13 451.765ZM1320.64 483.79C1316.9 469.841 1325.18 455.503 1339.13 451.765L1337.06 444.038C1318.84 448.919 1308.03 467.644 1312.91 485.861L1320.64 483.79ZM1320.76 484.233C1320.72 484.086 1320.68 483.939 1320.64 483.79L1312.91 485.861C1312.96 486.053 1313.01 486.245 1313.07 486.436L1320.76 484.233ZM1317.95 489.199L1376.18 473.595L1374.11 465.868L1315.88 481.471L1317.95 489.199Z" fill="#474747" mask="url(#path-42-inside-11_1274_3022)"/>
<rect x="1315.05" y="478.387" width="60.2966" height="9.30921" transform="rotate(-15 1315.05 478.387)" fill="#FBF9FF"/>
<path fill-rule="evenodd" clip-rule="evenodd" d="M112.588 363.916C112.734 363.342 112.875 362.767 113.011 362.189C125.867 307.716 92.1306 253.135 37.6577 240.278C-16.8151 227.422 -71.3962 261.159 -84.2526 315.632C-84.389 316.21 -84.5202 316.788 -84.6461 317.366L112.588 363.916Z" fill="#F3EBFF"/>
<rect x="-79.1066" y="293.827" width="202.683" height="31.2923" transform="rotate(13.2796 -79.1066 293.827)" fill="#F3EBFF"/>
<path fill-rule="evenodd" clip-rule="evenodd" d="M179.985 409.441C180.078 409.078 180.167 408.714 180.253 408.347C188.398 373.84 167.026 339.264 132.519 331.12C98.0114 322.976 63.4354 344.347 55.2912 378.855C55.2048 379.221 55.1217 379.587 55.0419 379.953L179.985 409.441Z" fill="#F3EBFF"/>
<rect x="58.5511" y="365.042" width="128.395" height="19.823" transform="rotate(13.2796 58.5511 365.042)" fill="#F3EBFF"/>
<mask id="path-49-inside-12_1274_3022" fill="white">
<path fill-rule="evenodd" clip-rule="evenodd" d="M102.23 391.126C102.381 390.528 102.528 389.929 102.671 389.326C116.066 332.567 80.9136 275.695 24.1545 262.299C-32.6047 248.904 -89.4766 284.056 -102.873 340.815C-103.015 341.418 -103.151 342.02 -103.283 342.622L102.23 391.126Z"/>
</mask>
<path fill-rule="evenodd" clip-rule="evenodd" d="M102.23 391.126C102.381 390.528 102.528 389.929 102.671 389.326C116.066 332.567 80.9136 275.695 24.1545 262.299C-32.6047 248.904 -89.4766 284.056 -102.873 340.815C-103.015 341.418 -103.151 342.02 -103.283 342.622L102.23 391.126Z" fill="#FBF9FF"/>
<path d="M102.23 391.126L101.311 395.019L105.137 395.922L106.106 392.111L102.23 391.126ZM-103.283 342.622L-107.191 341.77L-108.028 345.612L-104.201 346.515L-103.283 342.622ZM98.7775 388.408C98.6406 388.988 98.4991 389.565 98.3529 390.14L106.106 392.111C106.264 391.492 106.416 390.87 106.564 390.245L98.7775 388.408ZM23.2357 266.192C77.8447 279.081 111.666 333.799 98.7775 388.408L106.564 390.245C120.467 331.336 83.9825 272.31 25.0733 258.406L23.2357 266.192ZM-98.9795 341.734C-86.091 287.125 -31.3734 253.304 23.2357 266.192L25.0733 258.406C-33.8359 244.503 -92.8622 280.987 -106.766 339.897L-98.9795 341.734ZM-99.3743 343.474C-99.2479 342.894 -99.1164 342.314 -98.9795 341.734L-106.766 339.897C-106.913 340.521 -107.055 341.146 -107.191 341.77L-99.3743 343.474ZM-104.201 346.515L101.311 395.019L103.148 387.233L-102.364 338.729L-104.201 346.515Z" fill="#474747" mask="url(#path-49-inside-12_1274_3022)"/>
<rect x="-97.5105" y="318.096" width="211.19" height="32.6057" transform="rotate(13.2796 -97.5105 318.096)" fill="#FBF9FF"/>
<mask id="path-52-inside-13_1274_3022" fill="white">
<path fill-rule="evenodd" clip-rule="evenodd" d="M177.926 427.648C178.008 427.328 178.087 427.007 178.163 426.684C185.343 396.263 166.502 365.781 136.081 358.601C105.66 351.422 75.178 370.262 67.9982 400.684C67.9221 401.006 67.8488 401.329 67.7785 401.652L177.926 427.648Z"/>
</mask>
<path fill-rule="evenodd" clip-rule="evenodd" d="M177.926 427.648C178.008 427.328 178.087 427.007 178.163 426.684C185.343 396.263 166.502 365.781 136.081 358.601C105.66 351.422 75.178 370.262 67.9982 400.684C67.9221 401.006 67.8488 401.329 67.7785 401.652L177.926 427.648Z" fill="#FBF9FF"/>
<path d="M177.926 427.648L177.008 431.541L180.834 432.444L181.803 428.634L177.926 427.648ZM67.7785 401.652L63.8702 400.8L63.033 404.642L66.8597 405.545L67.7785 401.652ZM174.27 425.765C174.199 426.066 174.125 426.365 174.05 426.663L181.803 428.634C181.89 428.292 181.974 427.948 182.056 427.603L174.27 425.765ZM135.162 362.495C163.433 369.167 180.942 397.494 174.27 425.765L182.056 427.603C189.743 395.032 169.571 362.396 136.999 354.708L135.162 362.495ZM71.8913 401.602C78.5636 373.331 106.891 355.822 135.162 362.495L136.999 354.708C104.428 347.021 71.7924 367.194 64.1052 399.765L71.8913 401.602ZM71.6868 402.504C71.7522 402.203 71.8204 401.903 71.8913 401.602L64.1052 399.765C64.0238 400.11 63.9454 400.455 63.8702 400.8L71.6868 402.504ZM66.8597 405.545L177.008 431.541L178.845 423.755L68.6973 397.759L66.8597 405.545Z" fill="#474747" mask="url(#path-52-inside-13_1274_3022)"/>
<rect x="70.8721" y="388.506" width="113.191" height="17.4756" transform="rotate(13.2796 70.8721 388.506)" fill="#FBF9FF"/>
</svg>
